%TF.GenerationSoftware,KiCad,Pcbnew,(6.0.2)*%
%TF.CreationDate,2022-09-18T20:27:37+02:00*%
%TF.ProjectId,8-4GHzDSN_V2,382d3447-487a-4445-934e-5f56322e6b69,rev?*%
%TF.SameCoordinates,Original*%
%TF.FileFunction,Copper,L1,Top*%
%TF.FilePolarity,Positive*%
%FSLAX46Y46*%
G04 Gerber Fmt 4.6, Leading zero omitted, Abs format (unit mm)*
G04 Created by KiCad (PCBNEW (6.0.2)) date 2022-09-18 20:27:37*
%MOMM*%
%LPD*%
G01*
G04 APERTURE LIST*
G04 Aperture macros list*
%AMRoundRect*
0 Rectangle with rounded corners*
0 $1 Rounding radius*
0 $2 $3 $4 $5 $6 $7 $8 $9 X,Y pos of 4 corners*
0 Add a 4 corners polygon primitive as box body*
4,1,4,$2,$3,$4,$5,$6,$7,$8,$9,$2,$3,0*
0 Add four circle primitives for the rounded corners*
1,1,$1+$1,$2,$3*
1,1,$1+$1,$4,$5*
1,1,$1+$1,$6,$7*
1,1,$1+$1,$8,$9*
0 Add four rect primitives between the rounded corners*
20,1,$1+$1,$2,$3,$4,$5,0*
20,1,$1+$1,$4,$5,$6,$7,0*
20,1,$1+$1,$6,$7,$8,$9,0*
20,1,$1+$1,$8,$9,$2,$3,0*%
%AMFreePoly0*
4,1,22,0.500000,-0.750000,0.000000,-0.750000,0.000000,-0.745033,-0.079941,-0.743568,-0.215256,-0.701293,-0.333266,-0.622738,-0.424486,-0.514219,-0.481581,-0.384460,-0.499164,-0.250000,-0.500000,-0.250000,-0.500000,0.250000,-0.499164,0.250000,-0.499963,0.256109,-0.478152,0.396186,-0.417904,0.524511,-0.324060,0.630769,-0.204165,0.706417,-0.067858,0.745374,0.000000,0.744959,0.000000,0.750000,
0.500000,0.750000,0.500000,-0.750000,0.500000,-0.750000,$1*%
%AMFreePoly1*
4,1,20,0.000000,0.744959,0.073905,0.744508,0.209726,0.703889,0.328688,0.626782,0.421226,0.519385,0.479903,0.390333,0.500000,0.250000,0.500000,-0.250000,0.499851,-0.262216,0.476331,-0.402017,0.414519,-0.529596,0.319384,-0.634700,0.198574,-0.708877,0.061801,-0.746166,0.000000,-0.745033,0.000000,-0.750000,-0.500000,-0.750000,-0.500000,0.750000,0.000000,0.750000,0.000000,0.744959,
0.000000,0.744959,$1*%
%AMFreePoly2*
4,1,9,3.862500,-0.866500,0.737500,-0.866500,0.737500,-0.450000,-0.737500,-0.450000,-0.737500,0.450000,0.737500,0.450000,0.737500,0.866500,3.862500,0.866500,3.862500,-0.866500,3.862500,-0.866500,$1*%
G04 Aperture macros list end*
%TA.AperFunction,EtchedComponent*%
%ADD10C,0.150000*%
%TD*%
%TA.AperFunction,SMDPad,CuDef*%
%ADD11RoundRect,0.250000X0.450000X-0.350000X0.450000X0.350000X-0.450000X0.350000X-0.450000X-0.350000X0*%
%TD*%
%TA.AperFunction,SMDPad,CuDef*%
%ADD12RoundRect,0.250000X-0.337500X-0.475000X0.337500X-0.475000X0.337500X0.475000X-0.337500X0.475000X0*%
%TD*%
%TA.AperFunction,SMDPad,CuDef*%
%ADD13RoundRect,0.250000X0.337500X0.475000X-0.337500X0.475000X-0.337500X-0.475000X0.337500X-0.475000X0*%
%TD*%
%TA.AperFunction,SMDPad,CuDef*%
%ADD14RoundRect,0.062500X-0.062500X0.362500X-0.062500X-0.362500X0.062500X-0.362500X0.062500X0.362500X0*%
%TD*%
%TA.AperFunction,SMDPad,CuDef*%
%ADD15RoundRect,0.062500X-0.062500X0.312500X-0.062500X-0.312500X0.062500X-0.312500X0.062500X0.312500X0*%
%TD*%
%TA.AperFunction,SMDPad,CuDef*%
%ADD16RoundRect,0.062500X-0.312500X0.062500X-0.312500X-0.062500X0.312500X-0.062500X0.312500X0.062500X0*%
%TD*%
%TA.AperFunction,ComponentPad*%
%ADD17C,0.400000*%
%TD*%
%TA.AperFunction,SMDPad,CuDef*%
%ADD18R,0.250000X0.770000*%
%TD*%
%TA.AperFunction,SMDPad,CuDef*%
%ADD19RoundRect,0.237500X0.300000X0.237500X-0.300000X0.237500X-0.300000X-0.237500X0.300000X-0.237500X0*%
%TD*%
%TA.AperFunction,SMDPad,CuDef*%
%ADD20RoundRect,0.237500X-0.237500X0.300000X-0.237500X-0.300000X0.237500X-0.300000X0.237500X0.300000X0*%
%TD*%
%TA.AperFunction,SMDPad,CuDef*%
%ADD21FreePoly0,0.000000*%
%TD*%
%TA.AperFunction,SMDPad,CuDef*%
%ADD22FreePoly1,0.000000*%
%TD*%
%TA.AperFunction,SMDPad,CuDef*%
%ADD23RoundRect,0.250000X0.475000X-0.337500X0.475000X0.337500X-0.475000X0.337500X-0.475000X-0.337500X0*%
%TD*%
%TA.AperFunction,SMDPad,CuDef*%
%ADD24RoundRect,0.250000X-0.275000X-0.350000X0.275000X-0.350000X0.275000X0.350000X-0.275000X0.350000X0*%
%TD*%
%TA.AperFunction,SMDPad,CuDef*%
%ADD25R,4.000000X1.400000*%
%TD*%
%TA.AperFunction,ComponentPad*%
%ADD26R,4.000000X2.000000*%
%TD*%
%TA.AperFunction,SMDPad,CuDef*%
%ADD27R,1.500000X0.500000*%
%TD*%
%TA.AperFunction,SMDPad,CuDef*%
%ADD28RoundRect,0.250000X-0.250000X-1.250000X0.250000X-1.250000X0.250000X1.250000X-0.250000X1.250000X0*%
%TD*%
%TA.AperFunction,ComponentPad*%
%ADD29C,0.500000*%
%TD*%
%TA.AperFunction,SMDPad,CuDef*%
%ADD30R,4.000000X5.000000*%
%TD*%
%TA.AperFunction,SMDPad,CuDef*%
%ADD31RoundRect,0.250000X-0.475000X0.337500X-0.475000X-0.337500X0.475000X-0.337500X0.475000X0.337500X0*%
%TD*%
%TA.AperFunction,SMDPad,CuDef*%
%ADD32RoundRect,0.250000X-0.450000X0.350000X-0.450000X-0.350000X0.450000X-0.350000X0.450000X0.350000X0*%
%TD*%
%TA.AperFunction,SMDPad,CuDef*%
%ADD33RoundRect,0.237500X-0.300000X-0.237500X0.300000X-0.237500X0.300000X0.237500X-0.300000X0.237500X0*%
%TD*%
%TA.AperFunction,SMDPad,CuDef*%
%ADD34R,1.000000X0.600000*%
%TD*%
%TA.AperFunction,SMDPad,CuDef*%
%ADD35R,1.750000X1.000000*%
%TD*%
%TA.AperFunction,SMDPad,CuDef*%
%ADD36R,0.900000X1.300000*%
%TD*%
%TA.AperFunction,SMDPad,CuDef*%
%ADD37FreePoly2,90.000000*%
%TD*%
%TA.AperFunction,SMDPad,CuDef*%
%ADD38FreePoly0,90.000000*%
%TD*%
%TA.AperFunction,SMDPad,CuDef*%
%ADD39FreePoly1,90.000000*%
%TD*%
%TA.AperFunction,SMDPad,CuDef*%
%ADD40R,4.600000X1.100000*%
%TD*%
%TA.AperFunction,SMDPad,CuDef*%
%ADD41R,9.400000X10.800000*%
%TD*%
%TA.AperFunction,SMDPad,CuDef*%
%ADD42RoundRect,0.250000X0.350000X0.450000X-0.350000X0.450000X-0.350000X-0.450000X0.350000X-0.450000X0*%
%TD*%
%TA.AperFunction,SMDPad,CuDef*%
%ADD43RoundRect,0.150000X0.825000X0.150000X-0.825000X0.150000X-0.825000X-0.150000X0.825000X-0.150000X0*%
%TD*%
%TA.AperFunction,SMDPad,CuDef*%
%ADD44R,2.290000X3.000000*%
%TD*%
%TA.AperFunction,SMDPad,CuDef*%
%ADD45RoundRect,0.250000X-0.350000X0.275000X-0.350000X-0.275000X0.350000X-0.275000X0.350000X0.275000X0*%
%TD*%
%TA.AperFunction,SMDPad,CuDef*%
%ADD46RoundRect,0.100000X-0.100000X0.217500X-0.100000X-0.217500X0.100000X-0.217500X0.100000X0.217500X0*%
%TD*%
%TA.AperFunction,SMDPad,CuDef*%
%ADD47R,2.500000X1.800000*%
%TD*%
%TA.AperFunction,SMDPad,CuDef*%
%ADD48C,0.300000*%
%TD*%
%TA.AperFunction,SMDPad,CuDef*%
%ADD49RoundRect,0.250000X-0.325000X-0.450000X0.325000X-0.450000X0.325000X0.450000X-0.325000X0.450000X0*%
%TD*%
%TA.AperFunction,SMDPad,CuDef*%
%ADD50R,4.000000X1.300000*%
%TD*%
%TA.AperFunction,SMDPad,CuDef*%
%ADD51RoundRect,0.062500X0.375000X0.062500X-0.375000X0.062500X-0.375000X-0.062500X0.375000X-0.062500X0*%
%TD*%
%TA.AperFunction,SMDPad,CuDef*%
%ADD52RoundRect,0.062500X0.062500X0.375000X-0.062500X0.375000X-0.062500X-0.375000X0.062500X-0.375000X0*%
%TD*%
%TA.AperFunction,ComponentPad*%
%ADD53C,0.600000*%
%TD*%
%TA.AperFunction,SMDPad,CuDef*%
%ADD54R,3.600000X3.600000*%
%TD*%
%TA.AperFunction,SMDPad,CuDef*%
%ADD55R,1.400000X4.000000*%
%TD*%
%TA.AperFunction,ComponentPad*%
%ADD56R,2.000000X4.000000*%
%TD*%
%TA.AperFunction,SMDPad,CuDef*%
%ADD57RoundRect,0.237500X0.237500X-0.300000X0.237500X0.300000X-0.237500X0.300000X-0.237500X-0.300000X0*%
%TD*%
%TA.AperFunction,SMDPad,CuDef*%
%ADD58R,1.700000X0.650000*%
%TD*%
%TA.AperFunction,SMDPad,CuDef*%
%ADD59RoundRect,0.250000X-0.450000X0.325000X-0.450000X-0.325000X0.450000X-0.325000X0.450000X0.325000X0*%
%TD*%
%TA.AperFunction,ViaPad*%
%ADD60C,0.800000*%
%TD*%
%TA.AperFunction,Conductor*%
%ADD61C,1.000000*%
%TD*%
%TA.AperFunction,Conductor*%
%ADD62C,0.300000*%
%TD*%
%TA.AperFunction,Conductor*%
%ADD63C,0.250000*%
%TD*%
%TA.AperFunction,Conductor*%
%ADD64C,1.300000*%
%TD*%
%TA.AperFunction,Conductor*%
%ADD65C,0.200000*%
%TD*%
%TA.AperFunction,Conductor*%
%ADD66C,0.500000*%
%TD*%
%TA.AperFunction,Conductor*%
%ADD67C,0.450000*%
%TD*%
G04 APERTURE END LIST*
D10*
%TO.C,C7*%
X112500000Y-111187500D02*
X110534040Y-109810920D01*
X110534040Y-109810920D02*
X110380930Y-110060770D01*
X110380930Y-110060770D02*
X110259410Y-110327420D01*
X110259410Y-110327420D02*
X110171290Y-110606890D01*
X110171290Y-110606890D02*
X110117890Y-110895010D01*
X110117890Y-110895010D02*
X110100000Y-111187500D01*
X110100000Y-111187500D02*
X110117890Y-111479990D01*
X110117890Y-111479990D02*
X110171290Y-111768110D01*
X110171290Y-111768110D02*
X110259410Y-112047580D01*
X110259410Y-112047580D02*
X110380930Y-112314230D01*
X110380930Y-112314230D02*
X110534040Y-112564080D01*
X110534040Y-112564080D02*
X110716450Y-112793410D01*
X110716450Y-112793410D02*
X110925460Y-112998800D01*
X110925460Y-112998800D02*
X112500000Y-111187500D01*
X112500000Y-111187500D02*
X112500000Y-111187500D01*
G36*
X112500000Y-111187500D02*
G01*
X110925460Y-112998800D01*
X110716450Y-112793410D01*
X110534040Y-112564080D01*
X110380930Y-112314230D01*
X110259410Y-112047580D01*
X110171290Y-111768110D01*
X110117890Y-111479990D01*
X110100000Y-111187500D01*
X110117890Y-110895010D01*
X110171290Y-110606890D01*
X110259410Y-110327420D01*
X110380930Y-110060770D01*
X110534040Y-109810920D01*
X112500000Y-111187500D01*
G37*
X112500000Y-111187500D02*
X110925460Y-112998800D01*
X110716450Y-112793410D01*
X110534040Y-112564080D01*
X110380930Y-112314230D01*
X110259410Y-112047580D01*
X110171290Y-111768110D01*
X110117890Y-111479990D01*
X110100000Y-111187500D01*
X110117890Y-110895010D01*
X110171290Y-110606890D01*
X110259410Y-110327420D01*
X110380930Y-110060770D01*
X110534040Y-109810920D01*
X112500000Y-111187500D01*
%TD*%
D11*
%TO.P,R22,1*%
%TO.N,Net-(C35-Pad2)*%
X153600000Y-124900000D03*
%TO.P,R22,2*%
%TO.N,GNDREF*%
X153600000Y-122900000D03*
%TD*%
D12*
%TO.P,C14,1*%
%TO.N,Net-(C14-Pad1)*%
X130512500Y-117000000D03*
%TO.P,C14,2*%
%TO.N,Net-(C14-Pad2)*%
X132587500Y-117000000D03*
%TD*%
D13*
%TO.P,C40,1*%
%TO.N,Net-(C40-Pad1)*%
X141937500Y-119600000D03*
%TO.P,C40,2*%
%TO.N,Net-(C38-Pad1)*%
X139862500Y-119600000D03*
%TD*%
D11*
%TO.P,R3,1*%
%TO.N,Net-(C17-Pad1)*%
X139850000Y-116100000D03*
%TO.P,R3,2*%
%TO.N,Net-(L4-Pad2)*%
X139850000Y-114100000D03*
%TD*%
D14*
%TO.P,U11,1,GND*%
%TO.N,GNDREF*%
X131050000Y-118675000D03*
D15*
%TO.P,U11,2,IF*%
%TO.N,Net-(C14-Pad1)*%
X130550000Y-118625000D03*
%TO.P,U11,3,GND*%
%TO.N,GNDREF*%
X130050000Y-118625000D03*
D16*
%TO.P,U11,4,GND*%
X129550000Y-119500000D03*
%TO.P,U11,5,RF*%
%TO.N,Net-(U5-Pad2)*%
X129550000Y-120000000D03*
%TO.P,U11,6,GND*%
%TO.N,GNDREF*%
X129550000Y-120500000D03*
D15*
%TO.P,U11,7,EN*%
%TO.N,Net-(C15-Pad2)*%
X130050000Y-121375000D03*
%TO.P,U11,8,X2*%
X130550000Y-121375000D03*
%TO.P,U11,9,VCC*%
X131050000Y-121375000D03*
D16*
%TO.P,U11,10,GND*%
%TO.N,GNDREF*%
X131550000Y-120500000D03*
%TO.P,U11,11,LO*%
%TO.N,LO1*%
X131550000Y-120000000D03*
%TO.P,U11,12,GND*%
%TO.N,GNDREF*%
X131550000Y-119500000D03*
D17*
%TO.P,U11,13,GND*%
X130750000Y-120000000D03*
D18*
X130850000Y-120000000D03*
%TD*%
D19*
%TO.P,C25,1*%
%TO.N,Net-(C24-Pad1)*%
X141562500Y-129200000D03*
%TO.P,C25,2*%
%TO.N,GNDREF*%
X139837500Y-129200000D03*
%TD*%
D20*
%TO.P,C34,1*%
%TO.N,Net-(C27-Pad1)*%
X144400000Y-130637500D03*
%TO.P,C34,2*%
%TO.N,GNDREF*%
X144400000Y-132362500D03*
%TD*%
D21*
%TO.P,JP21,1,A*%
%TO.N,+3V3*%
X147350000Y-117000000D03*
D22*
%TO.P,JP21,2,B*%
%TO.N,Net-(C21-Pad1)*%
X148650000Y-117000000D03*
%TD*%
D13*
%TO.P,C22,1*%
%TO.N,Net-(C22-Pad1)*%
X141737500Y-123600000D03*
%TO.P,C22,2*%
%TO.N,GNDREF*%
X139662500Y-123600000D03*
%TD*%
%TO.P,C38,1*%
%TO.N,Net-(C38-Pad1)*%
X137237500Y-120800000D03*
%TO.P,C38,2*%
%TO.N,LO1*%
X135162500Y-120800000D03*
%TD*%
D23*
%TO.P,C6,1*%
%TO.N,GNDREF*%
X152102500Y-107457500D03*
%TO.P,C6,2*%
%TO.N,+3V3*%
X152102500Y-105382500D03*
%TD*%
D24*
%TO.P,L22,1,1*%
%TO.N,Net-(C40-Pad1)*%
X147150000Y-119300000D03*
%TO.P,L22,2,2*%
%TO.N,Net-(C21-Pad1)*%
X149450000Y-119300000D03*
%TD*%
D19*
%TO.P,C23,1*%
%TO.N,Net-(C22-Pad1)*%
X141762500Y-125400000D03*
%TO.P,C23,2*%
%TO.N,GNDREF*%
X140037500Y-125400000D03*
%TD*%
D25*
%TO.P,J3,1,In*%
%TO.N,Net-(C17-Pad2)*%
X157800000Y-112914000D03*
D26*
%TO.P,J3,2,Ext*%
%TO.N,GNDREF*%
X157800000Y-110628000D03*
X157800000Y-115200000D03*
%TD*%
D12*
%TO.P,C29,1*%
%TO.N,REF*%
X133362500Y-134400000D03*
%TO.P,C29,2*%
%TO.N,Net-(C29-Pad2)*%
X135437500Y-134400000D03*
%TD*%
D19*
%TO.P,C15,1*%
%TO.N,GNDREF*%
X131025000Y-124800000D03*
%TO.P,C15,2*%
%TO.N,Net-(C15-Pad2)*%
X129300000Y-124800000D03*
%TD*%
D27*
%TO.P,U1,1*%
%TO.N,Net-(C3-Pad2)*%
X109600000Y-120000000D03*
D28*
%TO.P,U1,2,GND*%
%TO.N,GNDREF*%
X111100000Y-122000000D03*
D29*
X111350000Y-121500000D03*
X111350000Y-121000000D03*
X110850000Y-121000000D03*
X110850000Y-121500000D03*
D27*
%TO.P,U1,3*%
%TO.N,Net-(L1-Pad2)*%
X112600000Y-120000000D03*
D28*
%TO.P,U1,4,GND*%
%TO.N,GNDREF*%
X111100000Y-118000000D03*
D29*
X111350000Y-118500000D03*
X110850000Y-118500000D03*
X111350000Y-119000000D03*
X110850000Y-119000000D03*
%TD*%
D19*
%TO.P,C28,1*%
%TO.N,Net-(C26-Pad1)*%
X142662500Y-130800000D03*
%TO.P,C28,2*%
%TO.N,GNDREF*%
X140937500Y-130800000D03*
%TD*%
D24*
%TO.P,L3,1,1*%
%TO.N,Net-(C15-Pad2)*%
X129150000Y-122900000D03*
%TO.P,L3,2,2*%
%TO.N,+3V3*%
X131450000Y-122900000D03*
%TD*%
D30*
%TO.P,J1,1,Pin_1*%
%TO.N,Net-(D1-Pad2)*%
X104450000Y-103950000D03*
%TD*%
D31*
%TO.P,C39,1*%
%TO.N,Net-(C39-Pad1)*%
X137500000Y-125562500D03*
%TO.P,C39,2*%
%TO.N,GNDREF*%
X137500000Y-127637500D03*
%TD*%
%TO.P,C24,1*%
%TO.N,Net-(C24-Pad1)*%
X138800000Y-130862500D03*
%TO.P,C24,2*%
%TO.N,GNDREF*%
X138800000Y-132937500D03*
%TD*%
D32*
%TO.P,R5,1*%
%TO.N,Net-(R4-Pad2)*%
X140600000Y-102800000D03*
%TO.P,R5,2*%
%TO.N,GNDREF*%
X140600000Y-104800000D03*
%TD*%
D33*
%TO.P,C3,1*%
%TO.N,Net-(C3-Pad1)*%
X105875000Y-120000000D03*
%TO.P,C3,2*%
%TO.N,Net-(C3-Pad2)*%
X107600000Y-120000000D03*
%TD*%
D34*
%TO.P,U5,1*%
%TO.N,Net-(L1-Pad2)*%
X117600000Y-120000000D03*
%TO.P,U5,2*%
%TO.N,Net-(U5-Pad2)*%
X121000000Y-120000000D03*
D29*
%TO.P,U5,3*%
%TO.N,GNDREF*%
X118900000Y-121000000D03*
D35*
X119400000Y-121000000D03*
D29*
X119775000Y-121000000D03*
D35*
%TO.P,U5,4*%
X119400000Y-119000000D03*
D29*
X118900000Y-119000000D03*
X119900000Y-119000000D03*
%TD*%
D13*
%TO.P,C5,1*%
%TO.N,GNDREF*%
X121537500Y-113500000D03*
%TO.P,C5,2*%
%TO.N,+5V*%
X119462500Y-113500000D03*
%TD*%
D12*
%TO.P,C21,1*%
%TO.N,Net-(C21-Pad1)*%
X150262500Y-134900000D03*
%TO.P,C21,2*%
%TO.N,GNDREF*%
X152337500Y-134900000D03*
%TD*%
D23*
%TO.P,C13,1*%
%TO.N,REF*%
X133300000Y-123137500D03*
%TO.P,C13,2*%
%TO.N,LO1*%
X133300000Y-121062500D03*
%TD*%
D36*
%TO.P,Q1,1,G*%
%TO.N,Net-(C14-Pad2)*%
X134600000Y-117000000D03*
D37*
%TO.P,Q1,2,S*%
%TO.N,GNDREF*%
X136100000Y-116912500D03*
D36*
%TO.P,Q1,3,D*%
%TO.N,Net-(C17-Pad1)*%
X137600000Y-117000000D03*
%TD*%
D33*
%TO.P,C4,1*%
%TO.N,GNDREF*%
X111075000Y-108200000D03*
%TO.P,C4,2*%
%TO.N,Net-(C4-Pad2)*%
X112800000Y-108200000D03*
%TD*%
D32*
%TO.P,R1,1*%
%TO.N,Net-(C4-Pad2)*%
X114750000Y-108612500D03*
%TO.P,R1,2*%
%TO.N,Net-(C7-Pad1)*%
X114750000Y-110612500D03*
%TD*%
D12*
%TO.P,C11,1*%
%TO.N,GNDREF*%
X148105000Y-108052500D03*
%TO.P,C11,2*%
%TO.N,Net-(C11-Pad2)*%
X150180000Y-108052500D03*
%TD*%
%TO.P,C27,1*%
%TO.N,Net-(C27-Pad1)*%
X151162500Y-120700000D03*
%TO.P,C27,2*%
%TO.N,GNDREF*%
X153237500Y-120700000D03*
%TD*%
D23*
%TO.P,C2,1*%
%TO.N,GNDREF*%
X116250000Y-105825000D03*
%TO.P,C2,2*%
%TO.N,Net-(C2-Pad2)*%
X116250000Y-103750000D03*
%TD*%
D33*
%TO.P,C32,1*%
%TO.N,Net-(C21-Pad1)*%
X150537500Y-126700000D03*
%TO.P,C32,2*%
%TO.N,GNDREF*%
X152262500Y-126700000D03*
%TD*%
D38*
%TO.P,U2,1*%
%TO.N,+5V*%
X117250000Y-109900000D03*
D39*
%TO.P,U2,2*%
%TO.N,Net-(C4-Pad2)*%
X117250000Y-108600000D03*
%TD*%
D40*
%TO.P,U3,1,IN*%
%TO.N,Net-(C2-Pad2)*%
X121050000Y-104235000D03*
D41*
%TO.P,U3,2,GND*%
%TO.N,GNDREF*%
X130200000Y-106775000D03*
D40*
X121050000Y-106775000D03*
%TO.P,U3,3,OUT*%
%TO.N,+5V*%
X121050000Y-109315000D03*
%TD*%
D38*
%TO.P,U12,1*%
%TO.N,Net-(C16-Pad2)*%
X137500000Y-110150000D03*
D39*
%TO.P,U12,2*%
%TO.N,+5V*%
X137500000Y-108850000D03*
%TD*%
D42*
%TO.P,R21,1*%
%TO.N,Net-(R21-Pad1)*%
X141400000Y-127400000D03*
%TO.P,R21,2*%
%TO.N,GNDREF*%
X139400000Y-127400000D03*
%TD*%
D12*
%TO.P,C18,1*%
%TO.N,GNDREF*%
X144262500Y-108100000D03*
%TO.P,C18,2*%
%TO.N,+5V*%
X146337500Y-108100000D03*
%TD*%
D33*
%TO.P,C17,1*%
%TO.N,Net-(C17-Pad1)*%
X151200000Y-112914000D03*
%TO.P,C17,2*%
%TO.N,Net-(C17-Pad2)*%
X152925000Y-112914000D03*
%TD*%
D43*
%TO.P,U15,1,VREG*%
%TO.N,Net-(C11-Pad2)*%
X149877500Y-106187500D03*
%TO.P,U15,2,VOUT*%
%TO.N,+3V3*%
X149877500Y-104917500D03*
%TO.P,U15,3,BYP*%
%TO.N,Net-(C10-Pad2)*%
X149877500Y-103647500D03*
%TO.P,U15,4,GND*%
%TO.N,GNDREF*%
X149877500Y-102377500D03*
%TO.P,U15,5,REF_SENSE*%
%TO.N,Net-(R4-Pad2)*%
X144927500Y-102377500D03*
%TO.P,U15,6,REF*%
%TO.N,Net-(C12-Pad2)*%
X144927500Y-103647500D03*
%TO.P,U15,7,EN*%
%TO.N,+5V*%
X144927500Y-104917500D03*
%TO.P,U15,8,VIN*%
X144927500Y-106187500D03*
D29*
%TO.P,U15,9,EP*%
%TO.N,GNDREF*%
X148052500Y-103282500D03*
D44*
X147402500Y-104282500D03*
D29*
X148052500Y-105282500D03*
X146752500Y-103282500D03*
X148052500Y-104282500D03*
X146752500Y-104282500D03*
X146752500Y-105282500D03*
%TD*%
D45*
%TO.P,L21,1,1*%
%TO.N,Net-(C21-Pad1)*%
X153300000Y-116050000D03*
%TO.P,L21,2,2*%
%TO.N,Net-(C27-Pad1)*%
X153300000Y-118350000D03*
%TD*%
D33*
%TO.P,C16,1*%
%TO.N,GNDREF*%
X136137500Y-112000000D03*
%TO.P,C16,2*%
%TO.N,Net-(C16-Pad2)*%
X137862500Y-112000000D03*
%TD*%
D31*
%TO.P,C10,1*%
%TO.N,GNDREF*%
X152102500Y-101582500D03*
%TO.P,C10,2*%
%TO.N,Net-(C10-Pad2)*%
X152102500Y-103657500D03*
%TD*%
D46*
%TO.P,L1,1,1*%
%TO.N,Net-(C7-Pad1)*%
X112637500Y-116480000D03*
%TO.P,L1,2,2*%
%TO.N,Net-(L1-Pad2)*%
X112637500Y-117295000D03*
%TD*%
D23*
%TO.P,C37,1*%
%TO.N,Net-(C21-Pad1)*%
X151300000Y-118637500D03*
%TO.P,C37,2*%
%TO.N,GNDREF*%
X151300000Y-116562500D03*
%TD*%
D47*
%TO.P,D1,1,K*%
%TO.N,Net-(C2-Pad2)*%
X112250000Y-103750000D03*
%TO.P,D1,2,A*%
%TO.N,Net-(D1-Pad2)*%
X108250000Y-103750000D03*
%TD*%
D48*
%TO.P,C7,1*%
%TO.N,Net-(C7-Pad1)*%
X112500000Y-111187500D03*
%TD*%
D12*
%TO.P,C35,1*%
%TO.N,Net-(C35-Pad1)*%
X149662500Y-124900000D03*
%TO.P,C35,2*%
%TO.N,Net-(C35-Pad2)*%
X151737500Y-124900000D03*
%TD*%
D49*
%TO.P,D21,1,K*%
%TO.N,GNDREF*%
X143650000Y-136300000D03*
%TO.P,D21,2,A*%
%TO.N,Net-(D21-Pad2)*%
X145700000Y-136300000D03*
%TD*%
D20*
%TO.P,C33,1*%
%TO.N,Net-(C27-Pad1)*%
X147600000Y-130637500D03*
%TO.P,C33,2*%
%TO.N,GNDREF*%
X147600000Y-132362500D03*
%TD*%
D42*
%TO.P,R24,1*%
%TO.N,Net-(C35-Pad1)*%
X141700000Y-121600000D03*
%TO.P,R24,2*%
%TO.N,Net-(C39-Pad1)*%
X139700000Y-121600000D03*
%TD*%
D12*
%TO.P,C36,1*%
%TO.N,Net-(C35-Pad1)*%
X149662500Y-122800000D03*
%TO.P,C36,2*%
%TO.N,GNDREF*%
X151737500Y-122800000D03*
%TD*%
D50*
%TO.P,J2,1,In*%
%TO.N,Net-(C3-Pad1)*%
X102250000Y-120000000D03*
D26*
%TO.P,J2,2,Ext*%
%TO.N,GNDREF*%
X102250000Y-122286000D03*
X102250000Y-117714000D03*
%TD*%
D51*
%TO.P,U22,1,CLK*%
%TO.N,Net-(U21-Pad7)*%
X148137500Y-128450000D03*
%TO.P,U22,2,DATA*%
%TO.N,Net-(U21-Pad6)*%
X148137500Y-127950000D03*
%TO.P,U22,3,LE*%
%TO.N,Net-(U21-Pad2)*%
X148137500Y-127450000D03*
%TO.P,U22,4,CE*%
%TO.N,Net-(C27-Pad1)*%
X148137500Y-126950000D03*
%TO.P,U22,5,SW*%
%TO.N,unconnected-(U22-Pad5)*%
X148137500Y-126450000D03*
%TO.P,U22,6,Vp*%
%TO.N,Net-(C21-Pad1)*%
X148137500Y-125950000D03*
%TO.P,U22,7,CPout*%
%TO.N,Net-(C35-Pad1)*%
X148137500Y-125450000D03*
%TO.P,U22,8,CPGND*%
%TO.N,GNDREF*%
X148137500Y-124950000D03*
D52*
%TO.P,U22,9,AGND*%
X147450000Y-124262500D03*
%TO.P,U22,10,AVDD*%
%TO.N,Net-(C21-Pad1)*%
X146950000Y-124262500D03*
%TO.P,U22,11,AGNDVCO*%
%TO.N,GNDREF*%
X146450000Y-124262500D03*
%TO.P,U22,12,RF_OUT_A+*%
%TO.N,Net-(C40-Pad1)*%
X145950000Y-124262500D03*
%TO.P,U22,13,RF_OUT_A-*%
%TO.N,unconnected-(U22-Pad13)*%
X145450000Y-124262500D03*
%TO.P,U22,14,RF_OUT_B+*%
%TO.N,unconnected-(U22-Pad14)*%
X144950000Y-124262500D03*
%TO.P,U22,15,RF_OUT_B-*%
%TO.N,unconnected-(U22-Pad15)*%
X144450000Y-124262500D03*
%TO.P,U22,16,VVCO*%
%TO.N,Net-(C21-Pad1)*%
X143950000Y-124262500D03*
D51*
%TO.P,U22,17,VVCO*%
X143262500Y-124950000D03*
%TO.P,U22,18,AGNDVCO*%
%TO.N,GNDREF*%
X143262500Y-125450000D03*
%TO.P,U22,19,TEMP*%
%TO.N,Net-(C22-Pad1)*%
X143262500Y-125950000D03*
%TO.P,U22,20,VTUNE*%
%TO.N,Net-(C39-Pad1)*%
X143262500Y-126450000D03*
%TO.P,U22,21,AGNDVCO*%
%TO.N,GNDREF*%
X143262500Y-126950000D03*
%TO.P,U22,22,RSET*%
%TO.N,Net-(R21-Pad1)*%
X143262500Y-127450000D03*
%TO.P,U22,23,VCOM*%
%TO.N,Net-(C24-Pad1)*%
X143262500Y-127950000D03*
%TO.P,U22,24,VREF*%
%TO.N,Net-(C26-Pad1)*%
X143262500Y-128450000D03*
D52*
%TO.P,U22,25,LD*%
%TO.N,unconnected-(U22-Pad25)*%
X143950000Y-129137500D03*
%TO.P,U22,26,PDB_RF*%
%TO.N,Net-(C27-Pad1)*%
X144450000Y-129137500D03*
%TO.P,U22,27,DGND*%
%TO.N,GNDREF*%
X144950000Y-129137500D03*
%TO.P,U22,28,DVDD*%
%TO.N,Net-(C27-Pad1)*%
X145450000Y-129137500D03*
%TO.P,U22,29,REFIN*%
%TO.N,Net-(C29-Pad2)*%
X145950000Y-129137500D03*
%TO.P,U22,30,MUXOUT*%
%TO.N,Net-(R23-Pad2)*%
X146450000Y-129137500D03*
%TO.P,U22,31,SDGND*%
%TO.N,GNDREF*%
X146950000Y-129137500D03*
%TO.P,U22,32,SDVDD*%
%TO.N,Net-(C27-Pad1)*%
X147450000Y-129137500D03*
D53*
%TO.P,U22,33,EP*%
%TO.N,GNDREF*%
X147200000Y-125200000D03*
X144200000Y-128200000D03*
X147200000Y-128200000D03*
X145700000Y-126700000D03*
X145700000Y-128200000D03*
X147200000Y-126700000D03*
D54*
X145700000Y-126700000D03*
D53*
X144200000Y-125200000D03*
X145700000Y-125200000D03*
X144200000Y-126700000D03*
%TD*%
D55*
%TO.P,J4,1,In*%
%TO.N,REF*%
X133000000Y-137750000D03*
D56*
%TO.P,J4,2,Ext*%
%TO.N,GNDREF*%
X135286000Y-137750000D03*
X130714000Y-137750000D03*
%TD*%
D13*
%TO.P,C26,1*%
%TO.N,Net-(C26-Pad1)*%
X142737500Y-132600000D03*
%TO.P,C26,2*%
%TO.N,GNDREF*%
X140662500Y-132600000D03*
%TD*%
D23*
%TO.P,C12,1*%
%TO.N,GNDREF*%
X142400000Y-108837500D03*
%TO.P,C12,2*%
%TO.N,Net-(C12-Pad2)*%
X142400000Y-106762500D03*
%TD*%
D57*
%TO.P,C31,1*%
%TO.N,Net-(C21-Pad1)*%
X143600000Y-122762500D03*
%TO.P,C31,2*%
%TO.N,GNDREF*%
X143600000Y-121037500D03*
%TD*%
%TO.P,C30,1*%
%TO.N,Net-(C21-Pad1)*%
X147200000Y-122762500D03*
%TO.P,C30,2*%
%TO.N,GNDREF*%
X147200000Y-121037500D03*
%TD*%
D58*
%TO.P,U21,1,~{RESET}/PB5*%
%TO.N,unconnected-(U21-Pad1)*%
X157750000Y-132805000D03*
%TO.P,U21,2,XTAL1/PB3*%
%TO.N,Net-(U21-Pad2)*%
X157750000Y-131535000D03*
%TO.P,U21,3,XTAL2/PB4*%
%TO.N,unconnected-(U21-Pad3)*%
X157750000Y-130265000D03*
%TO.P,U21,4,GND*%
%TO.N,GNDREF*%
X157750000Y-128995000D03*
%TO.P,U21,5,AREF/PB0*%
%TO.N,unconnected-(U21-Pad5)*%
X150450000Y-128995000D03*
%TO.P,U21,6,PB1*%
%TO.N,Net-(U21-Pad6)*%
X150450000Y-130265000D03*
%TO.P,U21,7,PB2*%
%TO.N,Net-(U21-Pad7)*%
X150450000Y-131535000D03*
%TO.P,U21,8,VCC*%
%TO.N,Net-(C21-Pad1)*%
X150450000Y-132805000D03*
%TD*%
D11*
%TO.P,R23,1*%
%TO.N,Net-(D21-Pad2)*%
X147600000Y-136200000D03*
%TO.P,R23,2*%
%TO.N,Net-(R23-Pad2)*%
X147600000Y-134200000D03*
%TD*%
D59*
%TO.P,L4,1,1*%
%TO.N,Net-(C16-Pad2)*%
X139800000Y-110275000D03*
%TO.P,L4,2,2*%
%TO.N,Net-(L4-Pad2)*%
X139800000Y-112325000D03*
%TD*%
D11*
%TO.P,R4,1*%
%TO.N,Net-(C12-Pad2)*%
X142580000Y-104871250D03*
%TO.P,R4,2*%
%TO.N,Net-(R4-Pad2)*%
X142580000Y-102871250D03*
%TD*%
D60*
%TO.N,GNDREF*%
X115800000Y-118600000D03*
X136137500Y-113562500D03*
X124400000Y-118600000D03*
X104600000Y-121400000D03*
X105700000Y-118600000D03*
X117000000Y-118600000D03*
X139600000Y-129200000D03*
X117300000Y-121400000D03*
X128000000Y-118600000D03*
X132000000Y-134000000D03*
X151300000Y-116600000D03*
X129250000Y-118600000D03*
X134700000Y-125400000D03*
X147600000Y-132400000D03*
X152800000Y-114200000D03*
X125600000Y-118600000D03*
X134700000Y-131500000D03*
X140800000Y-104800000D03*
X108200000Y-121400000D03*
X141900000Y-112900000D03*
X143700000Y-111600000D03*
X144202500Y-108082500D03*
X124400000Y-121400000D03*
X142700000Y-112100000D03*
X120800000Y-121400000D03*
X132000000Y-128100000D03*
X138800000Y-132800000D03*
X109400000Y-121400000D03*
X136137500Y-114700000D03*
X143600000Y-121100000D03*
X144900000Y-111600000D03*
X149300000Y-111600000D03*
X153600000Y-122900000D03*
X152000000Y-107400000D03*
X150400000Y-111600000D03*
X132000000Y-130400000D03*
X157800000Y-129000000D03*
X152800000Y-111600000D03*
X142000000Y-116600000D03*
X134700000Y-124200000D03*
X120800000Y-118600000D03*
X131800000Y-135100000D03*
X116250000Y-105750000D03*
X141200000Y-113600000D03*
X128925000Y-106775000D03*
X137518750Y-127618750D03*
X123200000Y-121400000D03*
X134300000Y-118600000D03*
X122000000Y-118600000D03*
X127850000Y-104800000D03*
X126800000Y-118600000D03*
X134700000Y-130300000D03*
X114600000Y-118600000D03*
X151600000Y-114200000D03*
X144300000Y-114300000D03*
X126625000Y-106775000D03*
X129100000Y-104800000D03*
X155200000Y-111600000D03*
X140018750Y-125381250D03*
X144400000Y-132400000D03*
X132000000Y-125700000D03*
X132000000Y-132800000D03*
X148100000Y-111600000D03*
X112500000Y-121400000D03*
X134700000Y-129100000D03*
X113700000Y-121400000D03*
X123200000Y-118600000D03*
X104500000Y-118600000D03*
X105800000Y-121400000D03*
X154000000Y-114200000D03*
X150400000Y-114200000D03*
X107000000Y-121400000D03*
X148100000Y-114200000D03*
X135500000Y-118600000D03*
X147200000Y-121100000D03*
X120100000Y-106337500D03*
X155200000Y-114200000D03*
X113400000Y-118600000D03*
X134700000Y-132700000D03*
X127850000Y-108550000D03*
X153300000Y-120800000D03*
X118100000Y-118600000D03*
X126600000Y-104800000D03*
X130350000Y-106800000D03*
X152200000Y-126700000D03*
X143700000Y-136300000D03*
X111200000Y-108200000D03*
X116100000Y-121400000D03*
X142800000Y-115800000D03*
X128850000Y-108550000D03*
X122000000Y-121400000D03*
X149300000Y-114200000D03*
X130350000Y-104800000D03*
X140937500Y-130825000D03*
X134700000Y-126600000D03*
X142400000Y-108800000D03*
X151775000Y-122900000D03*
X126800000Y-121400000D03*
X152400000Y-134900000D03*
X132000000Y-131600000D03*
X143500000Y-115100000D03*
X145600000Y-114300000D03*
X154000000Y-111600000D03*
X132000000Y-126900000D03*
X128000000Y-121400000D03*
X151600000Y-111600000D03*
X114900000Y-121400000D03*
X133100000Y-118600000D03*
X109300000Y-118600000D03*
X130350000Y-108550000D03*
X108100000Y-118600000D03*
X125600000Y-121400000D03*
X132000000Y-129200000D03*
X134700000Y-127800000D03*
X121600000Y-113500000D03*
X136100000Y-115900000D03*
X126600000Y-108550000D03*
X127875000Y-106775000D03*
X131300000Y-124800000D03*
X106900000Y-118600000D03*
%TO.N,+5V*%
X121000000Y-109200000D03*
X137500000Y-108850000D03*
%TO.N,+3V3*%
X146900000Y-114300000D03*
X146900000Y-111300000D03*
%TO.N,Net-(C21-Pad1)*%
X144562500Y-122762500D03*
X150537500Y-126700000D03*
X152100000Y-128999500D03*
X146800000Y-122700000D03*
%TO.N,Net-(C27-Pad1)*%
X147199500Y-130650480D03*
X148200980Y-129220102D03*
X149273739Y-126922774D03*
X145200500Y-130650480D03*
%TO.N,Net-(C35-Pad1)*%
X149600000Y-122700000D03*
X148400000Y-120500000D03*
%TD*%
D61*
%TO.N,REF*%
X133300000Y-134337500D02*
X133300000Y-123137500D01*
X133362500Y-134400000D02*
X133300000Y-134337500D01*
%TO.N,LO1*%
X133302659Y-120800000D02*
X132562011Y-120059352D01*
X135162500Y-120800000D02*
X133302659Y-120800000D01*
%TO.N,Net-(U5-Pad2)*%
X121000000Y-120000000D02*
X128500000Y-120000000D01*
D62*
X128500000Y-120000000D02*
X129200000Y-120000000D01*
X128062500Y-120000000D02*
X128500000Y-120000000D01*
D61*
%TO.N,GNDREF*%
X140525000Y-131212500D02*
X140912500Y-130825000D01*
X136137500Y-112000000D02*
X136137500Y-113562500D01*
X140912500Y-130825000D02*
X140937500Y-130825000D01*
D62*
X144450000Y-125450000D02*
X145700000Y-126700000D01*
D61*
X126625000Y-106775000D02*
X122625000Y-106775000D01*
D63*
X130850000Y-120453553D02*
X130996447Y-120600000D01*
X130996447Y-119600000D02*
X130850000Y-119746447D01*
D61*
X139000000Y-132600000D02*
X138800000Y-132800000D01*
X132824511Y-109775489D02*
X132824511Y-110374511D01*
X136137500Y-114562500D02*
X136137500Y-115362500D01*
X132049022Y-111150000D02*
X128350000Y-111150000D01*
D62*
X131096447Y-119500000D02*
X131050000Y-119546447D01*
D61*
X137737500Y-127400000D02*
X137518750Y-127618750D01*
D62*
X148100000Y-124950000D02*
X147400000Y-124950000D01*
D63*
X130050000Y-118725000D02*
X130050000Y-119300000D01*
D62*
X146950000Y-127950000D02*
X145700000Y-126700000D01*
D61*
X148052500Y-103282500D02*
X148957500Y-102377500D01*
D63*
X130850000Y-119746447D02*
X130850000Y-120100000D01*
D61*
X136137500Y-116875000D02*
X136100000Y-116912500D01*
X148052500Y-105282500D02*
X148052500Y-108000000D01*
X137518750Y-127618750D02*
X137500000Y-127637500D01*
X146840000Y-103195000D02*
X146752500Y-103282500D01*
X139400000Y-127400000D02*
X137737500Y-127400000D01*
D62*
X145700000Y-126650000D02*
X145700000Y-126700000D01*
D61*
X148052500Y-108000000D02*
X148105000Y-108052500D01*
D62*
X144950000Y-129100000D02*
X144950000Y-127450000D01*
D61*
X140525000Y-132600000D02*
X140525000Y-131212500D01*
D63*
X130450000Y-120500000D02*
X130850000Y-120100000D01*
D62*
X146450000Y-124300000D02*
X146450000Y-125950000D01*
D63*
X130996447Y-120600000D02*
X131550000Y-120600000D01*
D62*
X131550000Y-119500000D02*
X131096447Y-119500000D01*
X143300000Y-126950000D02*
X145450000Y-126950000D01*
D61*
X122625000Y-106775000D02*
X120537500Y-106775000D01*
D62*
X147400000Y-124950000D02*
X145700000Y-126650000D01*
D61*
X136237500Y-113412500D02*
X136237500Y-114412500D01*
D62*
X143300000Y-125450000D02*
X144450000Y-125450000D01*
X130450000Y-120500000D02*
X129550000Y-120500000D01*
D61*
X139662500Y-125025000D02*
X140018750Y-125381250D01*
D63*
X130850000Y-120100000D02*
X130850000Y-120453553D01*
D61*
X149877500Y-102377500D02*
X151307500Y-102377500D01*
X151775000Y-122900000D02*
X151675000Y-122800000D01*
D63*
X131050000Y-119546447D02*
X130850000Y-119746447D01*
D62*
X129550000Y-119500000D02*
X130250000Y-119500000D01*
D61*
X143085000Y-108152500D02*
X142400000Y-108837500D01*
D62*
X146450000Y-125950000D02*
X145700000Y-126700000D01*
X146950000Y-129100000D02*
X146950000Y-127950000D01*
X144950000Y-127450000D02*
X145700000Y-126700000D01*
X130250000Y-119500000D02*
X130275000Y-119525000D01*
D61*
X127875000Y-106775000D02*
X126625000Y-106775000D01*
X140018750Y-125381250D02*
X140037500Y-125400000D01*
X153600000Y-122900000D02*
X151775000Y-122900000D01*
D62*
X130825480Y-120124520D02*
X130825480Y-120100000D01*
D61*
X144205000Y-108152500D02*
X143085000Y-108152500D01*
X136137500Y-113562500D02*
X136137500Y-114562500D01*
X120537500Y-106775000D02*
X120100000Y-106337500D01*
X140662500Y-132600000D02*
X139000000Y-132600000D01*
X138800000Y-132800000D02*
X138682176Y-132800000D01*
X136237500Y-114412500D02*
X136237500Y-115412500D01*
D63*
X130050000Y-119300000D02*
X130275000Y-119525000D01*
X130275000Y-119525000D02*
X130450000Y-119700000D01*
D61*
X139837500Y-129200000D02*
X139837500Y-127837500D01*
D63*
X130450000Y-119700000D02*
X130850000Y-120100000D01*
D61*
X139662500Y-123600000D02*
X139662500Y-125025000D01*
X136237500Y-115412500D02*
X136237500Y-116662500D01*
X128925000Y-106775000D02*
X127875000Y-106775000D01*
X136237500Y-116775000D02*
X136100000Y-116912500D01*
D62*
X147450000Y-124950000D02*
X145700000Y-126700000D01*
D61*
X148957500Y-102377500D02*
X149877500Y-102377500D01*
D62*
X145450000Y-126950000D02*
X145700000Y-126700000D01*
D61*
X136237500Y-116662500D02*
X136237500Y-116775000D01*
D63*
X131050000Y-118775000D02*
X131050000Y-119546447D01*
D61*
X148105000Y-108385000D02*
X148105000Y-108052500D01*
X136137500Y-115362500D02*
X136137500Y-116875000D01*
X139837500Y-127837500D02*
X139400000Y-127400000D01*
X132824511Y-110374511D02*
X132049022Y-111150000D01*
X139600000Y-129200000D02*
X139837500Y-129200000D01*
D62*
X147450000Y-124300000D02*
X147450000Y-124950000D01*
D61*
X151307500Y-102377500D02*
X152102500Y-101582500D01*
%TO.N,Net-(D1-Pad2)*%
X108250000Y-103750000D02*
X104650000Y-103750000D01*
D64*
X105450000Y-102950000D02*
X104450000Y-103950000D01*
D61*
X104650000Y-103750000D02*
X104450000Y-103950000D01*
%TO.N,Net-(C3-Pad1)*%
X105875000Y-120000000D02*
X102250000Y-120000000D01*
%TO.N,Net-(C4-Pad2)*%
X114775000Y-108637500D02*
X114750000Y-108612500D01*
X114337500Y-108200000D02*
X114750000Y-108612500D01*
X114750000Y-108612500D02*
X116862500Y-108612500D01*
X112800000Y-108200000D02*
X114337500Y-108200000D01*
D64*
%TO.N,+5V*%
X117500000Y-110150000D02*
X117312020Y-109962020D01*
X119462500Y-110902500D02*
X119462500Y-113500000D01*
D61*
X141324520Y-110124520D02*
X141199520Y-109999520D01*
X146345848Y-108254152D02*
X144454152Y-110145848D01*
X144388304Y-110124520D02*
X141324520Y-110124520D01*
D64*
X121050000Y-109315000D02*
X120215000Y-110150000D01*
X120215000Y-110150000D02*
X117500000Y-110150000D01*
D61*
X144927500Y-104917500D02*
X144927500Y-106187500D01*
D64*
X121050000Y-109315000D02*
X119462500Y-110902500D01*
D61*
X146280000Y-108152500D02*
X146280000Y-107540000D01*
X140650000Y-108850000D02*
X140975480Y-109175480D01*
X137500000Y-108850000D02*
X140650000Y-108850000D01*
X140975480Y-109175480D02*
X140975480Y-109332656D01*
D64*
X117312020Y-109962020D02*
X117250000Y-109962020D01*
D61*
X141199520Y-109999520D02*
X141199520Y-109792344D01*
X146280000Y-107540000D02*
X144927500Y-106187500D01*
X146280000Y-108152500D02*
X146280000Y-108660000D01*
X146280000Y-108152500D02*
X146280000Y-108232824D01*
D62*
%TO.N,+3V3*%
X139700000Y-118400000D02*
X137400000Y-118400000D01*
X135900000Y-122100000D02*
X132300000Y-122100000D01*
D61*
X146900000Y-111245056D02*
X148545056Y-109600000D01*
X151037500Y-104917500D02*
X151402500Y-105282500D01*
X148545056Y-109600000D02*
X152115324Y-109600000D01*
D62*
X147350000Y-117000000D02*
X146750000Y-117600000D01*
X132300000Y-122100000D02*
X131500000Y-122900000D01*
X136200000Y-121800000D02*
X135900000Y-122100000D01*
D61*
X152115324Y-109600000D02*
X153600000Y-108115324D01*
X146900000Y-116550000D02*
X147350000Y-117000000D01*
X149877500Y-104917500D02*
X151037500Y-104917500D01*
X146900000Y-111300000D02*
X146900000Y-111245056D01*
X146900000Y-114300000D02*
X146900000Y-116550000D01*
X153600000Y-106200000D02*
X152800000Y-105400000D01*
D62*
X136200000Y-119600000D02*
X136200000Y-121800000D01*
D61*
X153600000Y-108115324D02*
X153600000Y-106200000D01*
D62*
X137400000Y-118400000D02*
X136200000Y-119600000D01*
X146750000Y-117600000D02*
X140500000Y-117600000D01*
X140500000Y-117600000D02*
X139700000Y-118400000D01*
D61*
%TO.N,Net-(L1-Pad2)*%
X117600000Y-120000000D02*
X112600000Y-120000000D01*
D65*
X112637500Y-117295000D02*
X112600000Y-117332500D01*
X112600000Y-117332500D02*
X112600000Y-120000000D01*
D61*
%TO.N,Net-(C10-Pad2)*%
X149877500Y-103647500D02*
X152092500Y-103647500D01*
X152092500Y-103647500D02*
X152102500Y-103657500D01*
%TO.N,Net-(C11-Pad2)*%
X150180000Y-108052500D02*
X150180000Y-106490000D01*
X150180000Y-106490000D02*
X149877500Y-106187500D01*
D66*
%TO.N,Net-(C12-Pad2)*%
X143752500Y-103647500D02*
X144927500Y-103647500D01*
X142400000Y-105051250D02*
X142580000Y-104871250D01*
X142580000Y-104871250D02*
X142580000Y-104820000D01*
X142580000Y-104820000D02*
X143752500Y-103647500D01*
X142400000Y-106762500D02*
X142400000Y-105051250D01*
D62*
%TO.N,Net-(C14-Pad1)*%
X130550000Y-117137500D02*
X130550000Y-118725000D01*
D61*
%TO.N,Net-(C14-Pad2)*%
X132687500Y-117000000D02*
X132587500Y-117100000D01*
X134600000Y-117000000D02*
X132687500Y-117000000D01*
D62*
%TO.N,Net-(C15-Pad2)*%
X131050000Y-121475000D02*
X130550000Y-121475000D01*
D61*
X129237500Y-122937500D02*
X129200000Y-122900000D01*
X129200000Y-122900000D02*
X129216048Y-122900000D01*
X129150000Y-122900000D02*
X129150000Y-124775000D01*
X129150000Y-124775000D02*
X129125000Y-124800000D01*
D62*
X131050000Y-121475000D02*
X130050000Y-121475000D01*
D61*
X129216048Y-122900000D02*
X130645524Y-121470524D01*
D66*
%TO.N,Net-(C16-Pad2)*%
X139800000Y-110275000D02*
X137625000Y-110275000D01*
D61*
X137500000Y-110150000D02*
X137500000Y-111637500D01*
D66*
X137625000Y-110275000D02*
X137500000Y-110150000D01*
D61*
X137500000Y-111637500D02*
X137862500Y-112000000D01*
%TO.N,Net-(C17-Pad1)*%
X143786000Y-112914000D02*
X140600000Y-116100000D01*
X151200000Y-112914000D02*
X143786000Y-112914000D01*
D66*
X139850000Y-116100000D02*
X138500000Y-116100000D01*
X138500000Y-116100000D02*
X137600000Y-117000000D01*
D61*
%TO.N,Net-(C17-Pad2)*%
X152925000Y-112914000D02*
X156175000Y-112914000D01*
D64*
%TO.N,Net-(C2-Pad2)*%
X116250000Y-103750000D02*
X120565000Y-103750000D01*
X112250000Y-103750000D02*
X116250000Y-103750000D01*
X120565000Y-103750000D02*
X121050000Y-104235000D01*
D61*
%TO.N,Net-(L4-Pad2)*%
X139800000Y-114050000D02*
X139850000Y-114100000D01*
X139800000Y-112325000D02*
X139800000Y-114050000D01*
D66*
%TO.N,Net-(R4-Pad2)*%
X140671250Y-102871250D02*
X140600000Y-102800000D01*
X144927500Y-102377500D02*
X143073750Y-102377500D01*
X143073750Y-102377500D02*
X142580000Y-102871250D01*
X142580000Y-102871250D02*
X140671250Y-102871250D01*
D62*
%TO.N,LO1*%
X133300000Y-121062500D02*
X132337500Y-120100000D01*
X132337500Y-120000000D02*
X131550000Y-120000000D01*
D65*
%TO.N,Net-(C7-Pad1)*%
X112500000Y-111187500D02*
X112593750Y-111093750D01*
X113075000Y-110612500D02*
X114750000Y-110612500D01*
X112593750Y-111093750D02*
X113075000Y-110612500D01*
X112637500Y-116480000D02*
X112637500Y-111137500D01*
X112637500Y-111137500D02*
X112593750Y-111093750D01*
D67*
%TO.N,Net-(C21-Pad1)*%
X151300000Y-118637500D02*
X150287500Y-118637500D01*
X150674520Y-122013790D02*
X149611425Y-120950695D01*
D66*
X149450000Y-120651391D02*
X147338891Y-122762500D01*
D62*
X148100000Y-125950000D02*
X148787500Y-125950000D01*
X151495000Y-132805000D02*
X150450000Y-132805000D01*
D67*
X150112500Y-118637500D02*
X149450000Y-119300000D01*
D66*
X147338891Y-122762500D02*
X147200000Y-122762500D01*
D62*
X147200000Y-122762500D02*
X146862500Y-122762500D01*
D67*
X151300000Y-118637500D02*
X150112500Y-118637500D01*
D62*
X150290710Y-126453210D02*
X150537500Y-126700000D01*
X146950000Y-122612500D02*
X146900000Y-122562500D01*
D66*
X150450000Y-132805000D02*
X150450000Y-133450000D01*
D62*
X148674520Y-125974520D02*
X148650000Y-125950000D01*
X143950000Y-123212500D02*
X143500000Y-122762500D01*
X148650000Y-117000000D02*
X148650000Y-117175000D01*
X143500000Y-122762500D02*
X144562500Y-122762500D01*
D67*
X150287500Y-118637500D02*
X148650000Y-117000000D01*
D66*
X153300000Y-116637500D02*
X151300000Y-118637500D01*
D62*
X146862500Y-122762500D02*
X146800000Y-122700000D01*
X143950000Y-124300000D02*
X143300000Y-124950000D01*
D66*
X153300000Y-116050000D02*
X153300000Y-116637500D01*
D67*
X150674520Y-126562980D02*
X150674520Y-122013790D01*
D66*
X150450000Y-134712500D02*
X150262500Y-134900000D01*
D62*
X150290710Y-125974520D02*
X148674520Y-125974520D01*
D66*
X149450000Y-119300000D02*
X149450000Y-120651391D01*
D62*
X150599520Y-125665710D02*
X150290710Y-125974520D01*
X150290710Y-125974520D02*
X150290710Y-126453210D01*
X148650000Y-117175000D02*
X150112500Y-118637500D01*
X149752846Y-120950695D02*
X150599520Y-121797369D01*
X152100000Y-132200000D02*
X151495000Y-132805000D01*
D66*
X149611425Y-120950695D02*
X149150695Y-120950695D01*
D62*
X149611425Y-120950695D02*
X149752846Y-120950695D01*
D67*
X150537500Y-126700000D02*
X150674520Y-126562980D01*
D62*
X143950000Y-124300000D02*
X143950000Y-123212500D01*
D67*
X152100000Y-131800000D02*
X150450000Y-133450000D01*
D66*
X150450000Y-133450000D02*
X150450000Y-134712500D01*
D62*
X146950000Y-124300000D02*
X146950000Y-122612500D01*
X150599520Y-121797369D02*
X150599520Y-125665710D01*
D67*
X152100000Y-128999500D02*
X152100000Y-131800000D01*
D62*
X152100000Y-128999500D02*
X152100000Y-132200000D01*
D61*
%TO.N,Net-(C22-Pad1)*%
X141737500Y-123600000D02*
X141737500Y-125375000D01*
D62*
X142312500Y-125950000D02*
X141762500Y-125400000D01*
X143300000Y-125950000D02*
X142312500Y-125950000D01*
D61*
X141737500Y-125375000D02*
X141762500Y-125400000D01*
D62*
%TO.N,Net-(C24-Pad1)*%
X141562500Y-128938478D02*
X141562500Y-129200000D01*
X141562500Y-129200000D02*
X140787020Y-129975480D01*
X142550978Y-127950000D02*
X141562500Y-128938478D01*
X143300000Y-127950000D02*
X142550978Y-127950000D01*
D66*
X138800000Y-130762500D02*
X139465907Y-130762500D01*
D62*
X140787020Y-129975480D02*
X140394349Y-129975480D01*
X140394349Y-129975480D02*
X140107329Y-130262500D01*
D66*
X139465907Y-130762500D02*
X140036618Y-130191789D01*
D61*
%TO.N,Net-(C26-Pad1)*%
X142662500Y-130800000D02*
X143100489Y-130362011D01*
X142662500Y-130800000D02*
X142662500Y-132537500D01*
X142662500Y-132537500D02*
X142600000Y-132600000D01*
D62*
X142662500Y-130567671D02*
X142662500Y-130800000D01*
D61*
X143100489Y-130362011D02*
X143100489Y-128899511D01*
D62*
X143300000Y-128450000D02*
X143300000Y-128830171D01*
%TO.N,Net-(C27-Pad1)*%
X144450000Y-129100000D02*
X144450000Y-130587500D01*
D61*
X153300000Y-118350000D02*
X155000000Y-120050000D01*
D66*
X153300000Y-118562500D02*
X151162500Y-120700000D01*
X147600000Y-130637500D02*
X148350960Y-129886540D01*
D62*
X147450000Y-130487500D02*
X147600000Y-130637500D01*
D66*
X153300000Y-118350000D02*
X153300000Y-118562500D01*
D62*
X149994349Y-127524520D02*
X153375480Y-127524520D01*
X148100000Y-126950000D02*
X149419829Y-126950000D01*
X149419829Y-126950000D02*
X149994349Y-127524520D01*
D61*
X154800000Y-126100000D02*
X153500000Y-127400000D01*
X155000000Y-120050000D02*
X155000000Y-126100000D01*
X155000000Y-126100000D02*
X154800000Y-126100000D01*
D62*
X147450000Y-129100000D02*
X147450000Y-130487500D01*
X144400000Y-130637500D02*
X144661522Y-130637500D01*
D66*
X148350960Y-129370082D02*
X148200980Y-129220102D01*
X145350480Y-130650480D02*
X145200500Y-130650480D01*
D62*
X144450000Y-130587500D02*
X144400000Y-130637500D01*
D66*
X145337500Y-130637500D02*
X145350480Y-130650480D01*
X149841166Y-127700000D02*
X149041646Y-126900480D01*
X153200000Y-127700000D02*
X149841166Y-127700000D01*
D62*
X145450000Y-129849022D02*
X145450000Y-129100000D01*
D66*
X144400000Y-130637500D02*
X145337500Y-130637500D01*
X153500000Y-127400000D02*
X153200000Y-127700000D01*
X147199500Y-130650480D02*
X147587020Y-130650480D01*
D62*
X144661522Y-130637500D02*
X145450000Y-129849022D01*
X153375480Y-127524520D02*
X153500000Y-127400000D01*
D66*
X147587020Y-130650480D02*
X147600000Y-130637500D01*
X148350960Y-129886540D02*
X148350960Y-129370082D01*
D64*
%TO.N,REF*%
X133300000Y-123137500D02*
X133217565Y-123219935D01*
X133450000Y-134312500D02*
X133362500Y-134400000D01*
D62*
X133450000Y-123287500D02*
X133300000Y-123137500D01*
D61*
X133362500Y-134400000D02*
X133362500Y-137387500D01*
X133362500Y-137387500D02*
X133000000Y-137750000D01*
%TO.N,Net-(C29-Pad2)*%
X145600480Y-133199520D02*
X145600480Y-132400000D01*
X135437500Y-134400000D02*
X144400000Y-134400000D01*
D62*
X145950000Y-132180171D02*
X143730171Y-134400000D01*
D61*
X144400000Y-134400000D02*
X145600480Y-133199520D01*
D62*
X145950000Y-129100000D02*
X145950000Y-132180171D01*
X143730171Y-134400000D02*
X136937500Y-134400000D01*
D66*
%TO.N,Net-(C35-Pad1)*%
X141485250Y-118250480D02*
X140900480Y-118835250D01*
D62*
X148100000Y-125450000D02*
X149012500Y-125450000D01*
X140937980Y-118939171D02*
X141577631Y-118299520D01*
X141577631Y-118299520D02*
X148099520Y-118299520D01*
X141700000Y-121100000D02*
X140937980Y-120337980D01*
D66*
X141700000Y-121600000D02*
X141700000Y-121164270D01*
D62*
X148099520Y-118299520D02*
X148400000Y-118600000D01*
D61*
X149600000Y-122800000D02*
X149600000Y-124862500D01*
D62*
X149461227Y-122661227D02*
X149600000Y-122800000D01*
D66*
X148400000Y-120500000D02*
X148400000Y-118935730D01*
X147714750Y-118250480D02*
X141485250Y-118250480D01*
X141500000Y-121600000D02*
X141774520Y-121874520D01*
D62*
X148400000Y-118600000D02*
X148400000Y-120500000D01*
X141700000Y-121600000D02*
X141700000Y-121100000D01*
D61*
X149600000Y-124862500D02*
X149562500Y-124900000D01*
D62*
X140937980Y-120337980D02*
X140937980Y-118939171D01*
D66*
X148400000Y-118935730D02*
X147714750Y-118250480D01*
D62*
X149012500Y-125450000D02*
X149562500Y-124900000D01*
D66*
X140900480Y-118835250D02*
X140900480Y-119162020D01*
X141700000Y-121164270D02*
X140900480Y-120364750D01*
D61*
%TO.N,Net-(C35-Pad2)*%
X151637500Y-124900000D02*
X153600000Y-124900000D01*
D64*
%TO.N,Net-(C38-Pad1)*%
X139862500Y-119600000D02*
X138237500Y-119600000D01*
X138237500Y-119600000D02*
X137537500Y-120300000D01*
D62*
%TO.N,Net-(C39-Pad1)*%
X138237500Y-126300000D02*
X141947850Y-126300000D01*
X142150000Y-126450000D02*
X143300000Y-126450000D01*
D66*
X137500000Y-123800000D02*
X139700000Y-121600000D01*
X137500000Y-125562500D02*
X137500000Y-123800000D01*
D62*
X141947850Y-126300000D02*
X142123925Y-126476075D01*
X137500000Y-125562500D02*
X138237500Y-126300000D01*
X142123925Y-126476075D02*
X142150000Y-126450000D01*
D66*
%TO.N,Net-(D21-Pad2)*%
X145800000Y-136200000D02*
X145700000Y-136300000D01*
X147600000Y-136200000D02*
X145800000Y-136200000D01*
D62*
%TO.N,Net-(R21-Pad1)*%
X143300000Y-127450000D02*
X141450000Y-127450000D01*
X141450000Y-127450000D02*
X141400000Y-127400000D01*
%TO.N,Net-(R23-Pad2)*%
X146450000Y-129100000D02*
X146450000Y-133050000D01*
X146450000Y-133050000D02*
X147600000Y-134200000D01*
D65*
%TO.N,Net-(U21-Pad2)*%
X148814028Y-127450000D02*
X149664028Y-128300000D01*
X154000000Y-128300000D02*
X157235000Y-131535000D01*
X148100000Y-127450000D02*
X148814028Y-127450000D01*
X149664028Y-128300000D02*
X154000000Y-128300000D01*
X157235000Y-131535000D02*
X157750000Y-131535000D01*
%TO.N,Net-(U21-Pad6)*%
X149825000Y-130265000D02*
X149300000Y-129740000D01*
X149300000Y-129740000D02*
X149300000Y-128500978D01*
X150450000Y-130265000D02*
X149825000Y-130265000D01*
X148749022Y-127950000D02*
X148100000Y-127950000D01*
X149300000Y-128500978D02*
X148749022Y-127950000D01*
%TO.N,Net-(U21-Pad7)*%
X150450000Y-131535000D02*
X149845978Y-131535000D01*
X148550000Y-128450000D02*
X148100000Y-128450000D01*
X148900480Y-130589502D02*
X148900480Y-128800480D01*
X149845978Y-131535000D02*
X148900480Y-130589502D01*
X148900480Y-128800480D02*
X148550000Y-128450000D01*
D61*
%TO.N,Net-(C3-Pad2)*%
X109600000Y-120000000D02*
X107600000Y-120000000D01*
D62*
%TO.N,Net-(C40-Pad1)*%
X147150000Y-119300000D02*
X145437500Y-119300000D01*
D64*
X144300000Y-119600000D02*
X145300000Y-120600000D01*
X145300000Y-120600000D02*
X145300000Y-121600000D01*
D62*
X145437500Y-119300000D02*
X145300000Y-119437500D01*
X145300000Y-119437500D02*
X145300000Y-122440030D01*
X145950489Y-123090519D02*
X145950000Y-123091008D01*
D64*
X141937500Y-119600000D02*
X144300000Y-119600000D01*
D62*
X145950000Y-123091008D02*
X145950000Y-124300000D01*
X145300000Y-122440030D02*
X145950489Y-123090519D01*
%TD*%
%TA.AperFunction,Conductor*%
%TO.N,GNDREF*%
G36*
X152106524Y-113704137D02*
G01*
X152151610Y-113733056D01*
X152154116Y-113735557D01*
X152159497Y-113740929D01*
X152165727Y-113744769D01*
X152165728Y-113744770D01*
X152269763Y-113808898D01*
X152307580Y-113832209D01*
X152472691Y-113886974D01*
X152479527Y-113887674D01*
X152479530Y-113887675D01*
X152531026Y-113892951D01*
X152575428Y-113897500D01*
X152670417Y-113897500D01*
X152702333Y-113902441D01*
X152702407Y-113902091D01*
X152708434Y-113903372D01*
X152714306Y-113905235D01*
X152720423Y-113905921D01*
X152720427Y-113905922D01*
X152793258Y-113914091D01*
X152868227Y-113922500D01*
X155332671Y-113922500D01*
X155400792Y-113942502D01*
X155424332Y-113964407D01*
X155425008Y-113963731D01*
X155431358Y-113970081D01*
X155436739Y-113977261D01*
X155553295Y-114064615D01*
X155689684Y-114115745D01*
X155751866Y-114122500D01*
X159366000Y-114122500D01*
X159434121Y-114142502D01*
X159480614Y-114196158D01*
X159492000Y-114248500D01*
X159492000Y-136950672D01*
X159490500Y-136970056D01*
X159486814Y-136993730D01*
X159488454Y-137006270D01*
X159489059Y-137010897D01*
X159489892Y-137034839D01*
X159474290Y-137292770D01*
X159472456Y-137307874D01*
X159466037Y-137342901D01*
X159421384Y-137586572D01*
X159420962Y-137588873D01*
X159417322Y-137603641D01*
X159361652Y-137782294D01*
X159332326Y-137876404D01*
X159326930Y-137890630D01*
X159209686Y-138151136D01*
X159202615Y-138164609D01*
X159054818Y-138409095D01*
X159046175Y-138421617D01*
X158869984Y-138646507D01*
X158859894Y-138657895D01*
X158657895Y-138859894D01*
X158646507Y-138869984D01*
X158421617Y-139046175D01*
X158409095Y-139054818D01*
X158164609Y-139202615D01*
X158151140Y-139209684D01*
X157890630Y-139326930D01*
X157876408Y-139332325D01*
X157603641Y-139417322D01*
X157588879Y-139420960D01*
X157378648Y-139459486D01*
X157307874Y-139472456D01*
X157292770Y-139474290D01*
X157042071Y-139489455D01*
X157015361Y-139488198D01*
X157015141Y-139488195D01*
X157006270Y-139486814D01*
X156997368Y-139487978D01*
X156997365Y-139487978D01*
X156974749Y-139490936D01*
X156958411Y-139492000D01*
X134334500Y-139492000D01*
X134266379Y-139471998D01*
X134219886Y-139418342D01*
X134208500Y-139366000D01*
X134208500Y-137975618D01*
X134223456Y-137916077D01*
X134248477Y-137869413D01*
X134249106Y-137868253D01*
X134290964Y-137792114D01*
X134290965Y-137792112D01*
X134293933Y-137786713D01*
X134295545Y-137781631D01*
X134298062Y-137776937D01*
X134325262Y-137687969D01*
X134325608Y-137686858D01*
X134326134Y-137685202D01*
X134353735Y-137598194D01*
X134354329Y-137592898D01*
X134355887Y-137587802D01*
X134365290Y-137495243D01*
X134365411Y-137494107D01*
X134371000Y-137444273D01*
X134371000Y-137440746D01*
X134371055Y-137439761D01*
X134371502Y-137434081D01*
X134375874Y-137391038D01*
X134371559Y-137345391D01*
X134371000Y-137333533D01*
X134371000Y-136797095D01*
X142567001Y-136797095D01*
X142567338Y-136803614D01*
X142577257Y-136899206D01*
X142580149Y-136912600D01*
X142631588Y-137066784D01*
X142637761Y-137079962D01*
X142723063Y-137217807D01*
X142732099Y-137229208D01*
X142846829Y-137343739D01*
X142858240Y-137352751D01*
X142996243Y-137437816D01*
X143009424Y-137443963D01*
X143163710Y-137495138D01*
X143177086Y-137498005D01*
X143271438Y-137507672D01*
X143277854Y-137508000D01*
X143377885Y-137508000D01*
X143393124Y-137503525D01*
X143394329Y-137502135D01*
X143396000Y-137494452D01*
X143396000Y-136572115D01*
X143391525Y-136556876D01*
X143390135Y-136555671D01*
X143382452Y-136554000D01*
X142585116Y-136554000D01*
X142569877Y-136558475D01*
X142568672Y-136559865D01*
X142567001Y-136567548D01*
X142567001Y-136797095D01*
X134371000Y-136797095D01*
X134371000Y-135522870D01*
X134391002Y-135454749D01*
X134444658Y-135408256D01*
X134514932Y-135398152D01*
X134579512Y-135427646D01*
X134586018Y-135433697D01*
X134626697Y-135474305D01*
X134632927Y-135478145D01*
X134632928Y-135478146D01*
X134770090Y-135562694D01*
X134777262Y-135567115D01*
X134857005Y-135593564D01*
X134938611Y-135620632D01*
X134938613Y-135620632D01*
X134945139Y-135622797D01*
X134951975Y-135623497D01*
X134951978Y-135623498D01*
X134995031Y-135627909D01*
X135049600Y-135633500D01*
X135825400Y-135633500D01*
X135828646Y-135633163D01*
X135828650Y-135633163D01*
X135924308Y-135623238D01*
X135924312Y-135623237D01*
X135931166Y-135622526D01*
X135937702Y-135620345D01*
X135937704Y-135620345D01*
X136076115Y-135574167D01*
X136098946Y-135566550D01*
X136249348Y-135473478D01*
X136254521Y-135468296D01*
X136254526Y-135468292D01*
X136277295Y-135445483D01*
X136339577Y-135411403D01*
X136366468Y-135408500D01*
X142498261Y-135408500D01*
X142566382Y-135428502D01*
X142612875Y-135482158D01*
X142622979Y-135552432D01*
X142617854Y-135574167D01*
X142579863Y-135688707D01*
X142576995Y-135702086D01*
X142567328Y-135796438D01*
X142567000Y-135802855D01*
X142567000Y-136027885D01*
X142571475Y-136043124D01*
X142572865Y-136044329D01*
X142580548Y-136046000D01*
X143778000Y-136046000D01*
X143846121Y-136066002D01*
X143892614Y-136119658D01*
X143904000Y-136172000D01*
X143904000Y-137489884D01*
X143908475Y-137505123D01*
X143909865Y-137506328D01*
X143917548Y-137507999D01*
X144022095Y-137507999D01*
X144028614Y-137507662D01*
X144124206Y-137497743D01*
X144137600Y-137494851D01*
X144291784Y-137443412D01*
X144304962Y-137437239D01*
X144442807Y-137351937D01*
X144454208Y-137342901D01*
X144568738Y-137228172D01*
X144575794Y-137219238D01*
X144633712Y-137178177D01*
X144704635Y-137174947D01*
X144766046Y-137210574D01*
X144772846Y-137218407D01*
X144776522Y-137224348D01*
X144901697Y-137349305D01*
X144907927Y-137353145D01*
X144907928Y-137353146D01*
X145045288Y-137437816D01*
X145052262Y-137442115D01*
X145132005Y-137468564D01*
X145213611Y-137495632D01*
X145213613Y-137495632D01*
X145220139Y-137497797D01*
X145226975Y-137498497D01*
X145226978Y-137498498D01*
X145270031Y-137502909D01*
X145324600Y-137508500D01*
X146075400Y-137508500D01*
X146078646Y-137508163D01*
X146078650Y-137508163D01*
X146174308Y-137498238D01*
X146174312Y-137498237D01*
X146181166Y-137497526D01*
X146187702Y-137495345D01*
X146187704Y-137495345D01*
X146330302Y-137447770D01*
X146348946Y-137441550D01*
X146499348Y-137348478D01*
X146619565Y-137228052D01*
X146681846Y-137193973D01*
X146752666Y-137198976D01*
X146774852Y-137209810D01*
X146821028Y-137238273D01*
X146821033Y-137238275D01*
X146827262Y-137242115D01*
X146907005Y-137268564D01*
X146988611Y-137295632D01*
X146988613Y-137295632D01*
X146995139Y-137297797D01*
X147001975Y-137298497D01*
X147001978Y-137298498D01*
X147045031Y-137302909D01*
X147099600Y-137308500D01*
X148100400Y-137308500D01*
X148103646Y-137308163D01*
X148103650Y-137308163D01*
X148199308Y-137298238D01*
X148199312Y-137298237D01*
X148206166Y-137297526D01*
X148212702Y-137295345D01*
X148212704Y-137295345D01*
X148344806Y-137251272D01*
X148373946Y-137241550D01*
X148524348Y-137148478D01*
X148649305Y-137023303D01*
X148663669Y-137000000D01*
X148738275Y-136878968D01*
X148738276Y-136878966D01*
X148742115Y-136872738D01*
X148797797Y-136704861D01*
X148808500Y-136600400D01*
X148808500Y-135799600D01*
X148798556Y-135703757D01*
X148798238Y-135700692D01*
X148798237Y-135700688D01*
X148797526Y-135693834D01*
X148777288Y-135633172D01*
X148743868Y-135533002D01*
X148741550Y-135526054D01*
X148648478Y-135375652D01*
X148561891Y-135289216D01*
X148527812Y-135226934D01*
X148532815Y-135156114D01*
X148561736Y-135111025D01*
X148644134Y-135028483D01*
X148649305Y-135023303D01*
X148742115Y-134872738D01*
X148797797Y-134704861D01*
X148808500Y-134600400D01*
X148808500Y-133799600D01*
X148804766Y-133763611D01*
X148798238Y-133700692D01*
X148798237Y-133700688D01*
X148797526Y-133693834D01*
X148794618Y-133685116D01*
X148743868Y-133533002D01*
X148741550Y-133526054D01*
X148648478Y-133375652D01*
X148523303Y-133250695D01*
X148505492Y-133239716D01*
X148458000Y-133186943D01*
X148446578Y-133116871D01*
X148464350Y-133066341D01*
X148513912Y-132985937D01*
X148520056Y-132972759D01*
X148570315Y-132821234D01*
X148573181Y-132807868D01*
X148582672Y-132715230D01*
X148583000Y-132708815D01*
X148583000Y-132634615D01*
X148578525Y-132619376D01*
X148577135Y-132618171D01*
X148569452Y-132616500D01*
X147472000Y-132616500D01*
X147403879Y-132596498D01*
X147357386Y-132542842D01*
X147346000Y-132490500D01*
X147346000Y-132234500D01*
X147366002Y-132166379D01*
X147419658Y-132119886D01*
X147472000Y-132108500D01*
X148564885Y-132108500D01*
X148580124Y-132104025D01*
X148581329Y-132102635D01*
X148583000Y-132094952D01*
X148583000Y-132016234D01*
X148582663Y-132009718D01*
X148572925Y-131915868D01*
X148570032Y-131902472D01*
X148519512Y-131751047D01*
X148513347Y-131737885D01*
X148429574Y-131602508D01*
X148420536Y-131591106D01*
X148418861Y-131589433D01*
X148418081Y-131588007D01*
X148415993Y-131585373D01*
X148416444Y-131585016D01*
X148384781Y-131527151D01*
X148389784Y-131456331D01*
X148418701Y-131411246D01*
X148421756Y-131408185D01*
X148426929Y-131403003D01*
X148505932Y-131274837D01*
X148558704Y-131227344D01*
X148628776Y-131215920D01*
X148693900Y-131244194D01*
X148702287Y-131251858D01*
X149054595Y-131604166D01*
X149088621Y-131666478D01*
X149091500Y-131693261D01*
X149091500Y-131908134D01*
X149098255Y-131970316D01*
X149101029Y-131977715D01*
X149145513Y-132096376D01*
X149149385Y-132106705D01*
X149152727Y-132111164D01*
X149167530Y-132178848D01*
X149152933Y-132228561D01*
X149149385Y-132233295D01*
X149146236Y-132241696D01*
X149146234Y-132241699D01*
X149130681Y-132283188D01*
X149098255Y-132369684D01*
X149091500Y-132431866D01*
X149091500Y-133178134D01*
X149098255Y-133240316D01*
X149149385Y-133376705D01*
X149236739Y-133493261D01*
X149353295Y-133580615D01*
X149361704Y-133583767D01*
X149361705Y-133583768D01*
X149422204Y-133606448D01*
X149478969Y-133649089D01*
X149503669Y-133715651D01*
X149488462Y-133785000D01*
X149456435Y-133822943D01*
X149450652Y-133826522D01*
X149325695Y-133951697D01*
X149321855Y-133957927D01*
X149321854Y-133957928D01*
X149280907Y-134024357D01*
X149232885Y-134102262D01*
X149177203Y-134270139D01*
X149166500Y-134374600D01*
X149166500Y-135425400D01*
X149166837Y-135428646D01*
X149166837Y-135428650D01*
X149176618Y-135522914D01*
X149177474Y-135531166D01*
X149179655Y-135537702D01*
X149179655Y-135537704D01*
X149207322Y-135620632D01*
X149233450Y-135698946D01*
X149326522Y-135849348D01*
X149451697Y-135974305D01*
X149457927Y-135978145D01*
X149457928Y-135978146D01*
X149595288Y-136062816D01*
X149602262Y-136067115D01*
X149682005Y-136093564D01*
X149763611Y-136120632D01*
X149763613Y-136120632D01*
X149770139Y-136122797D01*
X149776975Y-136123497D01*
X149776978Y-136123498D01*
X149820031Y-136127909D01*
X149874600Y-136133500D01*
X150650400Y-136133500D01*
X150653646Y-136133163D01*
X150653650Y-136133163D01*
X150749308Y-136123238D01*
X150749312Y-136123237D01*
X150756166Y-136122526D01*
X150762702Y-136120345D01*
X150762704Y-136120345D01*
X150894806Y-136076272D01*
X150923946Y-136066550D01*
X151074348Y-135973478D01*
X151199305Y-135848303D01*
X151202102Y-135843765D01*
X151259353Y-135803176D01*
X151330276Y-135799946D01*
X151391687Y-135835572D01*
X151399062Y-135844068D01*
X151407098Y-135854207D01*
X151521829Y-135968739D01*
X151533240Y-135977751D01*
X151671243Y-136062816D01*
X151684424Y-136068963D01*
X151838710Y-136120138D01*
X151852086Y-136123005D01*
X151946438Y-136132672D01*
X151952854Y-136133000D01*
X152065385Y-136133000D01*
X152080624Y-136128525D01*
X152081829Y-136127135D01*
X152083500Y-136119452D01*
X152083500Y-136114884D01*
X152591500Y-136114884D01*
X152595975Y-136130123D01*
X152597365Y-136131328D01*
X152605048Y-136132999D01*
X152722095Y-136132999D01*
X152728614Y-136132662D01*
X152824206Y-136122743D01*
X152837600Y-136119851D01*
X152991784Y-136068412D01*
X153004962Y-136062239D01*
X153142807Y-135976937D01*
X153154208Y-135967901D01*
X153268739Y-135853171D01*
X153277751Y-135841760D01*
X153362816Y-135703757D01*
X153368963Y-135690576D01*
X153420138Y-135536290D01*
X153423005Y-135522914D01*
X153432672Y-135428562D01*
X153433000Y-135422146D01*
X153433000Y-135172115D01*
X153428525Y-135156876D01*
X153427135Y-135155671D01*
X153419452Y-135154000D01*
X152609615Y-135154000D01*
X152594376Y-135158475D01*
X152593171Y-135159865D01*
X152591500Y-135167548D01*
X152591500Y-136114884D01*
X152083500Y-136114884D01*
X152083500Y-134627885D01*
X152591500Y-134627885D01*
X152595975Y-134643124D01*
X152597365Y-134644329D01*
X152605048Y-134646000D01*
X153414884Y-134646000D01*
X153430123Y-134641525D01*
X153431328Y-134640135D01*
X153432999Y-134632452D01*
X153432999Y-134377905D01*
X153432662Y-134371386D01*
X153422743Y-134275794D01*
X153419851Y-134262400D01*
X153368412Y-134108216D01*
X153362239Y-134095038D01*
X153276937Y-133957193D01*
X153267901Y-133945792D01*
X153153171Y-133831261D01*
X153141760Y-133822249D01*
X153003757Y-133737184D01*
X152990576Y-133731037D01*
X152836290Y-133679862D01*
X152822914Y-133676995D01*
X152728562Y-133667328D01*
X152722145Y-133667000D01*
X152609615Y-133667000D01*
X152594376Y-133671475D01*
X152593171Y-133672865D01*
X152591500Y-133680548D01*
X152591500Y-134627885D01*
X152083500Y-134627885D01*
X152083500Y-133685116D01*
X152079025Y-133669877D01*
X152077635Y-133668672D01*
X152069952Y-133667001D01*
X151952905Y-133667001D01*
X151946386Y-133667338D01*
X151850794Y-133677257D01*
X151837397Y-133680150D01*
X151799529Y-133692783D01*
X151728580Y-133695367D01*
X151667496Y-133659183D01*
X151635672Y-133595718D01*
X151643211Y-133525123D01*
X151664077Y-133493872D01*
X151663261Y-133493261D01*
X151687275Y-133461219D01*
X151744134Y-133418704D01*
X151750207Y-133416695D01*
X151750991Y-133416356D01*
X151758600Y-133414145D01*
X151777065Y-133403225D01*
X151794805Y-133394534D01*
X151814756Y-133386635D01*
X151852129Y-133359482D01*
X151862048Y-133352967D01*
X151894977Y-133333493D01*
X151894981Y-133333490D01*
X151901807Y-133329453D01*
X151916971Y-133314289D01*
X151932005Y-133301448D01*
X151942943Y-133293501D01*
X151949357Y-133288841D01*
X151978803Y-133253247D01*
X151986792Y-133244468D01*
X152507605Y-132723655D01*
X152516385Y-132715665D01*
X152516387Y-132715663D01*
X152523080Y-132711416D01*
X152571605Y-132659742D01*
X152574359Y-132656901D01*
X152594927Y-132636333D01*
X152597647Y-132632826D01*
X152605353Y-132623804D01*
X152630995Y-132596498D01*
X152636972Y-132590133D01*
X152640794Y-132583181D01*
X152647303Y-132571342D01*
X152658157Y-132554818D01*
X152666443Y-132544135D01*
X152666444Y-132544134D01*
X152671304Y-132537868D01*
X152689654Y-132495464D01*
X152694869Y-132484819D01*
X152717124Y-132444337D01*
X152719094Y-132436663D01*
X152719097Y-132436656D01*
X152722455Y-132423574D01*
X152728861Y-132404862D01*
X152734233Y-132392448D01*
X152737380Y-132385177D01*
X152744608Y-132339541D01*
X152747012Y-132327930D01*
X152758500Y-132283188D01*
X152758500Y-132261742D01*
X152760051Y-132242032D01*
X152762166Y-132228678D01*
X152762166Y-132228677D01*
X152763406Y-132220848D01*
X152759059Y-132174859D01*
X152758500Y-132163004D01*
X152758500Y-132153677D01*
X152772283Y-132096376D01*
X152773010Y-132094952D01*
X152792176Y-132057418D01*
X152793916Y-132050307D01*
X152795869Y-132045055D01*
X152797638Y-132039737D01*
X152800738Y-132033105D01*
X152815102Y-131964049D01*
X152816072Y-131959764D01*
X152827874Y-131911531D01*
X152832830Y-131891279D01*
X152833500Y-131880480D01*
X152833524Y-131880481D01*
X152833788Y-131876066D01*
X152834078Y-131872816D01*
X152835569Y-131865648D01*
X152833546Y-131790877D01*
X152833500Y-131787469D01*
X152833500Y-129579801D01*
X152850381Y-129516801D01*
X152931223Y-129376779D01*
X152931224Y-129376778D01*
X152934527Y-129371056D01*
X152993542Y-129189428D01*
X153011210Y-129021329D01*
X153038223Y-128955673D01*
X153096445Y-128915043D01*
X153136520Y-128908500D01*
X153695761Y-128908500D01*
X153763882Y-128928502D01*
X153784856Y-128945405D01*
X156354595Y-131515144D01*
X156388621Y-131577456D01*
X156391500Y-131604239D01*
X156391500Y-131908134D01*
X156398255Y-131970316D01*
X156401029Y-131977715D01*
X156445513Y-132096376D01*
X156449385Y-132106705D01*
X156452727Y-132111164D01*
X156467530Y-132178848D01*
X156452933Y-132228561D01*
X156449385Y-132233295D01*
X156446236Y-132241696D01*
X156446234Y-132241699D01*
X156430681Y-132283188D01*
X156398255Y-132369684D01*
X156391500Y-132431866D01*
X156391500Y-133178134D01*
X156398255Y-133240316D01*
X156449385Y-133376705D01*
X156536739Y-133493261D01*
X156653295Y-133580615D01*
X156789684Y-133631745D01*
X156851866Y-133638500D01*
X158648134Y-133638500D01*
X158710316Y-133631745D01*
X158846705Y-133580615D01*
X158963261Y-133493261D01*
X159050615Y-133376705D01*
X159101745Y-133240316D01*
X159108500Y-133178134D01*
X159108500Y-132431866D01*
X159101745Y-132369684D01*
X159069319Y-132283188D01*
X159053766Y-132241699D01*
X159053764Y-132241696D01*
X159050615Y-132233295D01*
X159047273Y-132228836D01*
X159032470Y-132161152D01*
X159047067Y-132111439D01*
X159050615Y-132106705D01*
X159054488Y-132096376D01*
X159098971Y-131977715D01*
X159101745Y-131970316D01*
X159108500Y-131908134D01*
X159108500Y-131161866D01*
X159101745Y-131099684D01*
X159050615Y-130963295D01*
X159047273Y-130958836D01*
X159032470Y-130891152D01*
X159047067Y-130841439D01*
X159050615Y-130836705D01*
X159101745Y-130700316D01*
X159108500Y-130638134D01*
X159108500Y-129891866D01*
X159101745Y-129829684D01*
X159062164Y-129724101D01*
X159053766Y-129701699D01*
X159053764Y-129701696D01*
X159050615Y-129693295D01*
X159047029Y-129688510D01*
X159032182Y-129620626D01*
X159047351Y-129568965D01*
X159053323Y-129558058D01*
X159098478Y-129437606D01*
X159102105Y-129422351D01*
X159107631Y-129371486D01*
X159108000Y-129364672D01*
X159108000Y-129267115D01*
X159103525Y-129251876D01*
X159102135Y-129250671D01*
X159094452Y-129249000D01*
X156410116Y-129249000D01*
X156394877Y-129253475D01*
X156393672Y-129254865D01*
X156392001Y-129262548D01*
X156392001Y-129364669D01*
X156392371Y-129371490D01*
X156397895Y-129422352D01*
X156401521Y-129437604D01*
X156439282Y-129538331D01*
X156444465Y-129609139D01*
X156410544Y-129671508D01*
X156348289Y-129705637D01*
X156277465Y-129700690D01*
X156232205Y-129671656D01*
X155283434Y-128722885D01*
X156392000Y-128722885D01*
X156396475Y-128738124D01*
X156397865Y-128739329D01*
X156405548Y-128741000D01*
X157477885Y-128741000D01*
X157493124Y-128736525D01*
X157494329Y-128735135D01*
X157496000Y-128727452D01*
X157496000Y-128722885D01*
X158004000Y-128722885D01*
X158008475Y-128738124D01*
X158009865Y-128739329D01*
X158017548Y-128741000D01*
X159089884Y-128741000D01*
X159105123Y-128736525D01*
X159106328Y-128735135D01*
X159107999Y-128727452D01*
X159107999Y-128625331D01*
X159107629Y-128618510D01*
X159102105Y-128567648D01*
X159098479Y-128552396D01*
X159053324Y-128431946D01*
X159044786Y-128416351D01*
X158968285Y-128314276D01*
X158955724Y-128301715D01*
X158853649Y-128225214D01*
X158838054Y-128216676D01*
X158717606Y-128171522D01*
X158702351Y-128167895D01*
X158651486Y-128162369D01*
X158644672Y-128162000D01*
X158022115Y-128162000D01*
X158006876Y-128166475D01*
X158005671Y-128167865D01*
X158004000Y-128175548D01*
X158004000Y-128722885D01*
X157496000Y-128722885D01*
X157496000Y-128180116D01*
X157491525Y-128164877D01*
X157490135Y-128163672D01*
X157482452Y-128162001D01*
X156855331Y-128162001D01*
X156848510Y-128162371D01*
X156797648Y-128167895D01*
X156782396Y-128171521D01*
X156661946Y-128216676D01*
X156646351Y-128225214D01*
X156544276Y-128301715D01*
X156531715Y-128314276D01*
X156455214Y-128416351D01*
X156446676Y-128431946D01*
X156401522Y-128552394D01*
X156397895Y-128567649D01*
X156392369Y-128618514D01*
X156392000Y-128625328D01*
X156392000Y-128722885D01*
X155283434Y-128722885D01*
X154532487Y-127971938D01*
X154498461Y-127909626D01*
X154503526Y-127838811D01*
X154532487Y-127793747D01*
X155225053Y-127101182D01*
X155277726Y-127069657D01*
X155287668Y-127066655D01*
X155288450Y-127066422D01*
X155379619Y-127039590D01*
X155382772Y-127037942D01*
X155386169Y-127036916D01*
X155470101Y-126992289D01*
X155470681Y-126991984D01*
X155554890Y-126947960D01*
X155557658Y-126945735D01*
X155560796Y-126944066D01*
X155578889Y-126929310D01*
X155634372Y-126884059D01*
X155635056Y-126883506D01*
X155704218Y-126827898D01*
X155704224Y-126827892D01*
X155709025Y-126824032D01*
X155711308Y-126821311D01*
X155714062Y-126819065D01*
X155774619Y-126745864D01*
X155775123Y-126745259D01*
X155781679Y-126737447D01*
X155804001Y-126710844D01*
X155832193Y-126677247D01*
X155832195Y-126677244D01*
X155836154Y-126672526D01*
X155837866Y-126669411D01*
X155840130Y-126666675D01*
X155885318Y-126583101D01*
X155885721Y-126582363D01*
X155928465Y-126504612D01*
X155928465Y-126504611D01*
X155931433Y-126499213D01*
X155932506Y-126495830D01*
X155934198Y-126492701D01*
X155962282Y-126401974D01*
X155962538Y-126401158D01*
X155989373Y-126316565D01*
X155989374Y-126316561D01*
X155991235Y-126310694D01*
X155991631Y-126307163D01*
X155992682Y-126303768D01*
X156002611Y-126209293D01*
X156002699Y-126208486D01*
X156003651Y-126200000D01*
X156008500Y-126156773D01*
X156008500Y-126154200D01*
X156008820Y-126150224D01*
X156012711Y-126113204D01*
X156012711Y-126113202D01*
X156013355Y-126107075D01*
X156009019Y-126059430D01*
X156008500Y-126048010D01*
X156008500Y-120111843D01*
X156009237Y-120098236D01*
X156012659Y-120066738D01*
X156012659Y-120066733D01*
X156013324Y-120060612D01*
X156008950Y-120010612D01*
X156008621Y-120005786D01*
X156008500Y-120003314D01*
X156008500Y-120000231D01*
X156007326Y-119988262D01*
X156004310Y-119957494D01*
X156004188Y-119956181D01*
X155996623Y-119869718D01*
X155996087Y-119863587D01*
X155994600Y-119858468D01*
X155994080Y-119853167D01*
X155967209Y-119764166D01*
X155966874Y-119763033D01*
X155942630Y-119679586D01*
X155942628Y-119679582D01*
X155940909Y-119673664D01*
X155938456Y-119668932D01*
X155936916Y-119663831D01*
X155919530Y-119631132D01*
X155893269Y-119581740D01*
X155892657Y-119580574D01*
X155852729Y-119503547D01*
X155849892Y-119498074D01*
X155846569Y-119493911D01*
X155844066Y-119489204D01*
X155840170Y-119484427D01*
X155840166Y-119484421D01*
X155785289Y-119417136D01*
X155784539Y-119416208D01*
X155753262Y-119377027D01*
X155750758Y-119374523D01*
X155750116Y-119373805D01*
X155746415Y-119369472D01*
X155719065Y-119335938D01*
X155683737Y-119306712D01*
X155674958Y-119298723D01*
X154441005Y-118064771D01*
X154406980Y-118002459D01*
X154404773Y-117988680D01*
X154398238Y-117925692D01*
X154398237Y-117925688D01*
X154397526Y-117918834D01*
X154392540Y-117903887D01*
X154343868Y-117758002D01*
X154341550Y-117751054D01*
X154248478Y-117600652D01*
X154123303Y-117475695D01*
X153972738Y-117382885D01*
X153907658Y-117361299D01*
X153849299Y-117320868D01*
X153822062Y-117255304D01*
X153834596Y-117185422D01*
X153851301Y-117160128D01*
X153855043Y-117155722D01*
X153861965Y-117148216D01*
X153867660Y-117142521D01*
X153885281Y-117120249D01*
X153888072Y-117116845D01*
X153930594Y-117066794D01*
X153930597Y-117066790D01*
X153935333Y-117061215D01*
X153938660Y-117054699D01*
X153941975Y-117049729D01*
X153980497Y-117012496D01*
X154124348Y-116923478D01*
X154249305Y-116798303D01*
X154273712Y-116758708D01*
X154338275Y-116653968D01*
X154338276Y-116653966D01*
X154342115Y-116647738D01*
X154379378Y-116535394D01*
X154395632Y-116486389D01*
X154395632Y-116486387D01*
X154397797Y-116479861D01*
X154408500Y-116375400D01*
X154408500Y-115724600D01*
X154408163Y-115721350D01*
X154398238Y-115625692D01*
X154398237Y-115625688D01*
X154397526Y-115618834D01*
X154381362Y-115570383D01*
X154343868Y-115458002D01*
X154341550Y-115451054D01*
X154248478Y-115300652D01*
X154123303Y-115175695D01*
X154117072Y-115171854D01*
X153978968Y-115086725D01*
X153978966Y-115086724D01*
X153972738Y-115082885D01*
X153812254Y-115029655D01*
X153811389Y-115029368D01*
X153811387Y-115029368D01*
X153804861Y-115027203D01*
X153798025Y-115026503D01*
X153798022Y-115026502D01*
X153754969Y-115022091D01*
X153700400Y-115016500D01*
X152899600Y-115016500D01*
X152896354Y-115016837D01*
X152896350Y-115016837D01*
X152800692Y-115026762D01*
X152800688Y-115026763D01*
X152793834Y-115027474D01*
X152787298Y-115029655D01*
X152787296Y-115029655D01*
X152657179Y-115073066D01*
X152626054Y-115083450D01*
X152475652Y-115176522D01*
X152350695Y-115301697D01*
X152346855Y-115307927D01*
X152346854Y-115307928D01*
X152324133Y-115344789D01*
X152257885Y-115452262D01*
X152255581Y-115459209D01*
X152252487Y-115465844D01*
X152249854Y-115464616D01*
X152216952Y-115512084D01*
X152151382Y-115539305D01*
X152098455Y-115530539D01*
X152097525Y-115533342D01*
X151936290Y-115479862D01*
X151922914Y-115476995D01*
X151828562Y-115467328D01*
X151822145Y-115467000D01*
X151572115Y-115467000D01*
X151556876Y-115471475D01*
X151555671Y-115472865D01*
X151554000Y-115480548D01*
X151554000Y-116690500D01*
X151533998Y-116758621D01*
X151480342Y-116805114D01*
X151428000Y-116816500D01*
X150085116Y-116816500D01*
X150069877Y-116820975D01*
X150068672Y-116822365D01*
X150067001Y-116830048D01*
X150067001Y-116947095D01*
X150067338Y-116953614D01*
X150077256Y-117049201D01*
X150080776Y-117065500D01*
X150075604Y-117136308D01*
X150032972Y-117193080D01*
X149966415Y-117217790D01*
X149897063Y-117202595D01*
X149868520Y-117181194D01*
X149700634Y-117013309D01*
X149666609Y-116950997D01*
X149663729Y-116924213D01*
X149663729Y-116829481D01*
X149664233Y-116818223D01*
X149668464Y-116771053D01*
X149668682Y-116768627D01*
X149668833Y-116756285D01*
X149663683Y-116677171D01*
X149643379Y-116535394D01*
X149627522Y-116481166D01*
X149603755Y-116399892D01*
X149602497Y-116395590D01*
X149554663Y-116290385D01*
X150067000Y-116290385D01*
X150071475Y-116305624D01*
X150072865Y-116306829D01*
X150080548Y-116308500D01*
X151027885Y-116308500D01*
X151043124Y-116304025D01*
X151044329Y-116302635D01*
X151046000Y-116294952D01*
X151046000Y-115485116D01*
X151041525Y-115469877D01*
X151040135Y-115468672D01*
X151032452Y-115467001D01*
X150777905Y-115467001D01*
X150771386Y-115467338D01*
X150675794Y-115477257D01*
X150662400Y-115480149D01*
X150508216Y-115531588D01*
X150495038Y-115537761D01*
X150357193Y-115623063D01*
X150345792Y-115632099D01*
X150231261Y-115746829D01*
X150222249Y-115758240D01*
X150137184Y-115896243D01*
X150131037Y-115909424D01*
X150079862Y-116063710D01*
X150076995Y-116077086D01*
X150067328Y-116171438D01*
X150067000Y-116177855D01*
X150067000Y-116290385D01*
X149554663Y-116290385D01*
X149543217Y-116265211D01*
X149540805Y-116261440D01*
X149540801Y-116261432D01*
X149467157Y-116146279D01*
X149467156Y-116146278D01*
X149464742Y-116142503D01*
X149371252Y-116034002D01*
X149261489Y-115938250D01*
X149250099Y-115930867D01*
X149145062Y-115862786D01*
X149141304Y-115860350D01*
X149094278Y-115838621D01*
X149013145Y-115801132D01*
X149013143Y-115801131D01*
X149009076Y-115799252D01*
X148933004Y-115776502D01*
X148876156Y-115759501D01*
X148876151Y-115759500D01*
X148871858Y-115758216D01*
X148867426Y-115757554D01*
X148867423Y-115757553D01*
X148732235Y-115737350D01*
X148732232Y-115737350D01*
X148727804Y-115736688D01*
X148653145Y-115736232D01*
X148589055Y-115735840D01*
X148589050Y-115735840D01*
X148584583Y-115735813D01*
X148582139Y-115736148D01*
X148578344Y-115736271D01*
X148150000Y-115736271D01*
X148134914Y-115737350D01*
X148083627Y-115741018D01*
X148083626Y-115741018D01*
X148076889Y-115741500D01*
X148070404Y-115743404D01*
X148070405Y-115743404D01*
X148069992Y-115743525D01*
X148069733Y-115743525D01*
X148063764Y-115744602D01*
X148063570Y-115743525D01*
X147998996Y-115743521D01*
X147939271Y-115705135D01*
X147909782Y-115640552D01*
X147908500Y-115622627D01*
X147908500Y-114250231D01*
X147907814Y-114243227D01*
X147897466Y-114137704D01*
X147894080Y-114103167D01*
X147888570Y-114084917D01*
X147888029Y-114013925D01*
X147925955Y-113953908D01*
X147990309Y-113923923D01*
X148009192Y-113922500D01*
X151249769Y-113922500D01*
X151252825Y-113922200D01*
X151252832Y-113922200D01*
X151311340Y-113916463D01*
X151396833Y-113908080D01*
X151402732Y-113906299D01*
X151402737Y-113906298D01*
X151414063Y-113902878D01*
X151450481Y-113897500D01*
X151549572Y-113897500D01*
X151552818Y-113897163D01*
X151552822Y-113897163D01*
X151646735Y-113887419D01*
X151646739Y-113887418D01*
X151653593Y-113886707D01*
X151660129Y-113884526D01*
X151660131Y-113884526D01*
X151792895Y-113840232D01*
X151818607Y-113831654D01*
X151914821Y-113772115D01*
X151960305Y-113743969D01*
X151960306Y-113743968D01*
X151966531Y-113740116D01*
X151973423Y-113733212D01*
X151974887Y-113732411D01*
X151977438Y-113730389D01*
X151977784Y-113730826D01*
X152035704Y-113699134D01*
X152106524Y-113704137D01*
G37*
%TD.AperFunction*%
%TA.AperFunction,Conductor*%
G36*
X151056444Y-100528002D02*
G01*
X151102937Y-100581658D01*
X151113041Y-100651932D01*
X151083547Y-100716512D01*
X151077496Y-100723018D01*
X151033761Y-100766829D01*
X151024749Y-100778240D01*
X150939684Y-100916243D01*
X150933537Y-100929424D01*
X150882362Y-101083710D01*
X150879495Y-101097086D01*
X150869828Y-101191438D01*
X150869500Y-101197854D01*
X150869501Y-101443499D01*
X150849499Y-101511620D01*
X150795844Y-101558113D01*
X150743501Y-101569500D01*
X150149615Y-101569500D01*
X150134376Y-101573975D01*
X150133171Y-101575365D01*
X150131500Y-101583048D01*
X150131500Y-102505500D01*
X150111498Y-102573621D01*
X150057842Y-102620114D01*
X150005500Y-102631500D01*
X149749500Y-102631500D01*
X149681379Y-102611498D01*
X149634886Y-102557842D01*
X149623500Y-102505500D01*
X149623500Y-101587616D01*
X149619025Y-101572377D01*
X149617635Y-101571172D01*
X149609952Y-101569501D01*
X148988517Y-101569501D01*
X148983580Y-101569695D01*
X148955164Y-101571930D01*
X148942569Y-101574230D01*
X148796710Y-101616607D01*
X148782279Y-101622852D01*
X148652822Y-101699411D01*
X148640396Y-101709051D01*
X148534051Y-101815396D01*
X148524411Y-101827822D01*
X148447852Y-101957279D01*
X148441607Y-101971710D01*
X148399231Y-102117565D01*
X148396930Y-102130166D01*
X148394709Y-102158386D01*
X148369423Y-102224727D01*
X148312285Y-102266867D01*
X148269097Y-102274500D01*
X147674615Y-102274500D01*
X147659376Y-102278975D01*
X147658171Y-102280365D01*
X147656500Y-102288048D01*
X147656500Y-106272384D01*
X147660975Y-106287623D01*
X147662365Y-106288828D01*
X147670048Y-106290499D01*
X148268594Y-106290499D01*
X148336715Y-106310501D01*
X148383208Y-106364157D01*
X148394205Y-106406612D01*
X148396938Y-106441331D01*
X148411443Y-106491257D01*
X148433656Y-106567715D01*
X148443355Y-106601101D01*
X148461162Y-106631210D01*
X148478621Y-106700024D01*
X148456105Y-106767356D01*
X148400760Y-106811825D01*
X148388205Y-106816244D01*
X148361876Y-106823975D01*
X148360671Y-106825365D01*
X148359000Y-106833048D01*
X148359000Y-108180500D01*
X148338998Y-108248621D01*
X148285342Y-108295114D01*
X148233000Y-108306500D01*
X147977000Y-108306500D01*
X147908879Y-108286498D01*
X147862386Y-108232842D01*
X147851000Y-108180500D01*
X147851000Y-106837616D01*
X147846525Y-106822377D01*
X147845135Y-106821172D01*
X147837452Y-106819501D01*
X147720405Y-106819501D01*
X147713886Y-106819838D01*
X147618294Y-106829757D01*
X147604900Y-106832649D01*
X147450716Y-106884088D01*
X147437538Y-106890261D01*
X147299688Y-106975566D01*
X147288591Y-106984361D01*
X147222781Y-107010997D01*
X147153017Y-106997825D01*
X147112687Y-106965251D01*
X147067822Y-106910243D01*
X147065245Y-106907082D01*
X147064554Y-106906226D01*
X147033262Y-106867027D01*
X147030758Y-106864523D01*
X147030116Y-106863805D01*
X147026415Y-106859472D01*
X146999065Y-106825938D01*
X146991692Y-106819838D01*
X146963738Y-106796713D01*
X146954958Y-106788723D01*
X146671830Y-106505595D01*
X146637804Y-106443283D01*
X146642869Y-106372468D01*
X146685416Y-106315632D01*
X146751936Y-106290821D01*
X146760925Y-106290500D01*
X147130385Y-106290500D01*
X147145624Y-106286025D01*
X147146829Y-106284635D01*
X147148500Y-106276952D01*
X147148500Y-102292616D01*
X147144025Y-102277377D01*
X147142635Y-102276172D01*
X147134952Y-102274501D01*
X146536406Y-102274501D01*
X146468285Y-102254499D01*
X146421792Y-102200843D01*
X146410794Y-102158386D01*
X146408567Y-102130079D01*
X146408566Y-102130074D01*
X146408062Y-102123669D01*
X146379028Y-102023731D01*
X146363857Y-101971512D01*
X146363856Y-101971510D01*
X146361645Y-101963899D01*
X146331028Y-101912129D01*
X146280991Y-101827520D01*
X146280989Y-101827517D01*
X146276953Y-101820693D01*
X146159307Y-101703047D01*
X146152483Y-101699011D01*
X146152480Y-101699009D01*
X146022927Y-101622392D01*
X146022928Y-101622392D01*
X146016101Y-101618355D01*
X146008490Y-101616144D01*
X146008488Y-101616143D01*
X145956269Y-101600972D01*
X145856331Y-101571938D01*
X145849926Y-101571434D01*
X145849921Y-101571433D01*
X145821458Y-101569193D01*
X145821450Y-101569193D01*
X145819002Y-101569000D01*
X144035998Y-101569000D01*
X144033550Y-101569193D01*
X144033542Y-101569193D01*
X144005079Y-101571433D01*
X144005074Y-101571434D01*
X143998669Y-101571938D01*
X143992493Y-101573732D01*
X143992489Y-101573733D01*
X143853898Y-101613997D01*
X143818746Y-101619000D01*
X143140820Y-101619000D01*
X143121870Y-101617567D01*
X143107635Y-101615401D01*
X143107631Y-101615401D01*
X143100401Y-101614301D01*
X143093109Y-101614894D01*
X143093106Y-101614894D01*
X143047732Y-101618585D01*
X143037517Y-101619000D01*
X143029457Y-101619000D01*
X143025823Y-101619424D01*
X143025817Y-101619424D01*
X143012792Y-101620943D01*
X143001230Y-101622291D01*
X142996882Y-101622721D01*
X142924114Y-101628640D01*
X142917153Y-101630895D01*
X142911213Y-101632082D01*
X142905338Y-101633471D01*
X142898069Y-101634318D01*
X142829420Y-101659236D01*
X142825292Y-101660653D01*
X142762814Y-101680893D01*
X142762812Y-101680894D01*
X142755851Y-101683149D01*
X142749596Y-101686945D01*
X142744122Y-101689451D01*
X142738692Y-101692170D01*
X142731813Y-101694667D01*
X142725693Y-101698680D01*
X142725692Y-101698680D01*
X142670774Y-101734686D01*
X142667070Y-101737023D01*
X142654800Y-101744469D01*
X142589435Y-101762750D01*
X142079600Y-101762750D01*
X142076354Y-101763087D01*
X142076350Y-101763087D01*
X141980692Y-101773012D01*
X141980688Y-101773013D01*
X141973834Y-101773724D01*
X141967298Y-101775905D01*
X141967296Y-101775905D01*
X141849863Y-101815084D01*
X141806054Y-101829700D01*
X141792365Y-101838171D01*
X141703292Y-101893291D01*
X141634840Y-101912129D01*
X141567070Y-101890968D01*
X141547971Y-101875320D01*
X141528483Y-101855866D01*
X141523303Y-101850695D01*
X141509051Y-101841910D01*
X141378968Y-101761725D01*
X141378966Y-101761724D01*
X141372738Y-101757885D01*
X141229876Y-101710500D01*
X141211389Y-101704368D01*
X141211387Y-101704368D01*
X141204861Y-101702203D01*
X141198025Y-101701503D01*
X141198022Y-101701502D01*
X141154969Y-101697091D01*
X141100400Y-101691500D01*
X140099600Y-101691500D01*
X140096354Y-101691837D01*
X140096350Y-101691837D01*
X140000692Y-101701762D01*
X140000688Y-101701763D01*
X139993834Y-101702474D01*
X139987298Y-101704655D01*
X139987296Y-101704655D01*
X139975304Y-101708656D01*
X139826054Y-101758450D01*
X139675652Y-101851522D01*
X139550695Y-101976697D01*
X139546855Y-101982927D01*
X139546854Y-101982928D01*
X139464627Y-102116325D01*
X139457885Y-102127262D01*
X139455581Y-102134209D01*
X139409049Y-102274500D01*
X139402203Y-102295139D01*
X139391500Y-102399600D01*
X139391500Y-103200400D01*
X139391837Y-103203646D01*
X139391837Y-103203650D01*
X139399545Y-103277933D01*
X139402474Y-103306166D01*
X139404655Y-103312702D01*
X139404655Y-103312704D01*
X139410065Y-103328919D01*
X139458450Y-103473946D01*
X139551522Y-103624348D01*
X139556704Y-103629521D01*
X139638463Y-103711138D01*
X139672542Y-103773421D01*
X139667539Y-103844241D01*
X139638618Y-103889329D01*
X139556261Y-103971829D01*
X139547249Y-103983240D01*
X139462184Y-104121243D01*
X139456037Y-104134424D01*
X139404862Y-104288710D01*
X139401995Y-104302086D01*
X139392328Y-104396438D01*
X139392000Y-104402855D01*
X139392000Y-104527885D01*
X139396475Y-104543124D01*
X139397865Y-104544329D01*
X139405548Y-104546000D01*
X140728000Y-104546000D01*
X140796121Y-104566002D01*
X140842614Y-104619658D01*
X140854000Y-104672000D01*
X140854000Y-105889884D01*
X140858475Y-105905123D01*
X140859865Y-105906328D01*
X140867548Y-105907999D01*
X141097095Y-105907999D01*
X141103607Y-105907662D01*
X141115314Y-105906447D01*
X141185135Y-105919311D01*
X141236918Y-105967880D01*
X141254222Y-106036736D01*
X141238374Y-106088721D01*
X141239820Y-106089395D01*
X141236725Y-106096032D01*
X141232885Y-106102262D01*
X141215236Y-106155472D01*
X141179955Y-106261843D01*
X141177203Y-106270139D01*
X141176503Y-106276975D01*
X141176502Y-106276978D01*
X141172944Y-106311706D01*
X141166500Y-106374600D01*
X141166500Y-107150400D01*
X141166837Y-107153646D01*
X141166837Y-107153650D01*
X141175494Y-107237079D01*
X141177474Y-107256166D01*
X141179655Y-107262702D01*
X141179655Y-107262704D01*
X141185435Y-107280028D01*
X141233450Y-107423946D01*
X141326522Y-107574348D01*
X141331704Y-107579521D01*
X141356226Y-107604000D01*
X141451697Y-107699305D01*
X141456235Y-107702102D01*
X141496824Y-107759353D01*
X141500054Y-107830276D01*
X141464428Y-107891687D01*
X141455932Y-107899062D01*
X141445793Y-107907098D01*
X141365273Y-107987758D01*
X141302990Y-108021837D01*
X141232170Y-108016834D01*
X141213947Y-108007510D01*
X141213739Y-108007897D01*
X141131914Y-107964023D01*
X141130755Y-107963394D01*
X141054619Y-107921538D01*
X141054611Y-107921535D01*
X141049213Y-107918567D01*
X141044131Y-107916955D01*
X141039437Y-107914438D01*
X140950469Y-107887238D01*
X140949441Y-107886918D01*
X140860694Y-107858765D01*
X140855398Y-107858171D01*
X140850302Y-107856613D01*
X140757743Y-107847210D01*
X140756607Y-107847089D01*
X140722992Y-107843319D01*
X140710270Y-107841892D01*
X140710266Y-107841892D01*
X140706773Y-107841500D01*
X140703246Y-107841500D01*
X140702261Y-107841445D01*
X140696581Y-107840998D01*
X140667175Y-107838011D01*
X140659663Y-107837248D01*
X140659661Y-107837248D01*
X140653538Y-107836626D01*
X140611259Y-107840623D01*
X140607891Y-107840941D01*
X140596033Y-107841500D01*
X137876527Y-107841500D01*
X137855622Y-107839754D01*
X137855624Y-107839754D01*
X137847574Y-107838400D01*
X137768627Y-107831318D01*
X137766205Y-107831288D01*
X137766198Y-107831288D01*
X137762884Y-107831248D01*
X137756285Y-107831167D01*
X137685620Y-107835767D01*
X137681964Y-107836005D01*
X137673779Y-107836271D01*
X137329481Y-107836271D01*
X137318223Y-107835767D01*
X137314249Y-107835411D01*
X137268627Y-107831318D01*
X137266205Y-107831288D01*
X137266198Y-107831288D01*
X137262884Y-107831248D01*
X137256285Y-107831167D01*
X137219993Y-107833529D01*
X137179592Y-107836159D01*
X137179582Y-107836160D01*
X137177171Y-107836317D01*
X137174762Y-107836662D01*
X137039839Y-107855984D01*
X137039833Y-107855985D01*
X137035394Y-107856621D01*
X137031089Y-107857880D01*
X137031084Y-107857881D01*
X136931876Y-107886892D01*
X136895590Y-107897503D01*
X136765211Y-107956783D01*
X136761440Y-107959195D01*
X136761432Y-107959199D01*
X136646279Y-108032843D01*
X136642503Y-108035258D01*
X136534002Y-108128748D01*
X136438250Y-108238511D01*
X136435812Y-108242272D01*
X136435810Y-108242275D01*
X136420414Y-108266029D01*
X136360350Y-108358696D01*
X136299252Y-108490924D01*
X136291955Y-108515325D01*
X136262241Y-108614684D01*
X136258216Y-108628142D01*
X136257554Y-108632574D01*
X136257553Y-108632577D01*
X136238573Y-108759581D01*
X136236688Y-108772196D01*
X136236513Y-108800903D01*
X136235883Y-108904031D01*
X136235813Y-108915417D01*
X136236148Y-108917861D01*
X136236271Y-108921656D01*
X136236271Y-109350000D01*
X136241500Y-109423111D01*
X136247053Y-109442021D01*
X136252167Y-109459438D01*
X136255988Y-109512868D01*
X136236271Y-109650000D01*
X136236271Y-110140008D01*
X136236269Y-110140778D01*
X136235957Y-110191882D01*
X136235813Y-110215417D01*
X136240199Y-110247436D01*
X136254264Y-110350116D01*
X136255580Y-110359727D01*
X136294937Y-110497436D01*
X136354414Y-110630398D01*
X136356800Y-110634180D01*
X136356804Y-110634187D01*
X136406006Y-110712166D01*
X136430840Y-110751526D01*
X136459907Y-110785680D01*
X136461453Y-110787496D01*
X136490372Y-110852337D01*
X136491500Y-110869160D01*
X136491500Y-111575657D01*
X136490763Y-111589264D01*
X136486676Y-111626888D01*
X136487213Y-111633023D01*
X136491050Y-111676888D01*
X136491379Y-111681714D01*
X136491500Y-111684186D01*
X136491500Y-111687269D01*
X136491801Y-111690337D01*
X136495690Y-111730006D01*
X136495812Y-111731319D01*
X136503913Y-111823913D01*
X136505400Y-111829032D01*
X136505920Y-111834333D01*
X136532791Y-111923334D01*
X136533126Y-111924467D01*
X136555130Y-112000202D01*
X136559091Y-112013836D01*
X136561544Y-112018568D01*
X136563084Y-112023669D01*
X136565978Y-112029112D01*
X136606731Y-112105760D01*
X136607343Y-112106926D01*
X136635238Y-112160739D01*
X136650108Y-112189426D01*
X136653431Y-112193589D01*
X136655934Y-112198296D01*
X136714755Y-112270418D01*
X136715446Y-112271274D01*
X136746738Y-112310473D01*
X136749242Y-112312977D01*
X136749884Y-112313695D01*
X136753585Y-112318028D01*
X136780935Y-112351562D01*
X136798958Y-112366472D01*
X136838163Y-112423678D01*
X136880026Y-112549154D01*
X136882346Y-112556107D01*
X136973884Y-112704031D01*
X136979066Y-112709204D01*
X137091816Y-112821758D01*
X137091821Y-112821762D01*
X137096997Y-112826929D01*
X137103227Y-112830769D01*
X137103228Y-112830770D01*
X137222811Y-112904482D01*
X137245080Y-112918209D01*
X137410191Y-112972974D01*
X137417027Y-112973674D01*
X137417030Y-112973675D01*
X137468526Y-112978951D01*
X137512928Y-112983500D01*
X137611029Y-112983500D01*
X137647863Y-112989004D01*
X137662198Y-112993387D01*
X137720051Y-112999264D01*
X137852834Y-113012752D01*
X137852839Y-113012752D01*
X137858962Y-113013374D01*
X137983025Y-113001646D01*
X138049729Y-112995341D01*
X138049731Y-112995341D01*
X138055862Y-112994761D01*
X138066516Y-112991585D01*
X138076024Y-112988751D01*
X138112019Y-112983500D01*
X138212072Y-112983500D01*
X138215318Y-112983163D01*
X138215322Y-112983163D01*
X138309235Y-112973419D01*
X138309239Y-112973418D01*
X138316093Y-112972707D01*
X138322629Y-112970526D01*
X138322631Y-112970526D01*
X138383879Y-112950092D01*
X138481107Y-112917654D01*
X138487330Y-112913803D01*
X138491220Y-112911981D01*
X138561393Y-112901197D01*
X138626256Y-112930063D01*
X138657423Y-112970867D01*
X138658450Y-112973946D01*
X138662304Y-112980174D01*
X138662305Y-112980176D01*
X138737920Y-113102368D01*
X138751522Y-113124348D01*
X138756704Y-113129521D01*
X138761249Y-113135255D01*
X138759576Y-113136581D01*
X138788598Y-113189625D01*
X138791500Y-113216511D01*
X138791500Y-113255900D01*
X138772760Y-113322016D01*
X138722003Y-113404359D01*
X138707885Y-113427262D01*
X138692010Y-113475125D01*
X138655300Y-113585803D01*
X138652203Y-113595139D01*
X138641500Y-113699600D01*
X138641500Y-114500400D01*
X138641837Y-114503646D01*
X138641837Y-114503650D01*
X138649567Y-114578146D01*
X138652474Y-114606166D01*
X138708450Y-114773946D01*
X138801522Y-114924348D01*
X138806704Y-114929521D01*
X138888109Y-115010784D01*
X138922188Y-115073066D01*
X138917185Y-115143886D01*
X138888264Y-115188975D01*
X138800695Y-115276697D01*
X138796854Y-115282928D01*
X138792317Y-115288673D01*
X138790987Y-115287623D01*
X138744893Y-115329108D01*
X138690403Y-115341500D01*
X138567069Y-115341500D01*
X138548121Y-115340067D01*
X138540780Y-115338950D01*
X138533883Y-115337901D01*
X138533881Y-115337901D01*
X138526651Y-115336801D01*
X138519359Y-115337394D01*
X138519356Y-115337394D01*
X138473982Y-115341085D01*
X138463767Y-115341500D01*
X138455707Y-115341500D01*
X138442417Y-115343049D01*
X138427493Y-115344789D01*
X138423118Y-115345222D01*
X138357661Y-115350546D01*
X138357658Y-115350547D01*
X138350363Y-115351140D01*
X138343399Y-115353396D01*
X138337440Y-115354587D01*
X138331585Y-115355971D01*
X138324319Y-115356818D01*
X138255673Y-115381735D01*
X138251545Y-115383152D01*
X138189064Y-115403393D01*
X138189062Y-115403394D01*
X138182101Y-115405649D01*
X138175846Y-115409445D01*
X138170372Y-115411951D01*
X138164942Y-115414670D01*
X138158063Y-115417167D01*
X138097016Y-115457191D01*
X138093327Y-115459518D01*
X138080441Y-115467338D01*
X138035693Y-115494491D01*
X138035688Y-115494495D01*
X138030892Y-115497405D01*
X138022516Y-115504803D01*
X138022493Y-115504777D01*
X138019503Y-115507426D01*
X138016264Y-115510134D01*
X138010148Y-115514144D01*
X138005121Y-115519451D01*
X138005117Y-115519454D01*
X137956872Y-115570383D01*
X137954494Y-115572825D01*
X137722724Y-115804595D01*
X137660412Y-115838621D01*
X137633629Y-115841500D01*
X137101866Y-115841500D01*
X137039684Y-115848255D01*
X136903295Y-115899385D01*
X136786739Y-115986739D01*
X136699385Y-116103295D01*
X136648255Y-116239684D01*
X136641500Y-116301866D01*
X136641500Y-117698134D01*
X136648255Y-117760316D01*
X136699385Y-117896705D01*
X136734172Y-117943120D01*
X136750674Y-117965139D01*
X136775521Y-118031646D01*
X136760468Y-118101028D01*
X136738942Y-118129799D01*
X135792396Y-119076345D01*
X135783613Y-119084337D01*
X135776920Y-119088584D01*
X135771494Y-119094362D01*
X135728395Y-119140258D01*
X135725640Y-119143100D01*
X135705073Y-119163667D01*
X135702356Y-119167170D01*
X135694648Y-119176195D01*
X135663028Y-119209867D01*
X135659207Y-119216818D01*
X135659206Y-119216819D01*
X135652697Y-119228658D01*
X135641843Y-119245182D01*
X135634018Y-119255271D01*
X135628696Y-119262132D01*
X135625549Y-119269404D01*
X135625548Y-119269406D01*
X135610346Y-119304535D01*
X135605124Y-119315195D01*
X135591096Y-119340712D01*
X135582876Y-119355663D01*
X135577541Y-119376441D01*
X135571142Y-119395131D01*
X135562620Y-119414824D01*
X135556527Y-119453295D01*
X135555432Y-119460210D01*
X135525020Y-119524363D01*
X135464752Y-119561890D01*
X135430983Y-119566500D01*
X134774600Y-119566500D01*
X134771354Y-119566837D01*
X134771350Y-119566837D01*
X134675692Y-119576762D01*
X134675688Y-119576763D01*
X134668834Y-119577474D01*
X134662298Y-119579655D01*
X134662296Y-119579655D01*
X134656047Y-119581740D01*
X134501054Y-119633450D01*
X134350652Y-119726522D01*
X134345479Y-119731704D01*
X134345474Y-119731708D01*
X134322705Y-119754517D01*
X134260423Y-119788597D01*
X134233532Y-119791500D01*
X133772583Y-119791500D01*
X133704462Y-119771498D01*
X133683488Y-119754595D01*
X133239936Y-119311043D01*
X133232301Y-119304771D01*
X133166874Y-119251029D01*
X133125750Y-119217249D01*
X132951448Y-119123790D01*
X132826637Y-119085631D01*
X132768211Y-119067768D01*
X132768209Y-119067768D01*
X132762313Y-119065965D01*
X132704460Y-119060088D01*
X132571677Y-119046600D01*
X132571672Y-119046600D01*
X132565549Y-119045978D01*
X132441486Y-119057706D01*
X132374782Y-119064011D01*
X132374780Y-119064011D01*
X132368649Y-119064591D01*
X132288165Y-119088584D01*
X132185018Y-119119333D01*
X132185016Y-119119334D01*
X132179115Y-119121093D01*
X132004165Y-119213334D01*
X131999374Y-119217214D01*
X131999372Y-119217215D01*
X131880568Y-119313420D01*
X131815041Y-119340746D01*
X131801274Y-119341500D01*
X131508568Y-119341500D01*
X131504640Y-119341996D01*
X131504627Y-119341997D01*
X131486557Y-119344280D01*
X131416466Y-119332974D01*
X131369938Y-119294839D01*
X131343285Y-119259276D01*
X131330724Y-119246715D01*
X131223130Y-119166078D01*
X131180615Y-119109219D01*
X131173773Y-119048808D01*
X131183500Y-118974925D01*
X131183500Y-118921477D01*
X131187458Y-118890142D01*
X131206529Y-118815866D01*
X131206529Y-118815863D01*
X131208500Y-118808188D01*
X131208500Y-118215369D01*
X131228502Y-118147248D01*
X131268193Y-118108228D01*
X131324348Y-118073478D01*
X131379089Y-118018642D01*
X131444134Y-117953483D01*
X131449305Y-117948303D01*
X131451906Y-117944084D01*
X131509030Y-117903583D01*
X131579953Y-117900351D01*
X131641365Y-117935976D01*
X131647922Y-117943530D01*
X131651522Y-117949348D01*
X131776697Y-118074305D01*
X131782927Y-118078145D01*
X131782928Y-118078146D01*
X131920090Y-118162694D01*
X131927262Y-118167115D01*
X132007005Y-118193564D01*
X132088611Y-118220632D01*
X132088613Y-118220632D01*
X132095139Y-118222797D01*
X132101975Y-118223497D01*
X132101978Y-118223498D01*
X132145031Y-118227909D01*
X132199600Y-118233500D01*
X132975400Y-118233500D01*
X132978646Y-118233163D01*
X132978650Y-118233163D01*
X133074308Y-118223238D01*
X133074312Y-118223237D01*
X133081166Y-118222526D01*
X133087702Y-118220345D01*
X133087704Y-118220345D01*
X133219806Y-118176272D01*
X133248946Y-118166550D01*
X133399348Y-118073478D01*
X133404521Y-118068296D01*
X133404526Y-118068292D01*
X133427295Y-118045483D01*
X133489577Y-118011403D01*
X133516468Y-118008500D01*
X133738411Y-118008500D01*
X133806532Y-118028502D01*
X133813975Y-118033674D01*
X133903295Y-118100615D01*
X134039684Y-118151745D01*
X134101866Y-118158500D01*
X135098134Y-118158500D01*
X135160316Y-118151745D01*
X135296705Y-118100615D01*
X135413261Y-118013261D01*
X135500615Y-117896705D01*
X135551745Y-117760316D01*
X135558500Y-117698134D01*
X135558500Y-117333248D01*
X135564135Y-117295989D01*
X135576729Y-117255304D01*
X135592682Y-117203768D01*
X135598521Y-117148216D01*
X135612711Y-117013204D01*
X135612711Y-117013202D01*
X135613355Y-117007075D01*
X135605308Y-116918650D01*
X135595989Y-116816251D01*
X135595988Y-116816248D01*
X135595430Y-116810112D01*
X135591955Y-116798303D01*
X135563626Y-116702050D01*
X135558500Y-116666475D01*
X135558500Y-116301866D01*
X135551745Y-116239684D01*
X135500615Y-116103295D01*
X135413261Y-115986739D01*
X135296705Y-115899385D01*
X135160316Y-115848255D01*
X135098134Y-115841500D01*
X134101866Y-115841500D01*
X134039684Y-115848255D01*
X133903295Y-115899385D01*
X133839577Y-115947139D01*
X133813976Y-115966326D01*
X133747470Y-115991174D01*
X133738411Y-115991500D01*
X133516350Y-115991500D01*
X133448229Y-115971498D01*
X133427333Y-115954674D01*
X133405809Y-115933188D01*
X133398303Y-115925695D01*
X133364358Y-115904771D01*
X133253968Y-115836725D01*
X133253966Y-115836724D01*
X133247738Y-115832885D01*
X133087254Y-115779655D01*
X133086389Y-115779368D01*
X133086387Y-115779368D01*
X133079861Y-115777203D01*
X133073025Y-115776503D01*
X133073022Y-115776502D01*
X133029969Y-115772091D01*
X132975400Y-115766500D01*
X132199600Y-115766500D01*
X132196354Y-115766837D01*
X132196350Y-115766837D01*
X132100692Y-115776762D01*
X132100688Y-115776763D01*
X132093834Y-115777474D01*
X132087298Y-115779655D01*
X132087296Y-115779655D01*
X131955194Y-115823728D01*
X131926054Y-115833450D01*
X131775652Y-115926522D01*
X131770479Y-115931704D01*
X131715540Y-115986739D01*
X131650695Y-116051697D01*
X131648094Y-116055916D01*
X131590970Y-116096417D01*
X131520047Y-116099649D01*
X131458635Y-116064024D01*
X131452078Y-116056470D01*
X131448478Y-116050652D01*
X131323303Y-115925695D01*
X131289358Y-115904771D01*
X131178968Y-115836725D01*
X131178966Y-115836724D01*
X131172738Y-115832885D01*
X131012254Y-115779655D01*
X131011389Y-115779368D01*
X131011387Y-115779368D01*
X131004861Y-115777203D01*
X130998025Y-115776503D01*
X130998022Y-115776502D01*
X130954969Y-115772091D01*
X130900400Y-115766500D01*
X130124600Y-115766500D01*
X130121354Y-115766837D01*
X130121350Y-115766837D01*
X130025692Y-115776762D01*
X130025688Y-115776763D01*
X130018834Y-115777474D01*
X130012298Y-115779655D01*
X130012296Y-115779655D01*
X129880194Y-115823728D01*
X129851054Y-115833450D01*
X129700652Y-115926522D01*
X129695479Y-115931704D01*
X129640540Y-115986739D01*
X129575695Y-116051697D01*
X129571855Y-116057927D01*
X129571854Y-116057928D01*
X129517394Y-116146279D01*
X129482885Y-116202262D01*
X129472927Y-116232285D01*
X129448602Y-116305624D01*
X129427203Y-116370139D01*
X129426503Y-116376975D01*
X129426502Y-116376978D01*
X129422091Y-116420031D01*
X129416500Y-116474600D01*
X129416500Y-117525400D01*
X129416837Y-117528646D01*
X129416837Y-117528650D01*
X129425849Y-117615500D01*
X129427474Y-117631166D01*
X129483450Y-117798946D01*
X129576522Y-117949348D01*
X129701697Y-118074305D01*
X129707927Y-118078145D01*
X129707928Y-118078146D01*
X129831616Y-118154389D01*
X129879110Y-118207162D01*
X129891500Y-118261649D01*
X129891500Y-118741000D01*
X129871498Y-118809121D01*
X129817842Y-118855614D01*
X129765500Y-118867000D01*
X129204228Y-118867000D01*
X129196019Y-118867538D01*
X129096758Y-118880606D01*
X129080940Y-118884844D01*
X128957418Y-118936009D01*
X128943237Y-118944196D01*
X128867832Y-119002056D01*
X128801612Y-119027656D01*
X128753031Y-119022195D01*
X128710694Y-119008765D01*
X128704577Y-119008079D01*
X128704573Y-119008078D01*
X128631742Y-118999909D01*
X128556773Y-118991500D01*
X120950231Y-118991500D01*
X120947178Y-118991799D01*
X120947165Y-118991800D01*
X120921295Y-118994337D01*
X120851548Y-118981077D01*
X120800041Y-118932214D01*
X120783000Y-118868938D01*
X120782999Y-118455332D01*
X120782629Y-118448510D01*
X120777105Y-118397648D01*
X120773479Y-118382396D01*
X120728324Y-118261946D01*
X120719786Y-118246351D01*
X120643285Y-118144276D01*
X120630724Y-118131715D01*
X120528649Y-118055214D01*
X120513054Y-118046676D01*
X120392606Y-118001522D01*
X120377351Y-117997895D01*
X120326486Y-117992369D01*
X120319672Y-117992000D01*
X119672115Y-117992000D01*
X119656876Y-117996475D01*
X119655671Y-117997865D01*
X119654000Y-118005548D01*
X119654000Y-121989884D01*
X119658475Y-122005123D01*
X119659865Y-122006328D01*
X119667548Y-122007999D01*
X120319669Y-122007999D01*
X120326490Y-122007629D01*
X120377352Y-122002105D01*
X120392604Y-121998479D01*
X120513054Y-121953324D01*
X120528649Y-121944786D01*
X120630724Y-121868285D01*
X120643285Y-121855724D01*
X120719786Y-121753649D01*
X120728324Y-121738054D01*
X120773478Y-121617606D01*
X120777105Y-121602351D01*
X120782631Y-121551486D01*
X120783000Y-121544673D01*
X120782999Y-121131451D01*
X120803001Y-121063331D01*
X120856656Y-121016837D01*
X120923044Y-121006236D01*
X120929457Y-121006955D01*
X120939729Y-121008108D01*
X120939735Y-121008108D01*
X120943227Y-121008500D01*
X128549769Y-121008500D01*
X128552825Y-121008200D01*
X128552832Y-121008200D01*
X128611340Y-121002463D01*
X128696833Y-120994080D01*
X128702734Y-120992298D01*
X128702736Y-120992298D01*
X128776053Y-120970162D01*
X128886169Y-120936916D01*
X129060796Y-120844066D01*
X129172947Y-120752598D01*
X129209294Y-120722954D01*
X129209296Y-120722952D01*
X129214062Y-120719065D01*
X129235021Y-120693730D01*
X129293855Y-120653992D01*
X129316310Y-120649041D01*
X129337896Y-120646314D01*
X129407986Y-120657623D01*
X129460835Y-120705031D01*
X129479664Y-120773485D01*
X129470091Y-120819540D01*
X129434358Y-120905806D01*
X129434357Y-120905811D01*
X129431197Y-120913439D01*
X129430120Y-120921623D01*
X129430119Y-120921625D01*
X129417038Y-121020986D01*
X129416500Y-121025075D01*
X129416500Y-121221122D01*
X129396498Y-121289243D01*
X129379596Y-121310217D01*
X128935219Y-121754595D01*
X128872906Y-121788620D01*
X128846123Y-121791500D01*
X128824600Y-121791500D01*
X128821354Y-121791837D01*
X128821350Y-121791837D01*
X128725692Y-121801762D01*
X128725688Y-121801763D01*
X128718834Y-121802474D01*
X128712298Y-121804655D01*
X128712296Y-121804655D01*
X128632714Y-121831206D01*
X128551054Y-121858450D01*
X128400652Y-121951522D01*
X128275695Y-122076697D01*
X128271855Y-122082927D01*
X128271854Y-122082928D01*
X128242474Y-122130592D01*
X128182885Y-122227262D01*
X128127203Y-122395139D01*
X128116500Y-122499600D01*
X128116500Y-123300400D01*
X128116837Y-123303646D01*
X128116837Y-123303650D01*
X128126542Y-123397181D01*
X128127474Y-123406166D01*
X128129655Y-123412702D01*
X128129655Y-123412704D01*
X128135024Y-123428796D01*
X128141500Y-123468672D01*
X128141500Y-124548529D01*
X128135996Y-124585363D01*
X128131613Y-124599698D01*
X128129280Y-124622668D01*
X128112632Y-124786561D01*
X128111626Y-124796462D01*
X128130239Y-124993362D01*
X128133482Y-125004240D01*
X128183315Y-125171402D01*
X128186741Y-125182896D01*
X128278982Y-125357846D01*
X128403447Y-125511547D01*
X128408180Y-125515490D01*
X128492611Y-125585835D01*
X128500975Y-125593465D01*
X128534497Y-125626929D01*
X128540727Y-125630769D01*
X128540728Y-125630770D01*
X128653040Y-125700000D01*
X128682580Y-125718209D01*
X128847691Y-125772974D01*
X128854536Y-125773675D01*
X128861262Y-125775117D01*
X128861158Y-125775600D01*
X128873930Y-125778227D01*
X128917768Y-125791965D01*
X128999911Y-125800888D01*
X129108263Y-125812659D01*
X129108267Y-125812659D01*
X129114388Y-125813324D01*
X129311413Y-125796087D01*
X129317330Y-125794368D01*
X129317335Y-125794367D01*
X129337517Y-125788503D01*
X129372670Y-125783500D01*
X129649572Y-125783500D01*
X129652818Y-125783163D01*
X129652822Y-125783163D01*
X129746735Y-125773419D01*
X129746739Y-125773418D01*
X129753593Y-125772707D01*
X129760129Y-125770526D01*
X129760131Y-125770526D01*
X129892895Y-125726232D01*
X129918607Y-125717654D01*
X130066531Y-125626116D01*
X130073774Y-125618861D01*
X130075538Y-125617895D01*
X130077441Y-125616387D01*
X130077699Y-125616713D01*
X130136054Y-125584781D01*
X130206875Y-125589782D01*
X130251970Y-125618708D01*
X130254631Y-125621364D01*
X130266040Y-125630375D01*
X130401563Y-125713912D01*
X130414741Y-125720056D01*
X130566266Y-125770315D01*
X130579632Y-125773181D01*
X130672270Y-125782672D01*
X130678685Y-125783000D01*
X130752885Y-125783000D01*
X130768124Y-125778525D01*
X130769329Y-125777135D01*
X130771000Y-125769452D01*
X130771000Y-124672000D01*
X130791002Y-124603879D01*
X130844658Y-124557386D01*
X130897000Y-124546000D01*
X131153000Y-124546000D01*
X131221121Y-124566002D01*
X131267614Y-124619658D01*
X131279000Y-124672000D01*
X131279000Y-125764885D01*
X131283475Y-125780124D01*
X131284865Y-125781329D01*
X131292548Y-125783000D01*
X131371266Y-125783000D01*
X131377782Y-125782663D01*
X131471632Y-125772925D01*
X131485028Y-125770032D01*
X131636453Y-125719512D01*
X131649615Y-125713347D01*
X131784992Y-125629574D01*
X131796390Y-125620540D01*
X131908863Y-125507871D01*
X131917875Y-125496460D01*
X132001412Y-125360937D01*
X132007556Y-125347759D01*
X132045907Y-125232136D01*
X132086338Y-125173776D01*
X132151902Y-125146539D01*
X132221783Y-125159072D01*
X132273795Y-125207397D01*
X132291500Y-125271803D01*
X132291500Y-133706684D01*
X132285093Y-133746351D01*
X132277203Y-133770139D01*
X132276503Y-133776975D01*
X132276502Y-133776978D01*
X132275680Y-133785000D01*
X132266500Y-133874600D01*
X132266500Y-134003555D01*
X132259813Y-134044056D01*
X132231184Y-134128395D01*
X132230356Y-134134106D01*
X132230355Y-134134110D01*
X132209640Y-134276978D01*
X132200631Y-134339109D01*
X132208991Y-134551862D01*
X132210265Y-134557494D01*
X132210266Y-134557499D01*
X132220709Y-134603650D01*
X132255981Y-134759530D01*
X132258259Y-134764833D01*
X132260046Y-134770332D01*
X132258458Y-134770848D01*
X132266500Y-134809935D01*
X132266500Y-134925400D01*
X132266837Y-134928646D01*
X132266837Y-134928650D01*
X132276092Y-135017842D01*
X132277474Y-135031166D01*
X132279654Y-135037700D01*
X132279655Y-135037705D01*
X132294864Y-135083291D01*
X132297448Y-135154241D01*
X132261264Y-135215325D01*
X132204486Y-135245750D01*
X132197540Y-135247402D01*
X132189684Y-135248255D01*
X132053295Y-135299385D01*
X131936739Y-135386739D01*
X131849385Y-135503295D01*
X131798255Y-135639684D01*
X131791500Y-135701866D01*
X131791500Y-139366000D01*
X131771498Y-139434121D01*
X131717842Y-139480614D01*
X131665500Y-139492000D01*
X103049328Y-139492000D01*
X103029943Y-139490500D01*
X103015142Y-139488195D01*
X103015139Y-139488195D01*
X103006270Y-139486814D01*
X102989101Y-139489059D01*
X102965161Y-139489892D01*
X102707230Y-139474290D01*
X102692126Y-139472456D01*
X102621352Y-139459486D01*
X102411121Y-139420960D01*
X102396359Y-139417322D01*
X102123592Y-139332325D01*
X102109370Y-139326930D01*
X101848860Y-139209684D01*
X101835391Y-139202615D01*
X101590905Y-139054818D01*
X101578383Y-139046175D01*
X101353493Y-138869984D01*
X101342105Y-138859894D01*
X101140106Y-138657895D01*
X101130016Y-138646507D01*
X100953825Y-138421617D01*
X100945182Y-138409095D01*
X100797385Y-138164609D01*
X100790314Y-138151136D01*
X100673070Y-137890630D01*
X100667674Y-137876404D01*
X100638348Y-137782294D01*
X100582678Y-137603641D01*
X100579038Y-137588873D01*
X100578617Y-137586572D01*
X100533963Y-137342901D01*
X100527544Y-137307874D01*
X100525710Y-137292770D01*
X100510545Y-137042071D01*
X100511802Y-137015361D01*
X100511805Y-137015141D01*
X100513186Y-137006270D01*
X100511547Y-136993730D01*
X100509064Y-136974749D01*
X100508000Y-136958411D01*
X100508000Y-128042277D01*
X101137009Y-128042277D01*
X101162625Y-128310769D01*
X101163710Y-128315203D01*
X101163711Y-128315209D01*
X101208852Y-128499686D01*
X101226731Y-128572750D01*
X101327985Y-128822733D01*
X101464265Y-129055482D01*
X101467118Y-129059049D01*
X101621326Y-129251876D01*
X101632716Y-129266119D01*
X101829809Y-129450234D01*
X102051416Y-129603968D01*
X102055499Y-129605999D01*
X102055502Y-129606001D01*
X102061810Y-129609139D01*
X102292894Y-129724101D01*
X102297228Y-129725522D01*
X102297231Y-129725523D01*
X102544853Y-129806698D01*
X102544859Y-129806699D01*
X102549186Y-129808118D01*
X102553677Y-129808898D01*
X102553678Y-129808898D01*
X102811140Y-129853601D01*
X102811148Y-129853602D01*
X102814921Y-129854257D01*
X102818758Y-129854448D01*
X102898578Y-129858422D01*
X102898586Y-129858422D01*
X102900149Y-129858500D01*
X103068512Y-129858500D01*
X103070780Y-129858335D01*
X103070792Y-129858335D01*
X103201884Y-129848823D01*
X103269004Y-129843953D01*
X103273459Y-129842969D01*
X103273462Y-129842969D01*
X103527912Y-129786791D01*
X103527916Y-129786790D01*
X103532372Y-129785806D01*
X103672651Y-129732659D01*
X103780318Y-129691868D01*
X103780321Y-129691867D01*
X103784588Y-129690250D01*
X103988947Y-129576739D01*
X104016375Y-129561504D01*
X104016376Y-129561503D01*
X104020368Y-129559286D01*
X104152462Y-129458475D01*
X104231141Y-129398429D01*
X104231142Y-129398428D01*
X104234773Y-129395657D01*
X104247832Y-129382299D01*
X104420117Y-129206060D01*
X104423312Y-129202792D01*
X104582034Y-128984730D01*
X104665190Y-128826676D01*
X104705490Y-128750079D01*
X104705493Y-128750073D01*
X104707615Y-128746039D01*
X104709395Y-128741000D01*
X104795902Y-128496033D01*
X104795902Y-128496032D01*
X104797425Y-128491720D01*
X104849581Y-128227100D01*
X104850100Y-128216676D01*
X104862764Y-127962292D01*
X104862764Y-127962286D01*
X104862991Y-127957723D01*
X104837375Y-127689231D01*
X104832070Y-127667548D01*
X104774355Y-127431688D01*
X104773269Y-127427250D01*
X104672015Y-127177267D01*
X104543922Y-126958500D01*
X104538045Y-126948463D01*
X104538044Y-126948462D01*
X104535735Y-126944518D01*
X104416104Y-126794927D01*
X104370136Y-126737447D01*
X104370135Y-126737445D01*
X104367284Y-126733881D01*
X104170191Y-126549766D01*
X103948584Y-126396032D01*
X103944501Y-126394001D01*
X103944498Y-126393999D01*
X103777047Y-126310694D01*
X103707106Y-126275899D01*
X103702772Y-126274478D01*
X103702769Y-126274477D01*
X103455147Y-126193302D01*
X103455141Y-126193301D01*
X103450814Y-126191882D01*
X103446322Y-126191102D01*
X103188860Y-126146399D01*
X103188852Y-126146398D01*
X103185079Y-126145743D01*
X103173817Y-126145182D01*
X103101422Y-126141578D01*
X103101414Y-126141578D01*
X103099851Y-126141500D01*
X102931488Y-126141500D01*
X102929220Y-126141665D01*
X102929208Y-126141665D01*
X102798116Y-126151177D01*
X102730996Y-126156047D01*
X102726541Y-126157031D01*
X102726538Y-126157031D01*
X102472088Y-126213209D01*
X102472084Y-126213210D01*
X102467628Y-126214194D01*
X102341520Y-126261972D01*
X102219682Y-126308132D01*
X102219679Y-126308133D01*
X102215412Y-126309750D01*
X101979632Y-126440714D01*
X101911513Y-126492701D01*
X101836532Y-126549925D01*
X101765227Y-126604343D01*
X101762034Y-126607609D01*
X101762032Y-126607611D01*
X101701618Y-126669411D01*
X101576688Y-126797208D01*
X101417966Y-127015270D01*
X101404256Y-127041329D01*
X101294510Y-127249921D01*
X101294507Y-127249927D01*
X101292385Y-127253961D01*
X101290865Y-127258266D01*
X101290863Y-127258270D01*
X101204098Y-127503967D01*
X101202575Y-127508280D01*
X101194367Y-127549924D01*
X101151878Y-127765500D01*
X101150419Y-127772900D01*
X101150192Y-127777453D01*
X101150192Y-127777456D01*
X101138014Y-128022095D01*
X101137009Y-128042277D01*
X100508000Y-128042277D01*
X100508000Y-121284500D01*
X100528002Y-121216379D01*
X100581658Y-121169886D01*
X100634000Y-121158500D01*
X104298134Y-121158500D01*
X104360316Y-121151745D01*
X104496705Y-121100615D01*
X104586024Y-121033674D01*
X104652530Y-121008826D01*
X104661589Y-121008500D01*
X105924769Y-121008500D01*
X105927825Y-121008200D01*
X105927832Y-121008200D01*
X105986340Y-121002463D01*
X106071833Y-120994080D01*
X106077732Y-120992299D01*
X106077737Y-120992298D01*
X106089063Y-120988878D01*
X106125481Y-120983500D01*
X106224572Y-120983500D01*
X106227818Y-120983163D01*
X106227822Y-120983163D01*
X106321735Y-120973419D01*
X106321739Y-120973418D01*
X106328593Y-120972707D01*
X106335129Y-120970526D01*
X106335131Y-120970526D01*
X106481704Y-120921625D01*
X106493607Y-120917654D01*
X106631714Y-120832191D01*
X106635305Y-120829969D01*
X106635306Y-120829968D01*
X106641531Y-120826116D01*
X106648423Y-120819212D01*
X106649887Y-120818411D01*
X106652438Y-120816389D01*
X106652784Y-120816826D01*
X106710704Y-120785134D01*
X106781524Y-120790137D01*
X106826610Y-120819056D01*
X106829116Y-120821557D01*
X106834497Y-120826929D01*
X106840727Y-120830769D01*
X106840728Y-120830770D01*
X106974842Y-120913439D01*
X106982580Y-120918209D01*
X107147691Y-120972974D01*
X107154527Y-120973674D01*
X107154530Y-120973675D01*
X107206026Y-120978951D01*
X107250428Y-120983500D01*
X107345417Y-120983500D01*
X107377333Y-120988441D01*
X107377407Y-120988091D01*
X107383434Y-120989372D01*
X107389306Y-120991235D01*
X107395423Y-120991921D01*
X107395427Y-120991922D01*
X107468258Y-121000091D01*
X107543227Y-121008500D01*
X109649769Y-121008500D01*
X109652825Y-121008200D01*
X109652832Y-121008200D01*
X109711340Y-121002463D01*
X109796833Y-120994080D01*
X109802734Y-120992298D01*
X109802736Y-120992298D01*
X109876053Y-120970162D01*
X109986169Y-120936916D01*
X110160796Y-120844066D01*
X110230941Y-120786857D01*
X110296373Y-120759303D01*
X110310577Y-120758500D01*
X110398134Y-120758500D01*
X110460316Y-120751745D01*
X110596705Y-120700615D01*
X110713261Y-120613261D01*
X110800615Y-120496705D01*
X110851745Y-120360316D01*
X110858500Y-120298134D01*
X110858500Y-119701866D01*
X110851745Y-119639684D01*
X110800615Y-119503295D01*
X110713261Y-119386739D01*
X110596705Y-119299385D01*
X110460316Y-119248255D01*
X110398134Y-119241500D01*
X110310929Y-119241500D01*
X110242808Y-119221498D01*
X110229949Y-119212030D01*
X110172526Y-119163846D01*
X110167128Y-119160879D01*
X110167123Y-119160875D01*
X110020061Y-119080028D01*
X109999213Y-119068567D01*
X109993346Y-119066706D01*
X109993344Y-119066705D01*
X109816564Y-119010627D01*
X109816563Y-119010627D01*
X109810694Y-119008765D01*
X109656773Y-118991500D01*
X107550231Y-118991500D01*
X107547175Y-118991800D01*
X107547168Y-118991800D01*
X107488660Y-118997537D01*
X107403167Y-119005920D01*
X107397268Y-119007701D01*
X107397263Y-119007702D01*
X107385937Y-119011122D01*
X107349519Y-119016500D01*
X107250428Y-119016500D01*
X107247182Y-119016837D01*
X107247178Y-119016837D01*
X107153265Y-119026581D01*
X107153261Y-119026582D01*
X107146407Y-119027293D01*
X107139871Y-119029474D01*
X107139869Y-119029474D01*
X107007105Y-119073768D01*
X106981393Y-119082346D01*
X106937967Y-119109219D01*
X106840990Y-119169230D01*
X106833469Y-119173884D01*
X106826577Y-119180788D01*
X106825113Y-119181589D01*
X106822562Y-119183611D01*
X106822216Y-119183174D01*
X106764296Y-119214866D01*
X106693476Y-119209863D01*
X106648390Y-119180944D01*
X106645684Y-119178243D01*
X106640503Y-119173071D01*
X106634272Y-119169230D01*
X106498650Y-119085631D01*
X106498648Y-119085630D01*
X106492420Y-119081791D01*
X106327309Y-119027026D01*
X106320473Y-119026326D01*
X106320470Y-119026325D01*
X106268974Y-119021049D01*
X106224572Y-119016500D01*
X106129583Y-119016500D01*
X106097667Y-119011559D01*
X106097593Y-119011909D01*
X106091566Y-119010628D01*
X106085694Y-119008765D01*
X106079577Y-119008079D01*
X106079573Y-119008078D01*
X106006742Y-118999909D01*
X105931773Y-118991500D01*
X104661589Y-118991500D01*
X104593468Y-118971498D01*
X104586024Y-118966326D01*
X104545572Y-118936009D01*
X104496705Y-118899385D01*
X104360316Y-118848255D01*
X104298134Y-118841500D01*
X100634000Y-118841500D01*
X100565879Y-118821498D01*
X100519386Y-118767842D01*
X100508000Y-118715500D01*
X100508000Y-112042277D01*
X101137009Y-112042277D01*
X101162625Y-112310769D01*
X101163710Y-112315203D01*
X101163711Y-112315209D01*
X101222924Y-112557193D01*
X101226731Y-112572750D01*
X101327985Y-112822733D01*
X101464265Y-113055482D01*
X101467118Y-113059049D01*
X101624544Y-113255900D01*
X101632716Y-113266119D01*
X101829809Y-113450234D01*
X102051416Y-113603968D01*
X102055499Y-113605999D01*
X102055502Y-113606001D01*
X102131964Y-113644040D01*
X102292894Y-113724101D01*
X102297228Y-113725522D01*
X102297231Y-113725523D01*
X102544853Y-113806698D01*
X102544859Y-113806699D01*
X102549186Y-113808118D01*
X102553677Y-113808898D01*
X102553678Y-113808898D01*
X102811140Y-113853601D01*
X102811148Y-113853602D01*
X102814921Y-113854257D01*
X102818758Y-113854448D01*
X102898578Y-113858422D01*
X102898586Y-113858422D01*
X102900149Y-113858500D01*
X103068512Y-113858500D01*
X103070780Y-113858335D01*
X103070792Y-113858335D01*
X103201884Y-113848823D01*
X103269004Y-113843953D01*
X103273459Y-113842969D01*
X103273462Y-113842969D01*
X103527912Y-113786791D01*
X103527916Y-113786790D01*
X103532372Y-113785806D01*
X103678643Y-113730389D01*
X103780318Y-113691868D01*
X103780321Y-113691867D01*
X103784588Y-113690250D01*
X103976319Y-113583753D01*
X104016375Y-113561504D01*
X104016376Y-113561503D01*
X104020368Y-113559286D01*
X104184258Y-113434209D01*
X104231141Y-113398429D01*
X104231142Y-113398428D01*
X104234773Y-113395657D01*
X104260426Y-113369416D01*
X104364891Y-113262553D01*
X104423312Y-113202792D01*
X104582034Y-112984730D01*
X104665190Y-112826676D01*
X104705490Y-112750079D01*
X104705493Y-112750073D01*
X104707615Y-112746039D01*
X104725626Y-112695038D01*
X104795902Y-112496033D01*
X104795902Y-112496032D01*
X104797425Y-112491720D01*
X104833090Y-112310769D01*
X104848700Y-112231572D01*
X104848701Y-112231566D01*
X104849581Y-112227100D01*
X104851015Y-112198296D01*
X104862764Y-111962292D01*
X104862764Y-111962286D01*
X104862991Y-111957723D01*
X104837375Y-111689231D01*
X104835613Y-111682028D01*
X104774355Y-111431688D01*
X104773269Y-111427250D01*
X104677193Y-111190050D01*
X109515754Y-111190050D01*
X109518191Y-111224900D01*
X109518203Y-111225073D01*
X109518273Y-111226135D01*
X109531478Y-111442021D01*
X109535790Y-111512526D01*
X109535852Y-111513624D01*
X109536809Y-111531880D01*
X109537688Y-111548659D01*
X109538154Y-111551173D01*
X109538310Y-111553725D01*
X109539095Y-111557762D01*
X109539096Y-111557772D01*
X109545019Y-111588240D01*
X109545224Y-111589320D01*
X109597482Y-111871278D01*
X109597678Y-111872360D01*
X109603783Y-111906983D01*
X109604551Y-111909418D01*
X109605016Y-111911928D01*
X109615933Y-111945525D01*
X109616162Y-111946240D01*
X109666828Y-112106926D01*
X109702458Y-112219927D01*
X109702784Y-112220978D01*
X109711850Y-112250630D01*
X109713056Y-112254574D01*
X109714116Y-112256900D01*
X109714886Y-112259342D01*
X109729772Y-112291265D01*
X109730174Y-112292137D01*
X109849133Y-112553168D01*
X109849580Y-112554159D01*
X109863875Y-112586266D01*
X109865209Y-112588443D01*
X109866270Y-112590771D01*
X109868459Y-112594274D01*
X109884919Y-112620615D01*
X109885498Y-112621551D01*
X110017113Y-112836324D01*
X110035293Y-112865991D01*
X110035794Y-112866815D01*
X110053984Y-112897090D01*
X110055579Y-112899095D01*
X110056919Y-112901282D01*
X110067517Y-112914369D01*
X110079034Y-112928591D01*
X110079725Y-112929452D01*
X110258274Y-113153929D01*
X110258952Y-113154789D01*
X110280567Y-113182454D01*
X110282382Y-113184238D01*
X110283970Y-113186234D01*
X110309339Y-113210733D01*
X110310020Y-113211397D01*
X110340679Y-113241525D01*
X110497528Y-113395657D01*
X110499172Y-113397273D01*
X110505208Y-113403633D01*
X110539677Y-113442593D01*
X110546559Y-113447148D01*
X110546560Y-113447149D01*
X110551221Y-113450234D01*
X110585650Y-113473022D01*
X110591883Y-113477427D01*
X110635904Y-113510599D01*
X110643562Y-113513693D01*
X110650750Y-113517760D01*
X110650732Y-113517793D01*
X110653360Y-113519176D01*
X110653377Y-113519141D01*
X110660795Y-113522758D01*
X110667685Y-113527319D01*
X110719919Y-113544796D01*
X110727137Y-113547459D01*
X110756120Y-113559168D01*
X110778233Y-113568102D01*
X110786434Y-113569109D01*
X110794424Y-113571175D01*
X110794414Y-113571213D01*
X110797311Y-113571868D01*
X110797318Y-113571830D01*
X110805424Y-113573406D01*
X110813258Y-113576027D01*
X110846816Y-113578079D01*
X110868242Y-113579390D01*
X110875905Y-113580094D01*
X110922399Y-113585803D01*
X110922403Y-113585803D01*
X110930596Y-113586809D01*
X110938774Y-113585659D01*
X110947032Y-113585587D01*
X110947032Y-113585626D01*
X110950001Y-113585509D01*
X110949998Y-113585471D01*
X110958240Y-113584895D01*
X110966479Y-113585399D01*
X110974567Y-113583754D01*
X110974575Y-113583753D01*
X111020462Y-113574417D01*
X111028038Y-113573114D01*
X111082609Y-113565444D01*
X111090211Y-113562217D01*
X111098169Y-113560010D01*
X111098179Y-113560048D01*
X111101012Y-113559168D01*
X111100999Y-113559131D01*
X111108814Y-113556440D01*
X111116904Y-113554794D01*
X111166241Y-113530195D01*
X111173157Y-113527007D01*
X111223912Y-113505462D01*
X111230415Y-113500381D01*
X111237537Y-113496186D01*
X111237556Y-113496218D01*
X111240067Y-113494633D01*
X111240046Y-113494602D01*
X111246893Y-113489984D01*
X111254282Y-113486300D01*
X111264287Y-113477449D01*
X111295547Y-113449792D01*
X111301463Y-113444872D01*
X111325549Y-113426054D01*
X111344877Y-113410953D01*
X111352864Y-113400354D01*
X111376177Y-113369416D01*
X111381713Y-113362581D01*
X111652099Y-113051537D01*
X111807908Y-112872299D01*
X111867693Y-112834011D01*
X111938690Y-112834123D01*
X111998355Y-112872602D01*
X112027746Y-112937229D01*
X112029000Y-112954963D01*
X112029000Y-115884140D01*
X112012120Y-115947139D01*
X112011003Y-115949074D01*
X112005976Y-115955625D01*
X111944662Y-116103650D01*
X111943584Y-116111837D01*
X111943584Y-116111838D01*
X111931680Y-116202262D01*
X111929000Y-116222615D01*
X111929001Y-116737384D01*
X111929539Y-116741469D01*
X111929539Y-116741473D01*
X111937702Y-116803483D01*
X111944662Y-116856350D01*
X111945387Y-116858100D01*
X111945386Y-116916902D01*
X111944662Y-116918650D01*
X111943585Y-116926834D01*
X111943584Y-116926836D01*
X111933829Y-117000935D01*
X111929000Y-117037615D01*
X111929001Y-117552384D01*
X111929539Y-117556469D01*
X111929539Y-117556473D01*
X111943584Y-117663162D01*
X111944662Y-117671350D01*
X111965434Y-117721498D01*
X111981909Y-117761273D01*
X111991500Y-117809491D01*
X111991500Y-119115500D01*
X111971498Y-119183621D01*
X111917842Y-119230114D01*
X111865500Y-119241500D01*
X111801866Y-119241500D01*
X111739684Y-119248255D01*
X111603295Y-119299385D01*
X111486739Y-119386739D01*
X111399385Y-119503295D01*
X111348255Y-119639684D01*
X111341500Y-119701866D01*
X111341500Y-120298134D01*
X111348255Y-120360316D01*
X111399385Y-120496705D01*
X111486739Y-120613261D01*
X111603295Y-120700615D01*
X111739684Y-120751745D01*
X111801866Y-120758500D01*
X111889071Y-120758500D01*
X111957192Y-120778502D01*
X111970051Y-120787970D01*
X112027474Y-120836154D01*
X112032872Y-120839121D01*
X112032877Y-120839125D01*
X112091870Y-120871556D01*
X112200787Y-120931433D01*
X112206654Y-120933294D01*
X112206656Y-120933295D01*
X112363860Y-120983163D01*
X112389306Y-120991235D01*
X112543227Y-121008500D01*
X117649769Y-121008500D01*
X117652825Y-121008200D01*
X117652832Y-121008200D01*
X117711340Y-121002463D01*
X117796833Y-120994080D01*
X117854584Y-120976644D01*
X117925575Y-120976103D01*
X117985593Y-121014030D01*
X118015577Y-121078384D01*
X118017000Y-121097266D01*
X118017001Y-121544668D01*
X118017371Y-121551490D01*
X118022895Y-121602352D01*
X118026521Y-121617604D01*
X118071676Y-121738054D01*
X118080214Y-121753649D01*
X118156715Y-121855724D01*
X118169276Y-121868285D01*
X118271351Y-121944786D01*
X118286946Y-121953324D01*
X118407394Y-121998478D01*
X118422649Y-122002105D01*
X118473514Y-122007631D01*
X118480328Y-122008000D01*
X119127885Y-122008000D01*
X119143124Y-122003525D01*
X119144329Y-122002135D01*
X119146000Y-121994452D01*
X119146000Y-118010116D01*
X119141525Y-117994877D01*
X119140135Y-117993672D01*
X119132452Y-117992001D01*
X118480331Y-117992001D01*
X118473510Y-117992371D01*
X118422648Y-117997895D01*
X118407396Y-118001521D01*
X118286946Y-118046676D01*
X118271351Y-118055214D01*
X118169276Y-118131715D01*
X118156715Y-118144276D01*
X118080214Y-118246351D01*
X118071676Y-118261946D01*
X118026522Y-118382394D01*
X118022895Y-118397649D01*
X118017369Y-118448514D01*
X118017000Y-118455327D01*
X118017001Y-118902052D01*
X117996999Y-118970173D01*
X117943344Y-119016666D01*
X117873070Y-119026770D01*
X117852903Y-119022154D01*
X117816567Y-119010628D01*
X117810694Y-119008765D01*
X117656773Y-118991500D01*
X113334500Y-118991500D01*
X113266379Y-118971498D01*
X113219886Y-118917842D01*
X113208500Y-118865500D01*
X113208500Y-117941022D01*
X113228502Y-117872901D01*
X113234538Y-117864318D01*
X113240068Y-117857111D01*
X113269024Y-117819375D01*
X113330338Y-117671350D01*
X113346000Y-117552385D01*
X113345999Y-117037616D01*
X113342786Y-117013204D01*
X113334941Y-116953614D01*
X113330338Y-116918650D01*
X113329613Y-116916900D01*
X113329614Y-116858098D01*
X113330338Y-116856350D01*
X113331417Y-116848160D01*
X113345462Y-116741472D01*
X113345462Y-116741471D01*
X113346000Y-116737385D01*
X113345999Y-116222616D01*
X113342500Y-116196032D01*
X113331416Y-116111837D01*
X113331416Y-116111835D01*
X113330338Y-116103650D01*
X113269024Y-115955624D01*
X113263997Y-115949073D01*
X113262880Y-115947138D01*
X113246000Y-115884139D01*
X113246000Y-111354239D01*
X113266002Y-111286118D01*
X113282905Y-111265144D01*
X113290144Y-111257905D01*
X113352456Y-111223879D01*
X113379239Y-111221000D01*
X113498613Y-111221000D01*
X113566734Y-111241002D01*
X113607184Y-111287230D01*
X113608450Y-111286446D01*
X113701522Y-111436848D01*
X113826697Y-111561805D01*
X113832927Y-111565645D01*
X113832928Y-111565646D01*
X113970090Y-111650194D01*
X113977262Y-111654615D01*
X114054607Y-111680269D01*
X114138611Y-111708132D01*
X114138613Y-111708132D01*
X114145139Y-111710297D01*
X114151975Y-111710997D01*
X114151978Y-111710998D01*
X114191323Y-111715029D01*
X114249600Y-111721000D01*
X115250400Y-111721000D01*
X115253646Y-111720663D01*
X115253650Y-111720663D01*
X115349308Y-111710738D01*
X115349312Y-111710737D01*
X115356166Y-111710026D01*
X115362702Y-111707845D01*
X115362704Y-111707845D01*
X115494806Y-111663772D01*
X115523946Y-111654050D01*
X115674348Y-111560978D01*
X115799305Y-111435803D01*
X115820946Y-111400695D01*
X115888275Y-111291468D01*
X115888276Y-111291466D01*
X115892115Y-111285238D01*
X115934150Y-111158507D01*
X115945632Y-111123889D01*
X115945632Y-111123887D01*
X115947797Y-111117361D01*
X115949637Y-111099408D01*
X115954607Y-111050891D01*
X115958500Y-111012900D01*
X115958500Y-110582664D01*
X115978502Y-110514543D01*
X116032158Y-110468050D01*
X116102432Y-110457946D01*
X116167012Y-110487440D01*
X116180378Y-110501919D01*
X116180840Y-110501526D01*
X116259174Y-110593567D01*
X116275246Y-110612452D01*
X116278609Y-110615422D01*
X116278610Y-110615423D01*
X116292363Y-110627569D01*
X116308214Y-110645003D01*
X116308739Y-110645886D01*
X116449125Y-110805966D01*
X116616333Y-110937782D01*
X116621444Y-110940471D01*
X116621447Y-110940473D01*
X116657933Y-110959669D01*
X116691011Y-110985746D01*
X116691125Y-110985626D01*
X116692428Y-110986862D01*
X116693994Y-110988097D01*
X116695309Y-110989596D01*
X116695316Y-110989602D01*
X116699125Y-110993946D01*
X116703660Y-110997521D01*
X116703661Y-110997522D01*
X116769531Y-111049450D01*
X116772094Y-111051526D01*
X116777417Y-111055953D01*
X116841007Y-111108840D01*
X116846052Y-111111665D01*
X116848058Y-111113044D01*
X116859688Y-111120816D01*
X116861794Y-111122184D01*
X116866333Y-111125762D01*
X116945730Y-111167535D01*
X116948536Y-111169059D01*
X117026777Y-111212876D01*
X117032251Y-111214734D01*
X117034598Y-111215779D01*
X117047373Y-111221268D01*
X117049656Y-111222214D01*
X117054762Y-111224900D01*
X117060276Y-111226612D01*
X117060278Y-111226613D01*
X117140428Y-111251501D01*
X117143564Y-111252520D01*
X117172946Y-111262494D01*
X117228395Y-111281316D01*
X117234115Y-111282145D01*
X117236571Y-111282735D01*
X117250122Y-111285801D01*
X117252575Y-111286323D01*
X117258102Y-111288039D01*
X117263839Y-111288718D01*
X117263844Y-111288719D01*
X117333004Y-111296904D01*
X117347140Y-111298577D01*
X117350399Y-111299006D01*
X117350516Y-111299023D01*
X117433396Y-111311041D01*
X117433400Y-111311041D01*
X117439109Y-111311869D01*
X117522379Y-111308597D01*
X117527325Y-111308500D01*
X118178000Y-111308500D01*
X118246121Y-111328502D01*
X118292614Y-111382158D01*
X118304000Y-111434500D01*
X118304000Y-113554013D01*
X118308407Y-113601978D01*
X118317678Y-113702866D01*
X118318519Y-113712024D01*
X118320087Y-113717583D01*
X118320087Y-113717584D01*
X118361769Y-113865375D01*
X118366500Y-113899577D01*
X118366500Y-114025400D01*
X118366837Y-114028646D01*
X118366837Y-114028650D01*
X118376618Y-114122914D01*
X118377474Y-114131166D01*
X118433450Y-114298946D01*
X118526522Y-114449348D01*
X118651697Y-114574305D01*
X118657927Y-114578145D01*
X118657928Y-114578146D01*
X118795288Y-114662816D01*
X118802262Y-114667115D01*
X118882005Y-114693564D01*
X118963611Y-114720632D01*
X118963613Y-114720632D01*
X118970139Y-114722797D01*
X118976975Y-114723497D01*
X118976978Y-114723498D01*
X119020031Y-114727909D01*
X119074600Y-114733500D01*
X119850400Y-114733500D01*
X119853646Y-114733163D01*
X119853650Y-114733163D01*
X119949308Y-114723238D01*
X119949312Y-114723237D01*
X119956166Y-114722526D01*
X119962702Y-114720345D01*
X119962704Y-114720345D01*
X120094806Y-114676272D01*
X120123946Y-114666550D01*
X120274348Y-114573478D01*
X120399305Y-114448303D01*
X120402102Y-114443765D01*
X120459353Y-114403176D01*
X120530276Y-114399946D01*
X120591687Y-114435572D01*
X120599062Y-114444068D01*
X120607098Y-114454207D01*
X120721829Y-114568739D01*
X120733240Y-114577751D01*
X120871243Y-114662816D01*
X120884424Y-114668963D01*
X121038710Y-114720138D01*
X121052086Y-114723005D01*
X121146438Y-114732672D01*
X121152854Y-114733000D01*
X121265385Y-114733000D01*
X121280624Y-114728525D01*
X121281829Y-114727135D01*
X121283500Y-114719452D01*
X121283500Y-114714884D01*
X121791500Y-114714884D01*
X121795975Y-114730123D01*
X121797365Y-114731328D01*
X121805048Y-114732999D01*
X121922095Y-114732999D01*
X121928614Y-114732662D01*
X122024206Y-114722743D01*
X122037600Y-114719851D01*
X122191784Y-114668412D01*
X122204962Y-114662239D01*
X122342807Y-114576937D01*
X122354208Y-114567901D01*
X122468739Y-114453171D01*
X122477751Y-114441760D01*
X122562816Y-114303757D01*
X122568963Y-114290576D01*
X122620138Y-114136290D01*
X122623005Y-114122914D01*
X122632672Y-114028562D01*
X122633000Y-114022146D01*
X122633000Y-113772115D01*
X122628525Y-113756876D01*
X122627135Y-113755671D01*
X122619452Y-113754000D01*
X121809615Y-113754000D01*
X121794376Y-113758475D01*
X121793171Y-113759865D01*
X121791500Y-113767548D01*
X121791500Y-114714884D01*
X121283500Y-114714884D01*
X121283500Y-113227885D01*
X121791500Y-113227885D01*
X121795975Y-113243124D01*
X121797365Y-113244329D01*
X121805048Y-113246000D01*
X122614884Y-113246000D01*
X122630123Y-113241525D01*
X122631328Y-113240135D01*
X122632999Y-113232452D01*
X122632999Y-112977905D01*
X122632662Y-112971386D01*
X122622743Y-112875794D01*
X122619851Y-112862400D01*
X122568412Y-112708216D01*
X122562239Y-112695038D01*
X122476937Y-112557193D01*
X122467901Y-112545792D01*
X122353171Y-112431261D01*
X122341760Y-112422249D01*
X122203757Y-112337184D01*
X122190576Y-112331037D01*
X122036290Y-112279862D01*
X122022914Y-112276995D01*
X121928562Y-112267328D01*
X121922145Y-112267000D01*
X121809615Y-112267000D01*
X121794376Y-112271475D01*
X121793171Y-112272865D01*
X121791500Y-112280548D01*
X121791500Y-113227885D01*
X121283500Y-113227885D01*
X121283500Y-112285116D01*
X121279025Y-112269877D01*
X121277635Y-112268672D01*
X121269952Y-112267001D01*
X121152905Y-112267001D01*
X121146386Y-112267338D01*
X121050794Y-112277257D01*
X121037400Y-112280149D01*
X120883216Y-112331588D01*
X120870037Y-112337762D01*
X120813303Y-112372870D01*
X120744851Y-112391708D01*
X120677081Y-112370547D01*
X120631510Y-112316106D01*
X120621000Y-112265726D01*
X120621000Y-112219669D01*
X124992001Y-112219669D01*
X124992371Y-112226490D01*
X124997895Y-112277352D01*
X125001521Y-112292604D01*
X125046676Y-112413054D01*
X125055214Y-112428649D01*
X125131715Y-112530724D01*
X125144276Y-112543285D01*
X125246351Y-112619786D01*
X125261946Y-112628324D01*
X125382394Y-112673478D01*
X125397649Y-112677105D01*
X125448514Y-112682631D01*
X125455328Y-112683000D01*
X129927885Y-112683000D01*
X129943124Y-112678525D01*
X129944329Y-112677135D01*
X129946000Y-112669452D01*
X129946000Y-112664884D01*
X130454000Y-112664884D01*
X130458475Y-112680123D01*
X130459865Y-112681328D01*
X130467548Y-112682999D01*
X134944669Y-112682999D01*
X134951490Y-112682629D01*
X135002352Y-112677105D01*
X135017604Y-112673479D01*
X135138054Y-112628324D01*
X135153649Y-112619786D01*
X135255724Y-112543285D01*
X135268285Y-112530724D01*
X135344786Y-112428649D01*
X135353324Y-112413054D01*
X135398478Y-112292606D01*
X135402105Y-112277351D01*
X135407631Y-112226486D01*
X135408000Y-112219672D01*
X135408000Y-107047115D01*
X135403525Y-107031876D01*
X135402135Y-107030671D01*
X135394452Y-107029000D01*
X130472115Y-107029000D01*
X130456876Y-107033475D01*
X130455671Y-107034865D01*
X130454000Y-107042548D01*
X130454000Y-112664884D01*
X129946000Y-112664884D01*
X129946000Y-107047115D01*
X129941525Y-107031876D01*
X129940135Y-107030671D01*
X129932452Y-107029000D01*
X125010116Y-107029000D01*
X124994877Y-107033475D01*
X124993672Y-107034865D01*
X124992001Y-107042548D01*
X124992001Y-112219669D01*
X120621000Y-112219669D01*
X120621000Y-111434556D01*
X120641002Y-111366435D01*
X120657905Y-111345461D01*
X120968266Y-111035100D01*
X120981973Y-111023237D01*
X120988881Y-111018079D01*
X120988888Y-111018072D01*
X120993509Y-111014622D01*
X121050084Y-110953419D01*
X121053513Y-110949853D01*
X121592961Y-110410405D01*
X121655273Y-110376379D01*
X121682056Y-110373500D01*
X123398134Y-110373500D01*
X123460316Y-110366745D01*
X123596705Y-110315615D01*
X123713261Y-110228261D01*
X123800615Y-110111705D01*
X123851745Y-109975316D01*
X123858500Y-109913134D01*
X123858500Y-108716866D01*
X123851745Y-108654684D01*
X123800615Y-108518295D01*
X123713261Y-108401739D01*
X123596705Y-108314385D01*
X123460316Y-108263255D01*
X123398134Y-108256500D01*
X121548942Y-108256500D01*
X121496190Y-108244926D01*
X121482275Y-108238511D01*
X121438372Y-108218271D01*
X121432773Y-108216849D01*
X121432770Y-108216848D01*
X121237609Y-108167285D01*
X121237610Y-108167285D01*
X121232006Y-108165862D01*
X121019544Y-108151936D01*
X120808102Y-108176962D01*
X120802586Y-108178675D01*
X120802585Y-108178675D01*
X120743857Y-108196910D01*
X120604762Y-108240100D01*
X120599650Y-108242790D01*
X120594316Y-108244999D01*
X120593825Y-108243813D01*
X120542468Y-108256500D01*
X118701866Y-108256500D01*
X118639684Y-108263255D01*
X118632288Y-108266027D01*
X118632282Y-108266029D01*
X118596304Y-108279517D01*
X118525497Y-108284700D01*
X118463128Y-108250779D01*
X118436438Y-108211576D01*
X118421165Y-108176283D01*
X118401388Y-108130580D01*
X118326448Y-108008528D01*
X118309205Y-107987758D01*
X118236270Y-107899907D01*
X118236268Y-107899905D01*
X118233408Y-107896460D01*
X118127224Y-107800346D01*
X118115021Y-107792115D01*
X118010183Y-107721401D01*
X118010178Y-107721398D01*
X118006464Y-107718893D01*
X117877572Y-107656446D01*
X117738812Y-107612162D01*
X117597574Y-107588400D01*
X117518627Y-107581318D01*
X117516205Y-107581288D01*
X117516198Y-107581288D01*
X117512884Y-107581248D01*
X117506285Y-107581167D01*
X117435620Y-107585767D01*
X117431964Y-107586005D01*
X117423779Y-107586271D01*
X117079481Y-107586271D01*
X117068223Y-107585767D01*
X117064249Y-107585411D01*
X117018627Y-107581318D01*
X117016205Y-107581288D01*
X117016198Y-107581288D01*
X117012884Y-107581248D01*
X117006285Y-107581167D01*
X116969993Y-107583529D01*
X116929592Y-107586159D01*
X116929582Y-107586160D01*
X116927171Y-107586317D01*
X116924762Y-107586662D01*
X116812585Y-107602727D01*
X116794723Y-107604000D01*
X115612985Y-107604000D01*
X115546868Y-107585259D01*
X115528970Y-107574226D01*
X115528967Y-107574224D01*
X115522738Y-107570385D01*
X115392237Y-107527100D01*
X115361389Y-107516868D01*
X115361387Y-107516868D01*
X115354861Y-107514703D01*
X115348025Y-107514003D01*
X115348022Y-107514002D01*
X115304969Y-107509591D01*
X115250400Y-107504000D01*
X115122914Y-107504000D01*
X115054793Y-107483998D01*
X115041932Y-107474529D01*
X115023048Y-107458683D01*
X115019431Y-107455528D01*
X115017619Y-107453885D01*
X115015425Y-107451691D01*
X114982151Y-107424358D01*
X114981353Y-107423696D01*
X114916966Y-107369669D01*
X118242001Y-107369669D01*
X118242371Y-107376490D01*
X118247895Y-107427352D01*
X118251521Y-107442604D01*
X118296676Y-107563054D01*
X118305214Y-107578649D01*
X118381715Y-107680724D01*
X118394276Y-107693285D01*
X118496351Y-107769786D01*
X118511946Y-107778324D01*
X118632394Y-107823478D01*
X118647649Y-107827105D01*
X118698514Y-107832631D01*
X118705328Y-107833000D01*
X120777885Y-107833000D01*
X120793124Y-107828525D01*
X120794329Y-107827135D01*
X120796000Y-107819452D01*
X120796000Y-107814884D01*
X121304000Y-107814884D01*
X121308475Y-107830123D01*
X121309865Y-107831328D01*
X121317548Y-107832999D01*
X123394669Y-107832999D01*
X123401490Y-107832629D01*
X123452352Y-107827105D01*
X123467604Y-107823479D01*
X123588054Y-107778324D01*
X123603649Y-107769786D01*
X123705724Y-107693285D01*
X123718285Y-107680724D01*
X123794786Y-107578649D01*
X123803324Y-107563054D01*
X123848478Y-107442606D01*
X123852105Y-107427351D01*
X123857631Y-107376486D01*
X123858000Y-107369672D01*
X123858000Y-107047115D01*
X123853525Y-107031876D01*
X123852135Y-107030671D01*
X123844452Y-107029000D01*
X121322115Y-107029000D01*
X121306876Y-107033475D01*
X121305671Y-107034865D01*
X121304000Y-107042548D01*
X121304000Y-107814884D01*
X120796000Y-107814884D01*
X120796000Y-107047115D01*
X120791525Y-107031876D01*
X120790135Y-107030671D01*
X120782452Y-107029000D01*
X118260116Y-107029000D01*
X118244877Y-107033475D01*
X118243672Y-107034865D01*
X118242001Y-107042548D01*
X118242001Y-107369669D01*
X114916966Y-107369669D01*
X114910026Y-107363846D01*
X114905356Y-107361278D01*
X114901239Y-107357897D01*
X114819414Y-107314023D01*
X114818255Y-107313394D01*
X114742119Y-107271538D01*
X114742111Y-107271535D01*
X114736713Y-107268567D01*
X114731631Y-107266955D01*
X114726937Y-107264438D01*
X114637969Y-107237238D01*
X114636941Y-107236918D01*
X114548194Y-107208765D01*
X114542898Y-107208171D01*
X114537802Y-107206613D01*
X114445243Y-107197210D01*
X114444107Y-107197089D01*
X114410492Y-107193319D01*
X114397770Y-107191892D01*
X114397766Y-107191892D01*
X114394273Y-107191500D01*
X114390746Y-107191500D01*
X114389761Y-107191445D01*
X114384081Y-107190998D01*
X114354675Y-107188011D01*
X114347163Y-107187248D01*
X114347161Y-107187248D01*
X114341038Y-107186626D01*
X114298759Y-107190623D01*
X114295391Y-107190941D01*
X114283533Y-107191500D01*
X112750231Y-107191500D01*
X112747175Y-107191800D01*
X112747168Y-107191800D01*
X112691915Y-107197218D01*
X112603167Y-107205920D01*
X112597268Y-107207701D01*
X112597263Y-107207702D01*
X112585937Y-107211122D01*
X112549519Y-107216500D01*
X112450428Y-107216500D01*
X112447182Y-107216837D01*
X112447178Y-107216837D01*
X112353265Y-107226581D01*
X112353261Y-107226582D01*
X112346407Y-107227293D01*
X112339871Y-107229474D01*
X112339869Y-107229474D01*
X112207105Y-107273768D01*
X112181393Y-107282346D01*
X112033469Y-107373884D01*
X112028296Y-107379066D01*
X111915742Y-107491816D01*
X111915738Y-107491821D01*
X111910571Y-107496997D01*
X111906731Y-107503227D01*
X111906730Y-107503228D01*
X111853980Y-107588805D01*
X111819291Y-107645080D01*
X111764526Y-107810191D01*
X111763826Y-107817027D01*
X111763825Y-107817030D01*
X111758549Y-107868526D01*
X111754000Y-107912928D01*
X111754000Y-108487072D01*
X111754337Y-108490318D01*
X111754337Y-108490322D01*
X111757411Y-108519943D01*
X111764793Y-108591093D01*
X111766974Y-108597629D01*
X111766974Y-108597631D01*
X111803478Y-108707045D01*
X111819846Y-108756107D01*
X111911384Y-108904031D01*
X111916566Y-108909204D01*
X112029316Y-109021758D01*
X112029321Y-109021762D01*
X112034497Y-109026929D01*
X112182580Y-109118209D01*
X112347691Y-109172974D01*
X112354527Y-109173674D01*
X112354530Y-109173675D01*
X112406026Y-109178951D01*
X112450428Y-109183500D01*
X112545417Y-109183500D01*
X112577333Y-109188441D01*
X112577407Y-109188091D01*
X112583434Y-109189372D01*
X112589306Y-109191235D01*
X112595423Y-109191921D01*
X112595427Y-109191922D01*
X112668258Y-109200091D01*
X112743227Y-109208500D01*
X113492757Y-109208500D01*
X113560878Y-109228502D01*
X113606521Y-109280664D01*
X113608450Y-109286446D01*
X113612299Y-109292666D01*
X113612301Y-109292670D01*
X113673023Y-109390794D01*
X113701522Y-109436848D01*
X113770060Y-109505266D01*
X113788109Y-109523284D01*
X113822188Y-109585566D01*
X113817185Y-109656386D01*
X113788264Y-109701475D01*
X113712940Y-109776931D01*
X113700695Y-109789197D01*
X113607885Y-109939762D01*
X113606205Y-109938726D01*
X113565879Y-109984531D01*
X113498595Y-110004000D01*
X113123136Y-110004000D01*
X113106690Y-110002922D01*
X113083188Y-109999828D01*
X113075000Y-109998750D01*
X113066812Y-109999828D01*
X113035129Y-110003999D01*
X113035120Y-110004000D01*
X113035115Y-110004000D01*
X112916150Y-110019662D01*
X112768125Y-110080976D01*
X112747268Y-110096980D01*
X112672928Y-110154023D01*
X112672925Y-110154026D01*
X112641013Y-110178513D01*
X112635983Y-110185068D01*
X112621548Y-110203879D01*
X112610681Y-110216270D01*
X112487219Y-110339732D01*
X112424907Y-110373758D01*
X112354092Y-110368693D01*
X112325853Y-110353850D01*
X112325014Y-110353262D01*
X111940274Y-110083864D01*
X110888714Y-109347553D01*
X110881692Y-109342261D01*
X110865055Y-109328789D01*
X110841288Y-109309543D01*
X110833741Y-109306183D01*
X110833738Y-109306181D01*
X110790963Y-109287136D01*
X110784034Y-109283794D01*
X110742483Y-109262165D01*
X110742482Y-109262165D01*
X110735158Y-109258352D01*
X110727098Y-109256565D01*
X110719337Y-109253740D01*
X110719350Y-109253704D01*
X110716525Y-109252772D01*
X110716514Y-109252809D01*
X110708596Y-109250464D01*
X110701052Y-109247105D01*
X110692895Y-109245813D01*
X110646628Y-109238485D01*
X110639067Y-109237049D01*
X110593352Y-109226914D01*
X110593351Y-109226914D01*
X110585291Y-109225127D01*
X110577043Y-109225487D01*
X110568814Y-109224767D01*
X110568817Y-109224729D01*
X110565849Y-109224561D01*
X110565848Y-109224599D01*
X110557592Y-109224383D01*
X110549436Y-109223091D01*
X110541224Y-109223954D01*
X110541223Y-109223954D01*
X110522573Y-109225914D01*
X110494643Y-109228849D01*
X110486974Y-109229419D01*
X110431929Y-109231822D01*
X110424047Y-109234307D01*
X110415921Y-109235740D01*
X110415914Y-109235702D01*
X110413007Y-109236307D01*
X110413016Y-109236344D01*
X110404987Y-109238272D01*
X110396770Y-109239135D01*
X110345337Y-109258878D01*
X110338104Y-109261405D01*
X110285527Y-109277982D01*
X110278561Y-109282420D01*
X110271074Y-109285911D01*
X110271058Y-109285877D01*
X110268410Y-109287212D01*
X110268428Y-109287246D01*
X110261171Y-109291186D01*
X110253458Y-109294147D01*
X110208881Y-109326533D01*
X110202539Y-109330852D01*
X110156061Y-109360462D01*
X110150479Y-109366554D01*
X110144156Y-109371859D01*
X110144131Y-109371830D01*
X110141912Y-109373810D01*
X110141939Y-109373838D01*
X110135952Y-109379519D01*
X110129269Y-109384375D01*
X110124071Y-109390794D01*
X110094604Y-109427182D01*
X110089581Y-109433012D01*
X110057932Y-109467550D01*
X110057930Y-109467553D01*
X110052353Y-109473639D01*
X110048539Y-109480966D01*
X110028347Y-109519753D01*
X110024017Y-109527407D01*
X109885447Y-109753532D01*
X109884948Y-109754339D01*
X109866270Y-109784229D01*
X109865209Y-109786557D01*
X109863875Y-109788734D01*
X109862200Y-109792495D01*
X109862200Y-109792496D01*
X109849585Y-109820830D01*
X109849133Y-109821832D01*
X109730174Y-110082863D01*
X109729772Y-110083735D01*
X109714886Y-110115658D01*
X109714116Y-110118100D01*
X109713056Y-110120426D01*
X109711851Y-110124367D01*
X109711850Y-110124370D01*
X109702784Y-110154022D01*
X109702458Y-110155073D01*
X109621950Y-110410405D01*
X109616195Y-110428656D01*
X109615933Y-110429475D01*
X109605016Y-110463072D01*
X109604551Y-110465582D01*
X109603783Y-110468017D01*
X109600358Y-110487440D01*
X109597678Y-110502640D01*
X109597482Y-110503722D01*
X109545224Y-110785680D01*
X109545019Y-110786760D01*
X109539096Y-110817228D01*
X109539095Y-110817238D01*
X109538310Y-110821275D01*
X109538154Y-110823827D01*
X109537688Y-110826341D01*
X109536154Y-110855619D01*
X109535852Y-110861376D01*
X109535795Y-110862381D01*
X109519211Y-111133524D01*
X109518275Y-111148830D01*
X109518205Y-111149891D01*
X109515754Y-111184950D01*
X109515910Y-111187500D01*
X109515754Y-111190050D01*
X104677193Y-111190050D01*
X104672015Y-111177267D01*
X104535735Y-110944518D01*
X104417928Y-110797208D01*
X104370136Y-110737447D01*
X104370135Y-110737445D01*
X104367284Y-110733881D01*
X104170191Y-110549766D01*
X103948584Y-110396032D01*
X103944501Y-110394001D01*
X103944498Y-110393999D01*
X103786939Y-110315615D01*
X103707106Y-110275899D01*
X103702772Y-110274478D01*
X103702769Y-110274477D01*
X103455147Y-110193302D01*
X103455141Y-110193301D01*
X103450814Y-110191882D01*
X103446322Y-110191102D01*
X103188860Y-110146399D01*
X103188852Y-110146398D01*
X103185079Y-110145743D01*
X103173817Y-110145182D01*
X103101422Y-110141578D01*
X103101414Y-110141578D01*
X103099851Y-110141500D01*
X102931488Y-110141500D01*
X102929220Y-110141665D01*
X102929208Y-110141665D01*
X102798116Y-110151177D01*
X102730996Y-110156047D01*
X102726541Y-110157031D01*
X102726538Y-110157031D01*
X102472088Y-110213209D01*
X102472084Y-110213210D01*
X102467628Y-110214194D01*
X102430499Y-110228261D01*
X102219682Y-110308132D01*
X102219679Y-110308133D01*
X102215412Y-110309750D01*
X102079403Y-110385296D01*
X102000493Y-110429127D01*
X101979632Y-110440714D01*
X101899949Y-110501526D01*
X101770601Y-110600242D01*
X101765227Y-110604343D01*
X101762034Y-110607609D01*
X101762032Y-110607611D01*
X101689796Y-110681505D01*
X101576688Y-110797208D01*
X101417966Y-111015270D01*
X101379882Y-111087656D01*
X101294510Y-111249921D01*
X101294507Y-111249927D01*
X101292385Y-111253961D01*
X101290865Y-111258266D01*
X101290863Y-111258270D01*
X101206617Y-111496833D01*
X101202575Y-111508280D01*
X101189295Y-111575657D01*
X101152653Y-111761568D01*
X101150419Y-111772900D01*
X101150192Y-111777453D01*
X101150192Y-111777456D01*
X101137895Y-112024487D01*
X101137009Y-112042277D01*
X100508000Y-112042277D01*
X100508000Y-106498134D01*
X101941500Y-106498134D01*
X101948255Y-106560316D01*
X101999385Y-106696705D01*
X102086739Y-106813261D01*
X102203295Y-106900615D01*
X102339684Y-106951745D01*
X102401866Y-106958500D01*
X106498134Y-106958500D01*
X106560316Y-106951745D01*
X106696705Y-106900615D01*
X106813261Y-106813261D01*
X106900615Y-106696705D01*
X106951745Y-106560316D01*
X106958500Y-106498134D01*
X106958500Y-106209595D01*
X115017001Y-106209595D01*
X115017338Y-106216114D01*
X115027257Y-106311706D01*
X115030149Y-106325100D01*
X115081588Y-106479284D01*
X115087761Y-106492462D01*
X115173063Y-106630307D01*
X115182099Y-106641708D01*
X115296829Y-106756239D01*
X115308240Y-106765251D01*
X115446243Y-106850316D01*
X115459424Y-106856463D01*
X115613710Y-106907638D01*
X115627086Y-106910505D01*
X115721438Y-106920172D01*
X115727854Y-106920500D01*
X115977885Y-106920500D01*
X115993124Y-106916025D01*
X115994329Y-106914635D01*
X115996000Y-106906952D01*
X115996000Y-106902384D01*
X116504000Y-106902384D01*
X116508475Y-106917623D01*
X116509865Y-106918828D01*
X116517548Y-106920499D01*
X116772095Y-106920499D01*
X116778614Y-106920162D01*
X116874206Y-106910243D01*
X116887600Y-106907351D01*
X117041784Y-106855912D01*
X117054962Y-106849739D01*
X117192807Y-106764437D01*
X117204208Y-106755401D01*
X117318739Y-106640671D01*
X117327751Y-106629260D01*
X117405649Y-106502885D01*
X118242000Y-106502885D01*
X118246475Y-106518124D01*
X118247865Y-106519329D01*
X118255548Y-106521000D01*
X120777885Y-106521000D01*
X120793124Y-106516525D01*
X120794329Y-106515135D01*
X120796000Y-106507452D01*
X120796000Y-106502885D01*
X121304000Y-106502885D01*
X121308475Y-106518124D01*
X121309865Y-106519329D01*
X121317548Y-106521000D01*
X123839884Y-106521000D01*
X123855123Y-106516525D01*
X123856328Y-106515135D01*
X123857999Y-106507452D01*
X123857999Y-106502885D01*
X124992000Y-106502885D01*
X124996475Y-106518124D01*
X124997865Y-106519329D01*
X125005548Y-106521000D01*
X129927885Y-106521000D01*
X129943124Y-106516525D01*
X129944329Y-106515135D01*
X129946000Y-106507452D01*
X129946000Y-106502885D01*
X130454000Y-106502885D01*
X130458475Y-106518124D01*
X130459865Y-106519329D01*
X130467548Y-106521000D01*
X135389884Y-106521000D01*
X135405123Y-106516525D01*
X135406328Y-106515135D01*
X135407999Y-106507452D01*
X135407999Y-105197095D01*
X139392001Y-105197095D01*
X139392338Y-105203614D01*
X139402257Y-105299206D01*
X139405149Y-105312600D01*
X139456588Y-105466784D01*
X139462761Y-105479962D01*
X139548063Y-105617807D01*
X139557099Y-105629208D01*
X139671829Y-105743739D01*
X139683240Y-105752751D01*
X139821243Y-105837816D01*
X139834424Y-105843963D01*
X139988710Y-105895138D01*
X140002086Y-105898005D01*
X140096438Y-105907672D01*
X140102854Y-105908000D01*
X140327885Y-105908000D01*
X140343124Y-105903525D01*
X140344329Y-105902135D01*
X140346000Y-105894452D01*
X140346000Y-105072115D01*
X140341525Y-105056876D01*
X140340135Y-105055671D01*
X140332452Y-105054000D01*
X139410116Y-105054000D01*
X139394877Y-105058475D01*
X139393672Y-105059865D01*
X139392001Y-105067548D01*
X139392001Y-105197095D01*
X135407999Y-105197095D01*
X135407999Y-101330331D01*
X135407629Y-101323510D01*
X135402105Y-101272648D01*
X135398479Y-101257396D01*
X135353324Y-101136946D01*
X135344786Y-101121351D01*
X135268285Y-101019276D01*
X135255724Y-101006715D01*
X135153649Y-100930214D01*
X135138054Y-100921676D01*
X135017606Y-100876522D01*
X135002351Y-100872895D01*
X134951486Y-100867369D01*
X134944672Y-100867000D01*
X130472115Y-100867000D01*
X130456876Y-100871475D01*
X130455671Y-100872865D01*
X130454000Y-100880548D01*
X130454000Y-106502885D01*
X129946000Y-106502885D01*
X129946000Y-100885116D01*
X129941525Y-100869877D01*
X129940135Y-100868672D01*
X129932452Y-100867001D01*
X125455331Y-100867001D01*
X125448510Y-100867371D01*
X125397648Y-100872895D01*
X125382396Y-100876521D01*
X125261946Y-100921676D01*
X125246351Y-100930214D01*
X125144276Y-101006715D01*
X125131715Y-101019276D01*
X125055214Y-101121351D01*
X125046676Y-101136946D01*
X125001522Y-101257394D01*
X124997895Y-101272649D01*
X124992369Y-101323514D01*
X124992000Y-101330328D01*
X124992000Y-106502885D01*
X123857999Y-106502885D01*
X123857999Y-106180331D01*
X123857629Y-106173510D01*
X123852105Y-106122648D01*
X123848479Y-106107396D01*
X123803324Y-105986946D01*
X123794786Y-105971351D01*
X123718285Y-105869276D01*
X123705724Y-105856715D01*
X123603649Y-105780214D01*
X123588054Y-105771676D01*
X123467606Y-105726522D01*
X123452351Y-105722895D01*
X123401486Y-105717369D01*
X123394672Y-105717000D01*
X121322115Y-105717000D01*
X121306876Y-105721475D01*
X121305671Y-105722865D01*
X121304000Y-105730548D01*
X121304000Y-106502885D01*
X120796000Y-106502885D01*
X120796000Y-105735116D01*
X120791525Y-105719877D01*
X120790135Y-105718672D01*
X120782452Y-105717001D01*
X118705331Y-105717001D01*
X118698510Y-105717371D01*
X118647648Y-105722895D01*
X118632396Y-105726521D01*
X118511946Y-105771676D01*
X118496351Y-105780214D01*
X118394276Y-105856715D01*
X118381715Y-105869276D01*
X118305214Y-105971351D01*
X118296676Y-105986946D01*
X118251522Y-106107394D01*
X118247895Y-106122649D01*
X118242369Y-106173514D01*
X118242000Y-106180328D01*
X118242000Y-106502885D01*
X117405649Y-106502885D01*
X117412816Y-106491257D01*
X117418963Y-106478076D01*
X117470138Y-106323790D01*
X117473005Y-106310414D01*
X117482672Y-106216062D01*
X117483000Y-106209646D01*
X117483000Y-106097115D01*
X117478525Y-106081876D01*
X117477135Y-106080671D01*
X117469452Y-106079000D01*
X116522115Y-106079000D01*
X116506876Y-106083475D01*
X116505671Y-106084865D01*
X116504000Y-106092548D01*
X116504000Y-106902384D01*
X115996000Y-106902384D01*
X115996000Y-106097115D01*
X115991525Y-106081876D01*
X115990135Y-106080671D01*
X115982452Y-106079000D01*
X115035116Y-106079000D01*
X115019877Y-106083475D01*
X115018672Y-106084865D01*
X115017001Y-106092548D01*
X115017001Y-106209595D01*
X106958500Y-106209595D01*
X106958500Y-105284500D01*
X106978502Y-105216379D01*
X107032158Y-105169886D01*
X107084500Y-105158500D01*
X109548134Y-105158500D01*
X109610316Y-105151745D01*
X109746705Y-105100615D01*
X109863261Y-105013261D01*
X109950615Y-104896705D01*
X110001745Y-104760316D01*
X110008500Y-104698134D01*
X110491500Y-104698134D01*
X110498255Y-104760316D01*
X110549385Y-104896705D01*
X110636739Y-105013261D01*
X110753295Y-105100615D01*
X110889684Y-105151745D01*
X110951866Y-105158500D01*
X113548134Y-105158500D01*
X113610316Y-105151745D01*
X113746705Y-105100615D01*
X113863261Y-105013261D01*
X113903976Y-104958935D01*
X113960835Y-104916420D01*
X114004802Y-104908500D01*
X115015753Y-104908500D01*
X115083874Y-104928502D01*
X115130367Y-104982158D01*
X115140471Y-105052432D01*
X115123013Y-105100615D01*
X115087186Y-105158738D01*
X115081037Y-105171924D01*
X115029862Y-105326210D01*
X115026995Y-105339586D01*
X115017328Y-105433938D01*
X115017000Y-105440355D01*
X115017000Y-105552885D01*
X115021475Y-105568124D01*
X115022865Y-105569329D01*
X115030548Y-105571000D01*
X117464884Y-105571000D01*
X117480123Y-105566525D01*
X117481328Y-105565135D01*
X117482999Y-105557452D01*
X117482999Y-105440405D01*
X117482662Y-105433886D01*
X117472743Y-105338294D01*
X117469851Y-105324900D01*
X117418412Y-105170716D01*
X117412238Y-105157537D01*
X117377130Y-105100803D01*
X117358292Y-105032351D01*
X117379453Y-104964581D01*
X117433894Y-104919010D01*
X117484274Y-104908500D01*
X118165870Y-104908500D01*
X118233991Y-104928502D01*
X118280484Y-104982158D01*
X118283852Y-104990271D01*
X118292471Y-105013261D01*
X118299385Y-105031705D01*
X118386739Y-105148261D01*
X118503295Y-105235615D01*
X118639684Y-105286745D01*
X118701866Y-105293500D01*
X120543082Y-105293500D01*
X120583583Y-105300187D01*
X120772927Y-105364461D01*
X120772932Y-105364462D01*
X120778396Y-105366317D01*
X120784105Y-105367145D01*
X120784110Y-105367146D01*
X120883753Y-105381593D01*
X120989109Y-105396869D01*
X121134583Y-105391153D01*
X121196090Y-105388736D01*
X121196092Y-105388736D01*
X121201863Y-105388509D01*
X121207495Y-105387235D01*
X121207500Y-105387234D01*
X121333258Y-105358777D01*
X121409530Y-105341519D01*
X121417037Y-105338294D01*
X121470768Y-105315209D01*
X121497482Y-105303732D01*
X121547219Y-105293500D01*
X123398134Y-105293500D01*
X123460316Y-105286745D01*
X123596705Y-105235615D01*
X123713261Y-105148261D01*
X123800615Y-105031705D01*
X123851745Y-104895316D01*
X123858500Y-104833134D01*
X123858500Y-103636866D01*
X123851745Y-103574684D01*
X123800615Y-103438295D01*
X123713261Y-103321739D01*
X123596705Y-103234385D01*
X123460316Y-103183255D01*
X123398134Y-103176500D01*
X121682056Y-103176500D01*
X121613935Y-103156498D01*
X121592961Y-103139595D01*
X121414809Y-102961443D01*
X121409172Y-102955425D01*
X121369680Y-102910393D01*
X121365875Y-102906054D01*
X121297156Y-102851880D01*
X121295469Y-102850550D01*
X121292906Y-102848474D01*
X121270060Y-102829473D01*
X121223993Y-102791160D01*
X121218948Y-102788335D01*
X121216942Y-102786956D01*
X121205312Y-102779184D01*
X121203206Y-102777816D01*
X121198667Y-102774238D01*
X121119270Y-102732465D01*
X121116464Y-102730941D01*
X121038223Y-102687124D01*
X121032749Y-102685266D01*
X121030402Y-102684221D01*
X121017627Y-102678732D01*
X121015344Y-102677786D01*
X121010238Y-102675100D01*
X121004724Y-102673388D01*
X121004722Y-102673387D01*
X120924572Y-102648499D01*
X120921436Y-102647480D01*
X120892054Y-102637506D01*
X120836605Y-102618684D01*
X120830885Y-102617855D01*
X120828429Y-102617265D01*
X120814878Y-102614199D01*
X120812425Y-102613677D01*
X120806898Y-102611961D01*
X120801161Y-102611282D01*
X120801156Y-102611281D01*
X120731996Y-102603096D01*
X120717860Y-102601423D01*
X120714601Y-102600994D01*
X120698882Y-102598715D01*
X120631604Y-102588959D01*
X120631600Y-102588959D01*
X120625891Y-102588131D01*
X120542623Y-102591403D01*
X120537676Y-102591500D01*
X114004802Y-102591500D01*
X113936681Y-102571498D01*
X113903976Y-102541065D01*
X113882869Y-102512902D01*
X113863261Y-102486739D01*
X113746705Y-102399385D01*
X113610316Y-102348255D01*
X113548134Y-102341500D01*
X110951866Y-102341500D01*
X110889684Y-102348255D01*
X110753295Y-102399385D01*
X110636739Y-102486739D01*
X110549385Y-102603295D01*
X110498255Y-102739684D01*
X110491500Y-102801866D01*
X110491500Y-104698134D01*
X110008500Y-104698134D01*
X110008500Y-102801866D01*
X110001745Y-102739684D01*
X109950615Y-102603295D01*
X109863261Y-102486739D01*
X109746705Y-102399385D01*
X109610316Y-102348255D01*
X109548134Y-102341500D01*
X107084500Y-102341500D01*
X107016379Y-102321498D01*
X106969886Y-102267842D01*
X106958500Y-102215500D01*
X106958500Y-101401866D01*
X106951745Y-101339684D01*
X106900615Y-101203295D01*
X106813261Y-101086739D01*
X106696705Y-100999385D01*
X106560316Y-100948255D01*
X106498134Y-100941500D01*
X102401866Y-100941500D01*
X102339684Y-100948255D01*
X102203295Y-100999385D01*
X102086739Y-101086739D01*
X101999385Y-101203295D01*
X101948255Y-101339684D01*
X101941500Y-101401866D01*
X101941500Y-106498134D01*
X100508000Y-106498134D01*
X100508000Y-103049328D01*
X100509500Y-103029943D01*
X100511805Y-103015142D01*
X100511805Y-103015139D01*
X100513186Y-103006270D01*
X100510941Y-102989101D01*
X100510108Y-102965161D01*
X100525710Y-102707230D01*
X100527544Y-102692126D01*
X100546601Y-102588131D01*
X100579040Y-102411121D01*
X100582679Y-102396353D01*
X100582717Y-102396233D01*
X100667675Y-102123592D01*
X100673070Y-102109370D01*
X100735026Y-101971710D01*
X100790316Y-101848860D01*
X100797385Y-101835391D01*
X100945182Y-101590905D01*
X100953825Y-101578383D01*
X101130016Y-101353493D01*
X101140106Y-101342105D01*
X101342105Y-101140106D01*
X101353493Y-101130016D01*
X101578383Y-100953825D01*
X101590905Y-100945182D01*
X101835391Y-100797385D01*
X101848860Y-100790316D01*
X102109373Y-100673069D01*
X102123592Y-100667675D01*
X102396359Y-100582678D01*
X102411121Y-100579040D01*
X102661278Y-100533197D01*
X102692126Y-100527544D01*
X102707230Y-100525710D01*
X102957929Y-100510545D01*
X102984639Y-100511802D01*
X102984859Y-100511805D01*
X102993730Y-100513186D01*
X103002632Y-100512022D01*
X103002635Y-100512022D01*
X103025251Y-100509064D01*
X103041589Y-100508000D01*
X150988323Y-100508000D01*
X151056444Y-100528002D01*
G37*
%TD.AperFunction*%
%TA.AperFunction,Conductor*%
G36*
X138061890Y-121952337D02*
G01*
X138107461Y-122006778D01*
X138116364Y-122077214D01*
X138081066Y-122146253D01*
X137011089Y-123216230D01*
X136996677Y-123228616D01*
X136985082Y-123237149D01*
X136985077Y-123237154D01*
X136979182Y-123241492D01*
X136974443Y-123247070D01*
X136974440Y-123247073D01*
X136944965Y-123281768D01*
X136938035Y-123289284D01*
X136932340Y-123294979D01*
X136930060Y-123297861D01*
X136914719Y-123317251D01*
X136911928Y-123320655D01*
X136869409Y-123370703D01*
X136864667Y-123376285D01*
X136861339Y-123382801D01*
X136857972Y-123387850D01*
X136854805Y-123392979D01*
X136850266Y-123398716D01*
X136819345Y-123464875D01*
X136817442Y-123468769D01*
X136784231Y-123533808D01*
X136782492Y-123540916D01*
X136780393Y-123546559D01*
X136778476Y-123552322D01*
X136775378Y-123558950D01*
X136773888Y-123566112D01*
X136773888Y-123566113D01*
X136760514Y-123630412D01*
X136759544Y-123634696D01*
X136742192Y-123705610D01*
X136741500Y-123716764D01*
X136741464Y-123716762D01*
X136741225Y-123720755D01*
X136740851Y-123724947D01*
X136739360Y-123732115D01*
X136739558Y-123739432D01*
X136741454Y-123809521D01*
X136741500Y-123812928D01*
X136741500Y-124438219D01*
X136721498Y-124506340D01*
X136681803Y-124545363D01*
X136550652Y-124626522D01*
X136425695Y-124751697D01*
X136332885Y-124902262D01*
X136330581Y-124909209D01*
X136294785Y-125017132D01*
X136277203Y-125070139D01*
X136266500Y-125174600D01*
X136266500Y-125950400D01*
X136266837Y-125953646D01*
X136266837Y-125953650D01*
X136276628Y-126048010D01*
X136277474Y-126056166D01*
X136279655Y-126062702D01*
X136279655Y-126062704D01*
X136303275Y-126133500D01*
X136333450Y-126223946D01*
X136426522Y-126374348D01*
X136551697Y-126499305D01*
X136556235Y-126502102D01*
X136596824Y-126559353D01*
X136600054Y-126630276D01*
X136564428Y-126691687D01*
X136555932Y-126699062D01*
X136545793Y-126707098D01*
X136431261Y-126821829D01*
X136422249Y-126833240D01*
X136337184Y-126971243D01*
X136331037Y-126984424D01*
X136279862Y-127138710D01*
X136276995Y-127152086D01*
X136267328Y-127246438D01*
X136267000Y-127252855D01*
X136267000Y-127365385D01*
X136271475Y-127380624D01*
X136272865Y-127381829D01*
X136280548Y-127383500D01*
X138233885Y-127383500D01*
X138249124Y-127379025D01*
X138250329Y-127377635D01*
X138252000Y-127369952D01*
X138252000Y-127272000D01*
X138272002Y-127203879D01*
X138325658Y-127157386D01*
X138378000Y-127146000D01*
X139528000Y-127146000D01*
X139596121Y-127166002D01*
X139642614Y-127219658D01*
X139654000Y-127272000D01*
X139654000Y-127528000D01*
X139633998Y-127596121D01*
X139580342Y-127642614D01*
X139528000Y-127654000D01*
X138791115Y-127654000D01*
X138775876Y-127658475D01*
X138774671Y-127659865D01*
X138773000Y-127667548D01*
X138773000Y-127765500D01*
X138752998Y-127833621D01*
X138699342Y-127880114D01*
X138647000Y-127891500D01*
X137772115Y-127891500D01*
X137756876Y-127895975D01*
X137755671Y-127897365D01*
X137754000Y-127905048D01*
X137754000Y-128714884D01*
X137758475Y-128730123D01*
X137759865Y-128731328D01*
X137767548Y-128732999D01*
X138022095Y-128732999D01*
X138028614Y-128732662D01*
X138124206Y-128722743D01*
X138137600Y-128719851D01*
X138291784Y-128668412D01*
X138304962Y-128662239D01*
X138442807Y-128576937D01*
X138454208Y-128567901D01*
X138504094Y-128517928D01*
X138566377Y-128483849D01*
X138637197Y-128488852D01*
X138659382Y-128499686D01*
X138721241Y-128537816D01*
X138734421Y-128543961D01*
X138755761Y-128551040D01*
X138814121Y-128591472D01*
X138841357Y-128657036D01*
X138835686Y-128710300D01*
X138804685Y-128803765D01*
X138801819Y-128817132D01*
X138792328Y-128909770D01*
X138792000Y-128916185D01*
X138792000Y-128927885D01*
X138796475Y-128943124D01*
X138797865Y-128944329D01*
X138805548Y-128946000D01*
X139965500Y-128946000D01*
X140033621Y-128966002D01*
X140080114Y-129019658D01*
X140091500Y-129072000D01*
X140091500Y-129310127D01*
X140071498Y-129378248D01*
X140017842Y-129424741D01*
X139975715Y-129435712D01*
X139886981Y-129442929D01*
X139880022Y-129445183D01*
X139880019Y-129445184D01*
X139871738Y-129447867D01*
X139832907Y-129454000D01*
X138810115Y-129454000D01*
X138794876Y-129458475D01*
X138793671Y-129459865D01*
X138792000Y-129467548D01*
X138792000Y-129483766D01*
X138792337Y-129490282D01*
X138802075Y-129584132D01*
X138804970Y-129597535D01*
X138806001Y-129600626D01*
X138806075Y-129602652D01*
X138806424Y-129604269D01*
X138806136Y-129604331D01*
X138808585Y-129671575D01*
X138772400Y-129732659D01*
X138708936Y-129764482D01*
X138686477Y-129766500D01*
X138274600Y-129766500D01*
X138271354Y-129766837D01*
X138271350Y-129766837D01*
X138175692Y-129776762D01*
X138175688Y-129776763D01*
X138168834Y-129777474D01*
X138162298Y-129779655D01*
X138162296Y-129779655D01*
X138081239Y-129806698D01*
X138001054Y-129833450D01*
X137850652Y-129926522D01*
X137725695Y-130051697D01*
X137632885Y-130202262D01*
X137577203Y-130370139D01*
X137566500Y-130474600D01*
X137566500Y-131250400D01*
X137566837Y-131253646D01*
X137566837Y-131253650D01*
X137569036Y-131274837D01*
X137577474Y-131356166D01*
X137633450Y-131523946D01*
X137726522Y-131674348D01*
X137851697Y-131799305D01*
X137857927Y-131803145D01*
X137857928Y-131803146D01*
X137991813Y-131885674D01*
X138002262Y-131892115D01*
X138082005Y-131918564D01*
X138163611Y-131945632D01*
X138163613Y-131945632D01*
X138170139Y-131947797D01*
X138176975Y-131948497D01*
X138176978Y-131948498D01*
X138220031Y-131952909D01*
X138274600Y-131958500D01*
X139325400Y-131958500D01*
X139328646Y-131958163D01*
X139328650Y-131958163D01*
X139390393Y-131951757D01*
X139428071Y-131947847D01*
X139497893Y-131960712D01*
X139549675Y-132009283D01*
X139565688Y-132074637D01*
X139567000Y-132074637D01*
X139567000Y-132327885D01*
X139571475Y-132343124D01*
X139572865Y-132344329D01*
X139580548Y-132346000D01*
X140790500Y-132346000D01*
X140858621Y-132366002D01*
X140905114Y-132419658D01*
X140916500Y-132472000D01*
X140916500Y-132728000D01*
X140896498Y-132796121D01*
X140842842Y-132842614D01*
X140790500Y-132854000D01*
X139585116Y-132854000D01*
X139569877Y-132858475D01*
X139568672Y-132859865D01*
X139567001Y-132867548D01*
X139567001Y-133122095D01*
X139567338Y-133128614D01*
X139577256Y-133224204D01*
X139580431Y-133238907D01*
X139575256Y-133309715D01*
X139532622Y-133366485D01*
X139466063Y-133391193D01*
X139457269Y-133391500D01*
X136366350Y-133391500D01*
X136298229Y-133371498D01*
X136277333Y-133354674D01*
X136255809Y-133333188D01*
X136248303Y-133325695D01*
X136222379Y-133309715D01*
X136103968Y-133236725D01*
X136103966Y-133236724D01*
X136097738Y-133232885D01*
X136017995Y-133206436D01*
X135936389Y-133179368D01*
X135936387Y-133179368D01*
X135929861Y-133177203D01*
X135923025Y-133176503D01*
X135923022Y-133176502D01*
X135879969Y-133172091D01*
X135825400Y-133166500D01*
X135049600Y-133166500D01*
X135046354Y-133166837D01*
X135046350Y-133166837D01*
X134950692Y-133176762D01*
X134950688Y-133176763D01*
X134943834Y-133177474D01*
X134937298Y-133179655D01*
X134937296Y-133179655D01*
X134805194Y-133223728D01*
X134776054Y-133233450D01*
X134625652Y-133326522D01*
X134620479Y-133331704D01*
X134523673Y-133428679D01*
X134461391Y-133462758D01*
X134390570Y-133457755D01*
X134333698Y-133415258D01*
X134308829Y-133348759D01*
X134308500Y-133339661D01*
X134308500Y-128022095D01*
X136267001Y-128022095D01*
X136267338Y-128028614D01*
X136277257Y-128124206D01*
X136280149Y-128137600D01*
X136331588Y-128291784D01*
X136337761Y-128304962D01*
X136423063Y-128442807D01*
X136432099Y-128454208D01*
X136546829Y-128568739D01*
X136558240Y-128577751D01*
X136696243Y-128662816D01*
X136709424Y-128668963D01*
X136863710Y-128720138D01*
X136877086Y-128723005D01*
X136971438Y-128732672D01*
X136977854Y-128733000D01*
X137227885Y-128733000D01*
X137243124Y-128728525D01*
X137244329Y-128727135D01*
X137246000Y-128719452D01*
X137246000Y-127909615D01*
X137241525Y-127894376D01*
X137240135Y-127893171D01*
X137232452Y-127891500D01*
X136285116Y-127891500D01*
X136269877Y-127895975D01*
X136268672Y-127897365D01*
X136267001Y-127905048D01*
X136267001Y-128022095D01*
X134308500Y-128022095D01*
X134308500Y-124066350D01*
X134328502Y-123998229D01*
X134345326Y-123977333D01*
X134369133Y-123953484D01*
X134374305Y-123948303D01*
X134384796Y-123931284D01*
X134463275Y-123803968D01*
X134463276Y-123803966D01*
X134467115Y-123797738D01*
X134499482Y-123700155D01*
X134520632Y-123636389D01*
X134520632Y-123636387D01*
X134522797Y-123629861D01*
X134533500Y-123525400D01*
X134533500Y-122884500D01*
X134553502Y-122816379D01*
X134607158Y-122769886D01*
X134659500Y-122758500D01*
X135817944Y-122758500D01*
X135829800Y-122759059D01*
X135829803Y-122759059D01*
X135837537Y-122760788D01*
X135908369Y-122758562D01*
X135912327Y-122758500D01*
X135941432Y-122758500D01*
X135945832Y-122757944D01*
X135957664Y-122757012D01*
X136003831Y-122755562D01*
X136024421Y-122749580D01*
X136043782Y-122745570D01*
X136050770Y-122744688D01*
X136057204Y-122743875D01*
X136057205Y-122743875D01*
X136065064Y-122742882D01*
X136072429Y-122739966D01*
X136072433Y-122739965D01*
X136108021Y-122725874D01*
X136119231Y-122722035D01*
X136163600Y-122709145D01*
X136182065Y-122698225D01*
X136199805Y-122689534D01*
X136219756Y-122681635D01*
X136257129Y-122654482D01*
X136267048Y-122647967D01*
X136299977Y-122628493D01*
X136299981Y-122628490D01*
X136306807Y-122624453D01*
X136321971Y-122609289D01*
X136337005Y-122596448D01*
X136347943Y-122588501D01*
X136354357Y-122583841D01*
X136383803Y-122548247D01*
X136391792Y-122539468D01*
X136607605Y-122323655D01*
X136616385Y-122315665D01*
X136616387Y-122315663D01*
X136623080Y-122311416D01*
X136671605Y-122259742D01*
X136674359Y-122256901D01*
X136694927Y-122236333D01*
X136697647Y-122232826D01*
X136705353Y-122223804D01*
X136731544Y-122195913D01*
X136736972Y-122190133D01*
X136740794Y-122183181D01*
X136747303Y-122171342D01*
X136758157Y-122154818D01*
X136766445Y-122144132D01*
X136771304Y-122137868D01*
X136774449Y-122130601D01*
X136774454Y-122130592D01*
X136783598Y-122109460D01*
X136829008Y-122054886D01*
X136899235Y-122033500D01*
X137625400Y-122033500D01*
X137628646Y-122033163D01*
X137628650Y-122033163D01*
X137724308Y-122023238D01*
X137724312Y-122023237D01*
X137731166Y-122022526D01*
X137737702Y-122020345D01*
X137737704Y-122020345D01*
X137891998Y-121968868D01*
X137898946Y-121966550D01*
X137925670Y-121950012D01*
X137994120Y-121931176D01*
X138061890Y-121952337D01*
G37*
%TD.AperFunction*%
%TA.AperFunction,Conductor*%
G36*
X138485033Y-123991814D02*
G01*
X138541869Y-124034361D01*
X138566680Y-124100881D01*
X138567001Y-124109870D01*
X138567001Y-124122095D01*
X138567338Y-124128614D01*
X138577257Y-124224206D01*
X138580149Y-124237600D01*
X138631588Y-124391784D01*
X138637761Y-124404962D01*
X138723063Y-124542807D01*
X138731775Y-124553799D01*
X138735570Y-124563176D01*
X138740064Y-124564712D01*
X138756385Y-124578452D01*
X138846829Y-124668739D01*
X138858240Y-124677751D01*
X138984745Y-124755729D01*
X139032238Y-124808501D01*
X139043662Y-124878572D01*
X139038222Y-124902657D01*
X139004684Y-125003769D01*
X139001819Y-125017132D01*
X138992328Y-125109770D01*
X138992000Y-125116185D01*
X138992000Y-125127885D01*
X138996475Y-125143124D01*
X138997865Y-125144329D01*
X139005548Y-125146000D01*
X140165500Y-125146000D01*
X140233621Y-125166002D01*
X140280114Y-125219658D01*
X140291500Y-125272000D01*
X140291500Y-125515500D01*
X140271498Y-125583621D01*
X140217842Y-125630114D01*
X140165500Y-125641500D01*
X138859500Y-125641500D01*
X138791379Y-125621498D01*
X138744886Y-125567842D01*
X138733500Y-125515500D01*
X138733500Y-125174600D01*
X138731889Y-125159072D01*
X138723238Y-125075692D01*
X138723237Y-125075688D01*
X138722526Y-125068834D01*
X138697347Y-124993362D01*
X138668868Y-124908002D01*
X138666550Y-124901054D01*
X138573478Y-124750652D01*
X138568563Y-124745745D01*
X138564826Y-124736513D01*
X138560333Y-124734977D01*
X138544011Y-124721236D01*
X138453483Y-124630866D01*
X138448303Y-124625695D01*
X138412911Y-124603879D01*
X138318384Y-124545611D01*
X138270890Y-124492838D01*
X138258500Y-124438351D01*
X138258500Y-124166371D01*
X138278502Y-124098250D01*
X138295405Y-124077276D01*
X138351906Y-124020775D01*
X138414218Y-123986749D01*
X138485033Y-123991814D01*
G37*
%TD.AperFunction*%
%TA.AperFunction,Conductor*%
G36*
X152822755Y-122566002D02*
G01*
X152869248Y-122619658D01*
X152875530Y-122636501D01*
X152877475Y-122643124D01*
X152878865Y-122644329D01*
X152886548Y-122646000D01*
X153728000Y-122646000D01*
X153796121Y-122666002D01*
X153842614Y-122719658D01*
X153854000Y-122772000D01*
X153854000Y-123028000D01*
X153833998Y-123096121D01*
X153780342Y-123142614D01*
X153728000Y-123154000D01*
X152470366Y-123154000D01*
X152402245Y-123133998D01*
X152355752Y-123080342D01*
X152349470Y-123063499D01*
X152347525Y-123056876D01*
X152346135Y-123055671D01*
X152338452Y-123054000D01*
X151609500Y-123054000D01*
X151541379Y-123033998D01*
X151494886Y-122980342D01*
X151483500Y-122928000D01*
X151483500Y-122672000D01*
X151503502Y-122603879D01*
X151557158Y-122557386D01*
X151609500Y-122546000D01*
X152754634Y-122546000D01*
X152822755Y-122566002D01*
G37*
%TD.AperFunction*%
%TA.AperFunction,Conductor*%
G36*
X145857643Y-113942502D02*
G01*
X145904136Y-113996158D01*
X145914240Y-114066432D01*
X145911736Y-114077368D01*
X145911909Y-114077405D01*
X145910627Y-114083435D01*
X145908765Y-114089306D01*
X145891500Y-114243227D01*
X145891500Y-116488157D01*
X145890763Y-116501763D01*
X145886676Y-116539388D01*
X145887213Y-116545523D01*
X145891050Y-116589388D01*
X145891379Y-116594214D01*
X145891500Y-116596686D01*
X145891500Y-116599769D01*
X145891801Y-116602837D01*
X145895690Y-116642506D01*
X145895812Y-116643819D01*
X145903913Y-116736413D01*
X145905400Y-116741532D01*
X145905920Y-116746833D01*
X145915657Y-116779084D01*
X145916198Y-116850076D01*
X145878271Y-116910093D01*
X145813917Y-116940077D01*
X145795035Y-116941500D01*
X141488925Y-116941500D01*
X141420804Y-116921498D01*
X141374311Y-116867842D01*
X141364207Y-116797568D01*
X141393701Y-116732988D01*
X141399830Y-116726405D01*
X144166829Y-113959405D01*
X144229141Y-113925379D01*
X144255924Y-113922500D01*
X145789522Y-113922500D01*
X145857643Y-113942502D01*
G37*
%TD.AperFunction*%
%TA.AperFunction,Conductor*%
G36*
X147296410Y-109130423D02*
G01*
X147318592Y-109141256D01*
X147343115Y-109156372D01*
X147390609Y-109209144D01*
X147402033Y-109279215D01*
X147373759Y-109344339D01*
X147366095Y-109352727D01*
X147226464Y-109492358D01*
X147164152Y-109526384D01*
X147144755Y-109524997D01*
X147145045Y-109526139D01*
X147122549Y-109593477D01*
X147108225Y-109610597D01*
X146230621Y-110488201D01*
X146220478Y-110497303D01*
X146190975Y-110521024D01*
X146172845Y-110542630D01*
X146158709Y-110559477D01*
X146155528Y-110563125D01*
X146153885Y-110564937D01*
X146151691Y-110567131D01*
X146124358Y-110600405D01*
X146123696Y-110601203D01*
X146063846Y-110672530D01*
X146061278Y-110677200D01*
X146057897Y-110681317D01*
X146031386Y-110730760D01*
X146014023Y-110763142D01*
X146013394Y-110764301D01*
X145971538Y-110840437D01*
X145971535Y-110840445D01*
X145968567Y-110845843D01*
X145966955Y-110850925D01*
X145964438Y-110855619D01*
X145937259Y-110944518D01*
X145936918Y-110945615D01*
X145908765Y-111034362D01*
X145908171Y-111039658D01*
X145906613Y-111044754D01*
X145897377Y-111135682D01*
X145897221Y-111137217D01*
X145897088Y-111138469D01*
X145891500Y-111188283D01*
X145891500Y-111191810D01*
X145891445Y-111192795D01*
X145890998Y-111198475D01*
X145886626Y-111241518D01*
X145889323Y-111270047D01*
X145890941Y-111287165D01*
X145891500Y-111299023D01*
X145891500Y-111349769D01*
X145891800Y-111352825D01*
X145891800Y-111352832D01*
X145897000Y-111405866D01*
X145905920Y-111496833D01*
X145907702Y-111502734D01*
X145907702Y-111502736D01*
X145913059Y-111520479D01*
X145963084Y-111686169D01*
X145965978Y-111691611D01*
X145965978Y-111691612D01*
X145981256Y-111720346D01*
X145995576Y-111789883D01*
X145970029Y-111856124D01*
X145912724Y-111898037D01*
X145870005Y-111905500D01*
X143847840Y-111905500D01*
X143834232Y-111904763D01*
X143802736Y-111901341D01*
X143802732Y-111901341D01*
X143796611Y-111900676D01*
X143778611Y-111902251D01*
X143746609Y-111905050D01*
X143741784Y-111905379D01*
X143739313Y-111905500D01*
X143736231Y-111905500D01*
X143713763Y-111907703D01*
X143693489Y-111909691D01*
X143692174Y-111909813D01*
X143659913Y-111912636D01*
X143599587Y-111917913D01*
X143594468Y-111919400D01*
X143589167Y-111919920D01*
X143583262Y-111921703D01*
X143583261Y-111921703D01*
X143569330Y-111925909D01*
X143500194Y-111946782D01*
X143499054Y-111947120D01*
X143409663Y-111973091D01*
X143404929Y-111975545D01*
X143399831Y-111977084D01*
X143317741Y-112020732D01*
X143316692Y-112021283D01*
X143276191Y-112042277D01*
X143234074Y-112064108D01*
X143229911Y-112067431D01*
X143225204Y-112069934D01*
X143220430Y-112073828D01*
X143220428Y-112073829D01*
X143153105Y-112128737D01*
X143152160Y-112129500D01*
X143113027Y-112160739D01*
X143110536Y-112163230D01*
X143109809Y-112163880D01*
X143105463Y-112167592D01*
X143086588Y-112182987D01*
X143071938Y-112194935D01*
X143068015Y-112199677D01*
X143068013Y-112199679D01*
X143042703Y-112230273D01*
X143034713Y-112239053D01*
X141273595Y-114000171D01*
X141211283Y-114034197D01*
X141140468Y-114029132D01*
X141083632Y-113986585D01*
X141058821Y-113920065D01*
X141058500Y-113911076D01*
X141058500Y-113699600D01*
X141057300Y-113688033D01*
X141048238Y-113600692D01*
X141048237Y-113600688D01*
X141047526Y-113593834D01*
X141045183Y-113586809D01*
X140993868Y-113433002D01*
X140991550Y-113426054D01*
X140898478Y-113275652D01*
X140892055Y-113269240D01*
X140880451Y-113257656D01*
X140846373Y-113195373D01*
X140851376Y-113124553D01*
X140862210Y-113102368D01*
X140938275Y-112978968D01*
X140938276Y-112978966D01*
X140942115Y-112972738D01*
X140988091Y-112834123D01*
X140995632Y-112811389D01*
X140995632Y-112811387D01*
X140997797Y-112804861D01*
X141008500Y-112700400D01*
X141008500Y-111949600D01*
X141003956Y-111905801D01*
X140998238Y-111850692D01*
X140998237Y-111850688D01*
X140997526Y-111843834D01*
X140994282Y-111834109D01*
X140943868Y-111683002D01*
X140941550Y-111676054D01*
X140848478Y-111525652D01*
X140723303Y-111400695D01*
X140719084Y-111398094D01*
X140678583Y-111340970D01*
X140675351Y-111270047D01*
X140710976Y-111208635D01*
X140718530Y-111202078D01*
X140724348Y-111198478D01*
X140764249Y-111158507D01*
X140825934Y-111096715D01*
X140888217Y-111062636D01*
X140951944Y-111065238D01*
X141024131Y-111087308D01*
X141025219Y-111087647D01*
X141113826Y-111115755D01*
X141119117Y-111116348D01*
X141124218Y-111117908D01*
X141216831Y-111127315D01*
X141217951Y-111127435D01*
X141267747Y-111133020D01*
X141271276Y-111133020D01*
X141272259Y-111133075D01*
X141277946Y-111133523D01*
X141298203Y-111135580D01*
X141314856Y-111137272D01*
X141314859Y-111137272D01*
X141320983Y-111137894D01*
X141366632Y-111133579D01*
X141378489Y-111133020D01*
X144213895Y-111133020D01*
X144239658Y-111135682D01*
X144241042Y-111135971D01*
X144246920Y-111137813D01*
X144348337Y-111148830D01*
X144437415Y-111158507D01*
X144437419Y-111158507D01*
X144443540Y-111159172D01*
X144640565Y-111141935D01*
X144646482Y-111140216D01*
X144646487Y-111140215D01*
X144786943Y-111099408D01*
X144830488Y-111086757D01*
X145006078Y-110995740D01*
X145068765Y-110945698D01*
X145124375Y-110901306D01*
X145124382Y-110901299D01*
X145127125Y-110899110D01*
X146328632Y-109697602D01*
X146390944Y-109663577D01*
X146406306Y-109661216D01*
X146429423Y-109659113D01*
X146463748Y-109655989D01*
X146463750Y-109655989D01*
X146469888Y-109655430D01*
X146475794Y-109653692D01*
X146475798Y-109653691D01*
X146615784Y-109612491D01*
X146659619Y-109599590D01*
X146665077Y-109596737D01*
X146665081Y-109596735D01*
X146755853Y-109549280D01*
X146834890Y-109507960D01*
X146940178Y-109423306D01*
X147005800Y-109396209D01*
X147014823Y-109397847D01*
X147026781Y-109342878D01*
X147040843Y-109322278D01*
X147116154Y-109232526D01*
X147119123Y-109227125D01*
X147119130Y-109227115D01*
X147139108Y-109190775D01*
X147160351Y-109162456D01*
X147163306Y-109159496D01*
X147225590Y-109125418D01*
X147296410Y-109130423D01*
G37*
%TD.AperFunction*%
%TA.AperFunction,Conductor*%
G36*
X156970057Y-100509500D02*
G01*
X156984858Y-100511805D01*
X156984861Y-100511805D01*
X156993730Y-100513186D01*
X157010899Y-100510941D01*
X157034839Y-100510108D01*
X157292770Y-100525710D01*
X157307874Y-100527544D01*
X157338722Y-100533197D01*
X157588879Y-100579040D01*
X157603641Y-100582678D01*
X157876408Y-100667675D01*
X157890627Y-100673069D01*
X158151140Y-100790316D01*
X158164609Y-100797385D01*
X158409095Y-100945182D01*
X158421617Y-100953825D01*
X158646507Y-101130016D01*
X158657895Y-101140106D01*
X158859894Y-101342105D01*
X158869984Y-101353493D01*
X159046175Y-101578383D01*
X159054818Y-101590905D01*
X159202615Y-101835391D01*
X159209684Y-101848860D01*
X159264974Y-101971710D01*
X159326930Y-102109370D01*
X159332325Y-102123592D01*
X159417284Y-102396233D01*
X159417321Y-102396353D01*
X159420960Y-102411121D01*
X159453399Y-102588131D01*
X159472456Y-102692126D01*
X159474290Y-102707230D01*
X159489455Y-102957929D01*
X159488198Y-102984639D01*
X159488195Y-102984859D01*
X159486814Y-102993730D01*
X159487978Y-103002632D01*
X159487978Y-103002635D01*
X159490936Y-103025251D01*
X159492000Y-103041589D01*
X159492000Y-111579500D01*
X159471998Y-111647621D01*
X159418342Y-111694114D01*
X159366000Y-111705500D01*
X155751866Y-111705500D01*
X155689684Y-111712255D01*
X155553295Y-111763385D01*
X155436739Y-111850739D01*
X155431358Y-111857919D01*
X155425008Y-111864269D01*
X155423373Y-111862634D01*
X155376641Y-111897579D01*
X155332671Y-111905500D01*
X152875231Y-111905500D01*
X152872175Y-111905800D01*
X152872168Y-111905800D01*
X152813660Y-111911537D01*
X152728167Y-111919920D01*
X152722268Y-111921701D01*
X152722263Y-111921702D01*
X152710937Y-111925122D01*
X152674519Y-111930500D01*
X152575428Y-111930500D01*
X152572182Y-111930837D01*
X152572178Y-111930837D01*
X152478265Y-111940581D01*
X152478261Y-111940582D01*
X152471407Y-111941293D01*
X152464871Y-111943474D01*
X152464869Y-111943474D01*
X152368741Y-111975545D01*
X152306393Y-111996346D01*
X152260918Y-112024487D01*
X152165990Y-112083230D01*
X152158469Y-112087884D01*
X152151577Y-112094788D01*
X152150113Y-112095589D01*
X152147562Y-112097611D01*
X152147216Y-112097174D01*
X152089296Y-112128866D01*
X152018476Y-112123863D01*
X151973390Y-112094944D01*
X151970684Y-112092243D01*
X151965503Y-112087071D01*
X151939522Y-112071056D01*
X151823650Y-111999631D01*
X151823648Y-111999630D01*
X151817420Y-111995791D01*
X151652309Y-111941026D01*
X151645473Y-111940326D01*
X151645470Y-111940325D01*
X151593974Y-111935049D01*
X151549572Y-111930500D01*
X151454583Y-111930500D01*
X151422667Y-111925559D01*
X151422593Y-111925909D01*
X151416566Y-111924628D01*
X151410694Y-111922765D01*
X151404577Y-111922079D01*
X151404573Y-111922078D01*
X151327408Y-111913423D01*
X151256773Y-111905500D01*
X147969981Y-111905500D01*
X147901860Y-111885498D01*
X147855367Y-111831842D01*
X147845263Y-111761568D01*
X147874757Y-111696988D01*
X147880886Y-111690405D01*
X148925886Y-110645405D01*
X148988198Y-110611379D01*
X149014981Y-110608500D01*
X152053481Y-110608500D01*
X152067088Y-110609237D01*
X152098586Y-110612659D01*
X152098591Y-110612659D01*
X152104712Y-110613324D01*
X152130962Y-110611027D01*
X152154712Y-110608950D01*
X152159538Y-110608621D01*
X152162010Y-110608500D01*
X152165093Y-110608500D01*
X152177062Y-110607326D01*
X152207830Y-110604310D01*
X152209143Y-110604188D01*
X152254243Y-110600242D01*
X152301737Y-110596087D01*
X152306856Y-110594600D01*
X152312157Y-110594080D01*
X152401158Y-110567209D01*
X152402291Y-110566874D01*
X152485738Y-110542630D01*
X152485742Y-110542628D01*
X152491660Y-110540909D01*
X152496392Y-110538456D01*
X152501493Y-110536916D01*
X152522490Y-110525752D01*
X152583584Y-110493269D01*
X152584750Y-110492657D01*
X152661777Y-110452729D01*
X152667250Y-110449892D01*
X152671413Y-110446569D01*
X152676120Y-110444066D01*
X152748242Y-110385245D01*
X152749098Y-110384554D01*
X152788297Y-110353262D01*
X152790801Y-110350758D01*
X152791519Y-110350116D01*
X152795852Y-110346415D01*
X152829386Y-110319065D01*
X152858612Y-110283737D01*
X152866601Y-110274958D01*
X154269379Y-108872179D01*
X154279522Y-108863077D01*
X154304218Y-108843221D01*
X154309025Y-108839356D01*
X154341292Y-108800902D01*
X154344472Y-108797255D01*
X154346115Y-108795443D01*
X154348309Y-108793249D01*
X154375642Y-108759975D01*
X154376348Y-108759124D01*
X154383914Y-108750108D01*
X154436154Y-108687850D01*
X154438722Y-108683180D01*
X154442103Y-108679063D01*
X154485977Y-108597238D01*
X154486606Y-108596079D01*
X154528462Y-108519943D01*
X154528465Y-108519935D01*
X154531433Y-108514537D01*
X154533045Y-108509455D01*
X154535562Y-108504761D01*
X154562762Y-108415793D01*
X154563108Y-108414682D01*
X154564937Y-108408919D01*
X154591235Y-108326018D01*
X154591829Y-108320722D01*
X154593387Y-108315626D01*
X154602790Y-108223067D01*
X154602911Y-108221931D01*
X154607762Y-108178675D01*
X154608108Y-108175594D01*
X154608108Y-108175590D01*
X154608500Y-108172097D01*
X154608500Y-108168570D01*
X154608555Y-108167585D01*
X154609002Y-108161905D01*
X154613374Y-108118862D01*
X154609377Y-108076583D01*
X154609059Y-108073215D01*
X154608500Y-108061357D01*
X154608500Y-106261843D01*
X154609237Y-106248236D01*
X154612659Y-106216738D01*
X154612659Y-106216733D01*
X154613324Y-106210612D01*
X154610675Y-106180328D01*
X154608950Y-106160612D01*
X154608621Y-106155786D01*
X154608500Y-106153314D01*
X154608500Y-106150231D01*
X154607326Y-106138262D01*
X154604310Y-106107494D01*
X154604188Y-106106181D01*
X154596623Y-106019718D01*
X154596087Y-106013587D01*
X154594600Y-106008468D01*
X154594080Y-106003167D01*
X154567209Y-105914166D01*
X154566874Y-105913033D01*
X154542630Y-105829586D01*
X154542628Y-105829582D01*
X154540909Y-105823664D01*
X154538456Y-105818932D01*
X154536916Y-105813831D01*
X154519042Y-105780214D01*
X154493269Y-105731740D01*
X154492657Y-105730574D01*
X154452729Y-105653547D01*
X154449892Y-105648074D01*
X154446569Y-105643911D01*
X154444066Y-105639204D01*
X154385245Y-105567082D01*
X154384554Y-105566226D01*
X154353262Y-105527027D01*
X154350758Y-105524523D01*
X154350116Y-105523805D01*
X154346415Y-105519472D01*
X154319065Y-105485938D01*
X154283733Y-105456709D01*
X154274963Y-105448728D01*
X153868511Y-105042277D01*
X155137009Y-105042277D01*
X155162625Y-105310769D01*
X155163710Y-105315203D01*
X155163711Y-105315209D01*
X155213689Y-105519450D01*
X155226731Y-105572750D01*
X155327985Y-105822733D01*
X155464265Y-106055482D01*
X155576377Y-106195671D01*
X155618415Y-106248236D01*
X155632716Y-106266119D01*
X155829809Y-106450234D01*
X156051416Y-106603968D01*
X156055499Y-106605999D01*
X156055502Y-106606001D01*
X156106171Y-106631208D01*
X156292894Y-106724101D01*
X156297228Y-106725522D01*
X156297231Y-106725523D01*
X156544853Y-106806698D01*
X156544859Y-106806699D01*
X156549186Y-106808118D01*
X156553677Y-106808898D01*
X156553678Y-106808898D01*
X156811140Y-106853601D01*
X156811148Y-106853602D01*
X156814921Y-106854257D01*
X156818758Y-106854448D01*
X156898578Y-106858422D01*
X156898586Y-106858422D01*
X156900149Y-106858500D01*
X157068512Y-106858500D01*
X157070780Y-106858335D01*
X157070792Y-106858335D01*
X157201884Y-106848823D01*
X157269004Y-106843953D01*
X157273459Y-106842969D01*
X157273462Y-106842969D01*
X157527912Y-106786791D01*
X157527916Y-106786790D01*
X157532372Y-106785806D01*
X157658480Y-106738028D01*
X157780318Y-106691868D01*
X157780321Y-106691867D01*
X157784588Y-106690250D01*
X158020368Y-106559286D01*
X158220416Y-106406614D01*
X158231141Y-106398429D01*
X158231142Y-106398428D01*
X158234773Y-106395657D01*
X158265567Y-106364157D01*
X158329042Y-106299225D01*
X158423312Y-106202792D01*
X158582034Y-105984730D01*
X158665271Y-105826522D01*
X158705490Y-105750079D01*
X158705493Y-105750073D01*
X158707615Y-105746039D01*
X158711473Y-105735116D01*
X158795902Y-105496033D01*
X158795902Y-105496032D01*
X158797425Y-105491720D01*
X158836494Y-105293500D01*
X158848700Y-105231572D01*
X158848701Y-105231566D01*
X158849581Y-105227100D01*
X158852328Y-105171924D01*
X158862764Y-104962292D01*
X158862764Y-104962286D01*
X158862991Y-104957723D01*
X158837375Y-104689231D01*
X158806196Y-104561810D01*
X158774355Y-104431688D01*
X158773269Y-104427250D01*
X158672015Y-104177267D01*
X158535735Y-103944518D01*
X158417928Y-103797208D01*
X158370136Y-103737447D01*
X158370135Y-103737445D01*
X158367284Y-103733881D01*
X158170191Y-103549766D01*
X157948584Y-103396032D01*
X157944501Y-103394001D01*
X157944498Y-103393999D01*
X157779606Y-103311967D01*
X157707106Y-103275899D01*
X157702772Y-103274478D01*
X157702769Y-103274477D01*
X157455147Y-103193302D01*
X157455141Y-103193301D01*
X157450814Y-103191882D01*
X157446322Y-103191102D01*
X157188860Y-103146399D01*
X157188852Y-103146398D01*
X157185079Y-103145743D01*
X157173817Y-103145182D01*
X157101422Y-103141578D01*
X157101414Y-103141578D01*
X157099851Y-103141500D01*
X156931488Y-103141500D01*
X156929220Y-103141665D01*
X156929208Y-103141665D01*
X156798116Y-103151177D01*
X156730996Y-103156047D01*
X156726541Y-103157031D01*
X156726538Y-103157031D01*
X156472088Y-103213209D01*
X156472084Y-103213210D01*
X156467628Y-103214194D01*
X156414335Y-103234385D01*
X156219682Y-103308132D01*
X156219679Y-103308133D01*
X156215412Y-103309750D01*
X155979632Y-103440714D01*
X155872430Y-103522528D01*
X155804090Y-103574684D01*
X155765227Y-103604343D01*
X155762034Y-103607609D01*
X155762032Y-103607611D01*
X155740614Y-103629521D01*
X155576688Y-103797208D01*
X155417966Y-104015270D01*
X155393853Y-104061101D01*
X155294510Y-104249921D01*
X155294507Y-104249927D01*
X155292385Y-104253961D01*
X155290865Y-104258266D01*
X155290863Y-104258270D01*
X155218057Y-104464438D01*
X155202575Y-104508280D01*
X155191198Y-104566002D01*
X155154448Y-104752460D01*
X155150419Y-104772900D01*
X155150192Y-104777453D01*
X155150192Y-104777456D01*
X155137954Y-105023297D01*
X155137009Y-105042277D01*
X153868511Y-105042277D01*
X153480094Y-104653860D01*
X153477925Y-104651691D01*
X153363739Y-104557897D01*
X153299674Y-104523546D01*
X153249091Y-104473728D01*
X153233472Y-104404470D01*
X153251956Y-104346386D01*
X153265775Y-104323968D01*
X153265776Y-104323966D01*
X153269615Y-104317738D01*
X153325297Y-104149861D01*
X153336000Y-104045400D01*
X153336000Y-103269600D01*
X153330419Y-103215812D01*
X153325738Y-103170692D01*
X153325737Y-103170688D01*
X153325026Y-103163834D01*
X153322757Y-103157031D01*
X153271368Y-103003002D01*
X153269050Y-102996054D01*
X153175978Y-102845652D01*
X153050803Y-102720695D01*
X153046265Y-102717898D01*
X153005676Y-102660647D01*
X153002446Y-102589724D01*
X153038072Y-102528313D01*
X153046568Y-102520938D01*
X153056707Y-102512902D01*
X153171239Y-102398171D01*
X153180253Y-102386757D01*
X153265316Y-102248757D01*
X153271463Y-102235576D01*
X153322638Y-102081290D01*
X153325505Y-102067914D01*
X153335172Y-101973562D01*
X153335500Y-101967146D01*
X153335500Y-101854615D01*
X153331025Y-101839376D01*
X153329635Y-101838171D01*
X153321952Y-101836500D01*
X151974500Y-101836500D01*
X151906379Y-101816498D01*
X151859886Y-101762842D01*
X151848500Y-101710500D01*
X151848500Y-101454500D01*
X151868502Y-101386379D01*
X151922158Y-101339886D01*
X151974500Y-101328500D01*
X153317384Y-101328500D01*
X153332623Y-101324025D01*
X153333828Y-101322635D01*
X153335499Y-101314952D01*
X153335499Y-101197905D01*
X153335162Y-101191386D01*
X153325243Y-101095794D01*
X153322351Y-101082400D01*
X153270912Y-100928216D01*
X153264739Y-100915038D01*
X153179437Y-100777193D01*
X153170401Y-100765792D01*
X153127708Y-100723173D01*
X153093629Y-100660890D01*
X153098632Y-100590070D01*
X153141130Y-100533197D01*
X153207628Y-100508329D01*
X153216726Y-100508000D01*
X156950672Y-100508000D01*
X156970057Y-100509500D01*
G37*
%TD.AperFunction*%
%TD*%
M02*
