%TF.GenerationSoftware,KiCad,Pcbnew,(6.0.2)*%
%TF.CreationDate,2022-09-18T20:27:38+02:00*%
%TF.ProjectId,8-4GHzDSN_V2,382d3447-487a-4445-934e-5f56322e6b69,rev?*%
%TF.SameCoordinates,Original*%
%TF.FileFunction,Legend,Top*%
%TF.FilePolarity,Positive*%
%FSLAX46Y46*%
G04 Gerber Fmt 4.6, Leading zero omitted, Abs format (unit mm)*
G04 Created by KiCad (PCBNEW (6.0.2)) date 2022-09-18 20:27:38*
%MOMM*%
%LPD*%
G01*
G04 APERTURE LIST*
%ADD10C,0.150000*%
%ADD11C,0.120000*%
G04 APERTURE END LIST*
D10*
X109266666Y-128452380D02*
X109361904Y-128452380D01*
X109457142Y-128500000D01*
X109504761Y-128547619D01*
X109552380Y-128642857D01*
X109600000Y-128833333D01*
X109600000Y-129071428D01*
X109552380Y-129261904D01*
X109504761Y-129357142D01*
X109457142Y-129404761D01*
X109361904Y-129452380D01*
X109266666Y-129452380D01*
X109171428Y-129404761D01*
X109123809Y-129357142D01*
X109076190Y-129261904D01*
X109028571Y-129071428D01*
X109028571Y-128833333D01*
X109076190Y-128642857D01*
X109123809Y-128547619D01*
X109171428Y-128500000D01*
X109266666Y-128452380D01*
X110028571Y-129357142D02*
X110076190Y-129404761D01*
X110028571Y-129452380D01*
X109980952Y-129404761D01*
X110028571Y-129357142D01*
X110028571Y-129452380D01*
X110933333Y-128452380D02*
X110742857Y-128452380D01*
X110647619Y-128500000D01*
X110600000Y-128547619D01*
X110504761Y-128690476D01*
X110457142Y-128880952D01*
X110457142Y-129261904D01*
X110504761Y-129357142D01*
X110552380Y-129404761D01*
X110647619Y-129452380D01*
X110838095Y-129452380D01*
X110933333Y-129404761D01*
X110980952Y-129357142D01*
X111028571Y-129261904D01*
X111028571Y-129023809D01*
X110980952Y-128928571D01*
X110933333Y-128880952D01*
X110838095Y-128833333D01*
X110647619Y-128833333D01*
X110552380Y-128880952D01*
X110504761Y-128928571D01*
X110457142Y-129023809D01*
X111457142Y-129452380D02*
X111457142Y-128785714D01*
X111457142Y-128880952D02*
X111504761Y-128833333D01*
X111600000Y-128785714D01*
X111742857Y-128785714D01*
X111838095Y-128833333D01*
X111885714Y-128928571D01*
X111885714Y-129452380D01*
X111885714Y-128928571D02*
X111933333Y-128833333D01*
X112028571Y-128785714D01*
X112171428Y-128785714D01*
X112266666Y-128833333D01*
X112314285Y-128928571D01*
X112314285Y-129452380D01*
X112790476Y-129452380D02*
X112790476Y-128785714D01*
X112790476Y-128880952D02*
X112838095Y-128833333D01*
X112933333Y-128785714D01*
X113076190Y-128785714D01*
X113171428Y-128833333D01*
X113219047Y-128928571D01*
X113219047Y-129452380D01*
X113219047Y-128928571D02*
X113266666Y-128833333D01*
X113361904Y-128785714D01*
X113504761Y-128785714D01*
X113600000Y-128833333D01*
X113647619Y-128928571D01*
X113647619Y-129452380D01*
X114885714Y-128928571D02*
X115219047Y-128928571D01*
X115361904Y-129452380D02*
X114885714Y-129452380D01*
X114885714Y-128452380D01*
X115361904Y-128452380D01*
X115790476Y-129452380D02*
X115790476Y-128785714D01*
X115790476Y-128976190D02*
X115838095Y-128880952D01*
X115885714Y-128833333D01*
X115980952Y-128785714D01*
X116076190Y-128785714D01*
X116409523Y-128928571D02*
X117171428Y-128928571D01*
X117171428Y-129214285D02*
X116409523Y-129214285D01*
X118076190Y-128785714D02*
X118076190Y-129452380D01*
X117838095Y-128404761D02*
X117600000Y-129119047D01*
X118219047Y-129119047D01*
X118600000Y-129357142D02*
X118647619Y-129404761D01*
X118600000Y-129452380D01*
X118552380Y-129404761D01*
X118600000Y-129357142D01*
X118600000Y-129452380D01*
X119504761Y-128785714D02*
X119504761Y-129452380D01*
X119266666Y-128404761D02*
X119028571Y-129119047D01*
X119647619Y-129119047D01*
X121123809Y-128928571D02*
X120790476Y-128928571D01*
X120790476Y-129452380D02*
X120790476Y-128452380D01*
X121266666Y-128452380D01*
X122219047Y-129452380D02*
X121885714Y-128976190D01*
X121647619Y-129452380D02*
X121647619Y-128452380D01*
X122028571Y-128452380D01*
X122123809Y-128500000D01*
X122171428Y-128547619D01*
X122219047Y-128642857D01*
X122219047Y-128785714D01*
X122171428Y-128880952D01*
X122123809Y-128928571D01*
X122028571Y-128976190D01*
X121647619Y-128976190D01*
X123076190Y-128785714D02*
X123076190Y-129452380D01*
X122838095Y-128404761D02*
X122600000Y-129119047D01*
X123219047Y-129119047D01*
X154690476Y-117952380D02*
X154690476Y-116952380D01*
X155500000Y-117428571D02*
X155166666Y-117428571D01*
X155166666Y-117952380D02*
X155166666Y-116952380D01*
X155642857Y-116952380D01*
X156023809Y-117571428D02*
X156785714Y-117571428D01*
X157452380Y-116952380D02*
X157642857Y-116952380D01*
X157738095Y-117000000D01*
X157833333Y-117095238D01*
X157880952Y-117285714D01*
X157880952Y-117619047D01*
X157833333Y-117809523D01*
X157738095Y-117904761D01*
X157642857Y-117952380D01*
X157452380Y-117952380D01*
X157357142Y-117904761D01*
X157261904Y-117809523D01*
X157214285Y-117619047D01*
X157214285Y-117285714D01*
X157261904Y-117095238D01*
X157357142Y-117000000D01*
X157452380Y-116952380D01*
X158738095Y-117285714D02*
X158738095Y-117952380D01*
X158309523Y-117285714D02*
X158309523Y-117809523D01*
X158357142Y-117904761D01*
X158452380Y-117952380D01*
X158595238Y-117952380D01*
X158690476Y-117904761D01*
X158738095Y-117857142D01*
X159071428Y-117285714D02*
X159452380Y-117285714D01*
X159214285Y-116952380D02*
X159214285Y-117809523D01*
X159261904Y-117904761D01*
X159357142Y-117952380D01*
X159452380Y-117952380D01*
X101471428Y-124952380D02*
X101138095Y-124476190D01*
X100900000Y-124952380D02*
X100900000Y-123952380D01*
X101280952Y-123952380D01*
X101376190Y-124000000D01*
X101423809Y-124047619D01*
X101471428Y-124142857D01*
X101471428Y-124285714D01*
X101423809Y-124380952D01*
X101376190Y-124428571D01*
X101280952Y-124476190D01*
X100900000Y-124476190D01*
X102233333Y-124428571D02*
X101900000Y-124428571D01*
X101900000Y-124952380D02*
X101900000Y-123952380D01*
X102376190Y-123952380D01*
X102757142Y-124571428D02*
X103519047Y-124571428D01*
X103995238Y-124952380D02*
X103995238Y-123952380D01*
X104471428Y-124285714D02*
X104471428Y-124952380D01*
X104471428Y-124380952D02*
X104519047Y-124333333D01*
X104614285Y-124285714D01*
X104757142Y-124285714D01*
X104852380Y-124333333D01*
X104900000Y-124428571D01*
X104900000Y-124952380D01*
X122514285Y-136947380D02*
X122180952Y-136471190D01*
X121942857Y-136947380D02*
X121942857Y-135947380D01*
X122323809Y-135947380D01*
X122419047Y-135995000D01*
X122466666Y-136042619D01*
X122514285Y-136137857D01*
X122514285Y-136280714D01*
X122466666Y-136375952D01*
X122419047Y-136423571D01*
X122323809Y-136471190D01*
X121942857Y-136471190D01*
X122942857Y-136423571D02*
X123276190Y-136423571D01*
X123419047Y-136947380D02*
X122942857Y-136947380D01*
X122942857Y-135947380D01*
X123419047Y-135947380D01*
X124180952Y-136423571D02*
X123847619Y-136423571D01*
X123847619Y-136947380D02*
X123847619Y-135947380D01*
X124323809Y-135947380D01*
X124704761Y-136566428D02*
X125466666Y-136566428D01*
X125942857Y-136947380D02*
X125942857Y-135947380D01*
X126419047Y-136280714D02*
X126419047Y-136947380D01*
X126419047Y-136375952D02*
X126466666Y-136328333D01*
X126561904Y-136280714D01*
X126704761Y-136280714D01*
X126800000Y-136328333D01*
X126847619Y-136423571D01*
X126847619Y-136947380D01*
X128800000Y-135899761D02*
X127942857Y-137185476D01*
X123776190Y-138557380D02*
X123300000Y-138557380D01*
X123300000Y-137557380D01*
X124300000Y-137557380D02*
X124490476Y-137557380D01*
X124585714Y-137605000D01*
X124680952Y-137700238D01*
X124728571Y-137890714D01*
X124728571Y-138224047D01*
X124680952Y-138414523D01*
X124585714Y-138509761D01*
X124490476Y-138557380D01*
X124300000Y-138557380D01*
X124204761Y-138509761D01*
X124109523Y-138414523D01*
X124061904Y-138224047D01*
X124061904Y-137890714D01*
X124109523Y-137700238D01*
X124204761Y-137605000D01*
X124300000Y-137557380D01*
X125157142Y-138176428D02*
X125919047Y-138176428D01*
X126395238Y-138557380D02*
X126395238Y-137557380D01*
X126871428Y-137890714D02*
X126871428Y-138557380D01*
X126871428Y-137985952D02*
X126919047Y-137938333D01*
X127014285Y-137890714D01*
X127157142Y-137890714D01*
X127252380Y-137938333D01*
X127300000Y-138033571D01*
X127300000Y-138557380D01*
%TO.C,R22*%
X155852380Y-124442857D02*
X155376190Y-124776190D01*
X155852380Y-125014285D02*
X154852380Y-125014285D01*
X154852380Y-124633333D01*
X154900000Y-124538095D01*
X154947619Y-124490476D01*
X155042857Y-124442857D01*
X155185714Y-124442857D01*
X155280952Y-124490476D01*
X155328571Y-124538095D01*
X155376190Y-124633333D01*
X155376190Y-125014285D01*
X154947619Y-124061904D02*
X154900000Y-124014285D01*
X154852380Y-123919047D01*
X154852380Y-123680952D01*
X154900000Y-123585714D01*
X154947619Y-123538095D01*
X155042857Y-123490476D01*
X155138095Y-123490476D01*
X155280952Y-123538095D01*
X155852380Y-124109523D01*
X155852380Y-123490476D01*
X154947619Y-123109523D02*
X154900000Y-123061904D01*
X154852380Y-122966666D01*
X154852380Y-122728571D01*
X154900000Y-122633333D01*
X154947619Y-122585714D01*
X155042857Y-122538095D01*
X155138095Y-122538095D01*
X155280952Y-122585714D01*
X155852380Y-123157142D01*
X155852380Y-122538095D01*
%TO.C,C14*%
X130907142Y-115677142D02*
X130859523Y-115724761D01*
X130716666Y-115772380D01*
X130621428Y-115772380D01*
X130478571Y-115724761D01*
X130383333Y-115629523D01*
X130335714Y-115534285D01*
X130288095Y-115343809D01*
X130288095Y-115200952D01*
X130335714Y-115010476D01*
X130383333Y-114915238D01*
X130478571Y-114820000D01*
X130621428Y-114772380D01*
X130716666Y-114772380D01*
X130859523Y-114820000D01*
X130907142Y-114867619D01*
X131859523Y-115772380D02*
X131288095Y-115772380D01*
X131573809Y-115772380D02*
X131573809Y-114772380D01*
X131478571Y-114915238D01*
X131383333Y-115010476D01*
X131288095Y-115058095D01*
X132716666Y-115105714D02*
X132716666Y-115772380D01*
X132478571Y-114724761D02*
X132240476Y-115439047D01*
X132859523Y-115439047D01*
%TO.C,C40*%
X140257142Y-118357142D02*
X140209523Y-118404761D01*
X140066666Y-118452380D01*
X139971428Y-118452380D01*
X139828571Y-118404761D01*
X139733333Y-118309523D01*
X139685714Y-118214285D01*
X139638095Y-118023809D01*
X139638095Y-117880952D01*
X139685714Y-117690476D01*
X139733333Y-117595238D01*
X139828571Y-117500000D01*
X139971428Y-117452380D01*
X140066666Y-117452380D01*
X140209523Y-117500000D01*
X140257142Y-117547619D01*
X141114285Y-117785714D02*
X141114285Y-118452380D01*
X140876190Y-117404761D02*
X140638095Y-118119047D01*
X141257142Y-118119047D01*
X141828571Y-117452380D02*
X141923809Y-117452380D01*
X142019047Y-117500000D01*
X142066666Y-117547619D01*
X142114285Y-117642857D01*
X142161904Y-117833333D01*
X142161904Y-118071428D01*
X142114285Y-118261904D01*
X142066666Y-118357142D01*
X142019047Y-118404761D01*
X141923809Y-118452380D01*
X141828571Y-118452380D01*
X141733333Y-118404761D01*
X141685714Y-118357142D01*
X141638095Y-118261904D01*
X141590476Y-118071428D01*
X141590476Y-117833333D01*
X141638095Y-117642857D01*
X141685714Y-117547619D01*
X141733333Y-117500000D01*
X141828571Y-117452380D01*
%TO.C,R3*%
X142502380Y-115266666D02*
X142026190Y-115600000D01*
X142502380Y-115838095D02*
X141502380Y-115838095D01*
X141502380Y-115457142D01*
X141550000Y-115361904D01*
X141597619Y-115314285D01*
X141692857Y-115266666D01*
X141835714Y-115266666D01*
X141930952Y-115314285D01*
X141978571Y-115361904D01*
X142026190Y-115457142D01*
X142026190Y-115838095D01*
X141502380Y-114933333D02*
X141502380Y-114314285D01*
X141883333Y-114647619D01*
X141883333Y-114504761D01*
X141930952Y-114409523D01*
X141978571Y-114361904D01*
X142073809Y-114314285D01*
X142311904Y-114314285D01*
X142407142Y-114361904D01*
X142454761Y-114409523D01*
X142502380Y-114504761D01*
X142502380Y-114790476D01*
X142454761Y-114885714D01*
X142407142Y-114933333D01*
X142552380Y-115266666D02*
X142076190Y-115600000D01*
X142552380Y-115838095D02*
X141552380Y-115838095D01*
X141552380Y-115457142D01*
X141600000Y-115361904D01*
X141647619Y-115314285D01*
X141742857Y-115266666D01*
X141885714Y-115266666D01*
X141980952Y-115314285D01*
X142028571Y-115361904D01*
X142076190Y-115457142D01*
X142076190Y-115838095D01*
X141552380Y-114933333D02*
X141552380Y-114314285D01*
X141933333Y-114647619D01*
X141933333Y-114504761D01*
X141980952Y-114409523D01*
X142028571Y-114361904D01*
X142123809Y-114314285D01*
X142361904Y-114314285D01*
X142457142Y-114361904D01*
X142504761Y-114409523D01*
X142552380Y-114504761D01*
X142552380Y-114790476D01*
X142504761Y-114885714D01*
X142457142Y-114933333D01*
%TO.C,U11*%
X132822380Y-121238095D02*
X133631904Y-121238095D01*
X133727142Y-121190476D01*
X133774761Y-121142857D01*
X133822380Y-121047619D01*
X133822380Y-120857142D01*
X133774761Y-120761904D01*
X133727142Y-120714285D01*
X133631904Y-120666666D01*
X132822380Y-120666666D01*
X133822380Y-119666666D02*
X133822380Y-120238095D01*
X133822380Y-119952380D02*
X132822380Y-119952380D01*
X132965238Y-120047619D01*
X133060476Y-120142857D01*
X133108095Y-120238095D01*
X133822380Y-118714285D02*
X133822380Y-119285714D01*
X133822380Y-119000000D02*
X132822380Y-119000000D01*
X132965238Y-119095238D01*
X133060476Y-119190476D01*
X133108095Y-119285714D01*
%TO.C,C25*%
X137057142Y-130257142D02*
X137009523Y-130304761D01*
X136866666Y-130352380D01*
X136771428Y-130352380D01*
X136628571Y-130304761D01*
X136533333Y-130209523D01*
X136485714Y-130114285D01*
X136438095Y-129923809D01*
X136438095Y-129780952D01*
X136485714Y-129590476D01*
X136533333Y-129495238D01*
X136628571Y-129400000D01*
X136771428Y-129352380D01*
X136866666Y-129352380D01*
X137009523Y-129400000D01*
X137057142Y-129447619D01*
X137438095Y-129447619D02*
X137485714Y-129400000D01*
X137580952Y-129352380D01*
X137819047Y-129352380D01*
X137914285Y-129400000D01*
X137961904Y-129447619D01*
X138009523Y-129542857D01*
X138009523Y-129638095D01*
X137961904Y-129780952D01*
X137390476Y-130352380D01*
X138009523Y-130352380D01*
X138914285Y-129352380D02*
X138438095Y-129352380D01*
X138390476Y-129828571D01*
X138438095Y-129780952D01*
X138533333Y-129733333D01*
X138771428Y-129733333D01*
X138866666Y-129780952D01*
X138914285Y-129828571D01*
X138961904Y-129923809D01*
X138961904Y-130161904D01*
X138914285Y-130257142D01*
X138866666Y-130304761D01*
X138771428Y-130352380D01*
X138533333Y-130352380D01*
X138438095Y-130304761D01*
X138390476Y-130257142D01*
%TO.C,C34*%
X146187142Y-132142857D02*
X146234761Y-132190476D01*
X146282380Y-132333333D01*
X146282380Y-132428571D01*
X146234761Y-132571428D01*
X146139523Y-132666666D01*
X146044285Y-132714285D01*
X145853809Y-132761904D01*
X145710952Y-132761904D01*
X145520476Y-132714285D01*
X145425238Y-132666666D01*
X145330000Y-132571428D01*
X145282380Y-132428571D01*
X145282380Y-132333333D01*
X145330000Y-132190476D01*
X145377619Y-132142857D01*
X145282380Y-131809523D02*
X145282380Y-131190476D01*
X145663333Y-131523809D01*
X145663333Y-131380952D01*
X145710952Y-131285714D01*
X145758571Y-131238095D01*
X145853809Y-131190476D01*
X146091904Y-131190476D01*
X146187142Y-131238095D01*
X146234761Y-131285714D01*
X146282380Y-131380952D01*
X146282380Y-131666666D01*
X146234761Y-131761904D01*
X146187142Y-131809523D01*
X145615714Y-130333333D02*
X146282380Y-130333333D01*
X145234761Y-130571428D02*
X145949047Y-130809523D01*
X145949047Y-130190476D01*
%TO.C,JP21*%
X146690476Y-114652380D02*
X146690476Y-115366666D01*
X146642857Y-115509523D01*
X146547619Y-115604761D01*
X146404761Y-115652380D01*
X146309523Y-115652380D01*
X147166666Y-115652380D02*
X147166666Y-114652380D01*
X147547619Y-114652380D01*
X147642857Y-114700000D01*
X147690476Y-114747619D01*
X147738095Y-114842857D01*
X147738095Y-114985714D01*
X147690476Y-115080952D01*
X147642857Y-115128571D01*
X147547619Y-115176190D01*
X147166666Y-115176190D01*
X148119047Y-114747619D02*
X148166666Y-114700000D01*
X148261904Y-114652380D01*
X148500000Y-114652380D01*
X148595238Y-114700000D01*
X148642857Y-114747619D01*
X148690476Y-114842857D01*
X148690476Y-114938095D01*
X148642857Y-115080952D01*
X148071428Y-115652380D01*
X148690476Y-115652380D01*
X149642857Y-115652380D02*
X149071428Y-115652380D01*
X149357142Y-115652380D02*
X149357142Y-114652380D01*
X149261904Y-114795238D01*
X149166666Y-114890476D01*
X149071428Y-114938095D01*
%TO.C,C22*%
X136857142Y-123557142D02*
X136809523Y-123604761D01*
X136666666Y-123652380D01*
X136571428Y-123652380D01*
X136428571Y-123604761D01*
X136333333Y-123509523D01*
X136285714Y-123414285D01*
X136238095Y-123223809D01*
X136238095Y-123080952D01*
X136285714Y-122890476D01*
X136333333Y-122795238D01*
X136428571Y-122700000D01*
X136571428Y-122652380D01*
X136666666Y-122652380D01*
X136809523Y-122700000D01*
X136857142Y-122747619D01*
X137238095Y-122747619D02*
X137285714Y-122700000D01*
X137380952Y-122652380D01*
X137619047Y-122652380D01*
X137714285Y-122700000D01*
X137761904Y-122747619D01*
X137809523Y-122842857D01*
X137809523Y-122938095D01*
X137761904Y-123080952D01*
X137190476Y-123652380D01*
X137809523Y-123652380D01*
X138190476Y-122747619D02*
X138238095Y-122700000D01*
X138333333Y-122652380D01*
X138571428Y-122652380D01*
X138666666Y-122700000D01*
X138714285Y-122747619D01*
X138761904Y-122842857D01*
X138761904Y-122938095D01*
X138714285Y-123080952D01*
X138142857Y-123652380D01*
X138761904Y-123652380D01*
%TO.C,C38*%
X135657142Y-119657142D02*
X135609523Y-119704761D01*
X135466666Y-119752380D01*
X135371428Y-119752380D01*
X135228571Y-119704761D01*
X135133333Y-119609523D01*
X135085714Y-119514285D01*
X135038095Y-119323809D01*
X135038095Y-119180952D01*
X135085714Y-118990476D01*
X135133333Y-118895238D01*
X135228571Y-118800000D01*
X135371428Y-118752380D01*
X135466666Y-118752380D01*
X135609523Y-118800000D01*
X135657142Y-118847619D01*
X135990476Y-118752380D02*
X136609523Y-118752380D01*
X136276190Y-119133333D01*
X136419047Y-119133333D01*
X136514285Y-119180952D01*
X136561904Y-119228571D01*
X136609523Y-119323809D01*
X136609523Y-119561904D01*
X136561904Y-119657142D01*
X136514285Y-119704761D01*
X136419047Y-119752380D01*
X136133333Y-119752380D01*
X136038095Y-119704761D01*
X135990476Y-119657142D01*
X137180952Y-119180952D02*
X137085714Y-119133333D01*
X137038095Y-119085714D01*
X136990476Y-118990476D01*
X136990476Y-118942857D01*
X137038095Y-118847619D01*
X137085714Y-118800000D01*
X137180952Y-118752380D01*
X137371428Y-118752380D01*
X137466666Y-118800000D01*
X137514285Y-118847619D01*
X137561904Y-118942857D01*
X137561904Y-118990476D01*
X137514285Y-119085714D01*
X137466666Y-119133333D01*
X137371428Y-119180952D01*
X137180952Y-119180952D01*
X137085714Y-119228571D01*
X137038095Y-119276190D01*
X136990476Y-119371428D01*
X136990476Y-119561904D01*
X137038095Y-119657142D01*
X137085714Y-119704761D01*
X137180952Y-119752380D01*
X137371428Y-119752380D01*
X137466666Y-119704761D01*
X137514285Y-119657142D01*
X137561904Y-119561904D01*
X137561904Y-119371428D01*
X137514285Y-119276190D01*
X137466666Y-119228571D01*
X137371428Y-119180952D01*
%TO.C,C6*%
X154359642Y-106849166D02*
X154407261Y-106896785D01*
X154454880Y-107039642D01*
X154454880Y-107134880D01*
X154407261Y-107277738D01*
X154312023Y-107372976D01*
X154216785Y-107420595D01*
X154026309Y-107468214D01*
X153883452Y-107468214D01*
X153692976Y-107420595D01*
X153597738Y-107372976D01*
X153502500Y-107277738D01*
X153454880Y-107134880D01*
X153454880Y-107039642D01*
X153502500Y-106896785D01*
X153550119Y-106849166D01*
X153454880Y-105992023D02*
X153454880Y-106182500D01*
X153502500Y-106277738D01*
X153550119Y-106325357D01*
X153692976Y-106420595D01*
X153883452Y-106468214D01*
X154264404Y-106468214D01*
X154359642Y-106420595D01*
X154407261Y-106372976D01*
X154454880Y-106277738D01*
X154454880Y-106087261D01*
X154407261Y-105992023D01*
X154359642Y-105944404D01*
X154264404Y-105896785D01*
X154026309Y-105896785D01*
X153931071Y-105944404D01*
X153883452Y-105992023D01*
X153835833Y-106087261D01*
X153835833Y-106277738D01*
X153883452Y-106372976D01*
X153931071Y-106420595D01*
X154026309Y-106468214D01*
%TO.C,L22*%
X144557142Y-119752380D02*
X144080952Y-119752380D01*
X144080952Y-118752380D01*
X144842857Y-118847619D02*
X144890476Y-118800000D01*
X144985714Y-118752380D01*
X145223809Y-118752380D01*
X145319047Y-118800000D01*
X145366666Y-118847619D01*
X145414285Y-118942857D01*
X145414285Y-119038095D01*
X145366666Y-119180952D01*
X144795238Y-119752380D01*
X145414285Y-119752380D01*
X145795238Y-118847619D02*
X145842857Y-118800000D01*
X145938095Y-118752380D01*
X146176190Y-118752380D01*
X146271428Y-118800000D01*
X146319047Y-118847619D01*
X146366666Y-118942857D01*
X146366666Y-119038095D01*
X146319047Y-119180952D01*
X145747619Y-119752380D01*
X146366666Y-119752380D01*
%TO.C,C23*%
X136857142Y-124757142D02*
X136809523Y-124804761D01*
X136666666Y-124852380D01*
X136571428Y-124852380D01*
X136428571Y-124804761D01*
X136333333Y-124709523D01*
X136285714Y-124614285D01*
X136238095Y-124423809D01*
X136238095Y-124280952D01*
X136285714Y-124090476D01*
X136333333Y-123995238D01*
X136428571Y-123900000D01*
X136571428Y-123852380D01*
X136666666Y-123852380D01*
X136809523Y-123900000D01*
X136857142Y-123947619D01*
X137238095Y-123947619D02*
X137285714Y-123900000D01*
X137380952Y-123852380D01*
X137619047Y-123852380D01*
X137714285Y-123900000D01*
X137761904Y-123947619D01*
X137809523Y-124042857D01*
X137809523Y-124138095D01*
X137761904Y-124280952D01*
X137190476Y-124852380D01*
X137809523Y-124852380D01*
X138142857Y-123852380D02*
X138761904Y-123852380D01*
X138428571Y-124233333D01*
X138571428Y-124233333D01*
X138666666Y-124280952D01*
X138714285Y-124328571D01*
X138761904Y-124423809D01*
X138761904Y-124661904D01*
X138714285Y-124757142D01*
X138666666Y-124804761D01*
X138571428Y-124852380D01*
X138285714Y-124852380D01*
X138190476Y-124804761D01*
X138142857Y-124757142D01*
%TO.C,C29*%
X133757142Y-133077142D02*
X133709523Y-133124761D01*
X133566666Y-133172380D01*
X133471428Y-133172380D01*
X133328571Y-133124761D01*
X133233333Y-133029523D01*
X133185714Y-132934285D01*
X133138095Y-132743809D01*
X133138095Y-132600952D01*
X133185714Y-132410476D01*
X133233333Y-132315238D01*
X133328571Y-132220000D01*
X133471428Y-132172380D01*
X133566666Y-132172380D01*
X133709523Y-132220000D01*
X133757142Y-132267619D01*
X134138095Y-132267619D02*
X134185714Y-132220000D01*
X134280952Y-132172380D01*
X134519047Y-132172380D01*
X134614285Y-132220000D01*
X134661904Y-132267619D01*
X134709523Y-132362857D01*
X134709523Y-132458095D01*
X134661904Y-132600952D01*
X134090476Y-133172380D01*
X134709523Y-133172380D01*
X135185714Y-133172380D02*
X135376190Y-133172380D01*
X135471428Y-133124761D01*
X135519047Y-133077142D01*
X135614285Y-132934285D01*
X135661904Y-132743809D01*
X135661904Y-132362857D01*
X135614285Y-132267619D01*
X135566666Y-132220000D01*
X135471428Y-132172380D01*
X135280952Y-132172380D01*
X135185714Y-132220000D01*
X135138095Y-132267619D01*
X135090476Y-132362857D01*
X135090476Y-132600952D01*
X135138095Y-132696190D01*
X135185714Y-132743809D01*
X135280952Y-132791428D01*
X135471428Y-132791428D01*
X135566666Y-132743809D01*
X135614285Y-132696190D01*
X135661904Y-132600952D01*
%TO.C,C15*%
X129519642Y-126587142D02*
X129472023Y-126634761D01*
X129329166Y-126682380D01*
X129233928Y-126682380D01*
X129091071Y-126634761D01*
X128995833Y-126539523D01*
X128948214Y-126444285D01*
X128900595Y-126253809D01*
X128900595Y-126110952D01*
X128948214Y-125920476D01*
X128995833Y-125825238D01*
X129091071Y-125730000D01*
X129233928Y-125682380D01*
X129329166Y-125682380D01*
X129472023Y-125730000D01*
X129519642Y-125777619D01*
X130472023Y-126682380D02*
X129900595Y-126682380D01*
X130186309Y-126682380D02*
X130186309Y-125682380D01*
X130091071Y-125825238D01*
X129995833Y-125920476D01*
X129900595Y-125968095D01*
X131376785Y-125682380D02*
X130900595Y-125682380D01*
X130852976Y-126158571D01*
X130900595Y-126110952D01*
X130995833Y-126063333D01*
X131233928Y-126063333D01*
X131329166Y-126110952D01*
X131376785Y-126158571D01*
X131424404Y-126253809D01*
X131424404Y-126491904D01*
X131376785Y-126587142D01*
X131329166Y-126634761D01*
X131233928Y-126682380D01*
X130995833Y-126682380D01*
X130900595Y-126634761D01*
X130852976Y-126587142D01*
%TO.C,U1*%
X110438095Y-122252380D02*
X110438095Y-123061904D01*
X110485714Y-123157142D01*
X110533333Y-123204761D01*
X110628571Y-123252380D01*
X110819047Y-123252380D01*
X110914285Y-123204761D01*
X110961904Y-123157142D01*
X111009523Y-123061904D01*
X111009523Y-122252380D01*
X112009523Y-123252380D02*
X111438095Y-123252380D01*
X111723809Y-123252380D02*
X111723809Y-122252380D01*
X111628571Y-122395238D01*
X111533333Y-122490476D01*
X111438095Y-122538095D01*
%TO.C,C28*%
X140857142Y-134657142D02*
X140809523Y-134704761D01*
X140666666Y-134752380D01*
X140571428Y-134752380D01*
X140428571Y-134704761D01*
X140333333Y-134609523D01*
X140285714Y-134514285D01*
X140238095Y-134323809D01*
X140238095Y-134180952D01*
X140285714Y-133990476D01*
X140333333Y-133895238D01*
X140428571Y-133800000D01*
X140571428Y-133752380D01*
X140666666Y-133752380D01*
X140809523Y-133800000D01*
X140857142Y-133847619D01*
X141238095Y-133847619D02*
X141285714Y-133800000D01*
X141380952Y-133752380D01*
X141619047Y-133752380D01*
X141714285Y-133800000D01*
X141761904Y-133847619D01*
X141809523Y-133942857D01*
X141809523Y-134038095D01*
X141761904Y-134180952D01*
X141190476Y-134752380D01*
X141809523Y-134752380D01*
X142380952Y-134180952D02*
X142285714Y-134133333D01*
X142238095Y-134085714D01*
X142190476Y-133990476D01*
X142190476Y-133942857D01*
X142238095Y-133847619D01*
X142285714Y-133800000D01*
X142380952Y-133752380D01*
X142571428Y-133752380D01*
X142666666Y-133800000D01*
X142714285Y-133847619D01*
X142761904Y-133942857D01*
X142761904Y-133990476D01*
X142714285Y-134085714D01*
X142666666Y-134133333D01*
X142571428Y-134180952D01*
X142380952Y-134180952D01*
X142285714Y-134228571D01*
X142238095Y-134276190D01*
X142190476Y-134371428D01*
X142190476Y-134561904D01*
X142238095Y-134657142D01*
X142285714Y-134704761D01*
X142380952Y-134752380D01*
X142571428Y-134752380D01*
X142666666Y-134704761D01*
X142714285Y-134657142D01*
X142761904Y-134561904D01*
X142761904Y-134371428D01*
X142714285Y-134276190D01*
X142666666Y-134228571D01*
X142571428Y-134180952D01*
%TO.C,L3*%
X130133333Y-121802380D02*
X129657142Y-121802380D01*
X129657142Y-120802380D01*
X130371428Y-120802380D02*
X130990476Y-120802380D01*
X130657142Y-121183333D01*
X130800000Y-121183333D01*
X130895238Y-121230952D01*
X130942857Y-121278571D01*
X130990476Y-121373809D01*
X130990476Y-121611904D01*
X130942857Y-121707142D01*
X130895238Y-121754761D01*
X130800000Y-121802380D01*
X130514285Y-121802380D01*
X130419047Y-121754761D01*
X130371428Y-121707142D01*
%TO.C,J1*%
X104116666Y-106652380D02*
X104116666Y-107366666D01*
X104069047Y-107509523D01*
X103973809Y-107604761D01*
X103830952Y-107652380D01*
X103735714Y-107652380D01*
X105116666Y-107652380D02*
X104545238Y-107652380D01*
X104830952Y-107652380D02*
X104830952Y-106652380D01*
X104735714Y-106795238D01*
X104640476Y-106890476D01*
X104545238Y-106938095D01*
%TO.C,C39*%
X136157142Y-127242857D02*
X136204761Y-127290476D01*
X136252380Y-127433333D01*
X136252380Y-127528571D01*
X136204761Y-127671428D01*
X136109523Y-127766666D01*
X136014285Y-127814285D01*
X135823809Y-127861904D01*
X135680952Y-127861904D01*
X135490476Y-127814285D01*
X135395238Y-127766666D01*
X135300000Y-127671428D01*
X135252380Y-127528571D01*
X135252380Y-127433333D01*
X135300000Y-127290476D01*
X135347619Y-127242857D01*
X135252380Y-126909523D02*
X135252380Y-126290476D01*
X135633333Y-126623809D01*
X135633333Y-126480952D01*
X135680952Y-126385714D01*
X135728571Y-126338095D01*
X135823809Y-126290476D01*
X136061904Y-126290476D01*
X136157142Y-126338095D01*
X136204761Y-126385714D01*
X136252380Y-126480952D01*
X136252380Y-126766666D01*
X136204761Y-126861904D01*
X136157142Y-126909523D01*
X136252380Y-125814285D02*
X136252380Y-125623809D01*
X136204761Y-125528571D01*
X136157142Y-125480952D01*
X136014285Y-125385714D01*
X135823809Y-125338095D01*
X135442857Y-125338095D01*
X135347619Y-125385714D01*
X135300000Y-125433333D01*
X135252380Y-125528571D01*
X135252380Y-125719047D01*
X135300000Y-125814285D01*
X135347619Y-125861904D01*
X135442857Y-125909523D01*
X135680952Y-125909523D01*
X135776190Y-125861904D01*
X135823809Y-125814285D01*
X135871428Y-125719047D01*
X135871428Y-125528571D01*
X135823809Y-125433333D01*
X135776190Y-125385714D01*
X135680952Y-125338095D01*
%TO.C,C24*%
X137657142Y-132742857D02*
X137704761Y-132790476D01*
X137752380Y-132933333D01*
X137752380Y-133028571D01*
X137704761Y-133171428D01*
X137609523Y-133266666D01*
X137514285Y-133314285D01*
X137323809Y-133361904D01*
X137180952Y-133361904D01*
X136990476Y-133314285D01*
X136895238Y-133266666D01*
X136800000Y-133171428D01*
X136752380Y-133028571D01*
X136752380Y-132933333D01*
X136800000Y-132790476D01*
X136847619Y-132742857D01*
X136847619Y-132361904D02*
X136800000Y-132314285D01*
X136752380Y-132219047D01*
X136752380Y-131980952D01*
X136800000Y-131885714D01*
X136847619Y-131838095D01*
X136942857Y-131790476D01*
X137038095Y-131790476D01*
X137180952Y-131838095D01*
X137752380Y-132409523D01*
X137752380Y-131790476D01*
X137085714Y-130933333D02*
X137752380Y-130933333D01*
X136704761Y-131171428D02*
X137419047Y-131409523D01*
X137419047Y-130790476D01*
%TO.C,R5*%
X141052380Y-101166666D02*
X140576190Y-101500000D01*
X141052380Y-101738095D02*
X140052380Y-101738095D01*
X140052380Y-101357142D01*
X140100000Y-101261904D01*
X140147619Y-101214285D01*
X140242857Y-101166666D01*
X140385714Y-101166666D01*
X140480952Y-101214285D01*
X140528571Y-101261904D01*
X140576190Y-101357142D01*
X140576190Y-101738095D01*
X140052380Y-100261904D02*
X140052380Y-100738095D01*
X140528571Y-100785714D01*
X140480952Y-100738095D01*
X140433333Y-100642857D01*
X140433333Y-100404761D01*
X140480952Y-100309523D01*
X140528571Y-100261904D01*
X140623809Y-100214285D01*
X140861904Y-100214285D01*
X140957142Y-100261904D01*
X141004761Y-100309523D01*
X141052380Y-100404761D01*
X141052380Y-100642857D01*
X141004761Y-100738095D01*
X140957142Y-100785714D01*
%TO.C,C3*%
X106833333Y-122257142D02*
X106785714Y-122304761D01*
X106642857Y-122352380D01*
X106547619Y-122352380D01*
X106404761Y-122304761D01*
X106309523Y-122209523D01*
X106261904Y-122114285D01*
X106214285Y-121923809D01*
X106214285Y-121780952D01*
X106261904Y-121590476D01*
X106309523Y-121495238D01*
X106404761Y-121400000D01*
X106547619Y-121352380D01*
X106642857Y-121352380D01*
X106785714Y-121400000D01*
X106833333Y-121447619D01*
X107166666Y-121352380D02*
X107785714Y-121352380D01*
X107452380Y-121733333D01*
X107595238Y-121733333D01*
X107690476Y-121780952D01*
X107738095Y-121828571D01*
X107785714Y-121923809D01*
X107785714Y-122161904D01*
X107738095Y-122257142D01*
X107690476Y-122304761D01*
X107595238Y-122352380D01*
X107309523Y-122352380D01*
X107214285Y-122304761D01*
X107166666Y-122257142D01*
%TO.C,U5*%
X118638095Y-122246380D02*
X118638095Y-123055904D01*
X118685714Y-123151142D01*
X118733333Y-123198761D01*
X118828571Y-123246380D01*
X119019047Y-123246380D01*
X119114285Y-123198761D01*
X119161904Y-123151142D01*
X119209523Y-123055904D01*
X119209523Y-122246380D01*
X120161904Y-122246380D02*
X119685714Y-122246380D01*
X119638095Y-122722571D01*
X119685714Y-122674952D01*
X119780952Y-122627333D01*
X120019047Y-122627333D01*
X120114285Y-122674952D01*
X120161904Y-122722571D01*
X120209523Y-122817809D01*
X120209523Y-123055904D01*
X120161904Y-123151142D01*
X120114285Y-123198761D01*
X120019047Y-123246380D01*
X119780952Y-123246380D01*
X119685714Y-123198761D01*
X119638095Y-123151142D01*
%TO.C,C5*%
X120333333Y-115457142D02*
X120285714Y-115504761D01*
X120142857Y-115552380D01*
X120047619Y-115552380D01*
X119904761Y-115504761D01*
X119809523Y-115409523D01*
X119761904Y-115314285D01*
X119714285Y-115123809D01*
X119714285Y-114980952D01*
X119761904Y-114790476D01*
X119809523Y-114695238D01*
X119904761Y-114600000D01*
X120047619Y-114552380D01*
X120142857Y-114552380D01*
X120285714Y-114600000D01*
X120333333Y-114647619D01*
X121238095Y-114552380D02*
X120761904Y-114552380D01*
X120714285Y-115028571D01*
X120761904Y-114980952D01*
X120857142Y-114933333D01*
X121095238Y-114933333D01*
X121190476Y-114980952D01*
X121238095Y-115028571D01*
X121285714Y-115123809D01*
X121285714Y-115361904D01*
X121238095Y-115457142D01*
X121190476Y-115504761D01*
X121095238Y-115552380D01*
X120857142Y-115552380D01*
X120761904Y-115504761D01*
X120714285Y-115457142D01*
%TO.C,C21*%
X150957142Y-137057142D02*
X150909523Y-137104761D01*
X150766666Y-137152380D01*
X150671428Y-137152380D01*
X150528571Y-137104761D01*
X150433333Y-137009523D01*
X150385714Y-136914285D01*
X150338095Y-136723809D01*
X150338095Y-136580952D01*
X150385714Y-136390476D01*
X150433333Y-136295238D01*
X150528571Y-136200000D01*
X150671428Y-136152380D01*
X150766666Y-136152380D01*
X150909523Y-136200000D01*
X150957142Y-136247619D01*
X151338095Y-136247619D02*
X151385714Y-136200000D01*
X151480952Y-136152380D01*
X151719047Y-136152380D01*
X151814285Y-136200000D01*
X151861904Y-136247619D01*
X151909523Y-136342857D01*
X151909523Y-136438095D01*
X151861904Y-136580952D01*
X151290476Y-137152380D01*
X151909523Y-137152380D01*
X152861904Y-137152380D02*
X152290476Y-137152380D01*
X152576190Y-137152380D02*
X152576190Y-136152380D01*
X152480952Y-136295238D01*
X152385714Y-136390476D01*
X152290476Y-136438095D01*
%TO.C,C13*%
X131977142Y-122742857D02*
X132024761Y-122790476D01*
X132072380Y-122933333D01*
X132072380Y-123028571D01*
X132024761Y-123171428D01*
X131929523Y-123266666D01*
X131834285Y-123314285D01*
X131643809Y-123361904D01*
X131500952Y-123361904D01*
X131310476Y-123314285D01*
X131215238Y-123266666D01*
X131120000Y-123171428D01*
X131072380Y-123028571D01*
X131072380Y-122933333D01*
X131120000Y-122790476D01*
X131167619Y-122742857D01*
X132072380Y-121790476D02*
X132072380Y-122361904D01*
X132072380Y-122076190D02*
X131072380Y-122076190D01*
X131215238Y-122171428D01*
X131310476Y-122266666D01*
X131358095Y-122361904D01*
X131072380Y-121457142D02*
X131072380Y-120838095D01*
X131453333Y-121171428D01*
X131453333Y-121028571D01*
X131500952Y-120933333D01*
X131548571Y-120885714D01*
X131643809Y-120838095D01*
X131881904Y-120838095D01*
X131977142Y-120885714D01*
X132024761Y-120933333D01*
X132072380Y-121028571D01*
X132072380Y-121314285D01*
X132024761Y-121409523D01*
X131977142Y-121457142D01*
%TO.C,Q1*%
X133347619Y-113895238D02*
X133300000Y-113990476D01*
X133204761Y-114085714D01*
X133061904Y-114228571D01*
X133014285Y-114323809D01*
X133014285Y-114419047D01*
X133252380Y-114371428D02*
X133204761Y-114466666D01*
X133109523Y-114561904D01*
X132919047Y-114609523D01*
X132585714Y-114609523D01*
X132395238Y-114561904D01*
X132300000Y-114466666D01*
X132252380Y-114371428D01*
X132252380Y-114180952D01*
X132300000Y-114085714D01*
X132395238Y-113990476D01*
X132585714Y-113942857D01*
X132919047Y-113942857D01*
X133109523Y-113990476D01*
X133204761Y-114085714D01*
X133252380Y-114180952D01*
X133252380Y-114371428D01*
X133252380Y-112990476D02*
X133252380Y-113561904D01*
X133252380Y-113276190D02*
X132252380Y-113276190D01*
X132395238Y-113371428D01*
X132490476Y-113466666D01*
X132538095Y-113561904D01*
%TO.C,C4*%
X108870833Y-108557142D02*
X108823214Y-108604761D01*
X108680357Y-108652380D01*
X108585119Y-108652380D01*
X108442261Y-108604761D01*
X108347023Y-108509523D01*
X108299404Y-108414285D01*
X108251785Y-108223809D01*
X108251785Y-108080952D01*
X108299404Y-107890476D01*
X108347023Y-107795238D01*
X108442261Y-107700000D01*
X108585119Y-107652380D01*
X108680357Y-107652380D01*
X108823214Y-107700000D01*
X108870833Y-107747619D01*
X109727976Y-107985714D02*
X109727976Y-108652380D01*
X109489880Y-107604761D02*
X109251785Y-108319047D01*
X109870833Y-108319047D01*
%TO.C,R1*%
X114952380Y-112566666D02*
X114476190Y-112900000D01*
X114952380Y-113138095D02*
X113952380Y-113138095D01*
X113952380Y-112757142D01*
X114000000Y-112661904D01*
X114047619Y-112614285D01*
X114142857Y-112566666D01*
X114285714Y-112566666D01*
X114380952Y-112614285D01*
X114428571Y-112661904D01*
X114476190Y-112757142D01*
X114476190Y-113138095D01*
X114952380Y-111614285D02*
X114952380Y-112185714D01*
X114952380Y-111900000D02*
X113952380Y-111900000D01*
X114095238Y-111995238D01*
X114190476Y-112090476D01*
X114238095Y-112185714D01*
%TO.C,C11*%
X148359642Y-110139642D02*
X148312023Y-110187261D01*
X148169166Y-110234880D01*
X148073928Y-110234880D01*
X147931071Y-110187261D01*
X147835833Y-110092023D01*
X147788214Y-109996785D01*
X147740595Y-109806309D01*
X147740595Y-109663452D01*
X147788214Y-109472976D01*
X147835833Y-109377738D01*
X147931071Y-109282500D01*
X148073928Y-109234880D01*
X148169166Y-109234880D01*
X148312023Y-109282500D01*
X148359642Y-109330119D01*
X149312023Y-110234880D02*
X148740595Y-110234880D01*
X149026309Y-110234880D02*
X149026309Y-109234880D01*
X148931071Y-109377738D01*
X148835833Y-109472976D01*
X148740595Y-109520595D01*
X150264404Y-110234880D02*
X149692976Y-110234880D01*
X149978690Y-110234880D02*
X149978690Y-109234880D01*
X149883452Y-109377738D01*
X149788214Y-109472976D01*
X149692976Y-109520595D01*
%TO.C,C27*%
X155057142Y-121157142D02*
X155009523Y-121204761D01*
X154866666Y-121252380D01*
X154771428Y-121252380D01*
X154628571Y-121204761D01*
X154533333Y-121109523D01*
X154485714Y-121014285D01*
X154438095Y-120823809D01*
X154438095Y-120680952D01*
X154485714Y-120490476D01*
X154533333Y-120395238D01*
X154628571Y-120300000D01*
X154771428Y-120252380D01*
X154866666Y-120252380D01*
X155009523Y-120300000D01*
X155057142Y-120347619D01*
X155438095Y-120347619D02*
X155485714Y-120300000D01*
X155580952Y-120252380D01*
X155819047Y-120252380D01*
X155914285Y-120300000D01*
X155961904Y-120347619D01*
X156009523Y-120442857D01*
X156009523Y-120538095D01*
X155961904Y-120680952D01*
X155390476Y-121252380D01*
X156009523Y-121252380D01*
X156342857Y-120252380D02*
X157009523Y-120252380D01*
X156580952Y-121252380D01*
%TO.C,C2*%
X116657142Y-102066666D02*
X116704761Y-102114285D01*
X116752380Y-102257142D01*
X116752380Y-102352380D01*
X116704761Y-102495238D01*
X116609523Y-102590476D01*
X116514285Y-102638095D01*
X116323809Y-102685714D01*
X116180952Y-102685714D01*
X115990476Y-102638095D01*
X115895238Y-102590476D01*
X115800000Y-102495238D01*
X115752380Y-102352380D01*
X115752380Y-102257142D01*
X115800000Y-102114285D01*
X115847619Y-102066666D01*
X115847619Y-101685714D02*
X115800000Y-101638095D01*
X115752380Y-101542857D01*
X115752380Y-101304761D01*
X115800000Y-101209523D01*
X115847619Y-101161904D01*
X115942857Y-101114285D01*
X116038095Y-101114285D01*
X116180952Y-101161904D01*
X116752380Y-101733333D01*
X116752380Y-101114285D01*
%TO.C,C32*%
X154057142Y-127057142D02*
X154009523Y-127104761D01*
X153866666Y-127152380D01*
X153771428Y-127152380D01*
X153628571Y-127104761D01*
X153533333Y-127009523D01*
X153485714Y-126914285D01*
X153438095Y-126723809D01*
X153438095Y-126580952D01*
X153485714Y-126390476D01*
X153533333Y-126295238D01*
X153628571Y-126200000D01*
X153771428Y-126152380D01*
X153866666Y-126152380D01*
X154009523Y-126200000D01*
X154057142Y-126247619D01*
X154390476Y-126152380D02*
X155009523Y-126152380D01*
X154676190Y-126533333D01*
X154819047Y-126533333D01*
X154914285Y-126580952D01*
X154961904Y-126628571D01*
X155009523Y-126723809D01*
X155009523Y-126961904D01*
X154961904Y-127057142D01*
X154914285Y-127104761D01*
X154819047Y-127152380D01*
X154533333Y-127152380D01*
X154438095Y-127104761D01*
X154390476Y-127057142D01*
X155390476Y-126247619D02*
X155438095Y-126200000D01*
X155533333Y-126152380D01*
X155771428Y-126152380D01*
X155866666Y-126200000D01*
X155914285Y-126247619D01*
X155961904Y-126342857D01*
X155961904Y-126438095D01*
X155914285Y-126580952D01*
X155342857Y-127152380D01*
X155961904Y-127152380D01*
%TO.C,U2*%
X119202380Y-110011904D02*
X120011904Y-110011904D01*
X120107142Y-109964285D01*
X120154761Y-109916666D01*
X120202380Y-109821428D01*
X120202380Y-109630952D01*
X120154761Y-109535714D01*
X120107142Y-109488095D01*
X120011904Y-109440476D01*
X119202380Y-109440476D01*
X119297619Y-109011904D02*
X119250000Y-108964285D01*
X119202380Y-108869047D01*
X119202380Y-108630952D01*
X119250000Y-108535714D01*
X119297619Y-108488095D01*
X119392857Y-108440476D01*
X119488095Y-108440476D01*
X119630952Y-108488095D01*
X120202380Y-109059523D01*
X120202380Y-108440476D01*
%TO.C,U3*%
X135538095Y-106152380D02*
X135538095Y-106961904D01*
X135585714Y-107057142D01*
X135633333Y-107104761D01*
X135728571Y-107152380D01*
X135919047Y-107152380D01*
X136014285Y-107104761D01*
X136061904Y-107057142D01*
X136109523Y-106961904D01*
X136109523Y-106152380D01*
X136490476Y-106152380D02*
X137109523Y-106152380D01*
X136776190Y-106533333D01*
X136919047Y-106533333D01*
X137014285Y-106580952D01*
X137061904Y-106628571D01*
X137109523Y-106723809D01*
X137109523Y-106961904D01*
X137061904Y-107057142D01*
X137014285Y-107104761D01*
X136919047Y-107152380D01*
X136633333Y-107152380D01*
X136538095Y-107104761D01*
X136490476Y-107057142D01*
%TO.C,U12*%
X133377380Y-111388095D02*
X134186904Y-111388095D01*
X134282142Y-111340476D01*
X134329761Y-111292857D01*
X134377380Y-111197619D01*
X134377380Y-111007142D01*
X134329761Y-110911904D01*
X134282142Y-110864285D01*
X134186904Y-110816666D01*
X133377380Y-110816666D01*
X134377380Y-109816666D02*
X134377380Y-110388095D01*
X134377380Y-110102380D02*
X133377380Y-110102380D01*
X133520238Y-110197619D01*
X133615476Y-110292857D01*
X133663095Y-110388095D01*
X133472619Y-109435714D02*
X133425000Y-109388095D01*
X133377380Y-109292857D01*
X133377380Y-109054761D01*
X133425000Y-108959523D01*
X133472619Y-108911904D01*
X133567857Y-108864285D01*
X133663095Y-108864285D01*
X133805952Y-108911904D01*
X134377380Y-109483333D01*
X134377380Y-108864285D01*
%TO.C,R21*%
X135957142Y-129152380D02*
X135623809Y-128676190D01*
X135385714Y-129152380D02*
X135385714Y-128152380D01*
X135766666Y-128152380D01*
X135861904Y-128200000D01*
X135909523Y-128247619D01*
X135957142Y-128342857D01*
X135957142Y-128485714D01*
X135909523Y-128580952D01*
X135861904Y-128628571D01*
X135766666Y-128676190D01*
X135385714Y-128676190D01*
X136338095Y-128247619D02*
X136385714Y-128200000D01*
X136480952Y-128152380D01*
X136719047Y-128152380D01*
X136814285Y-128200000D01*
X136861904Y-128247619D01*
X136909523Y-128342857D01*
X136909523Y-128438095D01*
X136861904Y-128580952D01*
X136290476Y-129152380D01*
X136909523Y-129152380D01*
X137861904Y-129152380D02*
X137290476Y-129152380D01*
X137576190Y-129152380D02*
X137576190Y-128152380D01*
X137480952Y-128295238D01*
X137385714Y-128390476D01*
X137290476Y-128438095D01*
%TO.C,C18*%
X144517142Y-110037142D02*
X144469523Y-110084761D01*
X144326666Y-110132380D01*
X144231428Y-110132380D01*
X144088571Y-110084761D01*
X143993333Y-109989523D01*
X143945714Y-109894285D01*
X143898095Y-109703809D01*
X143898095Y-109560952D01*
X143945714Y-109370476D01*
X143993333Y-109275238D01*
X144088571Y-109180000D01*
X144231428Y-109132380D01*
X144326666Y-109132380D01*
X144469523Y-109180000D01*
X144517142Y-109227619D01*
X145469523Y-110132380D02*
X144898095Y-110132380D01*
X145183809Y-110132380D02*
X145183809Y-109132380D01*
X145088571Y-109275238D01*
X144993333Y-109370476D01*
X144898095Y-109418095D01*
X146040952Y-109560952D02*
X145945714Y-109513333D01*
X145898095Y-109465714D01*
X145850476Y-109370476D01*
X145850476Y-109322857D01*
X145898095Y-109227619D01*
X145945714Y-109180000D01*
X146040952Y-109132380D01*
X146231428Y-109132380D01*
X146326666Y-109180000D01*
X146374285Y-109227619D01*
X146421904Y-109322857D01*
X146421904Y-109370476D01*
X146374285Y-109465714D01*
X146326666Y-109513333D01*
X146231428Y-109560952D01*
X146040952Y-109560952D01*
X145945714Y-109608571D01*
X145898095Y-109656190D01*
X145850476Y-109751428D01*
X145850476Y-109941904D01*
X145898095Y-110037142D01*
X145945714Y-110084761D01*
X146040952Y-110132380D01*
X146231428Y-110132380D01*
X146326666Y-110084761D01*
X146374285Y-110037142D01*
X146421904Y-109941904D01*
X146421904Y-109751428D01*
X146374285Y-109656190D01*
X146326666Y-109608571D01*
X146231428Y-109560952D01*
%TO.C,C17*%
X151419642Y-111841142D02*
X151372023Y-111888761D01*
X151229166Y-111936380D01*
X151133928Y-111936380D01*
X150991071Y-111888761D01*
X150895833Y-111793523D01*
X150848214Y-111698285D01*
X150800595Y-111507809D01*
X150800595Y-111364952D01*
X150848214Y-111174476D01*
X150895833Y-111079238D01*
X150991071Y-110984000D01*
X151133928Y-110936380D01*
X151229166Y-110936380D01*
X151372023Y-110984000D01*
X151419642Y-111031619D01*
X152372023Y-111936380D02*
X151800595Y-111936380D01*
X152086309Y-111936380D02*
X152086309Y-110936380D01*
X151991071Y-111079238D01*
X151895833Y-111174476D01*
X151800595Y-111222095D01*
X152705357Y-110936380D02*
X153372023Y-110936380D01*
X152943452Y-111936380D01*
%TO.C,U15*%
X147864404Y-100134880D02*
X147864404Y-100944404D01*
X147912023Y-101039642D01*
X147959642Y-101087261D01*
X148054880Y-101134880D01*
X148245357Y-101134880D01*
X148340595Y-101087261D01*
X148388214Y-101039642D01*
X148435833Y-100944404D01*
X148435833Y-100134880D01*
X149435833Y-101134880D02*
X148864404Y-101134880D01*
X149150119Y-101134880D02*
X149150119Y-100134880D01*
X149054880Y-100277738D01*
X148959642Y-100372976D01*
X148864404Y-100420595D01*
X150340595Y-100134880D02*
X149864404Y-100134880D01*
X149816785Y-100611071D01*
X149864404Y-100563452D01*
X149959642Y-100515833D01*
X150197738Y-100515833D01*
X150292976Y-100563452D01*
X150340595Y-100611071D01*
X150388214Y-100706309D01*
X150388214Y-100944404D01*
X150340595Y-101039642D01*
X150292976Y-101087261D01*
X150197738Y-101134880D01*
X149959642Y-101134880D01*
X149864404Y-101087261D01*
X149816785Y-101039642D01*
%TO.C,L21*%
X155302380Y-116142857D02*
X155302380Y-116619047D01*
X154302380Y-116619047D01*
X154397619Y-115857142D02*
X154350000Y-115809523D01*
X154302380Y-115714285D01*
X154302380Y-115476190D01*
X154350000Y-115380952D01*
X154397619Y-115333333D01*
X154492857Y-115285714D01*
X154588095Y-115285714D01*
X154730952Y-115333333D01*
X155302380Y-115904761D01*
X155302380Y-115285714D01*
X155302380Y-114333333D02*
X155302380Y-114904761D01*
X155302380Y-114619047D02*
X154302380Y-114619047D01*
X154445238Y-114714285D01*
X154540476Y-114809523D01*
X154588095Y-114904761D01*
%TO.C,C16*%
X133307142Y-112607142D02*
X133259523Y-112654761D01*
X133116666Y-112702380D01*
X133021428Y-112702380D01*
X132878571Y-112654761D01*
X132783333Y-112559523D01*
X132735714Y-112464285D01*
X132688095Y-112273809D01*
X132688095Y-112130952D01*
X132735714Y-111940476D01*
X132783333Y-111845238D01*
X132878571Y-111750000D01*
X133021428Y-111702380D01*
X133116666Y-111702380D01*
X133259523Y-111750000D01*
X133307142Y-111797619D01*
X134259523Y-112702380D02*
X133688095Y-112702380D01*
X133973809Y-112702380D02*
X133973809Y-111702380D01*
X133878571Y-111845238D01*
X133783333Y-111940476D01*
X133688095Y-111988095D01*
X135116666Y-111702380D02*
X134926190Y-111702380D01*
X134830952Y-111750000D01*
X134783333Y-111797619D01*
X134688095Y-111940476D01*
X134640476Y-112130952D01*
X134640476Y-112511904D01*
X134688095Y-112607142D01*
X134735714Y-112654761D01*
X134830952Y-112702380D01*
X135021428Y-112702380D01*
X135116666Y-112654761D01*
X135164285Y-112607142D01*
X135211904Y-112511904D01*
X135211904Y-112273809D01*
X135164285Y-112178571D01*
X135116666Y-112130952D01*
X135021428Y-112083333D01*
X134830952Y-112083333D01*
X134735714Y-112130952D01*
X134688095Y-112178571D01*
X134640476Y-112273809D01*
%TO.C,C10*%
X154259642Y-104025357D02*
X154307261Y-104072976D01*
X154354880Y-104215833D01*
X154354880Y-104311071D01*
X154307261Y-104453928D01*
X154212023Y-104549166D01*
X154116785Y-104596785D01*
X153926309Y-104644404D01*
X153783452Y-104644404D01*
X153592976Y-104596785D01*
X153497738Y-104549166D01*
X153402500Y-104453928D01*
X153354880Y-104311071D01*
X153354880Y-104215833D01*
X153402500Y-104072976D01*
X153450119Y-104025357D01*
X154354880Y-103072976D02*
X154354880Y-103644404D01*
X154354880Y-103358690D02*
X153354880Y-103358690D01*
X153497738Y-103453928D01*
X153592976Y-103549166D01*
X153640595Y-103644404D01*
X153354880Y-102453928D02*
X153354880Y-102358690D01*
X153402500Y-102263452D01*
X153450119Y-102215833D01*
X153545357Y-102168214D01*
X153735833Y-102120595D01*
X153973928Y-102120595D01*
X154164404Y-102168214D01*
X154259642Y-102215833D01*
X154307261Y-102263452D01*
X154354880Y-102358690D01*
X154354880Y-102453928D01*
X154307261Y-102549166D01*
X154259642Y-102596785D01*
X154164404Y-102644404D01*
X153973928Y-102692023D01*
X153735833Y-102692023D01*
X153545357Y-102644404D01*
X153450119Y-102596785D01*
X153402500Y-102549166D01*
X153354880Y-102453928D01*
%TO.C,L1*%
X114139880Y-117054166D02*
X114139880Y-117530357D01*
X113139880Y-117530357D01*
X114139880Y-116197023D02*
X114139880Y-116768452D01*
X114139880Y-116482738D02*
X113139880Y-116482738D01*
X113282738Y-116577976D01*
X113377976Y-116673214D01*
X113425595Y-116768452D01*
%TO.C,C37*%
X150657142Y-115457142D02*
X150609523Y-115504761D01*
X150466666Y-115552380D01*
X150371428Y-115552380D01*
X150228571Y-115504761D01*
X150133333Y-115409523D01*
X150085714Y-115314285D01*
X150038095Y-115123809D01*
X150038095Y-114980952D01*
X150085714Y-114790476D01*
X150133333Y-114695238D01*
X150228571Y-114600000D01*
X150371428Y-114552380D01*
X150466666Y-114552380D01*
X150609523Y-114600000D01*
X150657142Y-114647619D01*
X150990476Y-114552380D02*
X151609523Y-114552380D01*
X151276190Y-114933333D01*
X151419047Y-114933333D01*
X151514285Y-114980952D01*
X151561904Y-115028571D01*
X151609523Y-115123809D01*
X151609523Y-115361904D01*
X151561904Y-115457142D01*
X151514285Y-115504761D01*
X151419047Y-115552380D01*
X151133333Y-115552380D01*
X151038095Y-115504761D01*
X150990476Y-115457142D01*
X151942857Y-114552380D02*
X152609523Y-114552380D01*
X152180952Y-115552380D01*
%TO.C,D1*%
X109511904Y-106702380D02*
X109511904Y-105702380D01*
X109750000Y-105702380D01*
X109892857Y-105750000D01*
X109988095Y-105845238D01*
X110035714Y-105940476D01*
X110083333Y-106130952D01*
X110083333Y-106273809D01*
X110035714Y-106464285D01*
X109988095Y-106559523D01*
X109892857Y-106654761D01*
X109750000Y-106702380D01*
X109511904Y-106702380D01*
X111035714Y-106702380D02*
X110464285Y-106702380D01*
X110750000Y-106702380D02*
X110750000Y-105702380D01*
X110654761Y-105845238D01*
X110559523Y-105940476D01*
X110464285Y-105988095D01*
%TO.C,C7*%
X108470833Y-111762002D02*
X108423214Y-111809621D01*
X108280357Y-111857240D01*
X108185119Y-111857240D01*
X108042261Y-111809621D01*
X107947023Y-111714383D01*
X107899404Y-111619145D01*
X107851785Y-111428669D01*
X107851785Y-111285812D01*
X107899404Y-111095336D01*
X107947023Y-111000098D01*
X108042261Y-110904860D01*
X108185119Y-110857240D01*
X108280357Y-110857240D01*
X108423214Y-110904860D01*
X108470833Y-110952479D01*
X108804166Y-110857240D02*
X109470833Y-110857240D01*
X109042261Y-111857240D01*
%TO.C,C35*%
X148557142Y-122257142D02*
X148509523Y-122304761D01*
X148366666Y-122352380D01*
X148271428Y-122352380D01*
X148128571Y-122304761D01*
X148033333Y-122209523D01*
X147985714Y-122114285D01*
X147938095Y-121923809D01*
X147938095Y-121780952D01*
X147985714Y-121590476D01*
X148033333Y-121495238D01*
X148128571Y-121400000D01*
X148271428Y-121352380D01*
X148366666Y-121352380D01*
X148509523Y-121400000D01*
X148557142Y-121447619D01*
X148890476Y-121352380D02*
X149509523Y-121352380D01*
X149176190Y-121733333D01*
X149319047Y-121733333D01*
X149414285Y-121780952D01*
X149461904Y-121828571D01*
X149509523Y-121923809D01*
X149509523Y-122161904D01*
X149461904Y-122257142D01*
X149414285Y-122304761D01*
X149319047Y-122352380D01*
X149033333Y-122352380D01*
X148938095Y-122304761D01*
X148890476Y-122257142D01*
X150414285Y-121352380D02*
X149938095Y-121352380D01*
X149890476Y-121828571D01*
X149938095Y-121780952D01*
X150033333Y-121733333D01*
X150271428Y-121733333D01*
X150366666Y-121780952D01*
X150414285Y-121828571D01*
X150461904Y-121923809D01*
X150461904Y-122161904D01*
X150414285Y-122257142D01*
X150366666Y-122304761D01*
X150271428Y-122352380D01*
X150033333Y-122352380D01*
X149938095Y-122304761D01*
X149890476Y-122257142D01*
%TO.C,D21*%
X143585714Y-138452380D02*
X143585714Y-137452380D01*
X143823809Y-137452380D01*
X143966666Y-137500000D01*
X144061904Y-137595238D01*
X144109523Y-137690476D01*
X144157142Y-137880952D01*
X144157142Y-138023809D01*
X144109523Y-138214285D01*
X144061904Y-138309523D01*
X143966666Y-138404761D01*
X143823809Y-138452380D01*
X143585714Y-138452380D01*
X144538095Y-137547619D02*
X144585714Y-137500000D01*
X144680952Y-137452380D01*
X144919047Y-137452380D01*
X145014285Y-137500000D01*
X145061904Y-137547619D01*
X145109523Y-137642857D01*
X145109523Y-137738095D01*
X145061904Y-137880952D01*
X144490476Y-138452380D01*
X145109523Y-138452380D01*
X146061904Y-138452380D02*
X145490476Y-138452380D01*
X145776190Y-138452380D02*
X145776190Y-137452380D01*
X145680952Y-137595238D01*
X145585714Y-137690476D01*
X145490476Y-137738095D01*
%TO.C,C33*%
X149387142Y-132142857D02*
X149434761Y-132190476D01*
X149482380Y-132333333D01*
X149482380Y-132428571D01*
X149434761Y-132571428D01*
X149339523Y-132666666D01*
X149244285Y-132714285D01*
X149053809Y-132761904D01*
X148910952Y-132761904D01*
X148720476Y-132714285D01*
X148625238Y-132666666D01*
X148530000Y-132571428D01*
X148482380Y-132428571D01*
X148482380Y-132333333D01*
X148530000Y-132190476D01*
X148577619Y-132142857D01*
X148482380Y-131809523D02*
X148482380Y-131190476D01*
X148863333Y-131523809D01*
X148863333Y-131380952D01*
X148910952Y-131285714D01*
X148958571Y-131238095D01*
X149053809Y-131190476D01*
X149291904Y-131190476D01*
X149387142Y-131238095D01*
X149434761Y-131285714D01*
X149482380Y-131380952D01*
X149482380Y-131666666D01*
X149434761Y-131761904D01*
X149387142Y-131809523D01*
X148482380Y-130857142D02*
X148482380Y-130238095D01*
X148863333Y-130571428D01*
X148863333Y-130428571D01*
X148910952Y-130333333D01*
X148958571Y-130285714D01*
X149053809Y-130238095D01*
X149291904Y-130238095D01*
X149387142Y-130285714D01*
X149434761Y-130333333D01*
X149482380Y-130428571D01*
X149482380Y-130714285D01*
X149434761Y-130809523D01*
X149387142Y-130857142D01*
%TO.C,R24*%
X136957142Y-122552380D02*
X136623809Y-122076190D01*
X136385714Y-122552380D02*
X136385714Y-121552380D01*
X136766666Y-121552380D01*
X136861904Y-121600000D01*
X136909523Y-121647619D01*
X136957142Y-121742857D01*
X136957142Y-121885714D01*
X136909523Y-121980952D01*
X136861904Y-122028571D01*
X136766666Y-122076190D01*
X136385714Y-122076190D01*
X137338095Y-121647619D02*
X137385714Y-121600000D01*
X137480952Y-121552380D01*
X137719047Y-121552380D01*
X137814285Y-121600000D01*
X137861904Y-121647619D01*
X137909523Y-121742857D01*
X137909523Y-121838095D01*
X137861904Y-121980952D01*
X137290476Y-122552380D01*
X137909523Y-122552380D01*
X138766666Y-121885714D02*
X138766666Y-122552380D01*
X138528571Y-121504761D02*
X138290476Y-122219047D01*
X138909523Y-122219047D01*
%TO.C,C36*%
X148457142Y-120957142D02*
X148409523Y-121004761D01*
X148266666Y-121052380D01*
X148171428Y-121052380D01*
X148028571Y-121004761D01*
X147933333Y-120909523D01*
X147885714Y-120814285D01*
X147838095Y-120623809D01*
X147838095Y-120480952D01*
X147885714Y-120290476D01*
X147933333Y-120195238D01*
X148028571Y-120100000D01*
X148171428Y-120052380D01*
X148266666Y-120052380D01*
X148409523Y-120100000D01*
X148457142Y-120147619D01*
X148790476Y-120052380D02*
X149409523Y-120052380D01*
X149076190Y-120433333D01*
X149219047Y-120433333D01*
X149314285Y-120480952D01*
X149361904Y-120528571D01*
X149409523Y-120623809D01*
X149409523Y-120861904D01*
X149361904Y-120957142D01*
X149314285Y-121004761D01*
X149219047Y-121052380D01*
X148933333Y-121052380D01*
X148838095Y-121004761D01*
X148790476Y-120957142D01*
X150266666Y-120052380D02*
X150076190Y-120052380D01*
X149980952Y-120100000D01*
X149933333Y-120147619D01*
X149838095Y-120290476D01*
X149790476Y-120480952D01*
X149790476Y-120861904D01*
X149838095Y-120957142D01*
X149885714Y-121004761D01*
X149980952Y-121052380D01*
X150171428Y-121052380D01*
X150266666Y-121004761D01*
X150314285Y-120957142D01*
X150361904Y-120861904D01*
X150361904Y-120623809D01*
X150314285Y-120528571D01*
X150266666Y-120480952D01*
X150171428Y-120433333D01*
X149980952Y-120433333D01*
X149885714Y-120480952D01*
X149838095Y-120528571D01*
X149790476Y-120623809D01*
%TO.C,U22*%
X148761904Y-127452380D02*
X148761904Y-128261904D01*
X148809523Y-128357142D01*
X148857142Y-128404761D01*
X148952380Y-128452380D01*
X149142857Y-128452380D01*
X149238095Y-128404761D01*
X149285714Y-128357142D01*
X149333333Y-128261904D01*
X149333333Y-127452380D01*
X149761904Y-127547619D02*
X149809523Y-127500000D01*
X149904761Y-127452380D01*
X150142857Y-127452380D01*
X150238095Y-127500000D01*
X150285714Y-127547619D01*
X150333333Y-127642857D01*
X150333333Y-127738095D01*
X150285714Y-127880952D01*
X149714285Y-128452380D01*
X150333333Y-128452380D01*
X150714285Y-127547619D02*
X150761904Y-127500000D01*
X150857142Y-127452380D01*
X151095238Y-127452380D01*
X151190476Y-127500000D01*
X151238095Y-127547619D01*
X151285714Y-127642857D01*
X151285714Y-127738095D01*
X151238095Y-127880952D01*
X150666666Y-128452380D01*
X151285714Y-128452380D01*
%TO.C,C26*%
X140457142Y-135957142D02*
X140409523Y-136004761D01*
X140266666Y-136052380D01*
X140171428Y-136052380D01*
X140028571Y-136004761D01*
X139933333Y-135909523D01*
X139885714Y-135814285D01*
X139838095Y-135623809D01*
X139838095Y-135480952D01*
X139885714Y-135290476D01*
X139933333Y-135195238D01*
X140028571Y-135100000D01*
X140171428Y-135052380D01*
X140266666Y-135052380D01*
X140409523Y-135100000D01*
X140457142Y-135147619D01*
X140838095Y-135147619D02*
X140885714Y-135100000D01*
X140980952Y-135052380D01*
X141219047Y-135052380D01*
X141314285Y-135100000D01*
X141361904Y-135147619D01*
X141409523Y-135242857D01*
X141409523Y-135338095D01*
X141361904Y-135480952D01*
X140790476Y-136052380D01*
X141409523Y-136052380D01*
X142266666Y-135052380D02*
X142076190Y-135052380D01*
X141980952Y-135100000D01*
X141933333Y-135147619D01*
X141838095Y-135290476D01*
X141790476Y-135480952D01*
X141790476Y-135861904D01*
X141838095Y-135957142D01*
X141885714Y-136004761D01*
X141980952Y-136052380D01*
X142171428Y-136052380D01*
X142266666Y-136004761D01*
X142314285Y-135957142D01*
X142361904Y-135861904D01*
X142361904Y-135623809D01*
X142314285Y-135528571D01*
X142266666Y-135480952D01*
X142171428Y-135433333D01*
X141980952Y-135433333D01*
X141885714Y-135480952D01*
X141838095Y-135528571D01*
X141790476Y-135623809D01*
%TO.C,C12*%
X141057142Y-108342857D02*
X141104761Y-108390476D01*
X141152380Y-108533333D01*
X141152380Y-108628571D01*
X141104761Y-108771428D01*
X141009523Y-108866666D01*
X140914285Y-108914285D01*
X140723809Y-108961904D01*
X140580952Y-108961904D01*
X140390476Y-108914285D01*
X140295238Y-108866666D01*
X140200000Y-108771428D01*
X140152380Y-108628571D01*
X140152380Y-108533333D01*
X140200000Y-108390476D01*
X140247619Y-108342857D01*
X141152380Y-107390476D02*
X141152380Y-107961904D01*
X141152380Y-107676190D02*
X140152380Y-107676190D01*
X140295238Y-107771428D01*
X140390476Y-107866666D01*
X140438095Y-107961904D01*
X140247619Y-107009523D02*
X140200000Y-106961904D01*
X140152380Y-106866666D01*
X140152380Y-106628571D01*
X140200000Y-106533333D01*
X140247619Y-106485714D01*
X140342857Y-106438095D01*
X140438095Y-106438095D01*
X140580952Y-106485714D01*
X141152380Y-107057142D01*
X141152380Y-106438095D01*
%TO.C,C31*%
X143857142Y-119642857D02*
X143904761Y-119690476D01*
X143952380Y-119833333D01*
X143952380Y-119928571D01*
X143904761Y-120071428D01*
X143809523Y-120166666D01*
X143714285Y-120214285D01*
X143523809Y-120261904D01*
X143380952Y-120261904D01*
X143190476Y-120214285D01*
X143095238Y-120166666D01*
X143000000Y-120071428D01*
X142952380Y-119928571D01*
X142952380Y-119833333D01*
X143000000Y-119690476D01*
X143047619Y-119642857D01*
X142952380Y-119309523D02*
X142952380Y-118690476D01*
X143333333Y-119023809D01*
X143333333Y-118880952D01*
X143380952Y-118785714D01*
X143428571Y-118738095D01*
X143523809Y-118690476D01*
X143761904Y-118690476D01*
X143857142Y-118738095D01*
X143904761Y-118785714D01*
X143952380Y-118880952D01*
X143952380Y-119166666D01*
X143904761Y-119261904D01*
X143857142Y-119309523D01*
X143952380Y-117738095D02*
X143952380Y-118309523D01*
X143952380Y-118023809D02*
X142952380Y-118023809D01*
X143095238Y-118119047D01*
X143190476Y-118214285D01*
X143238095Y-118309523D01*
%TO.C,C30*%
X146127142Y-122542857D02*
X146174761Y-122590476D01*
X146222380Y-122733333D01*
X146222380Y-122828571D01*
X146174761Y-122971428D01*
X146079523Y-123066666D01*
X145984285Y-123114285D01*
X145793809Y-123161904D01*
X145650952Y-123161904D01*
X145460476Y-123114285D01*
X145365238Y-123066666D01*
X145270000Y-122971428D01*
X145222380Y-122828571D01*
X145222380Y-122733333D01*
X145270000Y-122590476D01*
X145317619Y-122542857D01*
X145222380Y-122209523D02*
X145222380Y-121590476D01*
X145603333Y-121923809D01*
X145603333Y-121780952D01*
X145650952Y-121685714D01*
X145698571Y-121638095D01*
X145793809Y-121590476D01*
X146031904Y-121590476D01*
X146127142Y-121638095D01*
X146174761Y-121685714D01*
X146222380Y-121780952D01*
X146222380Y-122066666D01*
X146174761Y-122161904D01*
X146127142Y-122209523D01*
X145222380Y-120971428D02*
X145222380Y-120876190D01*
X145270000Y-120780952D01*
X145317619Y-120733333D01*
X145412857Y-120685714D01*
X145603333Y-120638095D01*
X145841428Y-120638095D01*
X146031904Y-120685714D01*
X146127142Y-120733333D01*
X146174761Y-120780952D01*
X146222380Y-120876190D01*
X146222380Y-120971428D01*
X146174761Y-121066666D01*
X146127142Y-121114285D01*
X146031904Y-121161904D01*
X145841428Y-121209523D01*
X145603333Y-121209523D01*
X145412857Y-121161904D01*
X145317619Y-121114285D01*
X145270000Y-121066666D01*
X145222380Y-120971428D01*
%TO.C,U21*%
X154661904Y-134152380D02*
X154661904Y-134961904D01*
X154709523Y-135057142D01*
X154757142Y-135104761D01*
X154852380Y-135152380D01*
X155042857Y-135152380D01*
X155138095Y-135104761D01*
X155185714Y-135057142D01*
X155233333Y-134961904D01*
X155233333Y-134152380D01*
X155661904Y-134247619D02*
X155709523Y-134200000D01*
X155804761Y-134152380D01*
X156042857Y-134152380D01*
X156138095Y-134200000D01*
X156185714Y-134247619D01*
X156233333Y-134342857D01*
X156233333Y-134438095D01*
X156185714Y-134580952D01*
X155614285Y-135152380D01*
X156233333Y-135152380D01*
X157185714Y-135152380D02*
X156614285Y-135152380D01*
X156900000Y-135152380D02*
X156900000Y-134152380D01*
X156804761Y-134295238D01*
X156709523Y-134390476D01*
X156614285Y-134438095D01*
%TO.C,R23*%
X146452380Y-134742857D02*
X145976190Y-135076190D01*
X146452380Y-135314285D02*
X145452380Y-135314285D01*
X145452380Y-134933333D01*
X145500000Y-134838095D01*
X145547619Y-134790476D01*
X145642857Y-134742857D01*
X145785714Y-134742857D01*
X145880952Y-134790476D01*
X145928571Y-134838095D01*
X145976190Y-134933333D01*
X145976190Y-135314285D01*
X145547619Y-134361904D02*
X145500000Y-134314285D01*
X145452380Y-134219047D01*
X145452380Y-133980952D01*
X145500000Y-133885714D01*
X145547619Y-133838095D01*
X145642857Y-133790476D01*
X145738095Y-133790476D01*
X145880952Y-133838095D01*
X146452380Y-134409523D01*
X146452380Y-133790476D01*
X145452380Y-133457142D02*
X145452380Y-132838095D01*
X145833333Y-133171428D01*
X145833333Y-133028571D01*
X145880952Y-132933333D01*
X145928571Y-132885714D01*
X146023809Y-132838095D01*
X146261904Y-132838095D01*
X146357142Y-132885714D01*
X146404761Y-132933333D01*
X146452380Y-133028571D01*
X146452380Y-133314285D01*
X146404761Y-133409523D01*
X146357142Y-133457142D01*
%TO.C,L4*%
X142052380Y-111266666D02*
X142052380Y-111742857D01*
X141052380Y-111742857D01*
X141385714Y-110504761D02*
X142052380Y-110504761D01*
X141004761Y-110742857D02*
X141719047Y-110980952D01*
X141719047Y-110361904D01*
%TO.C,R4*%
X142952380Y-101266666D02*
X142476190Y-101600000D01*
X142952380Y-101838095D02*
X141952380Y-101838095D01*
X141952380Y-101457142D01*
X142000000Y-101361904D01*
X142047619Y-101314285D01*
X142142857Y-101266666D01*
X142285714Y-101266666D01*
X142380952Y-101314285D01*
X142428571Y-101361904D01*
X142476190Y-101457142D01*
X142476190Y-101838095D01*
X142285714Y-100409523D02*
X142952380Y-100409523D01*
X141904761Y-100647619D02*
X142619047Y-100885714D01*
X142619047Y-100266666D01*
D11*
%TO.C,R22*%
X154335000Y-124127064D02*
X154335000Y-123672936D01*
X152865000Y-124127064D02*
X152865000Y-123672936D01*
%TO.C,C14*%
X131288748Y-116265000D02*
X131811252Y-116265000D01*
X131288748Y-117735000D02*
X131811252Y-117735000D01*
%TO.C,C40*%
X141161252Y-118865000D02*
X140638748Y-118865000D01*
X141161252Y-120335000D02*
X140638748Y-120335000D01*
%TO.C,R3*%
X139115000Y-115327064D02*
X139115000Y-114872936D01*
X140585000Y-115327064D02*
X140585000Y-114872936D01*
%TO.C,U11*%
X131650000Y-119115000D02*
X131650000Y-118390000D01*
X129450000Y-118390000D02*
X130265000Y-118390000D01*
X131650000Y-120885000D02*
X131650000Y-121610000D01*
X131650000Y-121610000D02*
X130835000Y-121610000D01*
X129450000Y-121610000D02*
X130265000Y-121610000D01*
X129450000Y-120885000D02*
X129450000Y-121610000D01*
X129450000Y-119115000D02*
X129450000Y-118390000D01*
%TO.C,C25*%
X140846267Y-128690000D02*
X140553733Y-128690000D01*
X140846267Y-129710000D02*
X140553733Y-129710000D01*
%TO.C,C34*%
X143890000Y-131353733D02*
X143890000Y-131646267D01*
X144910000Y-131353733D02*
X144910000Y-131646267D01*
%TO.C,JP21*%
X148700000Y-118000000D02*
X147300000Y-118000000D01*
X146600000Y-117300000D02*
X146600000Y-116700000D01*
X149400000Y-116700000D02*
X149400000Y-117300000D01*
X147300000Y-116000000D02*
X148700000Y-116000000D01*
X146600000Y-117300000D02*
G75*
G03*
X147300000Y-118000000I699999J-1D01*
G01*
X149400000Y-116700000D02*
G75*
G03*
X148700000Y-116000000I-699999J1D01*
G01*
X147300000Y-116000000D02*
G75*
G03*
X146600000Y-116700000I-1J-699999D01*
G01*
X148700000Y-118000000D02*
G75*
G03*
X149400000Y-117300000I1J699999D01*
G01*
%TO.C,C22*%
X140961252Y-124335000D02*
X140438748Y-124335000D01*
X140961252Y-122865000D02*
X140438748Y-122865000D01*
%TO.C,C38*%
X136461252Y-120065000D02*
X135938748Y-120065000D01*
X136461252Y-121535000D02*
X135938748Y-121535000D01*
%TO.C,C6*%
X152837500Y-106681252D02*
X152837500Y-106158748D01*
X151367500Y-106681252D02*
X151367500Y-106158748D01*
%TO.C,L22*%
X147889758Y-118740000D02*
X148710242Y-118740000D01*
X147889758Y-119860000D02*
X148710242Y-119860000D01*
%TO.C,C23*%
X141046267Y-124890000D02*
X140753733Y-124890000D01*
X141046267Y-125910000D02*
X140753733Y-125910000D01*
%TO.C,C29*%
X134138748Y-133665000D02*
X134661252Y-133665000D01*
X134138748Y-135135000D02*
X134661252Y-135135000D01*
%TO.C,C15*%
X130308767Y-124290000D02*
X130016233Y-124290000D01*
X130308767Y-125310000D02*
X130016233Y-125310000D01*
D10*
%TO.C,U1*%
X112000000Y-120000000D02*
G75*
G03*
X112000000Y-120000000I-900000J0D01*
G01*
D11*
%TO.C,C28*%
X141946267Y-130290000D02*
X141653733Y-130290000D01*
X141946267Y-131310000D02*
X141653733Y-131310000D01*
%TO.C,L3*%
X129889758Y-123460000D02*
X130710242Y-123460000D01*
X129889758Y-122340000D02*
X130710242Y-122340000D01*
%TO.C,C39*%
X138235000Y-126338748D02*
X138235000Y-126861252D01*
X136765000Y-126338748D02*
X136765000Y-126861252D01*
%TO.C,C24*%
X138065000Y-131638748D02*
X138065000Y-132161252D01*
X139535000Y-131638748D02*
X139535000Y-132161252D01*
%TO.C,R5*%
X139865000Y-103572936D02*
X139865000Y-104027064D01*
X141335000Y-103572936D02*
X141335000Y-104027064D01*
%TO.C,C3*%
X106591233Y-120510000D02*
X106883767Y-120510000D01*
X106591233Y-119490000D02*
X106883767Y-119490000D01*
%TO.C,U5*%
X121000000Y-119200000D02*
X117800000Y-119200000D01*
X117800000Y-120800000D02*
X121000000Y-120800000D01*
X117800000Y-119200000D02*
X117800000Y-120800000D01*
X121000000Y-120800000D02*
X121000000Y-119200000D01*
%TO.C,C5*%
X120761252Y-114235000D02*
X120238748Y-114235000D01*
X120761252Y-112765000D02*
X120238748Y-112765000D01*
%TO.C,C21*%
X151038748Y-135635000D02*
X151561252Y-135635000D01*
X151038748Y-134165000D02*
X151561252Y-134165000D01*
%TO.C,C13*%
X134035000Y-122361252D02*
X134035000Y-121838748D01*
X132565000Y-122361252D02*
X132565000Y-121838748D01*
%TO.C,Q1*%
X133970000Y-117550000D02*
X133970000Y-116410000D01*
X137150000Y-113690000D02*
X138460000Y-113690000D01*
X133740000Y-113690000D02*
X135050000Y-113690000D01*
X138460000Y-113690000D02*
X138460000Y-116410000D01*
X138460000Y-116410000D02*
X138230000Y-116410000D01*
X133740000Y-116410000D02*
X133740000Y-113690000D01*
X133740000Y-116410000D02*
X133970000Y-116410000D01*
%TO.C,C4*%
X111791233Y-108710000D02*
X112083767Y-108710000D01*
X111791233Y-107690000D02*
X112083767Y-107690000D01*
%TO.C,R1*%
X114015000Y-109385436D02*
X114015000Y-109839564D01*
X115485000Y-109385436D02*
X115485000Y-109839564D01*
%TO.C,C11*%
X148881248Y-107317500D02*
X149403752Y-107317500D01*
X148881248Y-108787500D02*
X149403752Y-108787500D01*
%TO.C,C27*%
X151938748Y-119965000D02*
X152461252Y-119965000D01*
X151938748Y-121435000D02*
X152461252Y-121435000D01*
%TO.C,C2*%
X116985000Y-105048752D02*
X116985000Y-104526248D01*
X115515000Y-105048752D02*
X115515000Y-104526248D01*
%TO.C,C32*%
X151253733Y-127210000D02*
X151546267Y-127210000D01*
X151253733Y-126190000D02*
X151546267Y-126190000D01*
%TO.C,U2*%
X116250000Y-109950000D02*
X116250000Y-108550000D01*
X117550000Y-110650000D02*
X116950000Y-110650000D01*
X116950000Y-107850000D02*
X117550000Y-107850000D01*
X118250000Y-108550000D02*
X118250000Y-109950000D01*
X116250000Y-109950000D02*
G75*
G03*
X116950000Y-110650000I699999J-1D01*
G01*
X116950000Y-107850000D02*
G75*
G03*
X116250000Y-108550000I-1J-699999D01*
G01*
X117550000Y-110650000D02*
G75*
G03*
X118250000Y-109950000I1J699999D01*
G01*
X118250000Y-108550000D02*
G75*
G03*
X117550000Y-107850000I-699999J1D01*
G01*
%TO.C,U3*%
X123875000Y-110165000D02*
X122775000Y-110165000D01*
X123875000Y-101575000D02*
X123875000Y-103385000D01*
X123875000Y-111975000D02*
X123875000Y-110165000D01*
X123875000Y-103385000D02*
X118750000Y-103385000D01*
X125375000Y-101575000D02*
X123875000Y-101575000D01*
X125375000Y-111975000D02*
X123875000Y-111975000D01*
%TO.C,U12*%
X138500000Y-108800000D02*
X138500000Y-110200000D01*
X137800000Y-110900000D02*
X137200000Y-110900000D01*
X137200000Y-108100000D02*
X137800000Y-108100000D01*
X136500000Y-110200000D02*
X136500000Y-108800000D01*
X138500000Y-108800000D02*
G75*
G03*
X137800000Y-108100000I-699999J1D01*
G01*
X136500000Y-110200000D02*
G75*
G03*
X137200000Y-110900000I699999J-1D01*
G01*
X137200000Y-108100000D02*
G75*
G03*
X136500000Y-108800000I-1J-699999D01*
G01*
X137800000Y-110900000D02*
G75*
G03*
X138500000Y-110200000I1J699999D01*
G01*
%TO.C,R21*%
X140627064Y-126665000D02*
X140172936Y-126665000D01*
X140627064Y-128135000D02*
X140172936Y-128135000D01*
%TO.C,C18*%
X145038748Y-108835000D02*
X145561252Y-108835000D01*
X145038748Y-107365000D02*
X145561252Y-107365000D01*
%TO.C,C17*%
X151916233Y-113424000D02*
X152208767Y-113424000D01*
X151916233Y-112404000D02*
X152208767Y-112404000D01*
%TO.C,U15*%
X147402500Y-101722500D02*
X149352500Y-101722500D01*
X147402500Y-106842500D02*
X150852500Y-106842500D01*
X147402500Y-101722500D02*
X145452500Y-101722500D01*
X147402500Y-106842500D02*
X145452500Y-106842500D01*
%TO.C,L21*%
X153860000Y-116789758D02*
X153860000Y-117610242D01*
X152740000Y-116789758D02*
X152740000Y-117610242D01*
%TO.C,C16*%
X136853733Y-112510000D02*
X137146267Y-112510000D01*
X136853733Y-111490000D02*
X137146267Y-111490000D01*
%TO.C,C10*%
X152837500Y-102358748D02*
X152837500Y-102881252D01*
X151367500Y-102358748D02*
X151367500Y-102881252D01*
%TO.C,C37*%
X150565000Y-117861252D02*
X150565000Y-117338748D01*
X152035000Y-117861252D02*
X152035000Y-117338748D01*
%TO.C,D1*%
X113650000Y-105400000D02*
X113650000Y-102100000D01*
X113650000Y-102100000D02*
X108250000Y-102100000D01*
X113650000Y-105400000D02*
X108250000Y-105400000D01*
%TO.C,C35*%
X150438748Y-125635000D02*
X150961252Y-125635000D01*
X150438748Y-124165000D02*
X150961252Y-124165000D01*
%TO.C,D21*%
X142815000Y-135340000D02*
X142815000Y-137260000D01*
X145675000Y-135340000D02*
X142815000Y-135340000D01*
X142815000Y-137260000D02*
X145675000Y-137260000D01*
%TO.C,C33*%
X147090000Y-131353733D02*
X147090000Y-131646267D01*
X148110000Y-131353733D02*
X148110000Y-131646267D01*
%TO.C,R24*%
X140927064Y-122335000D02*
X140472936Y-122335000D01*
X140927064Y-120865000D02*
X140472936Y-120865000D01*
%TO.C,C36*%
X150438748Y-122065000D02*
X150961252Y-122065000D01*
X150438748Y-123535000D02*
X150961252Y-123535000D01*
%TO.C,U22*%
X148310000Y-124090000D02*
X148310000Y-124565000D01*
X143565000Y-129310000D02*
X143090000Y-129310000D01*
X143565000Y-124090000D02*
X143090000Y-124090000D01*
X143090000Y-129310000D02*
X143090000Y-128835000D01*
X143090000Y-124090000D02*
X143090000Y-124565000D01*
X147835000Y-124090000D02*
X148310000Y-124090000D01*
X147835000Y-129310000D02*
X148310000Y-129310000D01*
%TO.C,C26*%
X141961252Y-133335000D02*
X141438748Y-133335000D01*
X141961252Y-131865000D02*
X141438748Y-131865000D01*
%TO.C,C12*%
X141665000Y-108061252D02*
X141665000Y-107538748D01*
X143135000Y-108061252D02*
X143135000Y-107538748D01*
%TO.C,C31*%
X144110000Y-122046267D02*
X144110000Y-121753733D01*
X143090000Y-122046267D02*
X143090000Y-121753733D01*
%TO.C,C30*%
X147710000Y-122046267D02*
X147710000Y-121753733D01*
X146690000Y-122046267D02*
X146690000Y-121753733D01*
D10*
%TO.C,U21*%
X151350000Y-128145000D02*
X151350000Y-128445000D01*
X156850000Y-133450000D02*
X158600000Y-133450000D01*
X151350000Y-133655000D02*
X151350000Y-133355000D01*
X156850000Y-128145000D02*
X151350000Y-128145000D01*
X156850000Y-133655000D02*
X151350000Y-133655000D01*
X156850000Y-133655000D02*
X156850000Y-133450000D01*
X156850000Y-128145000D02*
X156850000Y-128445000D01*
D11*
%TO.C,R23*%
X146865000Y-135427064D02*
X146865000Y-134972936D01*
X148335000Y-135427064D02*
X148335000Y-134972936D01*
%TO.C,L4*%
X140510000Y-111038748D02*
X140510000Y-111561252D01*
X139090000Y-111038748D02*
X139090000Y-111561252D01*
%TO.C,R4*%
X141845000Y-104098314D02*
X141845000Y-103644186D01*
X143315000Y-104098314D02*
X143315000Y-103644186D01*
%TD*%
M02*
