M48
; DRILL file {KiCad (6.0.2)} date Sun Sep 18 20:27:41 2022
; FORMAT={-:-/ absolute / inch / decimal}
; #@! TF.CreationDate,2022-09-18T20:27:41+02:00
; #@! TF.GenerationSoftware,Kicad,Pcbnew,(6.0.2)
; #@! TF.FileFunction,Plated,1,2,PTH
FMAT,2
INCH
; #@! TA.AperFunction,Plated,PTH,ComponentDrill
T1C0.0079
; #@! TA.AperFunction,Plated,PTH,ComponentDrill
T2C0.0118
; #@! TA.AperFunction,Plated,PTH,ViaDrill
T3C0.0157
; #@! TA.AperFunction,Plated,PTH,ViaDrill
T4C0.0236
; #@! TA.AperFunction,Plated,PTH,ComponentDrill
T5C0.0300
%
G90
G05
T1
X4.3642Y-4.6654
X4.3642Y-4.685
X4.3642Y-4.7638
X4.3642Y-4.7835
X4.3839Y-4.6654
X4.3839Y-4.685
X4.3839Y-4.7638
X4.3839Y-4.7835
X5.1476Y-4.7244
X5.7777Y-4.0662
X5.7777Y-4.1056
X5.7777Y-4.145
X5.8288Y-4.0662
X5.8288Y-4.1056
X5.8288Y-4.145
T2
X4.6811Y-4.685
X4.6811Y-4.7638
X4.7156Y-4.7638
X4.7205Y-4.685
X5.6772Y-4.9291
X5.6772Y-4.9882
X5.6772Y-5.0472
X5.7362Y-4.9291
X5.7362Y-4.9882
X5.7362Y-5.0472
X5.7953Y-4.9291
X5.7953Y-4.9882
X5.7953Y-5.0472
T3
X4.378Y-4.2598
X4.5768Y-4.1634
X4.7283Y-4.1865
X4.7638Y-4.2992
X4.7874Y-4.4685
X4.9843Y-4.126
X4.9843Y-4.2736
X4.9852Y-4.2037
X5.0335Y-4.126
X5.0335Y-4.2736
X5.0344Y-4.2037
X5.0728Y-4.2736
X5.0758Y-4.2037
X5.0827Y-4.126
X5.1319Y-4.126
X5.1319Y-4.2047
X5.1319Y-4.2736
X5.1693Y-4.9134
X5.3583Y-4.563
X5.3597Y-4.471
X5.3597Y-4.5157
X5.4134Y-4.2854
X5.4141Y-5.0244
X5.4646Y-5.2283
X5.4961Y-5.0866
X5.5125Y-4.9363
X5.5433Y-4.126
X5.5487Y-5.1506
X5.6063Y-4.2835
X5.6535Y-4.7677
X5.6575Y-5.3661
X5.6773Y-4.2552
X5.685Y-5.2126
X5.6914Y-4.8332
X5.7166Y-5.1437
X5.7795Y-4.8307
X5.7835Y-4.3819
X5.7835Y-4.5
X5.7953Y-5.1437
X5.7953Y-4.7677
X5.811Y-5.2126
X5.8347Y-5.0874
X5.8425Y-4.7441
X5.8769Y-4.997
X5.8898Y-4.8307
X5.9267Y-4.9882
X5.9567Y-4.5906
X5.9754Y-4.8386
X5.9843Y-4.2283
X5.9882Y-5.0787
X5.9921Y-4.9882
X6.0Y-5.311
X6.0354Y-4.7559
X6.0472Y-4.8386
X6.2126Y-5.0787
T4
X4.1142Y-4.6693
X4.1181Y-4.7795
X4.1614Y-4.6693
X4.1654Y-4.7795
X4.2087Y-4.6693
X4.2126Y-4.7795
X4.2559Y-4.6693
X4.2598Y-4.7795
X4.3031Y-4.6693
X4.3071Y-4.7795
X4.4291Y-4.7795
X4.4646Y-4.6693
X4.4764Y-4.7795
X4.5118Y-4.6693
X4.5236Y-4.7795
X4.5591Y-4.6693
X4.5709Y-4.7795
X4.6063Y-4.6693
X4.6181Y-4.7795
X4.6496Y-4.6693
X4.7559Y-4.6693
X4.7559Y-4.7795
X4.8031Y-4.6693
X4.8031Y-4.7795
X4.8504Y-4.6693
X4.8504Y-4.7795
X4.8976Y-4.6693
X4.8976Y-4.7795
X4.9449Y-4.6693
X4.9449Y-4.7795
X4.9921Y-4.6693
X4.9921Y-4.7795
X5.0394Y-4.6693
X5.0394Y-4.7795
X5.0886Y-4.6693
X5.189Y-5.3189
X5.1969Y-4.9488
X5.1969Y-4.9961
X5.1969Y-5.0433
X5.1969Y-5.0866
X5.1969Y-5.1339
X5.1969Y-5.1811
X5.1969Y-5.2283
X5.1969Y-5.2756
X5.2402Y-4.6693
X5.2874Y-4.6693
X5.3031Y-4.8898
X5.3031Y-4.937
X5.3031Y-4.9843
X5.3031Y-5.0315
X5.3031Y-5.0827
X5.3031Y-5.1299
X5.3031Y-5.1772
X5.3031Y-5.2244
X5.3346Y-4.6693
X5.5591Y-4.4724
X5.5866Y-4.4449
X5.5906Y-4.5906
X5.6181Y-4.4134
X5.622Y-4.5591
X5.6496Y-4.5315
X5.6575Y-4.3937
X5.6811Y-4.5
X5.7047Y-4.3937
X5.7323Y-4.5
X5.8307Y-4.3937
X5.8307Y-4.4961
X5.878Y-4.3937
X5.878Y-4.4961
X5.9213Y-4.3937
X5.9213Y-4.4961
X5.9685Y-4.3937
X5.9685Y-4.4961
X6.0157Y-4.3937
X6.0157Y-4.4961
X6.063Y-4.3937
X6.063Y-4.4961
X6.1102Y-4.3937
X6.1102Y-4.4961
T5
X4.0256Y-4.6344
X4.0256Y-4.8144
X5.1462Y-5.4232
X5.3262Y-5.4232
X6.2126Y-4.3554
X6.2126Y-4.5354
T0
M30
