%TF.GenerationSoftware,KiCad,Pcbnew,(6.0.2)*%
%TF.CreationDate,2022-09-18T20:27:37+02:00*%
%TF.ProjectId,8-4GHzDSN_V2,382d3447-487a-4445-934e-5f56322e6b69,rev?*%
%TF.SameCoordinates,Original*%
%TF.FileFunction,Copper,L2,Bot*%
%TF.FilePolarity,Positive*%
%FSLAX46Y46*%
G04 Gerber Fmt 4.6, Leading zero omitted, Abs format (unit mm)*
G04 Created by KiCad (PCBNEW (6.0.2)) date 2022-09-18 20:27:37*
%MOMM*%
%LPD*%
G01*
G04 APERTURE LIST*
%TA.AperFunction,SMDPad,CuDef*%
%ADD10R,1.524000X2.286000*%
%TD*%
%TA.AperFunction,ComponentPad*%
%ADD11C,0.400000*%
%TD*%
%TA.AperFunction,ComponentPad*%
%ADD12R,4.000000X2.000000*%
%TD*%
%TA.AperFunction,ComponentPad*%
%ADD13C,0.500000*%
%TD*%
%TA.AperFunction,SMDPad,CuDef*%
%ADD14R,1.800000X2.500000*%
%TD*%
%TA.AperFunction,ComponentPad*%
%ADD15C,0.600000*%
%TD*%
%TA.AperFunction,SMDPad,CuDef*%
%ADD16R,3.600000X3.600000*%
%TD*%
%TA.AperFunction,ComponentPad*%
%ADD17R,2.000000X4.000000*%
%TD*%
%TA.AperFunction,ViaPad*%
%ADD18C,0.800000*%
%TD*%
%TA.AperFunction,Conductor*%
%ADD19C,1.000000*%
%TD*%
%TA.AperFunction,Conductor*%
%ADD20C,0.300000*%
%TD*%
%TA.AperFunction,Conductor*%
%ADD21C,0.500000*%
%TD*%
G04 APERTURE END LIST*
D10*
%TO.P,U11,13,GND*%
%TO.N,GNDREF*%
X130550000Y-120000000D03*
D11*
X130750000Y-120000000D03*
%TD*%
D12*
%TO.P,J3,2,Ext*%
%TO.N,GNDREF*%
X157800000Y-110628000D03*
X157800000Y-115200000D03*
%TD*%
D13*
%TO.P,U1,2,GND*%
%TO.N,GNDREF*%
X111350000Y-121500000D03*
X111350000Y-121000000D03*
X110850000Y-121000000D03*
X110850000Y-121500000D03*
%TO.P,U1,4,GND*%
X111350000Y-118500000D03*
X110850000Y-118500000D03*
X111350000Y-119000000D03*
X110850000Y-119000000D03*
%TD*%
%TO.P,U5,3*%
%TO.N,GNDREF*%
X118900000Y-121000000D03*
X119775000Y-121000000D03*
%TO.P,U5,4*%
X118900000Y-119000000D03*
X119900000Y-119000000D03*
%TD*%
%TO.P,U15,9,EP*%
%TO.N,GNDREF*%
X148052500Y-103282500D03*
X148052500Y-105282500D03*
D14*
X147402500Y-104282500D03*
D13*
X146752500Y-103282500D03*
X148052500Y-104282500D03*
X146752500Y-104282500D03*
X146752500Y-105282500D03*
%TD*%
D12*
%TO.P,J2,2,Ext*%
%TO.N,GNDREF*%
X102250000Y-122286000D03*
X102250000Y-117714000D03*
%TD*%
D15*
%TO.P,U22,33,EP*%
%TO.N,GNDREF*%
X147200000Y-125200000D03*
X144200000Y-128200000D03*
X147200000Y-128200000D03*
X145700000Y-126700000D03*
X145700000Y-128200000D03*
D16*
X145700000Y-126700000D03*
D15*
X147200000Y-126700000D03*
X144200000Y-125200000D03*
X145700000Y-125200000D03*
X144200000Y-126700000D03*
%TD*%
D17*
%TO.P,J4,2,Ext*%
%TO.N,GNDREF*%
X135286000Y-137750000D03*
X130714000Y-137750000D03*
%TD*%
D18*
%TO.N,GNDREF*%
X115800000Y-118600000D03*
X136137500Y-113562500D03*
X124400000Y-118600000D03*
X104600000Y-121400000D03*
X105700000Y-118600000D03*
X117000000Y-118600000D03*
X139600000Y-129200000D03*
X117300000Y-121400000D03*
X128000000Y-118600000D03*
X132000000Y-134000000D03*
X151300000Y-116600000D03*
X129250000Y-118600000D03*
X134700000Y-125400000D03*
X147600000Y-132400000D03*
X152800000Y-114200000D03*
X125600000Y-118600000D03*
X134700000Y-131500000D03*
X140800000Y-104800000D03*
X108200000Y-121400000D03*
X141900000Y-112900000D03*
X143700000Y-111600000D03*
X144202500Y-108082500D03*
X124400000Y-121400000D03*
X142700000Y-112100000D03*
X120800000Y-121400000D03*
X132000000Y-128100000D03*
X138800000Y-132800000D03*
X109400000Y-121400000D03*
X136137500Y-114700000D03*
X143600000Y-121100000D03*
X144900000Y-111600000D03*
X149300000Y-111600000D03*
X153600000Y-122900000D03*
X152000000Y-107400000D03*
X150400000Y-111600000D03*
X132000000Y-130400000D03*
X157800000Y-129000000D03*
X152800000Y-111600000D03*
X142000000Y-116600000D03*
X134700000Y-124200000D03*
X120800000Y-118600000D03*
X131800000Y-135100000D03*
X116250000Y-105750000D03*
X141200000Y-113600000D03*
X128925000Y-106775000D03*
X137518750Y-127618750D03*
X123200000Y-121400000D03*
X134300000Y-118600000D03*
X122000000Y-118600000D03*
X127850000Y-104800000D03*
X126800000Y-118600000D03*
X134700000Y-130300000D03*
X114600000Y-118600000D03*
X151600000Y-114200000D03*
X144300000Y-114300000D03*
X126625000Y-106775000D03*
X129100000Y-104800000D03*
X155200000Y-111600000D03*
X140018750Y-125381250D03*
X144400000Y-132400000D03*
X132000000Y-125700000D03*
X132000000Y-132800000D03*
X148100000Y-111600000D03*
X112500000Y-121400000D03*
X134700000Y-129100000D03*
X113700000Y-121400000D03*
X123200000Y-118600000D03*
X104500000Y-118600000D03*
X105800000Y-121400000D03*
X154000000Y-114200000D03*
X150400000Y-114200000D03*
X107000000Y-121400000D03*
X148100000Y-114200000D03*
X135500000Y-118600000D03*
X147200000Y-121100000D03*
X120100000Y-106337500D03*
X155200000Y-114200000D03*
X113400000Y-118600000D03*
X134700000Y-132700000D03*
X127850000Y-108550000D03*
X153300000Y-120800000D03*
X118100000Y-118600000D03*
X126600000Y-104800000D03*
X130350000Y-106800000D03*
X152200000Y-126700000D03*
X143700000Y-136300000D03*
X111200000Y-108200000D03*
X116100000Y-121400000D03*
X142800000Y-115800000D03*
X128850000Y-108550000D03*
X122000000Y-121400000D03*
X149300000Y-114200000D03*
X130350000Y-104800000D03*
X140937500Y-130825000D03*
X134700000Y-126600000D03*
X142400000Y-108800000D03*
X151775000Y-122900000D03*
X126800000Y-121400000D03*
X152400000Y-134900000D03*
X132000000Y-131600000D03*
X143500000Y-115100000D03*
X145600000Y-114300000D03*
X154000000Y-111600000D03*
X132000000Y-126900000D03*
X128000000Y-121400000D03*
X151600000Y-111600000D03*
X114900000Y-121400000D03*
X133100000Y-118600000D03*
X109300000Y-118600000D03*
X130350000Y-108550000D03*
X108100000Y-118600000D03*
X125600000Y-121400000D03*
X132000000Y-129200000D03*
X134700000Y-127800000D03*
X121600000Y-113500000D03*
X136100000Y-115900000D03*
X126600000Y-108550000D03*
X127875000Y-106775000D03*
X131300000Y-124800000D03*
X106900000Y-118600000D03*
%TO.N,+5V*%
X121000000Y-109200000D03*
X137500000Y-108850000D03*
%TO.N,+3V3*%
X146900000Y-114300000D03*
X146900000Y-111300000D03*
%TO.N,Net-(C21-Pad1)*%
X144562500Y-122762500D03*
X150537500Y-126700000D03*
X152100000Y-128999500D03*
X146800000Y-122700000D03*
%TO.N,Net-(C27-Pad1)*%
X147199500Y-130650480D03*
X148200980Y-129220102D03*
X149273739Y-126922774D03*
X145200500Y-130650480D03*
%TO.N,Net-(C35-Pad1)*%
X149600000Y-122700000D03*
X148400000Y-120500000D03*
%TD*%
D19*
%TO.N,+5V*%
X124400000Y-112600000D02*
X133750000Y-112600000D01*
X133750000Y-112600000D02*
X137500000Y-108850000D01*
X121000000Y-109200000D02*
X124400000Y-112600000D01*
D20*
%TO.N,+3V3*%
X146900000Y-111300000D02*
X146900000Y-114300000D01*
%TO.N,Net-(C21-Pad1)*%
X150537500Y-126700000D02*
X150537500Y-127237500D01*
X146737500Y-122762500D02*
X146800000Y-122700000D01*
X150537500Y-127237500D02*
X150537500Y-127437000D01*
X150537500Y-127437000D02*
X152100000Y-128999500D01*
X144562500Y-122762500D02*
X146737500Y-122762500D01*
D21*
%TO.N,Net-(C27-Pad1)*%
X148200980Y-129220102D02*
X148200980Y-127995533D01*
X145200500Y-130650480D02*
X147199500Y-130650480D01*
X148200980Y-127995533D02*
X149273739Y-126922774D01*
%TO.N,Net-(C35-Pad1)*%
X148400000Y-120500000D02*
X148400000Y-121500000D01*
X148400000Y-121500000D02*
X149600000Y-122700000D01*
%TD*%
%TA.AperFunction,Conductor*%
%TO.N,GNDREF*%
G36*
X156987153Y-100256421D02*
G01*
X157000000Y-100258976D01*
X157012170Y-100256556D01*
X157024581Y-100256556D01*
X157024581Y-100256757D01*
X157035469Y-100255992D01*
X157300393Y-100270870D01*
X157314425Y-100272450D01*
X157459248Y-100297057D01*
X157604066Y-100321663D01*
X157617841Y-100324807D01*
X157704600Y-100349802D01*
X157900156Y-100406141D01*
X157913477Y-100410802D01*
X158184912Y-100523234D01*
X158197635Y-100529361D01*
X158286523Y-100578488D01*
X158454768Y-100671474D01*
X158466731Y-100678991D01*
X158706329Y-100848994D01*
X158717377Y-100857804D01*
X158936439Y-101053570D01*
X158946430Y-101063561D01*
X159142196Y-101282623D01*
X159151006Y-101293671D01*
X159321009Y-101533269D01*
X159328526Y-101545232D01*
X159470637Y-101802361D01*
X159476766Y-101815088D01*
X159589198Y-102086523D01*
X159593859Y-102099844D01*
X159650198Y-102295400D01*
X159675193Y-102382159D01*
X159678337Y-102395934D01*
X159727549Y-102685570D01*
X159729131Y-102699611D01*
X159744008Y-102964528D01*
X159743243Y-102975419D01*
X159743444Y-102975419D01*
X159743444Y-102987830D01*
X159741024Y-103000000D01*
X159743579Y-103012844D01*
X159746000Y-103037425D01*
X159746000Y-136962575D01*
X159743579Y-136987153D01*
X159741024Y-137000000D01*
X159743444Y-137012170D01*
X159743444Y-137024581D01*
X159743243Y-137024581D01*
X159744008Y-137035472D01*
X159729131Y-137300389D01*
X159727549Y-137314430D01*
X159678337Y-137604066D01*
X159675193Y-137617841D01*
X159593859Y-137900156D01*
X159589198Y-137913477D01*
X159476768Y-138184908D01*
X159470637Y-138197639D01*
X159328526Y-138454768D01*
X159321009Y-138466731D01*
X159151006Y-138706329D01*
X159142196Y-138717377D01*
X158946430Y-138936439D01*
X158936439Y-138946430D01*
X158717377Y-139142196D01*
X158706329Y-139151006D01*
X158466731Y-139321009D01*
X158454768Y-139328526D01*
X158197635Y-139470639D01*
X158184912Y-139476766D01*
X157913477Y-139589198D01*
X157900156Y-139593859D01*
X157704600Y-139650198D01*
X157617841Y-139675193D01*
X157604066Y-139678337D01*
X157459248Y-139702943D01*
X157314425Y-139727550D01*
X157300393Y-139729130D01*
X157035469Y-139744008D01*
X157024581Y-139743243D01*
X157024581Y-139743444D01*
X157012170Y-139743444D01*
X157000000Y-139741024D01*
X156987153Y-139743579D01*
X156962575Y-139746000D01*
X103037425Y-139746000D01*
X103012847Y-139743579D01*
X103000000Y-139741024D01*
X102987830Y-139743444D01*
X102975419Y-139743444D01*
X102975419Y-139743243D01*
X102964531Y-139744008D01*
X102699607Y-139729130D01*
X102685575Y-139727550D01*
X102540752Y-139702943D01*
X102395934Y-139678337D01*
X102382159Y-139675193D01*
X102295400Y-139650198D01*
X102099844Y-139593859D01*
X102086523Y-139589198D01*
X101815088Y-139476766D01*
X101802365Y-139470639D01*
X101545232Y-139328526D01*
X101533269Y-139321009D01*
X101293671Y-139151006D01*
X101282623Y-139142196D01*
X101063561Y-138946430D01*
X101053570Y-138936439D01*
X100857804Y-138717377D01*
X100848994Y-138706329D01*
X100678991Y-138466731D01*
X100671474Y-138454768D01*
X100529363Y-138197639D01*
X100523232Y-138184908D01*
X100410802Y-137913477D01*
X100406141Y-137900156D01*
X100324807Y-137617841D01*
X100321663Y-137604066D01*
X100272451Y-137314430D01*
X100270869Y-137300389D01*
X100255992Y-137035472D01*
X100256757Y-137024581D01*
X100256556Y-137024581D01*
X100256556Y-137012170D01*
X100258976Y-137000000D01*
X100256421Y-136987153D01*
X100254000Y-136962575D01*
X100254000Y-130643576D01*
X144541229Y-130643576D01*
X144558613Y-130801033D01*
X144613053Y-130949799D01*
X144701408Y-131081285D01*
X144707027Y-131086398D01*
X144707028Y-131086399D01*
X144718403Y-131096749D01*
X144818576Y-131187899D01*
X144957793Y-131263488D01*
X145111022Y-131303687D01*
X145194977Y-131305006D01*
X145261819Y-131306056D01*
X145261822Y-131306056D01*
X145269416Y-131306175D01*
X145423832Y-131270809D01*
X145494242Y-131235397D01*
X145558572Y-131203043D01*
X145558575Y-131203041D01*
X145565355Y-131199631D01*
X145582289Y-131185168D01*
X145647079Y-131156138D01*
X145664119Y-131154980D01*
X146732653Y-131154980D01*
X146800774Y-131174982D01*
X146805568Y-131178665D01*
X146805766Y-131178387D01*
X146811959Y-131182788D01*
X146817576Y-131187899D01*
X146956793Y-131263488D01*
X147110022Y-131303687D01*
X147193977Y-131305006D01*
X147260819Y-131306056D01*
X147260822Y-131306056D01*
X147268416Y-131306175D01*
X147422832Y-131270809D01*
X147493242Y-131235397D01*
X147557572Y-131203043D01*
X147557575Y-131203041D01*
X147564355Y-131199631D01*
X147570126Y-131194702D01*
X147570129Y-131194700D01*
X147679036Y-131101684D01*
X147679036Y-131101683D01*
X147684814Y-131096749D01*
X147777255Y-130968104D01*
X147836342Y-130821121D01*
X147858662Y-130664287D01*
X147858807Y-130650480D01*
X147839776Y-130493213D01*
X147783780Y-130345026D01*
X147694053Y-130214472D01*
X147575775Y-130109091D01*
X147568389Y-130105180D01*
X147442488Y-130038519D01*
X147442489Y-130038519D01*
X147435774Y-130034964D01*
X147282133Y-129996372D01*
X147274534Y-129996332D01*
X147274533Y-129996332D01*
X147208681Y-129995987D01*
X147123721Y-129995542D01*
X147116341Y-129997314D01*
X147116339Y-129997314D01*
X146977063Y-130030751D01*
X146977060Y-130030752D01*
X146969684Y-130032523D01*
X146828914Y-130105180D01*
X146823192Y-130110172D01*
X146823190Y-130110173D01*
X146817736Y-130114931D01*
X146753253Y-130144637D01*
X146734909Y-130145980D01*
X145666167Y-130145980D01*
X145598046Y-130125978D01*
X145582643Y-130114282D01*
X145582454Y-130114150D01*
X145576775Y-130109091D01*
X145436774Y-130034964D01*
X145283133Y-129996372D01*
X145275534Y-129996332D01*
X145275533Y-129996332D01*
X145209681Y-129995987D01*
X145124721Y-129995542D01*
X145117341Y-129997314D01*
X145117339Y-129997314D01*
X144978063Y-130030751D01*
X144978060Y-130030752D01*
X144970684Y-130032523D01*
X144829914Y-130105180D01*
X144710539Y-130209318D01*
X144619450Y-130338924D01*
X144561906Y-130486517D01*
X144541229Y-130643576D01*
X100254000Y-130643576D01*
X100254000Y-128000000D01*
X101390539Y-128000000D01*
X101410354Y-128251775D01*
X101411508Y-128256582D01*
X101411509Y-128256588D01*
X101433274Y-128347243D01*
X101469312Y-128497351D01*
X101471205Y-128501922D01*
X101471206Y-128501924D01*
X101553728Y-128701149D01*
X101565960Y-128730680D01*
X101697919Y-128946017D01*
X101861939Y-129138061D01*
X102053983Y-129302081D01*
X102269320Y-129434040D01*
X102273890Y-129435933D01*
X102273894Y-129435935D01*
X102475448Y-129519421D01*
X102502649Y-129530688D01*
X102543694Y-129540542D01*
X102743412Y-129588491D01*
X102743418Y-129588492D01*
X102748225Y-129589646D01*
X102836253Y-129596574D01*
X102934507Y-129604307D01*
X102934516Y-129604307D01*
X102936964Y-129604500D01*
X103063036Y-129604500D01*
X103065484Y-129604307D01*
X103065493Y-129604307D01*
X103163747Y-129596574D01*
X103251775Y-129589646D01*
X103256582Y-129588492D01*
X103256588Y-129588491D01*
X103456306Y-129540542D01*
X103497351Y-129530688D01*
X103524552Y-129519421D01*
X103726106Y-129435935D01*
X103726110Y-129435933D01*
X103730680Y-129434040D01*
X103946017Y-129302081D01*
X104050086Y-129213198D01*
X147541709Y-129213198D01*
X147550374Y-129291685D01*
X147553865Y-129323298D01*
X147559093Y-129370655D01*
X147561703Y-129377786D01*
X147561703Y-129377788D01*
X147586581Y-129445769D01*
X147613533Y-129519421D01*
X147617769Y-129525724D01*
X147617769Y-129525725D01*
X147635468Y-129552063D01*
X147701888Y-129650907D01*
X147707507Y-129656020D01*
X147707508Y-129656021D01*
X147718883Y-129666371D01*
X147819056Y-129757521D01*
X147958273Y-129833110D01*
X148111502Y-129873309D01*
X148195457Y-129874628D01*
X148262299Y-129875678D01*
X148262302Y-129875678D01*
X148269896Y-129875797D01*
X148424312Y-129840431D01*
X148494722Y-129805019D01*
X148559052Y-129772665D01*
X148559055Y-129772663D01*
X148565835Y-129769253D01*
X148571606Y-129764324D01*
X148571609Y-129764322D01*
X148680516Y-129671306D01*
X148680516Y-129671305D01*
X148686294Y-129666371D01*
X148778735Y-129537726D01*
X148837822Y-129390743D01*
X148860142Y-129233909D01*
X148860287Y-129220102D01*
X148841256Y-129062835D01*
X148785260Y-128914648D01*
X148727640Y-128830810D01*
X148705480Y-128759443D01*
X148705480Y-128256694D01*
X148725482Y-128188573D01*
X148742385Y-128167599D01*
X149302573Y-127607411D01*
X149363539Y-127573686D01*
X149489666Y-127544799D01*
X149497071Y-127543103D01*
X149588451Y-127497144D01*
X149631811Y-127475337D01*
X149631814Y-127475335D01*
X149638594Y-127471925D01*
X149644365Y-127466996D01*
X149644368Y-127466994D01*
X149753275Y-127373978D01*
X149753275Y-127373977D01*
X149759053Y-127369043D01*
X149851494Y-127240398D01*
X149866192Y-127203836D01*
X149910159Y-127148092D01*
X149977284Y-127124967D01*
X150046255Y-127141804D01*
X150067900Y-127157641D01*
X150091801Y-127179390D01*
X150128723Y-127240031D01*
X150133000Y-127272582D01*
X150133000Y-127501066D01*
X150136065Y-127510498D01*
X150136065Y-127510500D01*
X150139895Y-127522287D01*
X150144511Y-127541513D01*
X150148002Y-127563555D01*
X150155601Y-127578469D01*
X150158133Y-127583438D01*
X150165699Y-127601704D01*
X150172595Y-127622929D01*
X150178425Y-127630953D01*
X150185716Y-127640989D01*
X150196045Y-127657844D01*
X150206174Y-127677723D01*
X150228962Y-127700511D01*
X150228965Y-127700515D01*
X150836344Y-128307893D01*
X151406136Y-128877685D01*
X151440161Y-128939997D01*
X151441722Y-128977468D01*
X151441800Y-128977469D01*
X151441784Y-128978967D01*
X151441962Y-128983231D01*
X151440729Y-128992596D01*
X151448484Y-129062835D01*
X151457144Y-129141274D01*
X151458113Y-129150053D01*
X151460723Y-129157184D01*
X151460723Y-129157186D01*
X151488800Y-129233909D01*
X151512553Y-129298819D01*
X151516789Y-129305122D01*
X151516789Y-129305123D01*
X151579064Y-129397797D01*
X151600908Y-129430305D01*
X151606527Y-129435418D01*
X151606528Y-129435419D01*
X151698846Y-129519421D01*
X151718076Y-129536919D01*
X151857293Y-129612508D01*
X152010522Y-129652707D01*
X152094477Y-129654026D01*
X152161319Y-129655076D01*
X152161322Y-129655076D01*
X152168916Y-129655195D01*
X152323332Y-129619829D01*
X152393742Y-129584417D01*
X152458072Y-129552063D01*
X152458075Y-129552061D01*
X152464855Y-129548651D01*
X152470626Y-129543722D01*
X152470629Y-129543720D01*
X152579536Y-129450704D01*
X152579536Y-129450703D01*
X152585314Y-129445769D01*
X152677755Y-129317124D01*
X152736842Y-129170141D01*
X152759162Y-129013307D01*
X152759307Y-128999500D01*
X152740276Y-128842233D01*
X152684280Y-128694046D01*
X152594553Y-128563492D01*
X152476275Y-128458111D01*
X152336274Y-128383984D01*
X152182633Y-128345392D01*
X152175034Y-128345352D01*
X152175033Y-128345352D01*
X152079292Y-128344851D01*
X152068878Y-128344796D01*
X152000863Y-128324438D01*
X151980443Y-128307893D01*
X151009172Y-127336622D01*
X150975146Y-127274310D01*
X150980211Y-127203495D01*
X151012496Y-127157349D01*
X151011894Y-127156796D01*
X151016029Y-127152299D01*
X151016438Y-127151715D01*
X151022814Y-127146269D01*
X151115255Y-127017624D01*
X151174342Y-126870641D01*
X151196662Y-126713807D01*
X151196807Y-126700000D01*
X151196243Y-126695335D01*
X151185311Y-126605002D01*
X151177776Y-126542733D01*
X151121780Y-126394546D01*
X151061789Y-126307258D01*
X151036355Y-126270251D01*
X151036354Y-126270249D01*
X151032053Y-126263992D01*
X150913775Y-126158611D01*
X150906389Y-126154700D01*
X150780488Y-126088039D01*
X150780489Y-126088039D01*
X150773774Y-126084484D01*
X150620133Y-126045892D01*
X150612534Y-126045852D01*
X150612533Y-126045852D01*
X150546681Y-126045507D01*
X150461721Y-126045062D01*
X150454341Y-126046834D01*
X150454339Y-126046834D01*
X150315063Y-126080271D01*
X150315060Y-126080272D01*
X150307684Y-126082043D01*
X150166914Y-126154700D01*
X150047539Y-126258838D01*
X149956450Y-126388444D01*
X149953690Y-126395524D01*
X149945343Y-126416932D01*
X149901962Y-126473133D01*
X149835083Y-126496960D01*
X149765939Y-126480847D01*
X149744132Y-126465239D01*
X149655690Y-126386441D01*
X149655684Y-126386437D01*
X149650014Y-126381385D01*
X149642628Y-126377474D01*
X149600790Y-126355322D01*
X149510013Y-126307258D01*
X149356372Y-126268666D01*
X149348773Y-126268626D01*
X149348772Y-126268626D01*
X149282920Y-126268281D01*
X149197960Y-126267836D01*
X149190580Y-126269608D01*
X149190578Y-126269608D01*
X149051302Y-126303045D01*
X149051299Y-126303046D01*
X149043923Y-126304817D01*
X148903153Y-126377474D01*
X148783778Y-126481612D01*
X148692689Y-126611218D01*
X148689929Y-126618298D01*
X148650768Y-126718741D01*
X148635145Y-126758811D01*
X148634154Y-126766342D01*
X148634153Y-126766344D01*
X148627221Y-126819000D01*
X148598498Y-126883927D01*
X148591394Y-126891648D01*
X147894186Y-127588856D01*
X147884746Y-127596398D01*
X147885069Y-127596778D01*
X147878233Y-127602596D01*
X147870641Y-127607386D01*
X147864699Y-127614114D01*
X147835309Y-127647392D01*
X147829963Y-127653079D01*
X147818629Y-127664413D01*
X147815944Y-127667996D01*
X147815942Y-127667998D01*
X147812427Y-127672688D01*
X147806042Y-127680531D01*
X147774979Y-127715703D01*
X147771166Y-127723825D01*
X147769326Y-127726626D01*
X147760917Y-127740621D01*
X147759295Y-127743584D01*
X147753910Y-127750769D01*
X147750757Y-127759179D01*
X147750756Y-127759181D01*
X147737434Y-127794715D01*
X147733510Y-127804028D01*
X147713563Y-127846515D01*
X147712181Y-127855389D01*
X147711195Y-127858616D01*
X147707055Y-127874399D01*
X147706334Y-127877677D01*
X147703182Y-127886085D01*
X147702517Y-127895036D01*
X147699704Y-127932890D01*
X147698550Y-127942937D01*
X147696480Y-127956230D01*
X147696480Y-127971595D01*
X147696134Y-127980932D01*
X147692473Y-128030200D01*
X147694346Y-128038975D01*
X147694939Y-128047671D01*
X147696480Y-128062271D01*
X147696480Y-128759778D01*
X147673567Y-128832228D01*
X147619930Y-128908546D01*
X147593058Y-128977469D01*
X147584469Y-128999500D01*
X147562386Y-129056139D01*
X147561394Y-129063672D01*
X147561394Y-129063673D01*
X147546449Y-129177195D01*
X147541709Y-129213198D01*
X104050086Y-129213198D01*
X104138061Y-129138061D01*
X104302081Y-128946017D01*
X104434040Y-128730680D01*
X104446273Y-128701149D01*
X104528794Y-128501924D01*
X104528795Y-128501922D01*
X104530688Y-128497351D01*
X104566726Y-128347243D01*
X104588491Y-128256588D01*
X104588492Y-128256582D01*
X104589646Y-128251775D01*
X104609461Y-128000000D01*
X104589646Y-127748225D01*
X104588492Y-127743418D01*
X104588491Y-127743412D01*
X104537667Y-127531720D01*
X104530688Y-127502649D01*
X104500212Y-127429073D01*
X104498672Y-127425354D01*
X145339475Y-127425354D01*
X145342258Y-127429073D01*
X145496680Y-127486502D01*
X145510278Y-127489892D01*
X145675990Y-127512004D01*
X145689986Y-127512297D01*
X145856477Y-127497144D01*
X145870204Y-127494327D01*
X146029202Y-127442666D01*
X146041953Y-127436881D01*
X146048769Y-127432818D01*
X146058358Y-127422476D01*
X146054852Y-127414062D01*
X145712812Y-127072022D01*
X145698868Y-127064408D01*
X145697035Y-127064539D01*
X145690421Y-127068790D01*
X145346232Y-127412979D01*
X145339475Y-127425354D01*
X104498672Y-127425354D01*
X104435935Y-127273894D01*
X104435933Y-127273890D01*
X104434040Y-127269320D01*
X104302081Y-127053983D01*
X104138061Y-126861939D01*
X103946017Y-126697919D01*
X103942331Y-126695660D01*
X144887654Y-126695660D01*
X144903968Y-126862047D01*
X144906879Y-126875741D01*
X144959650Y-127034375D01*
X144965524Y-127047088D01*
X144966768Y-127049143D01*
X144977174Y-127058657D01*
X144985794Y-127054995D01*
X145327979Y-126712811D01*
X145334356Y-126701132D01*
X146064408Y-126701132D01*
X146064539Y-126702966D01*
X146068790Y-126709579D01*
X146412504Y-127053293D01*
X146424879Y-127060050D01*
X146428696Y-127057193D01*
X146485065Y-126908802D01*
X146488549Y-126895233D01*
X146512244Y-126726627D01*
X146512851Y-126718741D01*
X146513058Y-126703962D01*
X146512671Y-126696061D01*
X146493692Y-126526855D01*
X146490590Y-126513202D01*
X146435610Y-126355322D01*
X146432281Y-126348372D01*
X146423605Y-126340659D01*
X146414558Y-126344653D01*
X146072021Y-126687189D01*
X146064408Y-126701132D01*
X145334356Y-126701132D01*
X145335592Y-126698868D01*
X145335461Y-126697034D01*
X145331210Y-126690421D01*
X144987458Y-126346669D01*
X144975083Y-126339912D01*
X144969926Y-126343772D01*
X144969273Y-126345089D01*
X144912096Y-126502180D01*
X144908803Y-126515795D01*
X144887850Y-126681653D01*
X144887654Y-126695660D01*
X103942331Y-126695660D01*
X103730680Y-126565960D01*
X103726110Y-126564067D01*
X103726106Y-126564065D01*
X103501924Y-126471206D01*
X103501922Y-126471205D01*
X103497351Y-126469312D01*
X103411135Y-126448613D01*
X103256588Y-126411509D01*
X103256582Y-126411508D01*
X103251775Y-126410354D01*
X103163747Y-126403426D01*
X103065493Y-126395693D01*
X103065484Y-126395693D01*
X103063036Y-126395500D01*
X102936964Y-126395500D01*
X102934516Y-126395693D01*
X102934507Y-126395693D01*
X102836253Y-126403426D01*
X102748225Y-126410354D01*
X102743418Y-126411508D01*
X102743412Y-126411509D01*
X102588865Y-126448613D01*
X102502649Y-126469312D01*
X102498078Y-126471205D01*
X102498076Y-126471206D01*
X102273894Y-126564065D01*
X102273890Y-126564067D01*
X102269320Y-126565960D01*
X102053983Y-126697919D01*
X101861939Y-126861939D01*
X101697919Y-127053983D01*
X101565960Y-127269320D01*
X101564067Y-127273890D01*
X101564065Y-127273894D01*
X101499788Y-127429073D01*
X101469312Y-127502649D01*
X101462333Y-127531720D01*
X101411509Y-127743412D01*
X101411508Y-127743418D01*
X101410354Y-127748225D01*
X101390539Y-128000000D01*
X100254000Y-128000000D01*
X100254000Y-125976799D01*
X145341016Y-125976799D01*
X145344840Y-125985629D01*
X145687189Y-126327979D01*
X145701132Y-126335592D01*
X145702966Y-126335461D01*
X145709579Y-126331210D01*
X146052914Y-125987875D01*
X146059671Y-125975500D01*
X146055105Y-125969400D01*
X146049802Y-125966813D01*
X145892309Y-125910732D01*
X145878685Y-125907536D01*
X145712670Y-125887741D01*
X145698673Y-125887643D01*
X145532404Y-125905118D01*
X145518725Y-125908126D01*
X145360463Y-125962002D01*
X145349855Y-125966994D01*
X145341016Y-125976799D01*
X100254000Y-125976799D01*
X100254000Y-122755596D01*
X143903229Y-122755596D01*
X143908768Y-122805763D01*
X143915931Y-122870641D01*
X143920613Y-122913053D01*
X143923223Y-122920184D01*
X143923223Y-122920186D01*
X143952182Y-122999319D01*
X143975053Y-123061819D01*
X143979289Y-123068122D01*
X143979289Y-123068123D01*
X144048494Y-123171110D01*
X144063408Y-123193305D01*
X144069027Y-123198418D01*
X144069028Y-123198419D01*
X144119363Y-123244220D01*
X144180576Y-123299919D01*
X144319793Y-123375508D01*
X144473022Y-123415707D01*
X144556977Y-123417026D01*
X144623819Y-123418076D01*
X144623822Y-123418076D01*
X144631416Y-123418195D01*
X144785832Y-123382829D01*
X144856242Y-123347417D01*
X144920572Y-123315063D01*
X144920575Y-123315061D01*
X144927355Y-123311651D01*
X144933126Y-123306722D01*
X144933129Y-123306720D01*
X145042037Y-123213703D01*
X145047814Y-123208769D01*
X145049355Y-123206625D01*
X145108375Y-123171110D01*
X145140293Y-123167000D01*
X146291941Y-123167000D01*
X146360062Y-123187002D01*
X146376739Y-123199805D01*
X146418076Y-123237419D01*
X146557293Y-123313008D01*
X146710522Y-123353207D01*
X146794477Y-123354526D01*
X146861319Y-123355576D01*
X146861322Y-123355576D01*
X146868916Y-123355695D01*
X147023332Y-123320329D01*
X147093742Y-123284917D01*
X147158072Y-123252563D01*
X147158075Y-123252561D01*
X147164855Y-123249151D01*
X147170626Y-123244222D01*
X147170629Y-123244220D01*
X147279536Y-123151204D01*
X147279536Y-123151203D01*
X147285314Y-123146269D01*
X147377755Y-123017624D01*
X147436842Y-122870641D01*
X147459162Y-122713807D01*
X147459307Y-122700000D01*
X147440276Y-122542733D01*
X147384280Y-122394546D01*
X147345416Y-122337998D01*
X147298855Y-122270251D01*
X147298854Y-122270249D01*
X147294553Y-122263992D01*
X147283167Y-122253847D01*
X147181946Y-122163664D01*
X147176275Y-122158611D01*
X147168889Y-122154700D01*
X147079936Y-122107602D01*
X147036274Y-122084484D01*
X146882633Y-122045892D01*
X146875034Y-122045852D01*
X146875033Y-122045852D01*
X146809181Y-122045507D01*
X146724221Y-122045062D01*
X146716841Y-122046834D01*
X146716839Y-122046834D01*
X146577563Y-122080271D01*
X146577560Y-122080272D01*
X146570184Y-122082043D01*
X146429414Y-122154700D01*
X146423695Y-122159689D01*
X146361760Y-122213719D01*
X146310039Y-122258838D01*
X146305674Y-122265049D01*
X146277981Y-122304452D01*
X146222446Y-122348683D01*
X146174895Y-122358000D01*
X145140406Y-122358000D01*
X145072285Y-122337998D01*
X145056587Y-122326077D01*
X145045665Y-122316346D01*
X144938775Y-122221111D01*
X144931389Y-122217200D01*
X144805488Y-122150539D01*
X144805489Y-122150539D01*
X144798774Y-122146984D01*
X144645133Y-122108392D01*
X144637534Y-122108352D01*
X144637533Y-122108352D01*
X144571681Y-122108007D01*
X144486721Y-122107562D01*
X144479341Y-122109334D01*
X144479339Y-122109334D01*
X144340063Y-122142771D01*
X144340060Y-122142772D01*
X144332684Y-122144543D01*
X144191914Y-122217200D01*
X144072539Y-122321338D01*
X143981450Y-122450944D01*
X143923906Y-122598537D01*
X143922914Y-122606070D01*
X143922914Y-122606071D01*
X143906534Y-122730495D01*
X143903229Y-122755596D01*
X100254000Y-122755596D01*
X100254000Y-120493096D01*
X147740729Y-120493096D01*
X147758113Y-120650553D01*
X147812553Y-120799319D01*
X147816789Y-120805622D01*
X147816789Y-120805623D01*
X147874082Y-120890884D01*
X147895500Y-120961160D01*
X147895500Y-121429376D01*
X147894159Y-121441381D01*
X147894655Y-121441421D01*
X147893935Y-121450368D01*
X147891954Y-121459124D01*
X147892510Y-121468084D01*
X147895258Y-121512382D01*
X147895500Y-121520184D01*
X147895500Y-121536226D01*
X147896135Y-121540657D01*
X147896135Y-121540662D01*
X147896965Y-121546453D01*
X147897996Y-121556514D01*
X147900902Y-121603359D01*
X147903949Y-121611799D01*
X147904630Y-121615089D01*
X147908582Y-121630938D01*
X147909527Y-121634168D01*
X147910799Y-121643052D01*
X147914514Y-121651223D01*
X147930218Y-121685763D01*
X147934030Y-121695128D01*
X147946922Y-121730837D01*
X147946924Y-121730840D01*
X147949972Y-121739284D01*
X147955268Y-121746533D01*
X147956840Y-121749490D01*
X147965093Y-121763614D01*
X147966898Y-121766437D01*
X147970612Y-121774605D01*
X147976469Y-121781402D01*
X147976470Y-121781404D01*
X148001243Y-121810153D01*
X148007525Y-121818064D01*
X148015473Y-121828944D01*
X148026335Y-121839806D01*
X148032693Y-121846652D01*
X148064944Y-121884082D01*
X148072479Y-121888966D01*
X148079051Y-121894699D01*
X148090455Y-121903926D01*
X148917024Y-122730495D01*
X148951050Y-122792807D01*
X148953167Y-122805759D01*
X148958113Y-122850553D01*
X148960723Y-122857684D01*
X148960723Y-122857686D01*
X148983595Y-122920186D01*
X149012553Y-122999319D01*
X149100908Y-123130805D01*
X149106527Y-123135918D01*
X149106528Y-123135919D01*
X149186590Y-123208769D01*
X149218076Y-123237419D01*
X149357293Y-123313008D01*
X149510522Y-123353207D01*
X149594477Y-123354526D01*
X149661319Y-123355576D01*
X149661322Y-123355576D01*
X149668916Y-123355695D01*
X149823332Y-123320329D01*
X149893742Y-123284917D01*
X149958072Y-123252563D01*
X149958075Y-123252561D01*
X149964855Y-123249151D01*
X149970626Y-123244222D01*
X149970629Y-123244220D01*
X150079536Y-123151204D01*
X150079536Y-123151203D01*
X150085314Y-123146269D01*
X150177755Y-123017624D01*
X150236842Y-122870641D01*
X150259162Y-122713807D01*
X150259307Y-122700000D01*
X150240276Y-122542733D01*
X150184280Y-122394546D01*
X150145416Y-122337998D01*
X150098855Y-122270251D01*
X150098854Y-122270249D01*
X150094553Y-122263992D01*
X150083167Y-122253847D01*
X149981946Y-122163664D01*
X149976275Y-122158611D01*
X149968889Y-122154700D01*
X149879936Y-122107602D01*
X149836274Y-122084484D01*
X149828911Y-122082635D01*
X149828907Y-122082633D01*
X149685332Y-122046570D01*
X149626932Y-122013461D01*
X148941405Y-121327934D01*
X148907379Y-121265622D01*
X148904500Y-121238839D01*
X148904500Y-120960144D01*
X148928176Y-120886620D01*
X148977755Y-120817624D01*
X149036842Y-120670641D01*
X149059162Y-120513807D01*
X149059307Y-120500000D01*
X149040276Y-120342733D01*
X148984280Y-120194546D01*
X148894553Y-120063992D01*
X148776275Y-119958611D01*
X148768889Y-119954700D01*
X148642988Y-119888039D01*
X148642989Y-119888039D01*
X148636274Y-119884484D01*
X148482633Y-119845892D01*
X148475034Y-119845852D01*
X148475033Y-119845852D01*
X148409181Y-119845507D01*
X148324221Y-119845062D01*
X148316841Y-119846834D01*
X148316839Y-119846834D01*
X148177563Y-119880271D01*
X148177560Y-119880272D01*
X148170184Y-119882043D01*
X148029414Y-119954700D01*
X147910039Y-120058838D01*
X147818950Y-120188444D01*
X147761406Y-120336037D01*
X147740729Y-120493096D01*
X100254000Y-120493096D01*
X100254000Y-114293096D01*
X146240729Y-114293096D01*
X146258113Y-114450553D01*
X146312553Y-114599319D01*
X146400908Y-114730805D01*
X146406527Y-114735918D01*
X146406528Y-114735919D01*
X146417903Y-114746269D01*
X146518076Y-114837419D01*
X146657293Y-114913008D01*
X146810522Y-114953207D01*
X146894477Y-114954526D01*
X146961319Y-114955576D01*
X146961322Y-114955576D01*
X146968916Y-114955695D01*
X147123332Y-114920329D01*
X147193742Y-114884917D01*
X147258072Y-114852563D01*
X147258075Y-114852561D01*
X147264855Y-114849151D01*
X147270626Y-114844222D01*
X147270629Y-114844220D01*
X147379536Y-114751204D01*
X147379536Y-114751203D01*
X147385314Y-114746269D01*
X147477755Y-114617624D01*
X147536842Y-114470641D01*
X147559162Y-114313807D01*
X147559307Y-114300000D01*
X147540276Y-114142733D01*
X147484280Y-113994546D01*
X147394553Y-113863992D01*
X147346681Y-113821339D01*
X147309126Y-113761090D01*
X147304500Y-113727263D01*
X147304500Y-111873378D01*
X147324502Y-111805257D01*
X147348669Y-111777567D01*
X147379536Y-111751204D01*
X147385314Y-111746269D01*
X147477755Y-111617624D01*
X147536842Y-111470641D01*
X147559162Y-111313807D01*
X147559307Y-111300000D01*
X147540276Y-111142733D01*
X147484280Y-110994546D01*
X147394553Y-110863992D01*
X147276275Y-110758611D01*
X147268889Y-110754700D01*
X147142988Y-110688039D01*
X147142989Y-110688039D01*
X147136274Y-110684484D01*
X146982633Y-110645892D01*
X146975034Y-110645852D01*
X146975033Y-110645852D01*
X146909181Y-110645507D01*
X146824221Y-110645062D01*
X146816841Y-110646834D01*
X146816839Y-110646834D01*
X146677563Y-110680271D01*
X146677560Y-110680272D01*
X146670184Y-110682043D01*
X146529414Y-110754700D01*
X146410039Y-110858838D01*
X146318950Y-110988444D01*
X146261406Y-111136037D01*
X146260414Y-111143570D01*
X146260414Y-111143571D01*
X146244415Y-111265100D01*
X146240729Y-111293096D01*
X146258113Y-111450553D01*
X146260723Y-111457684D01*
X146260723Y-111457686D01*
X146275504Y-111498076D01*
X146312553Y-111599319D01*
X146316789Y-111605622D01*
X146316789Y-111605623D01*
X146396674Y-111724505D01*
X146396677Y-111724508D01*
X146400908Y-111730805D01*
X146423326Y-111751204D01*
X146454300Y-111779388D01*
X146491222Y-111840029D01*
X146495500Y-111872582D01*
X146495500Y-113726996D01*
X146475498Y-113795117D01*
X146452330Y-113821945D01*
X146410039Y-113858838D01*
X146318950Y-113988444D01*
X146261406Y-114136037D01*
X146240729Y-114293096D01*
X100254000Y-114293096D01*
X100254000Y-112000000D01*
X101390539Y-112000000D01*
X101410354Y-112251775D01*
X101411508Y-112256582D01*
X101411509Y-112256588D01*
X101448613Y-112411135D01*
X101469312Y-112497351D01*
X101565960Y-112730680D01*
X101697919Y-112946017D01*
X101861939Y-113138061D01*
X102053983Y-113302081D01*
X102269320Y-113434040D01*
X102273890Y-113435933D01*
X102273894Y-113435935D01*
X102498076Y-113528794D01*
X102502649Y-113530688D01*
X102588865Y-113551387D01*
X102743412Y-113588491D01*
X102743418Y-113588492D01*
X102748225Y-113589646D01*
X102836253Y-113596574D01*
X102934507Y-113604307D01*
X102934516Y-113604307D01*
X102936964Y-113604500D01*
X103063036Y-113604500D01*
X103065484Y-113604307D01*
X103065493Y-113604307D01*
X103163747Y-113596574D01*
X103251775Y-113589646D01*
X103256582Y-113588492D01*
X103256588Y-113588491D01*
X103411135Y-113551387D01*
X103497351Y-113530688D01*
X103501924Y-113528794D01*
X103726106Y-113435935D01*
X103726110Y-113435933D01*
X103730680Y-113434040D01*
X103946017Y-113302081D01*
X104138061Y-113138061D01*
X104302081Y-112946017D01*
X104434040Y-112730680D01*
X104530688Y-112497351D01*
X104551387Y-112411135D01*
X104588491Y-112256588D01*
X104588492Y-112256582D01*
X104589646Y-112251775D01*
X104609461Y-112000000D01*
X104589646Y-111748225D01*
X104588492Y-111743418D01*
X104588491Y-111743412D01*
X104531843Y-111507461D01*
X104530688Y-111502649D01*
X104517430Y-111470641D01*
X104435935Y-111273894D01*
X104435933Y-111273890D01*
X104434040Y-111269320D01*
X104302081Y-111053983D01*
X104138061Y-110861939D01*
X103946017Y-110697919D01*
X103730680Y-110565960D01*
X103726110Y-110564067D01*
X103726106Y-110564065D01*
X103501924Y-110471206D01*
X103501922Y-110471205D01*
X103497351Y-110469312D01*
X103411135Y-110448613D01*
X103256588Y-110411509D01*
X103256582Y-110411508D01*
X103251775Y-110410354D01*
X103163747Y-110403426D01*
X103065493Y-110395693D01*
X103065484Y-110395693D01*
X103063036Y-110395500D01*
X102936964Y-110395500D01*
X102934516Y-110395693D01*
X102934507Y-110395693D01*
X102836253Y-110403426D01*
X102748225Y-110410354D01*
X102743418Y-110411508D01*
X102743412Y-110411509D01*
X102588865Y-110448613D01*
X102502649Y-110469312D01*
X102498078Y-110471205D01*
X102498076Y-110471206D01*
X102273894Y-110564065D01*
X102273890Y-110564067D01*
X102269320Y-110565960D01*
X102053983Y-110697919D01*
X101861939Y-110861939D01*
X101697919Y-111053983D01*
X101565960Y-111269320D01*
X101564067Y-111273890D01*
X101564065Y-111273894D01*
X101482570Y-111470641D01*
X101469312Y-111502649D01*
X101468157Y-111507461D01*
X101411509Y-111743412D01*
X101411508Y-111743418D01*
X101410354Y-111748225D01*
X101390539Y-112000000D01*
X100254000Y-112000000D01*
X100254000Y-109173489D01*
X120240826Y-109173489D01*
X120241419Y-109180780D01*
X120241419Y-109180783D01*
X120254496Y-109341547D01*
X120255090Y-109348847D01*
X120309312Y-109516222D01*
X120400583Y-109666633D01*
X120407949Y-109674974D01*
X123819279Y-113086304D01*
X123831657Y-113100706D01*
X123844437Y-113118071D01*
X123863539Y-113134299D01*
X123884479Y-113152089D01*
X123891995Y-113159019D01*
X123897638Y-113164662D01*
X123919822Y-113182214D01*
X123923196Y-113184981D01*
X123978520Y-113231982D01*
X123985036Y-113235309D01*
X123990009Y-113238626D01*
X123995090Y-113241764D01*
X124000832Y-113246307D01*
X124066657Y-113277071D01*
X124070557Y-113278979D01*
X124128688Y-113308663D01*
X124128698Y-113308667D01*
X124135212Y-113311993D01*
X124142320Y-113313732D01*
X124147951Y-113315826D01*
X124153593Y-113317703D01*
X124160221Y-113320801D01*
X124167383Y-113322291D01*
X124167384Y-113322291D01*
X124231314Y-113335588D01*
X124235603Y-113336559D01*
X124269732Y-113344910D01*
X124306108Y-113353811D01*
X124311710Y-113354159D01*
X124311713Y-113354159D01*
X124317214Y-113354500D01*
X124317212Y-113354534D01*
X124321271Y-113354777D01*
X124325305Y-113355137D01*
X124332473Y-113356628D01*
X124339790Y-113356430D01*
X124409415Y-113354546D01*
X124412823Y-113354500D01*
X133683235Y-113354500D01*
X133702185Y-113355933D01*
X133716255Y-113358074D01*
X133716259Y-113358074D01*
X133723489Y-113359174D01*
X133730780Y-113358581D01*
X133730783Y-113358581D01*
X133775848Y-113354915D01*
X133786063Y-113354500D01*
X133794053Y-113354500D01*
X133801302Y-113353655D01*
X133822113Y-113351229D01*
X133826487Y-113350796D01*
X133891549Y-113345504D01*
X133891552Y-113345503D01*
X133898847Y-113344910D01*
X133905809Y-113342655D01*
X133911677Y-113341482D01*
X133917484Y-113340110D01*
X133924754Y-113339262D01*
X133993060Y-113314468D01*
X133997163Y-113313060D01*
X134066222Y-113290688D01*
X134072479Y-113286891D01*
X134077926Y-113284398D01*
X134083254Y-113281730D01*
X134090134Y-113279232D01*
X134150849Y-113239426D01*
X134154559Y-113237085D01*
X134211838Y-113202327D01*
X134211840Y-113202325D01*
X134216633Y-113199417D01*
X134224974Y-113192051D01*
X134224996Y-113192076D01*
X134228041Y-113189376D01*
X134231146Y-113186780D01*
X134237268Y-113182766D01*
X134290216Y-113126873D01*
X134292593Y-113124432D01*
X138062071Y-109354953D01*
X138064662Y-109352362D01*
X138146307Y-109249167D01*
X138220801Y-109089778D01*
X138256628Y-108917527D01*
X138251870Y-108741654D01*
X138206779Y-108571592D01*
X138123774Y-108416466D01*
X138007310Y-108284594D01*
X137959185Y-108250583D01*
X137869610Y-108187278D01*
X137869607Y-108187276D01*
X137863631Y-108183053D01*
X137856844Y-108180318D01*
X137856841Y-108180316D01*
X137782040Y-108150170D01*
X137700448Y-108117287D01*
X137693211Y-108116186D01*
X137533745Y-108091926D01*
X137533741Y-108091926D01*
X137526511Y-108090826D01*
X137519220Y-108091419D01*
X137519217Y-108091419D01*
X137438832Y-108097958D01*
X137351153Y-108105090D01*
X137344194Y-108107344D01*
X137344191Y-108107345D01*
X137190744Y-108157054D01*
X137190741Y-108157055D01*
X137183778Y-108159311D01*
X137177523Y-108163107D01*
X137177520Y-108163108D01*
X137038162Y-108247673D01*
X137038160Y-108247675D01*
X137033367Y-108250583D01*
X137025027Y-108257949D01*
X133474381Y-111808595D01*
X133412069Y-111842621D01*
X133385286Y-111845500D01*
X124764715Y-111845500D01*
X124696594Y-111825498D01*
X124675620Y-111808595D01*
X121504953Y-108637929D01*
X121502362Y-108635338D01*
X121399167Y-108553693D01*
X121392538Y-108550595D01*
X121392535Y-108550593D01*
X121312745Y-108513302D01*
X121239778Y-108479199D01*
X121067527Y-108443372D01*
X120891654Y-108448131D01*
X120721592Y-108493221D01*
X120566466Y-108576226D01*
X120434595Y-108692690D01*
X120333053Y-108836369D01*
X120267287Y-108999552D01*
X120266186Y-109006789D01*
X120241926Y-109166255D01*
X120241926Y-109166259D01*
X120240826Y-109173489D01*
X100254000Y-109173489D01*
X100254000Y-105000000D01*
X155390539Y-105000000D01*
X155410354Y-105251775D01*
X155411508Y-105256582D01*
X155411509Y-105256588D01*
X155448613Y-105411135D01*
X155469312Y-105497351D01*
X155565960Y-105730680D01*
X155697919Y-105946017D01*
X155861939Y-106138061D01*
X156053983Y-106302081D01*
X156269320Y-106434040D01*
X156273890Y-106435933D01*
X156273894Y-106435935D01*
X156498076Y-106528794D01*
X156502649Y-106530688D01*
X156588865Y-106551387D01*
X156743412Y-106588491D01*
X156743418Y-106588492D01*
X156748225Y-106589646D01*
X156836253Y-106596574D01*
X156934507Y-106604307D01*
X156934516Y-106604307D01*
X156936964Y-106604500D01*
X157063036Y-106604500D01*
X157065484Y-106604307D01*
X157065493Y-106604307D01*
X157163747Y-106596574D01*
X157251775Y-106589646D01*
X157256582Y-106588492D01*
X157256588Y-106588491D01*
X157411135Y-106551387D01*
X157497351Y-106530688D01*
X157501924Y-106528794D01*
X157726106Y-106435935D01*
X157726110Y-106435933D01*
X157730680Y-106434040D01*
X157946017Y-106302081D01*
X158138061Y-106138061D01*
X158302081Y-105946017D01*
X158434040Y-105730680D01*
X158530688Y-105497351D01*
X158551387Y-105411135D01*
X158588491Y-105256588D01*
X158588492Y-105256582D01*
X158589646Y-105251775D01*
X158609461Y-105000000D01*
X158589646Y-104748225D01*
X158588492Y-104743418D01*
X158588491Y-104743412D01*
X158531843Y-104507461D01*
X158530688Y-104502649D01*
X158434040Y-104269320D01*
X158302081Y-104053983D01*
X158138061Y-103861939D01*
X157946017Y-103697919D01*
X157730680Y-103565960D01*
X157726110Y-103564067D01*
X157726106Y-103564065D01*
X157501924Y-103471206D01*
X157501922Y-103471205D01*
X157497351Y-103469312D01*
X157411135Y-103448613D01*
X157256588Y-103411509D01*
X157256582Y-103411508D01*
X157251775Y-103410354D01*
X157163747Y-103403426D01*
X157065493Y-103395693D01*
X157065484Y-103395693D01*
X157063036Y-103395500D01*
X156936964Y-103395500D01*
X156934516Y-103395693D01*
X156934507Y-103395693D01*
X156836253Y-103403426D01*
X156748225Y-103410354D01*
X156743418Y-103411508D01*
X156743412Y-103411509D01*
X156588865Y-103448613D01*
X156502649Y-103469312D01*
X156498078Y-103471205D01*
X156498076Y-103471206D01*
X156273894Y-103564065D01*
X156273890Y-103564067D01*
X156269320Y-103565960D01*
X156053983Y-103697919D01*
X155861939Y-103861939D01*
X155697919Y-104053983D01*
X155565960Y-104269320D01*
X155469312Y-104502649D01*
X155468157Y-104507461D01*
X155411509Y-104743412D01*
X155411508Y-104743418D01*
X155410354Y-104748225D01*
X155390539Y-105000000D01*
X100254000Y-105000000D01*
X100254000Y-103037425D01*
X100256421Y-103012844D01*
X100258976Y-103000000D01*
X100256556Y-102987830D01*
X100256556Y-102975419D01*
X100256757Y-102975419D01*
X100255992Y-102964528D01*
X100270869Y-102699611D01*
X100272451Y-102685570D01*
X100321663Y-102395934D01*
X100324807Y-102382159D01*
X100349802Y-102295400D01*
X100406141Y-102099844D01*
X100410802Y-102086523D01*
X100523234Y-101815088D01*
X100529363Y-101802361D01*
X100671474Y-101545232D01*
X100678991Y-101533269D01*
X100848994Y-101293671D01*
X100857804Y-101282623D01*
X101053570Y-101063561D01*
X101063561Y-101053570D01*
X101282623Y-100857804D01*
X101293671Y-100848994D01*
X101533269Y-100678991D01*
X101545232Y-100671474D01*
X101713477Y-100578488D01*
X101802365Y-100529361D01*
X101815088Y-100523234D01*
X102086523Y-100410802D01*
X102099844Y-100406141D01*
X102295400Y-100349802D01*
X102382159Y-100324807D01*
X102395934Y-100321663D01*
X102540752Y-100297057D01*
X102685575Y-100272450D01*
X102699607Y-100270870D01*
X102964531Y-100255992D01*
X102975419Y-100256757D01*
X102975419Y-100256556D01*
X102987830Y-100256556D01*
X103000000Y-100258976D01*
X103012847Y-100256421D01*
X103037425Y-100254000D01*
X156962575Y-100254000D01*
X156987153Y-100256421D01*
G37*
%TD.AperFunction*%
%TD*%
M02*
